<?xml version="1.0" encoding="utf-8"?>
<!-- Generator: Adobe Illustrator 27.1.1, SVG Export Plug-In . SVG Version: 6.00 Build 0)  -->
<svg version="1.1" id="Layer_1" xmlns="http://www.w3.org/2000/svg" xmlns:xlink="http://www.w3.org/1999/xlink" x="0px" y="0px"
	 viewBox="0 0 40 100" style="enable-background:new 0 0 40 100;" xml:space="preserve">
<style type="text/css">
	.st0{fill:#F3B799;}
	.st1{fill:#58595B;}
	.st2{fill:#BBBDBF;}
	.st3{fill:#FFFFFF;}
</style>
<g>
	<path class="st0" d="M35.8,34.3c-4.7,0.1-5.1,3.1-4.9,4.5c1.6,12.3-5.1,20.5-10.9,20.5c-5.8,0-12.5-8.2-10.9-20.5
		c0.2-1.5-0.2-4.4-4.9-4.5c-3.1,0-3.4,2.2-3.4,5.4c0,3.2,0.1,3.9,0.5,6.4C3,54.6,6.8,65.7,20,65.7c13.2,0,17-11.1,18.7-19.7
		c0.5-2.5,0.5-3.2,0.5-6.4C39.2,36.4,39,34.2,35.8,34.3z"/>
	<g>
		<path class="st1" d="M20,65.9C20,65.9,20,65.9,20,65.9c-3.1,0-5.9-0.6-8.3-1.9c-2.1-1.1-3.9-2.7-5.5-4.8C3.2,55,1.9,49.7,1.2,46
			c-0.5-2.5-0.5-3.2-0.5-6.4c0-1.9,0.1-3.8,1.1-4.7c0.6-0.6,1.4-0.8,2.5-0.8c1.9,0,3.3,0.5,4.2,1.5c1,1.2,0.9,2.6,0.9,3.2
			c-0.9,6.7,0.7,12.8,4.2,16.8c1.9,2.2,4.3,3.5,6.6,3.5c2.2,0,4.6-1.3,6.6-3.5c3.5-4,5-10.1,4.2-16.8c-0.1-0.6-0.1-2,0.9-3.2
			c0.9-1,2.3-1.5,4.2-1.5c0,0,0.1,0,0.1,0c1.1,0,1.9,0.3,2.4,0.8c1,1,1.1,2.8,1.1,4.7c0,3.2-0.1,3.9-0.5,6.4c-0.7,3.6-2,9-5,13.2
			c-1.5,2.1-3.4,3.7-5.5,4.8C25.9,65.3,23.1,65.9,20,65.9z M4.1,34.4c-1,0-1.7,0.2-2.2,0.7C1,36,1,37.8,1,39.6
			c0,3.2,0.1,3.9,0.5,6.3C3.1,54.4,6.8,65.6,20,65.6c13.2,0,16.9-11.2,18.5-19.6c0.5-2.5,0.5-3.2,0.5-6.3c0-1.9-0.1-3.6-0.9-4.5
			c-0.5-0.5-1.2-0.7-2.2-0.7c-1.8,0-3.2,0.5-3.9,1.4c-0.9,1-0.8,2.4-0.8,2.9c0.5,3.6,0.3,6.9-0.6,10c-0.8,2.8-2,5.2-3.7,7.1
			c-2,2.3-4.5,3.6-6.8,3.6c-2.3,0-4.8-1.3-6.8-3.6c-1.6-1.9-2.9-4.3-3.7-7.1c-0.9-3.1-1.1-6.5-0.6-10C9,38.2,9,36.9,8.1,35.8
			C7.3,34.9,6,34.5,4.1,34.4C4.1,34.4,4.1,34.4,4.1,34.4z"/>
	</g>
	<g>
		<g>
			<path class="st2" d="M29.7,56.9c0-0.3-0.2-0.9,0-0.9c0.2,0,0,0.9,0.4,0.9c0.7-0.1,0.8,0,0.6,0.1c-0.1,0.1-0.7,0.1-0.9,0.4
				c-0.1,0.4-0.3,0.7-0.4,0.9c-0.1,0.1-0.4,0.1-0.4-0.1s-0.3-0.1-0.7-0.1c-0.4,0-0.2-0.3,0.2-0.4C29.1,57.6,29.7,57.5,29.7,56.9z"/>
		</g>
		<g>
			<g>
				<path class="st3" d="M33.6,46.4c0,0-0.3-0.5-0.3-2.2c0-1.7,0-2.7,1.5-2.6c1.6,0,2.2,0,2.5,0.8c0.3,0.7,0.6,1.6,0.3,2.1
					c-0.3,0.4-0.3,0.6-0.3,1.1c0,0.5-0.4,1.6-1.2,1.7C35.2,47.3,33.9,46.9,33.6,46.4z"/>
			</g>
			<g>
				<path class="st2" d="M36,42.5c0,0.3-0.4,0.7,0,0.8c0.4,0.1,0.7,0,0.8,0.2c0.1,0.2-0.2,0.1-0.5,0.1c-0.3,0-0.8,0.1-0.6,0.6
					c0.2,0.5,0.8,1.1,0.6,0.9c-0.3-0.1-0.6-0.7-0.8-0.5c-0.2,0.2-0.3,0.1-0.3,0.5c0,0.4-0.1,1-0.2,0.5c-0.1-0.5,0.2-1.5-0.7-1.8
					c-0.9-0.3-0.1-0.2,0.3-0.1c0.3,0.1,0.7,1,0.8,0.3C35.4,43.4,35.9,41.8,36,42.5z"/>
			</g>
			<g>
				<path class="st1" d="M35.7,47.4c-0.8,0-1.9-0.5-2.3-0.9c0-0.1-0.4-0.6-0.4-2.3l0-0.1c0-0.8,0-1.5,0.2-1.9
					c0.2-0.5,0.7-0.8,1.5-0.8c0,0,0,0,0.1,0l0.1,0c1.5,0,2.2,0,2.6,0.9c0.5,1.1,0.5,1.8,0.2,2.2c-0.3,0.4-0.3,0.5-0.3,1l0,0
					c0,0.6-0.5,1.7-1.4,1.9C35.9,47.4,35.8,47.4,35.7,47.4z M34.7,41.8c-0.8,0-1,0.3-1.1,0.5c-0.2,0.4-0.2,1-0.2,1.8l0,0.1
					c0,1.6,0.3,2.1,0.3,2.1c0.3,0.3,1.2,0.8,2,0.8c0.1,0,0.2,0,0.2,0c0.7-0.1,1-1,1.1-1.5l0,0c0-0.5,0-0.7,0.4-1.2
					c0.2-0.3,0.1-1-0.3-1.9c-0.3-0.6-0.7-0.6-2.3-0.7L34.7,41.8C34.7,41.8,34.7,41.8,34.7,41.8z"/>
			</g>
		</g>
		<g>
			<g>
				<path class="st3" d="M36.5,47.3c-0.3-0.4-0.8-0.4-1.2-0.5c-0.5-0.2-1.1-0.4-1.5-0.2c-0.7,0.3-1.6,0.7-1.7,2.1
					c-0.1,1.5-0.2,2.2,0.4,2.5l0,0c0.5,0,1,0.1,1.5,0.4l0,0c0,0,1.1,0.5,1.6-0.1c0.5-0.6,0.4-1.7,0.7-2.1C36.7,49,37,47.8,36.5,47.3
					z"/>
			</g>
			<g>
				<path class="st2" d="M34.7,47.7c0-0.2-0.5-0.6-0.5-0.4c0,0.2,0.3,0.1,0.2,0.4c-0.1,0.3-0.2,1-0.4,0.9c-0.2-0.1-0.7-0.3-0.8-0.3
					c-0.2,0-0.2,0.1,0.2,0.2c0.4,0.1,0.7,0.4,0.6,0.8c-0.2,0.4-0.3,1.1-0.2,1.3c0.1,0.3,0.1,0.1,0.2-0.5c0.1-0.7,0.3-1,0.7-1.1
					C35,49,35.3,49,35.6,49c0.3,0,0-0.2-0.4-0.2s-0.7,0.1-0.4-0.4c0.3-0.4,0.8-0.7,0.6-0.7C35.2,47.6,34.6,48.3,34.7,47.7z"/>
			</g>
			<g>
				<path class="st1" d="M34.9,51.9C34.9,51.9,34.9,51.9,34.9,51.9c-0.4,0-0.9-0.2-0.9-0.2c0,0,0,0,0,0c-0.4-0.3-0.9-0.4-1.4-0.4
					c-0.1,0-0.1,0-0.1-0.1c0,0,0,0,0,0c-0.7-0.3-0.6-1.1-0.5-2.5l0-0.1c0.1-1.5,1-1.9,1.8-2.3l0,0c0.1-0.1,0.3-0.1,0.4-0.1
					c0.3,0,0.6,0.1,0.9,0.2c0.1,0,0.2,0.1,0.2,0.1c0.1,0,0.2,0.1,0.3,0.1c0.3,0.1,0.7,0.2,0.9,0.5c0.6,0.7,0.3,1.9-0.1,2.3
					c-0.1,0.1-0.2,0.5-0.3,0.8c-0.1,0.4-0.2,0.9-0.5,1.3C35.5,51.8,35.2,51.9,34.9,51.9z M34.1,51.4c0.1,0,0.4,0.2,0.8,0.2
					c0,0,0,0,0,0c0.3,0,0.5-0.1,0.6-0.2c0.2-0.3,0.3-0.7,0.4-1.1c0.1-0.4,0.1-0.7,0.3-1c0.3-0.3,0.6-1.4,0.1-1.9
					c-0.2-0.2-0.4-0.3-0.7-0.3c-0.1,0-0.2-0.1-0.4-0.1c-0.1,0-0.2-0.1-0.3-0.1c-0.3-0.1-0.6-0.2-0.8-0.2c-0.1,0-0.2,0-0.3,0.1l0,0
					c-0.7,0.3-1.5,0.6-1.6,2l0,0.1c-0.1,1.4-0.1,2,0.3,2.2c0,0,0,0,0,0C33.1,51,33.6,51.1,34.1,51.4z"/>
			</g>
		</g>
		<g>
			<g>
				<path class="st3" d="M30.5,55.3c-0.2-0.1-0.5-2.3,0.5-3.3c0.3-0.3,0.4-0.6,0.7-0.7c0.8-0.4,2-0.2,2.7,0.5
					c0.3,0.3,0.5,0.6,0.6,0.9c0.1,0.9-0.7,1.7-0.7,1.7s-0.9,2.5-2.6,1.7S30.5,55.3,30.5,55.3z"/>
			</g>
			<g>
				<path class="st2" d="M32.5,53c0-0.4-0.4-0.5-0.2-0.6c0.1,0,0.3,0.3,0.5,0.3c0.2-0.1,0.8-0.2,0.5,0c-0.3,0.2-0.6,0.3-0.6,0.8
					c0,0.5-0.1,0.6-0.2,0.6c-0.1,0-0.2,0.6,0.1,0.6c0.2,0,0.1,0.2-0.2,0.1c-0.3-0.1-0.2-0.4-0.4-0.4s-0.3-0.1-0.2-0.2
					C31.9,54.1,32.5,53.9,32.5,53z"/>
			</g>
			<g>
				<path class="st1" d="M32.3,56.6c-0.2,0-0.5-0.1-0.7-0.2c-1.3-0.6-1.4-0.9-1.4-1c0,0,0,0,0,0c0-0.1,0-0.1-0.1-0.2
					c-0.1-0.5-0.3-2.3,0.7-3.2c0.1-0.1,0.2-0.2,0.3-0.3c0.1-0.2,0.3-0.4,0.5-0.5c0.3-0.2,0.6-0.2,1-0.2c0.7,0,1.4,0.3,1.9,0.8
					c0.3,0.3,0.6,0.6,0.6,1.1c0.1,0.8-0.6,1.7-0.7,1.8C34.3,54.9,33.6,56.6,32.3,56.6z M30.6,55.4c0.1,0.1,0.3,0.3,1.1,0.7
					c0.2,0.1,0.4,0.1,0.6,0.1c1.1,0,1.8-1.7,1.8-1.8c0,0,0,0,0-0.1c0,0,0.7-0.8,0.7-1.6c0-0.3-0.2-0.6-0.5-0.8
					c-0.4-0.4-1.1-0.7-1.7-0.7c-0.3,0-0.6,0.1-0.8,0.2c-0.2,0.1-0.3,0.2-0.4,0.4c-0.1,0.1-0.2,0.2-0.3,0.3c-0.9,0.8-0.6,2.7-0.5,3
					C30.6,55.2,30.6,55.3,30.6,55.4C30.6,55.4,30.6,55.4,30.6,55.4z"/>
			</g>
		</g>
		<g>
			<g>
				<path class="st3" d="M28.1,59.3c-0.6-0.5-0.8-0.9-0.5-1.6c0.3-0.8,1-2.7,2.6-2.4c1.5,0.4,1.8,1.2,1.6,2
					C31.6,58,30.5,61.3,28.1,59.3z"/>
			</g>
			<g>
				<path class="st2" d="M29.8,57.1c0-0.3-0.2-0.9,0-0.9c0.2,0,0,0.9,0.4,0.9c0.7-0.1,0.8,0,0.6,0.1c-0.1,0.1-0.7,0.1-0.9,0.4
					c-0.1,0.4-0.2,0.7-0.4,0.9c-0.4,0.3-0.7,0.5-0.4-0.1c0.3-0.6-0.3-0.1-0.7-0.1c-0.4,0-0.2-0.3,0.2-0.4
					C29.2,57.7,29.8,57.6,29.8,57.1z"/>
			</g>
			<g>
				<path class="st1" d="M29.6,60.1c-0.5,0-1-0.2-1.6-0.7c-0.6-0.5-0.9-1-0.5-1.8c0-0.1,0.1-0.1,0.1-0.2c0.3-0.8,1-2.3,2.3-2.3
					c0.1,0,0.3,0,0.4,0c1.8,0.4,1.9,1.6,1.8,2.2C31.8,58,31.1,60.1,29.6,60.1z M29.8,55.4c-1.1,0-1.6,1.4-2,2.1
					c0,0.1-0.1,0.1-0.1,0.2c-0.3,0.7-0.1,1,0.4,1.4c0.5,0.4,1,0.6,1.4,0.6c1.3,0,2-2,2-2.5c0.2-0.9-0.3-1.5-1.5-1.8
					C30,55.4,29.9,55.4,29.8,55.4z"/>
			</g>
		</g>
		<g>
			<g>
				<path class="st3" d="M25.8,61.4c-0.1-0.1-0.2-1.3,0.3-2c0.5-0.7,1.3-0.8,2-0.1c0.7,0.7,1.3,2.3,0.9,2.7
					C28.7,62.4,26.3,62.4,25.8,61.4z"/>
			</g>
			<g>
				<path class="st1" d="M27.9,62.4c-0.8,0-1.9-0.2-2.2-0.9c-0.1-0.2-0.3-1.5,0.3-2.2c0.3-0.4,0.7-0.7,1.2-0.7
					c0.4,0,0.8,0.2,1.1,0.5c0.6,0.7,1.4,2.4,0.9,2.9C28.9,62.4,28.1,62.4,27.9,62.4z M26,61.3c0.3,0.5,1.2,0.7,1.9,0.7
					c0.5,0,0.9-0.1,1-0.2c0.2-0.3-0.3-1.7-0.9-2.5c-0.2-0.3-0.5-0.4-0.8-0.4c-0.3,0-0.6,0.2-0.9,0.5C25.8,60.1,25.9,61.2,26,61.3z"
					/>
			</g>
		</g>
		<g>
			<g>
				<path class="st3" d="M25.3,63.6c-0.9,0.4-2,0.5-1.9-0.1c0.3-1.2,0-2.6,0.6-2.9c1.1-0.5,1.7,0.8,2.5,1.6
					C26.9,62.6,26.1,63.2,25.3,63.6z"/>
			</g>
			<g>
				<path class="st1" d="M24,64.1c-0.3,0-0.6-0.1-0.7-0.2c-0.1-0.1-0.1-0.2-0.1-0.4c0.1-0.5,0.2-1,0.2-1.5c0-0.7,0.1-1.4,0.5-1.6
					c0.2-0.1,0.4-0.1,0.6-0.1c0.6,0,1.1,0.5,1.5,1.1c0.2,0.2,0.4,0.5,0.6,0.7c0.2,0.1,0.2,0.3,0.2,0.5c-0.1,0.5-0.8,1-1.4,1.3
					C24.9,64,24.4,64.1,24,64.1z M24.5,60.6c-0.1,0-0.3,0-0.4,0.1c-0.2,0.1-0.3,0.7-0.3,1.3c0,0.5-0.1,1-0.2,1.5c0,0.1,0,0.1,0,0.1
					c0,0,0.2,0.1,0.4,0.1c0.4,0,0.8-0.1,1.2-0.3c0.7-0.3,1.2-0.7,1.2-1c0,0,0-0.1-0.1-0.2c-0.2-0.2-0.5-0.5-0.7-0.7
					C25.3,61.1,24.9,60.6,24.5,60.6z"/>
			</g>
		</g>
		<g>
			<g>
				<path class="st3" d="M21.8,64.5c-0.9,0.1-2-0.1-1.7-0.7c0.6-1,0.5-2.5,1.3-2.6c0.8-0.1,1.1,1.4,1.9,2.2
					C23.7,63.9,22.7,64.4,21.8,64.5z"/>
			</g>
			<g>
				<path class="st1" d="M21.4,64.7c-0.6,0-1.3-0.1-1.5-0.5c-0.1-0.1-0.1-0.3,0-0.5c0.2-0.4,0.4-0.8,0.5-1.3c0.2-0.7,0.4-1.3,1-1.4
					c0,0,0.1,0,0.1,0c0.5,0,0.8,0.6,1.2,1.2c0.2,0.4,0.5,0.8,0.8,1.1c0.1,0.1,0.2,0.3,0.1,0.5c-0.2,0.5-1.1,0.8-1.8,0.9
					C21.7,64.7,21.5,64.7,21.4,64.7z M21.5,61.4C21.5,61.4,21.4,61.4,21.5,61.4c-0.4,0.1-0.6,0.6-0.8,1.2c-0.1,0.4-0.3,0.9-0.5,1.4
					c0,0.1,0,0.1,0,0.1c0.1,0.1,0.5,0.3,1.2,0.3c0.1,0,0.3,0,0.4,0c0.7-0.1,1.4-0.4,1.5-0.6c0,0,0-0.1,0-0.1
					c-0.3-0.4-0.6-0.8-0.8-1.2C22.1,61.9,21.8,61.4,21.5,61.4z"/>
			</g>
		</g>
		<g>
			<g>
				<path class="st3" d="M37.3,41.2c0.5-0.6,0.5-1.9,0.5-2.5c0-0.6,0.2-1.9-1.2-2c-1.3-0.1-1.9-0.2-2.9,0.4c-1,0.6-0.8,2.3-0.8,3.3
					c0,1,1.1,1.4,1.1,1.4l0,0.1c0.2-0.1,0.5-0.1,0.9-0.1c0.9,0,1.5,0,1.9,0.2l0,0C36.6,41.7,36.7,41.7,37.3,41.2z"/>
			</g>
			<g>
				<path class="st1" d="M36.6,41.9C36.6,41.9,36.6,41.9,36.6,41.9c-0.4-0.1-1-0.1-1.8-0.2l0,0c-0.3,0-0.6,0-0.8,0.1
					c-0.1,0-0.1,0-0.2,0c0,0-0.1-0.1-0.1-0.1c-0.3-0.1-1.1-0.6-1.1-1.5c0-0.1,0-0.2,0-0.4c0-1-0.1-2.5,0.9-3.1
					c0.6-0.3,1.1-0.5,1.8-0.5c0.4,0,0.8,0,1.2,0.1c1.5,0.1,1.4,1.4,1.4,2c0,0.1,0,0.1,0,0.2c0,0.1,0,0.2,0,0.3c0,0.7,0,1.8-0.5,2.3
					c-0.3,0.3-0.5,0.5-0.6,0.5C36.8,41.9,36.8,41.9,36.6,41.9C36.7,41.9,36.7,41.9,36.6,41.9z M34.7,41.4
					C34.7,41.4,34.7,41.4,34.7,41.4l0.1,0c0.8,0,1.4,0,1.8,0.1c0,0,0,0,0,0c0,0,0.2-0.1,0.5-0.5c0.4-0.4,0.4-1.4,0.4-2.1
					c0-0.1,0-0.2,0-0.3c0-0.1,0-0.1,0-0.2c0-0.8,0-1.5-1-1.7c-0.5,0-0.9-0.1-1.2-0.1c-0.6,0-1,0.1-1.6,0.4C33,37.6,33,38.9,33,39.9
					c0,0.1,0,0.3,0,0.4c0,0.8,0.9,1.2,0.9,1.2c0,0,0,0,0,0C34.2,41.4,34.4,41.4,34.7,41.4z"/>
			</g>
			<g>
				<path class="st2" d="M35.7,37.8c0.2-0.3,0.6-0.3,0.5-0.4c-0.2,0.1-0.8,0.5-1,0.2c-0.2-0.3-0.7-0.5-0.5-0.2s0.2,0.9,0.2,1.2
					c0,0.3,0.4,0.7,0,0.6c-0.3,0-0.5-0.1-0.6-0.2c-0.1-0.1-0.3-0.2-0.2-0.1c0.1,0.1,0.6,0.4,0.8,0.5c0.3,0.1,0.2,0.2,0.1,0.4
					c-0.1,0.2-0.6,0.8-0.4,0.9c0.2,0.1,0.4-0.4,0.5-0.3c0.1,0.1,0.8,0.7,1.3,0.7c0.1,0-0.2-0.1-0.3-0.2c-0.1-0.1-1-0.5-0.7-1
					s0.4-0.6,0.6-0.6c0.1,0,0.3-0.1,0-0.3C35.6,38.7,35.4,38.3,35.7,37.8z"/>
			</g>
		</g>
		<g>
			<path class="st2" d="M10.3,56.9c0-0.3,0.2-0.9,0-0.9c-0.2,0,0,0.9-0.4,0.9c-0.7-0.1-0.8,0-0.6,0.1c0.1,0.1,0.7,0.1,0.9,0.4
				c0.1,0.4,0.3,0.7,0.4,0.9c0.1,0.1,0.4,0.1,0.4-0.1s0.3-0.1,0.7-0.1c0.4,0,0.2-0.3-0.2-0.4C10.9,57.6,10.3,57.5,10.3,56.9z"/>
		</g>
		<g>
			<g>
				<path class="st3" d="M6.4,46.4c0,0,0.3-0.5,0.3-2.2c0-1.7,0-2.7-1.5-2.6c-1.6,0-2.2,0-2.5,0.8c-0.3,0.7-0.6,1.6-0.3,2.1
					c0.3,0.4,0.3,0.6,0.3,1.1c0,0.5,0.4,1.6,1.2,1.7C4.8,47.3,6.1,46.9,6.4,46.4z"/>
			</g>
			<g>
				<path class="st2" d="M4,42.5c0,0.3,0.4,0.7,0,0.8c-0.4,0.1-0.7,0-0.8,0.2c-0.1,0.2,0.2,0.1,0.5,0.1s0.8,0.1,0.6,0.6
					c-0.2,0.5-0.8,1.1-0.6,0.9c0.3-0.1,0.6-0.7,0.8-0.5c0.2,0.2,0.3,0.1,0.3,0.5c0,0.4,0.1,1,0.2,0.5c0.1-0.5-0.2-1.5,0.7-1.8
					s0.1-0.2-0.3-0.1c-0.3,0.1-0.7,1-0.8,0.3C4.6,43.4,4.1,41.8,4,42.5z"/>
			</g>
			<g>
				<path class="st1" d="M4.3,47.4C4.3,47.4,4.3,47.4,4.3,47.4c-0.1,0-0.2,0-0.3,0c-0.9-0.1-1.3-1.3-1.4-1.9l0,0c0-0.5,0-0.6-0.3-1
					c-0.3-0.4-0.2-1.2,0.2-2.2c0.4-0.8,1.1-0.8,2.6-0.9l0.1,0c0,0,0,0,0.1,0c0.8,0,1.2,0.2,1.5,0.8c0.2,0.5,0.2,1.1,0.2,1.9l0,0.1
					c0,1.7-0.3,2.2-0.4,2.3C6.2,47,5.1,47.4,4.3,47.4z M5.3,41.8C5.3,41.8,5.3,41.8,5.3,41.8l-0.1,0c-1.6,0-2,0.1-2.3,0.7
					c-0.4,0.9-0.5,1.6-0.3,1.9C3,44.8,3,45,3,45.5l0,0C3,46,3.4,47,4.1,47.1c0.1,0,0.1,0,0.2,0c0,0,0,0,0,0c0.7,0,1.7-0.4,2-0.8
					c0,0,0.3-0.5,0.3-2.1l0-0.1c0-0.8,0-1.4-0.2-1.8C6.3,42,6.1,41.8,5.3,41.8z"/>
			</g>
		</g>
		<g>
			<g>
				<path class="st3" d="M3.5,47.3c0.3-0.4,0.8-0.4,1.2-0.5c0.5-0.2,1.1-0.4,1.5-0.2c0.7,0.3,1.6,0.7,1.7,2.1
					c0.1,1.5,0.2,2.2-0.4,2.5l0,0c-0.5,0-1,0.1-1.5,0.4l0,0c0,0-1.1,0.5-1.6-0.1c-0.5-0.6-0.4-1.7-0.7-2.1C3.3,49,3,47.8,3.5,47.3z"
					/>
			</g>
			<g>
				<path class="st2" d="M5.3,47.7c0-0.2,0.5-0.6,0.5-0.4c0,0.2-0.3,0.1-0.2,0.4s0.2,1,0.4,0.9c0.2-0.1,0.7-0.3,0.8-0.3
					c0.2,0,0.2,0.1-0.2,0.2C6.2,48.7,5.9,49,6,49.4c0.2,0.4,0.3,1.1,0.2,1.3C6.1,51,6.1,50.9,6,50.2c-0.1-0.7-0.3-1-0.7-1.1
					C5,49,4.7,49,4.4,49c-0.3,0,0-0.2,0.4-0.2c0.4,0,0.7,0.1,0.4-0.4C5,48,4.5,47.8,4.6,47.7C4.8,47.6,5.4,48.3,5.3,47.7z"/>
			</g>
			<g>
				<path class="st1" d="M5.1,51.9c-0.4,0-0.7-0.1-0.9-0.4c-0.3-0.4-0.4-0.9-0.5-1.3c-0.1-0.3-0.1-0.6-0.3-0.8
					c-0.4-0.5-0.7-1.7-0.1-2.3c0.3-0.3,0.6-0.4,0.9-0.5c0.1,0,0.2-0.1,0.3-0.1c0.1,0,0.2-0.1,0.2-0.1c0.3-0.1,0.6-0.2,0.9-0.2
					c0.2,0,0.3,0,0.4,0.1l0,0C7,46.7,8,47.1,8.1,48.6l0,0.1c0.1,1.4,0.2,2.2-0.5,2.5c0,0,0,0,0,0c0,0-0.1,0.1-0.1,0.1
					c-0.5,0-1,0.1-1.4,0.4c0,0,0,0,0,0C6,51.7,5.6,51.9,5.1,51.9z M5.9,46.6c-0.2,0-0.5,0.1-0.8,0.2c-0.1,0-0.2,0.1-0.3,0.1
					C4.7,47,4.5,47,4.4,47c-0.3,0.1-0.6,0.1-0.7,0.3c-0.5,0.5-0.2,1.5,0.1,1.9c0.2,0.2,0.3,0.6,0.3,1c0.1,0.4,0.2,0.8,0.4,1.1
					c0.1,0.2,0.3,0.2,0.6,0.2c0.4,0,0.7-0.2,0.8-0.2c0.4-0.3,1-0.4,1.5-0.4c0,0,0,0,0,0c0.5-0.2,0.4-0.8,0.3-2.2l0-0.1
					c-0.1-1.3-0.8-1.7-1.6-2l0,0C6.1,46.7,6,46.6,5.9,46.6z"/>
			</g>
		</g>
		<g>
			<g>
				<path class="st3" d="M9.5,55.3c0.2-0.1,0.5-2.3-0.5-3.3c-0.3-0.3-0.4-0.6-0.7-0.7c-0.8-0.4-2-0.2-2.7,0.5
					c-0.3,0.3-0.5,0.6-0.6,0.9c-0.1,0.9,0.7,1.7,0.7,1.7s0.9,2.5,2.6,1.7C10,55.4,9.5,55.3,9.5,55.3z"/>
			</g>
			<g>
				<path class="st2" d="M7.5,53c0-0.4,0.4-0.5,0.2-0.6c-0.1,0-0.3,0.3-0.5,0.3c-0.2-0.1-0.8-0.2-0.5,0C6.9,53,7.2,53,7.3,53.5
					c0,0.5,0.1,0.6,0.2,0.6c0.1,0,0.2,0.6-0.1,0.6c-0.2,0-0.1,0.2,0.2,0.1c0.3-0.1,0.2-0.4,0.4-0.4c0.2,0,0.3-0.1,0.2-0.2
					C8.1,54.1,7.5,53.9,7.5,53z"/>
			</g>
			<g>
				<path class="st1" d="M7.7,56.6c-1.3,0-2-1.7-2.1-2c-0.1-0.2-0.8-1-0.7-1.8c0-0.4,0.3-0.8,0.6-1.1C6,51.2,6.7,51,7.4,51
					c0.4,0,0.7,0.1,1,0.2c0.2,0.1,0.4,0.3,0.5,0.5C9,51.8,9.1,51.9,9.2,52c0.9,0.8,0.8,2.6,0.7,3.2c0,0.1,0,0.2-0.1,0.2c0,0,0,0,0,0
					c0,0.2-0.1,0.4-1.4,1C8.2,56.5,7.9,56.6,7.7,56.6z M7.4,51.3c-0.6,0-1.2,0.3-1.7,0.7c-0.3,0.3-0.5,0.5-0.5,0.8
					c-0.1,0.8,0.7,1.6,0.7,1.6c0,0,0,0,0,0.1c0,0,0.7,1.8,1.8,1.8c0.2,0,0.4,0,0.6-0.1c0.8-0.4,1.1-0.6,1.1-0.7c0,0,0,0,0-0.1
					c0-0.1,0-0.1,0.1-0.1c0.1-0.3,0.4-2.2-0.5-3c-0.1-0.1-0.2-0.2-0.3-0.3c-0.1-0.2-0.2-0.3-0.4-0.4C8,51.4,7.7,51.3,7.4,51.3z"/>
			</g>
		</g>
		<g>
			<g>
				<path class="st3" d="M11.9,59.3c0.6-0.5,0.8-0.9,0.5-1.6c-0.3-0.8-1-2.7-2.6-2.4c-1.5,0.4-1.8,1.2-1.6,2
					C8.4,58,9.5,61.3,11.9,59.3z"/>
			</g>
			<g>
				<path class="st2" d="M10.2,57.1c0-0.3,0.2-0.9,0-0.9c-0.2,0,0,0.9-0.4,0.9C9.1,57,9,57,9.1,57.2c0.1,0.1,0.7,0.1,0.9,0.4
					c0.1,0.4,0.2,0.7,0.4,0.9c0.4,0.3,0.7,0.5,0.4-0.1c-0.3-0.6,0.3-0.1,0.7-0.1c0.4,0,0.2-0.3-0.2-0.4
					C10.8,57.7,10.2,57.6,10.2,57.1z"/>
			</g>
			<g>
				<path class="st1" d="M10.4,60.1C10.4,60.1,10.4,60.1,10.4,60.1c-1.5,0-2.3-2.1-2.4-2.8c-0.1-0.6,0-1.8,1.8-2.2
					c0.1,0,0.3,0,0.4,0c1.3,0,1.9,1.5,2.3,2.3c0,0.1,0.1,0.1,0.1,0.2c0.4,0.9,0.1,1.3-0.5,1.8C11.5,59.9,10.9,60.1,10.4,60.1z
					 M10.2,55.4c-0.1,0-0.2,0-0.3,0c-1.2,0.3-1.7,0.9-1.5,1.8c0.1,0.5,0.7,2.5,2,2.5c0,0,0,0,0,0c0.4,0,0.9-0.2,1.4-0.6
					c0.5-0.4,0.7-0.7,0.4-1.4c0-0.1-0.1-0.1-0.1-0.2C11.8,56.8,11.2,55.4,10.2,55.4z"/>
			</g>
		</g>
		<g>
			<g>
				<path class="st3" d="M14.2,61.4c0.1-0.1,0.2-1.3-0.3-2c-0.5-0.7-1.3-0.8-2-0.1C11.3,60,10.6,61.6,11,62
					C11.3,62.4,13.7,62.4,14.2,61.4z"/>
			</g>
			<g>
				<path class="st1" d="M12.1,62.4C12.1,62.4,12.1,62.4,12.1,62.4c-0.2,0-1,0-1.3-0.3c-0.5-0.5,0.3-2.3,0.9-2.9
					c0.3-0.4,0.7-0.5,1.1-0.5c0.4,0,0.9,0.2,1.2,0.7c0.6,0.8,0.4,2.1,0.3,2.2C14,62.2,13,62.4,12.1,62.4z M12.9,59
					c-0.3,0-0.6,0.1-0.8,0.4c-0.7,0.8-1.2,2.2-0.9,2.5c0.1,0.1,0.5,0.2,1,0.2c0,0,0,0,0,0c0.8,0,1.6-0.2,1.9-0.7
					c0.1-0.2,0.2-1.3-0.3-1.8C13.5,59.2,13.2,59,12.9,59z"/>
			</g>
		</g>
		<g>
			<g>
				<path class="st3" d="M14.7,63.6c0.9,0.4,2,0.5,1.9-0.1c-0.3-1.2,0-2.6-0.6-2.9c-1.1-0.5-1.7,0.8-2.5,1.6
					C13.1,62.6,13.9,63.2,14.7,63.6z"/>
			</g>
			<g>
				<path class="st1" d="M16,64.1C16,64.1,16,64.1,16,64.1c-0.4,0-0.9-0.1-1.4-0.3c-0.6-0.3-1.4-0.8-1.4-1.3c0-0.2,0-0.4,0.2-0.5
					c0.2-0.2,0.4-0.5,0.6-0.7c0.4-0.5,0.9-1.1,1.5-1.1c0.2,0,0.4,0,0.6,0.1c0.4,0.2,0.4,0.8,0.5,1.6c0,0.5,0.1,1,0.2,1.5
					c0.1,0.2,0,0.3-0.1,0.4C16.6,64,16.4,64.1,16,64.1z M15.5,60.6c-0.5,0-0.8,0.4-1.2,0.9c-0.2,0.3-0.4,0.5-0.7,0.7
					c-0.1,0.1-0.1,0.1-0.1,0.2c0,0.3,0.6,0.7,1.2,1c0.4,0.2,0.9,0.3,1.2,0.3c0.2,0,0.4,0,0.4-0.1c0,0,0,0,0-0.1
					c-0.1-0.5-0.2-1-0.2-1.5c0-0.6-0.1-1.2-0.3-1.3C15.8,60.7,15.7,60.6,15.5,60.6z"/>
			</g>
		</g>
		<g>
			<g>
				<path class="st3" d="M18.2,64.5c0.9,0.1,2-0.1,1.7-0.7c-0.6-1-0.5-2.5-1.3-2.6c-0.8-0.1-1.1,1.4-1.9,2.2
					C16.3,63.9,17.3,64.4,18.2,64.5z"/>
			</g>
			<g>
				<path class="st1" d="M18.6,64.7C18.6,64.7,18.6,64.7,18.6,64.7c-0.2,0-0.3,0-0.4,0c-0.6-0.1-1.6-0.4-1.8-0.9
					c-0.1-0.2,0-0.3,0.1-0.5c0.3-0.3,0.5-0.7,0.8-1.1c0.3-0.6,0.6-1.2,1.2-1.2c0,0,0.1,0,0.1,0c0.6,0.1,0.8,0.7,1,1.4
					c0.1,0.4,0.3,0.9,0.5,1.3c0.1,0.2,0.1,0.3,0,0.5C19.9,64.6,19.2,64.7,18.6,64.7z M18.5,61.4c-0.3,0-0.6,0.5-0.9,1
					c-0.2,0.4-0.5,0.9-0.8,1.2c-0.1,0.1,0,0.1,0,0.1c0.1,0.2,0.7,0.5,1.5,0.6c0.1,0,0.3,0,0.4,0c0,0,0,0,0,0c0.6,0,1.1-0.2,1.2-0.3
					c0,0,0,0,0-0.1c-0.3-0.4-0.4-0.9-0.5-1.4C19.1,62,18.9,61.5,18.5,61.4C18.6,61.4,18.5,61.4,18.5,61.4z"/>
			</g>
		</g>
		<g>
			<g>
				<path class="st3" d="M2.7,41.2c-0.5-0.6-0.5-1.9-0.5-2.5c0-0.6-0.2-1.9,1.2-2c1.3-0.1,1.9-0.2,2.9,0.4c1,0.6,0.8,2.3,0.8,3.3
					c0,1-1.1,1.4-1.1,1.4l0,0.1c-0.2-0.1-0.5-0.1-0.9-0.1c-0.9,0-1.5,0-1.9,0.2l0,0C3.4,41.7,3.3,41.7,2.7,41.2z"/>
			</g>
			<g>
				<path class="st1" d="M3.4,41.9C3.3,41.9,3.3,41.9,3.4,41.9c-0.1,0-0.1-0.1-0.1-0.1c-0.1-0.1-0.3-0.2-0.6-0.5
					C2.1,40.8,2.1,39.7,2,39c0-0.1,0-0.2,0-0.3c0-0.1,0-0.1,0-0.2c0-0.7-0.1-1.9,1.4-2c0.5,0,0.9-0.1,1.2-0.1c0.7,0,1.2,0.1,1.8,0.5
					c1,0.5,1,2.1,0.9,3.1c0,0.1,0,0.3,0,0.4c0,0.9-0.8,1.4-1.1,1.5c0,0,0,0.1-0.1,0.1c-0.1,0-0.1,0-0.2,0c-0.2-0.1-0.4-0.1-0.8-0.1
					l0,0C4.3,41.8,3.8,41.8,3.4,41.9C3.4,41.9,3.4,41.9,3.4,41.9z M3.4,41.5C3.4,41.5,3.4,41.5,3.4,41.5c0.4-0.1,1-0.1,1.8-0.1l0,0
					c0.3,0,0.6,0,0.8,0.1c0,0,0,0,0,0c0,0,0.9-0.4,0.9-1.2c0-0.1,0-0.2,0-0.4c0-1,0-2.3-0.8-2.7c-0.6-0.3-1-0.4-1.6-0.4
					c-0.3,0-0.7,0-1.2,0.1c-1.1,0.1-1.1,0.8-1,1.7c0,0.1,0,0.1,0,0.2c0,0.1,0,0.2,0,0.3c0,0.7,0,1.7,0.4,2.1
					C3.2,41.4,3.4,41.5,3.4,41.5z"/>
			</g>
			<g>
				<path class="st2" d="M4.3,37.8c-0.2-0.3-0.6-0.3-0.5-0.4c0.2,0.1,0.8,0.5,1,0.2c0.2-0.3,0.7-0.5,0.5-0.2
					c-0.2,0.3-0.2,0.9-0.2,1.2c0,0.3-0.4,0.7,0,0.6c0.3,0,0.5-0.1,0.6-0.2c0.1-0.1,0.3-0.2,0.2-0.1c-0.1,0.1-0.6,0.4-0.8,0.5
					c-0.3,0.1-0.2,0.2-0.1,0.4c0.1,0.2,0.6,0.8,0.4,0.9c-0.2,0.1-0.4-0.4-0.5-0.3C4.7,40.3,4.1,41,3.5,41c-0.1,0,0.2-0.1,0.3-0.2
					c0.1-0.1,1-0.5,0.7-1c-0.2-0.4-0.4-0.6-0.6-0.6c-0.1,0-0.3-0.1,0-0.3C4.4,38.7,4.6,38.3,4.3,37.8z"/>
			</g>
		</g>
	</g>
</g>
</svg>
