<?xml version="1.0" encoding="utf-8"?>
<!-- Generator: Adobe Illustrator 27.1.1, SVG Export Plug-In . SVG Version: 6.00 Build 0)  -->
<svg version="1.1" id="Layer_1" xmlns="http://www.w3.org/2000/svg" xmlns:xlink="http://www.w3.org/1999/xlink" x="0px" y="0px"
	 viewBox="0 0 40 100" style="enable-background:new 0 0 40 100;" xml:space="preserve">
<style type="text/css">
	.st0{fill:#F3B799;}
	.st1{fill:#58595B;}
	.st2{fill:#F8E8D4;}
	.st3{fill:#FFFFFF;}
	.st4{fill:#BBBDBF;}
</style>
<g>
	<g>
		<path class="st0" d="M38,51.2c-0.8-2.5-2.3-4.8-3.6-7.2c-2.8-5.4-6.5-10.1-14.3-10.1v0c0,0,0,0,0,0c0,0,0,0,0,0v0
			c-7.8,0-11.5,4.8-14.3,10.1c-1.3,2.4-2.8,4.8-3.6,7.2c-1.2,3.9-1.4,7.7-1.3,10c0.1,5.8,4.2,5.5,7.2,4.3h0c1.2-0.5,2.1-1.9,1.8-6.2
			C9.5,55.1,12.3,41.8,20,41.8s10.5,13.3,10.2,17.6c-0.2,3.9,0.5,5.4,1.5,6c3.1,1.2,7.5,1.8,7.6-4.2C39.3,58.9,39.2,55.1,38,51.2z"
			/>
	</g>
	<g>
		<path class="st1" d="M4.7,66.4c-1.9,0-4.1-0.9-4.2-5.2c0-3.8,0.4-7.1,1.4-10.1c0.6-1.8,1.6-3.5,2.5-5.2c0.4-0.7,0.8-1.4,1.1-2
			c1.2-2.2,2.9-5.1,5.3-7.1c2.5-2.1,5.5-3.1,9.1-3.1c0,0,0,0,0,0c0,0,0,0,0,0l0,0c0,0,0,0,0,0c3.6,0,6.6,1,9.1,3.1
			c2.5,2.1,4.2,4.9,5.3,7.1c0.4,0.7,0.8,1.4,1.1,2c1,1.7,1.9,3.4,2.5,5.2c0.9,2.9,1.4,6.2,1.4,10.1c0,4.3-2.3,5.2-4.2,5.2
			c0,0,0,0,0,0c-1.3,0-2.7-0.4-3.6-0.8c0,0,0,0,0,0c-1.3-0.8-1.8-2.7-1.6-6.2c0.1-1.3-0.1-4-1.1-7.2c-0.7-2.3-1.9-5.6-4-7.8
			c-1.5-1.6-3.2-2.4-5-2.4c-1.8,0-3.5,0.8-5,2.4c-2.1,2.2-3.3,5.5-4,7.8C10,55.4,9.8,58,9.9,59.4c0.2,3.8-0.4,5.7-1.9,6.3
			c0,0,0,0,0,0C6.8,66.1,5.7,66.4,4.7,66.4z M20,34C20,34,20,34,20,34c-7.8,0-11.4,4.8-14.2,10c-0.4,0.7-0.8,1.4-1.1,2
			c-1,1.8-1.9,3.4-2.5,5.2c-0.9,2.9-1.4,6.2-1.3,10c0,3.2,1.3,4.8,3.8,4.8c0.9,0,2-0.2,3.1-0.6c0.6-0.3,1.1-0.8,1.4-1.6
			c0.3-1,0.5-2.4,0.3-4.4c-0.1-1.4,0.2-4.1,1.1-7.3c0.7-2.4,1.9-5.7,4.1-8c1.6-1.6,3.3-2.5,5.3-2.5c1.9,0,3.7,0.8,5.3,2.5
			c2.2,2.3,3.4,5.6,4.1,8c0.9,3.2,1.1,5.9,1.1,7.3c-0.3,4.3,0.6,5.4,1.4,5.9c0.9,0.4,2.2,0.8,3.5,0.8c2.5,0,3.8-1.6,3.8-4.8
			c0-3.8-0.4-7.1-1.3-10c-0.6-1.8-1.5-3.4-2.5-5.2c-0.4-0.7-0.8-1.4-1.1-2C31.4,38.8,27.8,34,20,34C20,34,20,34,20,34L20,34
			C20,34,20,34,20,34z"/>
	</g>
	<g>
		<path class="st2" d="M30.2,59.4c0.3-4.2-2.6-17.6-10.2-17.6S9.5,55.1,9.7,59.4c0.3,4.2-0.6,5.6-1.8,6.2h0c0.6-0.2,1.2-0.5,1.7-0.8
			c2.9-1.5,4.1-2.5,5.4-3.1c1.5-0.7,3.5,0.3,5,0.3c1.6,0,3.6-1,5-0.3c1.3,0.6,2.5,1.6,5.4,3.1c0.4,0.2,0.9,0.4,1.3,0.6
			C30.7,64.8,30,63.3,30.2,59.4z"/>
	</g>
	<g>
		<path class="st1" d="M7.9,65.7c-0.1,0-0.1,0-0.2-0.1c0-0.1,0-0.2,0.1-0.2c0.7-0.3,1.1-0.8,1.4-1.6c0.3-1,0.5-2.4,0.3-4.4
			c-0.1-1.4,0.2-4.1,1.1-7.3c0.7-2.4,1.9-5.7,4.1-8c1.6-1.6,3.3-2.5,5.3-2.5c1.9,0,3.7,0.8,5.3,2.5c2.2,2.3,3.4,5.6,4.1,8
			c0.9,3.2,1.1,5.9,1.1,7.3c-0.3,4.3,0.6,5.4,1.4,5.9c0.1,0,0.1,0.1,0.1,0.2c0,0.1-0.1,0.1-0.2,0.1c-0.5-0.2-0.9-0.4-1.4-0.6
			c-1.7-0.9-2.8-1.6-3.7-2.2c-0.6-0.4-1.1-0.7-1.6-1c-0.3-0.2-0.7-0.2-1.2-0.2c-0.6,0-1.3,0.1-1.9,0.3c-0.6,0.1-1.3,0.3-1.9,0.3
			c-0.6,0-1.3-0.1-1.9-0.3c-0.6-0.1-1.3-0.3-1.9-0.3c-0.5,0-0.8,0.1-1.2,0.2c-0.5,0.3-1,0.6-1.6,1c-0.9,0.6-2,1.3-3.7,2.2
			C9.1,65.2,8.5,65.5,7.9,65.7C7.9,65.7,7.9,65.7,7.9,65.7z M20,42c-1.8,0-3.5,0.8-5,2.4c-2.1,2.2-3.3,5.5-4,7.8
			C10,55.4,9.8,58,9.9,59.4c0.2,2.7-0.1,4.5-0.9,5.5c0.2-0.1,0.3-0.2,0.5-0.2c1.7-0.9,2.8-1.6,3.7-2.1c0.6-0.4,1.1-0.7,1.7-1
			c0.4-0.2,0.8-0.3,1.3-0.3c0.6,0,1.3,0.1,2,0.3c0.6,0.1,1.3,0.3,1.8,0.3c0.6,0,1.2-0.1,1.8-0.3c0.7-0.1,1.3-0.3,2-0.3
			c0.5,0,0.9,0.1,1.3,0.3c0.5,0.3,1,0.6,1.7,1c0.9,0.6,2,1.3,3.7,2.1c0.1,0.1,0.2,0.1,0.4,0.2c-0.7-1-1-2.8-0.8-5.4
			c0.1-1.3-0.1-4-1.1-7.2c-0.7-2.3-1.9-5.6-4-7.8C23.5,42.8,21.8,42,20,42z"/>
	</g>
	<g>
		<g>
			<g>
				<path class="st3" d="M37.7,55.6c-0.4-0.6-1-1-1-1l0,0c-0.1,0.1-0.3,0.3-0.6,0.4c-0.8,0.4-2,0.5-2.5,0.4v0
					c-0.8,0.1-0.8,1.5-0.7,2.9c0.1,1.3,1,1.6,2.1,1.9c1.1,0.3,2.3-0.2,2.7-0.8C38.2,58.8,38.1,56.2,37.7,55.6z"/>
			</g>
			<g>
				<path class="st4" d="M36.6,56.4c0,0-0.1,0.4-0.5,0.3c-0.3-0.1-0.7-0.2-0.8-0.3c-0.1-0.1-0.2-0.1-0.3,0.2
					c-0.1,0.3-0.2,0.7-0.8,0.7c-0.6,0-0.4,0.3,0,0.2c0.4-0.1,0.9-0.6,1-0.7c0.1-0.2,0.4,0.1,0.4,0.7c0,0.6-0.5,0.9-0.8,1
					c-0.3,0.1-0.3,0.2,0,0.2c0.3,0,0.6-0.4,0.7-0.2c0.1,0.2,0.2,1.1,0.5,1.4c0.2,0.3,0.7,0.2,0.3-0.3c-0.4-0.5-0.6-1-0.5-1
					c0.1-0.1,0.4-0.2,0.3-0.4c-0.1-0.3-0.5-1-0.3-1.1C36.1,56.9,37.2,56.7,36.6,56.4z"/>
			</g>
			<g>
				<path class="st1" d="M35.8,60.5C35.8,60.5,35.8,60.5,35.8,60.5c-0.3,0-0.5,0-0.8-0.1c-1.2-0.3-2.2-0.7-2.2-2.1
					c-0.1-1.3-0.2-3,0.9-3.1c0,0,0,0,0.1,0c0.1,0,0.3,0,0.4,0c0.6,0,1.4-0.2,1.9-0.4c0.2-0.1,0.4-0.2,0.5-0.4c0.1-0.1,0.2-0.1,0.2,0
					c0,0,0.6,0.4,1,1c0.4,0.6,0.5,3.3,0.1,4C37.6,60.1,36.7,60.5,35.8,60.5z M33.7,55.6c-0.6,0.1-0.6,1.7-0.5,2.7
					c0.1,1.2,0.8,1.5,2,1.8c0.2,0.1,0.4,0.1,0.7,0.1c0.8,0,1.5-0.3,1.8-0.8c0.4-0.6,0.3-3.1-0.1-3.6c-0.3-0.4-0.6-0.7-0.8-0.8
					c-0.1,0.1-0.3,0.2-0.5,0.3c-0.6,0.3-1.4,0.5-2.1,0.5C34,55.7,33.8,55.6,33.7,55.6z"/>
			</g>
		</g>
		<g>
			<g>
				<path class="st3" d="M37.2,53.2c-0.1-0.7,0.1-0.8-0.2-1.9c-0.3-1-1.3-1.1-1.3-1.1c0,0,0,0,0,0.1c-0.4,0.5-1.3,0.4-1.9,0.8
					c-0.4,0.2-0.7,0.4-1.1,0.4l0,0c-0.7,0.1-0.8,0.8-0.6,1.1c0.2,0.3,0.3,1,0.6,1.7c0.3,0.7,0.4,0.8,0.8,1.1
					c0.4,0.3,1.7,0.1,2.7-0.3C37.1,54.6,37.3,53.8,37.2,53.2z"/>
			</g>
			<g>
				<path class="st4" d="M34.2,51.7c0-0.2,0.6,0.9,1,0.9c0.4,0.1,1.1,0.1,0.8,0.2c-0.3,0-0.8,0-0.8,0.2c0,0.2-0.1,0.6,0.1,0.9
					c0.3,0.2,0.5,0.6,0.8,0.6c0.3,0.1,0.1,0.2,0,0.2c-0.1-0.1-0.9-0.6-0.9-0.4c0,0.2,0,0.8,0,1c0,0.2-0.2,0.4-0.2,0
					c0-0.4,0.1-1,0-1.2c-0.1-0.1-0.5-0.3-1.1-0.1c-0.1-0.1,0.8-0.4,1-0.7s0-0.5-0.2-0.7C34.4,52.2,34.2,51.8,34.2,51.7z"/>
			</g>
			<g>
				<path class="st1" d="M34.2,55.7C34.2,55.7,34.2,55.7,34.2,55.7c-0.4,0-0.6-0.1-0.8-0.2c-0.4-0.3-0.6-0.4-0.9-1.2
					c-0.2-0.4-0.3-0.8-0.4-1.1c-0.1-0.3-0.1-0.5-0.2-0.6c-0.1-0.3-0.1-0.6,0-0.9c0.1-0.3,0.4-0.4,0.7-0.5c0,0,0,0,0,0
					c0.3,0,0.7-0.2,1-0.4c0.3-0.2,0.6-0.2,0.9-0.3c0.4-0.1,0.7-0.2,1-0.4c0,0,0,0,0,0c0-0.1,0.1-0.1,0.2-0.1c0,0,1.1,0.1,1.4,1.3
					c0.2,0.8,0.2,1.1,0.2,1.4c0,0.1,0,0.3,0,0.5c0.1,1-0.3,1.7-1.1,2.1C35.7,55.5,34.9,55.7,34.2,55.7z M32.7,51.6
					C32.7,51.6,32.7,51.6,32.7,51.6c-0.2,0-0.4,0.1-0.5,0.3c-0.1,0.2-0.1,0.4,0,0.6c0.1,0.2,0.2,0.4,0.2,0.7c0.1,0.3,0.2,0.7,0.4,1
					c0.3,0.7,0.4,0.8,0.8,1c0,0,0.2,0.1,0.6,0.1c0.6,0,1.4-0.2,1.9-0.4c0.7-0.3,1-0.9,0.9-1.7c0-0.2,0-0.4,0-0.5
					c0-0.3,0-0.6-0.2-1.3c-0.2-0.8-0.8-0.9-1-1c-0.3,0.3-0.7,0.4-1.1,0.5c-0.3,0.1-0.6,0.2-0.8,0.3C33.5,51.4,33.1,51.6,32.7,51.6z"
					/>
			</g>
		</g>
		<g>
			<g>
				<path class="st3" d="M22.7,35.1c-1.4-0.2-2.6,0.2-2.7,0.9c0,0.1,0,0.1,0,0.2c0,0,0.4,3.8,2.1,3.8c1.7,0,3-3.1,3-3.2
					c0,0,0-0.1,0-0.1C25.2,36,24.1,35.3,22.7,35.1z"/>
			</g>
			<g>
				<path class="st4" d="M21,36.3c0,0,0,0,0.1-0.1c0.1-0.1,0.2-0.1,0.3-0.2c0.1,0,0.2-0.1,0.2-0.1c0.1,0,0.2,0,0.3-0.1
					c0,0,0.1,0,0.1,0c0.1,0,0.1,0,0.2,0c0.1,0,0.2,0,0.3,0c0.1,0,0.2,0,0.3,0.1c0.1,0,0.1,0,0.2,0c0,0,0.1,0,0.1,0.1
					c0.1,0,0.2,0.1,0.3,0.1c0,0,0.1,0,0.1,0.1c0,0,0.1,0,0.1,0.1c0.1,0,0.1,0.1,0.2,0.1c0,0,0.1,0.1,0.1,0.1
					c0.1,0.1,0.1,0.1,0.1,0.1s-0.1,0-0.1,0c0,0-0.1,0-0.2,0c0,0-0.1,0-0.1,0c0,0-0.1,0-0.1,0c-0.1,0-0.1,0-0.2-0.1
					c-0.1,0-0.2,0-0.2-0.1c-0.1,0-0.2,0-0.3,0c-0.1,0-0.2,0-0.3,0c-0.1,0-0.2,0-0.3,0c-0.1,0-0.2,0-0.3,0c-0.1,0-0.2,0-0.3,0
					c-0.1,0-0.2,0-0.2,0c-0.1,0-0.3,0-0.4,0C21.1,36.3,21,36.3,21,36.3z"/>
			</g>
			<g>
				<path class="st1" d="M22.1,40.2c-1.8,0-2.2-3.6-2.3-4c0-0.1,0-0.1,0-0.2c0.1-0.7,1-1.1,2.2-1.1c0.2,0,0.5,0,0.7,0
					c0.7,0.1,1.4,0.3,1.8,0.6c0.5,0.3,0.8,0.8,0.7,1.2c0,0.1,0,0.1,0,0.2C25.2,37,23.9,40.2,22.1,40.2z M22,35.2
					c-1,0-1.8,0.3-1.9,0.8c0,0,0,0.1,0,0.1c0,0,0.4,3.7,1.9,3.7c1.6,0,2.8-3,2.8-3c0,0,0-0.1,0-0.1c0-0.3-0.2-0.6-0.6-0.8
					c-0.4-0.3-1-0.5-1.7-0.6C22.5,35.3,22.2,35.2,22,35.2z"/>
			</g>
		</g>
		<g>
			<g>
				<path class="st3" d="M27.8,37.2c-1-0.8-2.2-1.1-2.6-0.5c0,0-0.1,0.1-0.1,0.1c0,0-1.2,3.2-0.3,4.1c0.9,0.9,3.9-1.1,4-1.2
					c0,0,0.1-0.1,0.1-0.1C29.3,39.1,28.8,38,27.8,37.2z"/>
			</g>
			<g>
				<path class="st4" d="M25.8,37.6c0,0,0,0,0.1,0c0.1,0,0.2,0,0.3,0c0.1,0,0.2,0,0.2,0c0.1,0,0.2,0,0.3,0.1c0,0,0.1,0,0.1,0
					c0,0,0.1,0,0.1,0.1c0.1,0,0.2,0.1,0.3,0.1c0.1,0.1,0.2,0.1,0.2,0.2c0,0,0.1,0.1,0.1,0.1c0,0,0.1,0.1,0.1,0.1
					c0,0,0.1,0.1,0.1,0.1c0,0,0,0.1,0.1,0.1c0,0,0,0.1,0.1,0.1c0,0,0,0.1,0,0.1c0,0.1,0,0.1,0.1,0.2c0,0.1,0,0.1,0,0.1
					c0,0.1,0,0.1,0,0.1s0,0-0.1-0.1c0,0-0.1-0.1-0.1-0.1c0,0,0,0-0.1-0.1c0,0,0,0-0.1-0.1c0,0-0.1-0.1-0.1-0.2c0,0-0.1-0.1-0.1-0.1
					c0,0,0,0,0,0c0,0,0,0,0,0c-0.1-0.1-0.1-0.1-0.2-0.2c-0.1-0.1-0.1-0.1-0.2-0.1c-0.1,0-0.1-0.1-0.2-0.1c-0.1,0-0.1-0.1-0.2-0.1
					c-0.1,0-0.1-0.1-0.2-0.1c-0.1,0-0.1-0.1-0.2-0.1c-0.1-0.1-0.2-0.1-0.3-0.1C25.8,37.6,25.8,37.6,25.8,37.6z"/>
			</g>
			<g>
				<path class="st1" d="M25.5,41.3C25.5,41.3,25.5,41.3,25.5,41.3c-0.3,0-0.6-0.1-0.8-0.3c-1-1,0.2-4.3,0.2-4.3
					c0-0.1,0.1-0.1,0.1-0.2c0.2-0.2,0.5-0.3,0.9-0.3c0.6,0,1.4,0.3,2,0.9c1.1,0.9,1.6,2.1,1.1,2.7c0,0-0.1,0.1-0.1,0.1
					C28.9,39.9,26.8,41.3,25.5,41.3z M25.3,36.8c-0.2,0.6-1,3.2-0.3,3.9c0.1,0.1,0.3,0.2,0.5,0.2c0,0,0,0,0,0c1.1,0,3.1-1.3,3.2-1.3
					c0,0,0.1,0,0.1-0.1c0.4-0.4-0.1-1.5-1.1-2.2c-0.6-0.5-1.3-0.8-1.8-0.8C25.7,36.5,25.5,36.6,25.3,36.8
					C25.3,36.8,25.3,36.8,25.3,36.8z"/>
			</g>
		</g>
		<g>
			<g>
				<path class="st3" d="M28,40.2c0.8-0.4,2.6-0.4,3,0.1c0.5,0.6,0.4,1.3-0.2,2.2c-0.6,0.8-2.4,2-3.5,0.7C26.8,42,27.3,40.6,28,40.2
					z"/>
			</g>
			<g>
				<path class="st1" d="M28.5,43.9c-0.5,0-1-0.2-1.3-0.6c0,0,0,0,0,0c-0.6-1.3-0.1-2.8,0.8-3.3c0.3-0.2,0.9-0.3,1.5-0.3
					c0.3,0,1.3,0,1.7,0.5c0.4,0.5,0.6,1.3-0.2,2.4C30.5,43.2,29.4,43.9,28.5,43.9z M27.5,43.1c0.3,0.3,0.6,0.5,1,0.5
					c0.9,0,1.8-0.7,2.1-1.2c0.5-0.7,0.6-1.4,0.2-2c-0.2-0.2-0.7-0.4-1.4-0.4c-0.5,0-1,0.1-1.3,0.3C27.4,40.7,27,42,27.5,43.1z"/>
			</g>
		</g>
		<g>
			<g>
				<path class="st3" d="M29.8,43.3c0,0,1-1,1.8-0.5c0.8,0.4,2.1,1.9,1.9,3c-0.3,1.1-2.3,1.7-2.7,1.7c-0.5-0.1-1.6-0.8-1.9-1.8
					C28.5,44.7,28.9,43.9,29.8,43.3z"/>
			</g>
			<g>
				<path class="st4" d="M30.5,44.6c-0.1-0.3,0.1-1,0.2-0.6c0.1,0.4,0.1,0.7,0.4,0.9c0.3,0.2,0.5,0.4,0.8,0.2s0.6-0.3,0.3,0
					c-0.3,0.3-0.5,0.2-0.6,0.6s-0.4,0.7-0.4,0.2c0-0.4,0.1-0.6-0.2-0.8c-0.3-0.2-0.4-0.3-0.7-0.1c-0.2,0.2-0.4,0-0.1-0.2
					C30.5,44.6,30.6,44.9,30.5,44.6z"/>
			</g>
			<g>
				<path class="st1" d="M30.8,47.6c0,0-0.1,0-0.1,0c-0.5-0.1-1.7-0.8-2.1-1.9c-0.4-1,0-1.9,1-2.5c0.1-0.1,0.8-0.7,1.5-0.7
					c0.2,0,0.4,0,0.5,0.1c0.9,0.4,2.3,2,2,3.2C33.4,47,31.4,47.6,30.8,47.6z M31.2,42.9c-0.6,0-1.2,0.6-1.3,0.6c0,0,0,0,0,0
					C29,44,28.7,44.7,29,45.6c0.3,1,1.4,1.6,1.8,1.7c0,0,0,0,0.1,0c0.5,0,2.2-0.6,2.5-1.5c0.2-1-1-2.4-1.8-2.8
					C31.4,42.9,31.3,42.9,31.2,42.9z"/>
			</g>
		</g>
		<g>
			<g>
				<path class="st3" d="M35.1,48.3c-0.5-0.2-0.1-0.8-0.7-1.5c-0.6-0.8-1.3-0.4-1.3-0.4l0,0c-0.5,0.5-1.3,0.9-1.9,1l0,0
					c-0.4,0.1-0.6,0.4-0.6,1s0.5,2.2,1.2,2.7c0.6,0.5,1.3,0.2,1.9-0.2c0.6-0.3,1.4-0.3,1.9-0.8C36.1,49.7,35.6,48.4,35.1,48.3z"/>
			</g>
			<g>
				<path class="st4" d="M32.9,48.5c0-0.1,0.1-1.1,0.1-0.8c0.1,0.3,0,0.6,0.2,0.4c0.2-0.2,0.5-0.3,0.2,0.1c-0.2,0.4-0.4,1,0.2,1.2
					c0.5,0.3,0.8,0.7,0.3,0.5c-0.5-0.2-0.5-0.6-0.6-0.2c-0.2,0.4-0.6,0.7-0.5,0.3c0.1-0.4,0.4-1.3,0-1.2c-0.5,0.1-0.9,0.3-0.6,0
					C32.6,48.7,32.9,48.7,32.9,48.5z"/>
			</g>
			<g>
				<path class="st1" d="M32.6,51.6c-0.3,0-0.6-0.1-0.8-0.3c-0.7-0.5-1.3-2.2-1.3-2.9c0-0.7,0.2-1.1,0.7-1.2c0,0,0,0,0,0
					c0.6-0.1,1.3-0.5,1.8-1c0,0,0,0,0.1,0c0.1,0,0.3-0.1,0.5-0.1c0.3,0,0.6,0.1,1,0.6c0.3,0.4,0.3,0.7,0.4,1c0,0.3,0.1,0.4,0.2,0.4
					c0.4,0.1,0.7,0.6,0.8,1.1c0.1,0.5,0.1,0.9-0.2,1.1c-0.3,0.3-0.7,0.4-1.1,0.5c-0.3,0.1-0.6,0.2-0.8,0.3
					C33.5,51.4,33,51.6,32.6,51.6z M31.3,47.6c-0.3,0.1-0.5,0.3-0.5,0.9c0,0.6,0.5,2.1,1.1,2.6c0.2,0.1,0.4,0.2,0.6,0.2
					c0.4,0,0.8-0.2,1.1-0.4c0.3-0.2,0.6-0.2,0.9-0.3c0.4-0.1,0.7-0.2,1-0.4c0.1-0.1,0.2-0.4,0.1-0.8c-0.1-0.4-0.3-0.8-0.6-0.9
					c-0.4-0.1-0.4-0.4-0.4-0.7c0-0.3-0.1-0.5-0.3-0.8c-0.2-0.3-0.5-0.4-0.7-0.4c-0.2,0-0.3,0.1-0.3,0.1
					C32.7,47.1,31.9,47.4,31.3,47.6z"/>
			</g>
		</g>
		<g>
			<g>
				<path class="st3" d="M35.1,60.2c-0.3-0.1-0.6-0.1-0.8-0.2l0,0c-1.3-0.3-1.3,0.9-1.6,2.1c-0.2,1.2-0.8,2.2,1.3,2.6
					c2.1,0.3,2.5-0.2,3.4-1.9c0.9-1.7-0.2-2.9-0.2-2.9C36.8,60.3,36,60.4,35.1,60.2z"/>
			</g>
			<g>
				<path class="st4" d="M35.4,61.4c-0.1-0.2-0.2-0.7,0-0.5c0.2,0.1,0.3,0.4,0.3,0.7c0,0.3,0.1,0.5,0.5,0.4c0.4-0.1,0.5,0.2-0.1,0.2
					c-0.6,0-0.6-0.1-0.6,0.2s0.2,0.5,0.3,0.7c0.1,0.2,0,0-0.3,0c-0.2,0-0.4-0.1-0.5,0.2c-0.1,0.3-0.1,1.1,0,1.2
					c0.1,0.1,0.5,0.2,0.1,0.2c-0.4,0-0.9,0-0.7-0.2c0.2-0.3,0.3-0.5,0.2-0.7c-0.1-0.2-0.6-0.2-0.3-0.4c0.3-0.2,0.8-0.3,0.8-0.6
					c0-0.3,0.1-0.8-0.1-0.8c-0.2,0-0.8-0.3-0.4-0.3C34.8,61.7,35.5,61.9,35.4,61.4z"/>
			</g>
			<g>
				<path class="st1" d="M35.2,64.9c-0.3,0-0.7,0-1.1-0.1c-0.8-0.1-1.3-0.4-1.5-0.7c-0.3-0.5-0.2-1,0-1.6c0-0.1,0.1-0.3,0.1-0.4
					c0-0.1,0.1-0.3,0.1-0.4c0.2-0.9,0.3-1.9,1.3-1.9c0.1,0,0.3,0,0.4,0.1c0,0,0,0,0,0c0.2,0.1,0.5,0.2,0.8,0.2
					c0.2,0.1,0.4,0.1,0.7,0.1c0.5,0,1-0.1,1.4-0.4c0.1,0,0.2,0,0.2,0c0,0,1.1,1.2,0.2,3.1C37,64.2,36.5,64.9,35.2,64.9z M33.9,60.1
					c-0.6,0-0.8,0.6-0.9,1.6c0,0.1-0.1,0.3-0.1,0.4c0,0.1-0.1,0.3-0.1,0.4c-0.1,0.6-0.2,1,0,1.4c0.2,0.3,0.6,0.5,1.3,0.6
					c0.4,0.1,0.8,0.1,1,0.1c1.1,0,1.5-0.5,2.2-1.9c0.7-1.3,0.2-2.2-0.1-2.6c-0.4,0.2-0.9,0.4-1.5,0.4c-0.3,0-0.5,0-0.8-0.1
					c-0.3-0.1-0.6-0.1-0.8-0.2C34.2,60.1,34,60.1,33.9,60.1z"/>
			</g>
		</g>
		<g>
			<g>
				<path class="st3" d="M2.2,55.6c0.4-0.6,1-1,1-1l0,0c0.1,0.1,0.3,0.3,0.6,0.4c0.8,0.4,2,0.5,2.5,0.4v0C7,55.5,7,57,6.9,58.3
					c-0.1,1.3-1,1.6-2.1,1.9c-1.1,0.3-2.3-0.2-2.7-0.8C1.7,58.8,1.8,56.2,2.2,55.6z"/>
			</g>
			<g>
				<path class="st4" d="M3.3,56.4c0,0,0.1,0.4,0.5,0.3c0.3-0.1,0.7-0.2,0.8-0.3c0.1-0.1,0.2-0.1,0.3,0.2c0.1,0.3,0.2,0.7,0.8,0.7
					c0.6,0,0.4,0.3,0,0.2c-0.4-0.1-0.9-0.6-1-0.7c-0.1-0.2-0.4,0.1-0.4,0.7c0,0.6,0.5,0.9,0.8,1c0.3,0.1,0.3,0.2,0,0.2
					c-0.3,0-0.6-0.4-0.7-0.2c-0.1,0.2-0.2,1.1-0.5,1.4c-0.2,0.3-0.7,0.2-0.3-0.3c0.4-0.5,0.6-1,0.5-1c-0.1-0.1-0.4-0.2-0.3-0.4
					c0.1-0.3,0.5-1,0.3-1.1C3.8,56.9,2.7,56.7,3.3,56.4z"/>
			</g>
			<g>
				<path class="st1" d="M4.1,60.5c-0.9,0-1.8-0.4-2.1-1c-0.5-0.7-0.3-3.4,0.1-4c0.4-0.6,1-1,1-1c0.1,0,0.2,0,0.2,0
					c0.1,0.1,0.3,0.3,0.5,0.4c0.5,0.3,1.3,0.4,1.9,0.4c0.2,0,0.3,0,0.4,0c0,0,0,0,0.1,0c1,0.1,0.9,1.8,0.9,3.1
					c-0.1,1.4-1,1.8-2.2,2.1C4.6,60.5,4.3,60.5,4.1,60.5z M3.1,54.9C3,55,2.6,55.3,2.3,55.7c-0.3,0.5-0.5,3-0.1,3.6
					c0.3,0.5,1.1,0.8,1.8,0.8c0.2,0,0.4,0,0.7-0.1c1.2-0.3,1.9-0.6,2-1.8c0-1,0.1-2.6-0.5-2.7c-0.1,0-0.3,0-0.5,0
					c-0.7,0-1.5-0.2-2.1-0.5C3.5,55.1,3.3,55,3.1,54.9z"/>
			</g>
		</g>
		<g>
			<g>
				<path class="st3" d="M2.7,53.2c0.1-0.7-0.1-0.8,0.2-1.9c0.3-1,1.3-1.1,1.3-1.1c0,0,0,0,0,0.1c0.4,0.5,1.3,0.4,1.9,0.8
					c0.4,0.2,0.7,0.4,1.1,0.4l0,0c0.7,0.1,0.8,0.8,0.6,1.1c-0.2,0.3-0.3,1-0.6,1.7c-0.3,0.7-0.4,0.8-0.8,1.1C6,55.6,4.6,55.5,3.7,55
					C2.8,54.6,2.7,53.8,2.7,53.2z"/>
			</g>
			<g>
				<path class="st4" d="M5.7,51.7c0-0.2-0.6,0.9-1,0.9c-0.4,0.1-1.1,0.1-0.8,0.2c0.3,0,0.8,0,0.8,0.2c0,0.2,0.1,0.6-0.1,0.9
					c-0.3,0.2-0.5,0.6-0.8,0.6c-0.3,0.1-0.1,0.2,0,0.2C4,54.5,4.8,54,4.7,54.2c0,0.2,0,0.8,0,1c0,0.2,0.2,0.4,0.2,0
					c0-0.4-0.1-1,0-1.2c0.1-0.1,0.5-0.3,1.1-0.1c0.1-0.1-0.8-0.4-1-0.7c-0.1-0.3,0-0.5,0.2-0.7C5.6,52.2,5.8,51.8,5.7,51.7z"/>
			</g>
			<g>
				<path class="st1" d="M5.7,55.7c-0.7,0-1.5-0.2-2.1-0.5c-0.8-0.4-1.2-1.1-1.1-2.1c0-0.2,0-0.3,0-0.5c0-0.3,0-0.6,0.2-1.4
					C3.1,50.1,4.2,50,4.2,50c0.1,0,0.1,0,0.2,0.1c0,0,0,0,0,0c0.2,0.2,0.6,0.3,1,0.4c0.3,0.1,0.6,0.2,0.9,0.3c0.3,0.2,0.7,0.4,1,0.4
					c0,0,0,0,0,0c0.3,0,0.5,0.2,0.7,0.5c0.1,0.3,0.1,0.7,0,0.9c-0.1,0.1-0.1,0.4-0.2,0.6c-0.1,0.3-0.2,0.7-0.4,1.1
					c-0.3,0.7-0.5,0.9-0.9,1.2C6.3,55.6,6.1,55.7,5.7,55.7z M4.1,50.4c-0.2,0-0.8,0.2-1,1c-0.2,0.7-0.2,1-0.2,1.3c0,0.1,0,0.3,0,0.5
					c-0.1,0.8,0.2,1.4,0.9,1.7c0.5,0.3,1.3,0.4,1.9,0.4c0.4,0,0.5-0.1,0.6-0.1c0.4-0.2,0.5-0.3,0.8-1c0.2-0.4,0.3-0.7,0.4-1
					c0.1-0.3,0.2-0.5,0.2-0.7c0.1-0.1,0.1-0.4,0-0.6c-0.1-0.2-0.2-0.3-0.4-0.3c0,0,0,0,0,0c-0.4,0-0.8-0.2-1.1-0.4
					c-0.2-0.1-0.5-0.2-0.8-0.3C4.9,50.8,4.4,50.7,4.1,50.4z"/>
			</g>
		</g>
		<g>
			<g>
				<path class="st3" d="M17.2,35.1c1.4-0.2,2.6,0.2,2.7,0.9c0,0.1,0,0.1,0,0.2c0,0-0.4,3.8-2.1,3.8c-1.7,0-3-3.1-3-3.2
					c0,0,0-0.1,0-0.1C14.7,36,15.8,35.3,17.2,35.1z"/>
			</g>
			<g>
				<path class="st4" d="M18.9,36.3c0,0-0.1,0-0.1,0c-0.1,0-0.2,0-0.4,0c-0.1,0-0.2,0-0.2,0c-0.1,0-0.2,0-0.3,0c-0.1,0-0.2,0-0.3,0
					c-0.1,0-0.2,0-0.3,0c-0.1,0-0.2,0-0.3,0c-0.1,0-0.2,0-0.3,0c-0.1,0-0.2,0-0.2,0.1c-0.1,0-0.2,0-0.2,0.1c0,0-0.1,0-0.1,0
					c0,0-0.1,0-0.1,0c-0.1,0-0.1,0-0.2,0c-0.1,0-0.1,0-0.1,0s0,0,0.1-0.1c0,0,0.1-0.1,0.1-0.1c0,0,0.1-0.1,0.2-0.1
					c0,0,0.1,0,0.1-0.1c0,0,0.1,0,0.1-0.1c0.1,0,0.2-0.1,0.3-0.1c0,0,0.1,0,0.1-0.1c0,0,0.1,0,0.2,0c0.1,0,0.2,0,0.3-0.1
					c0.1,0,0.2,0,0.3,0c0.1,0,0.1,0,0.2,0c0.1,0,0.1,0,0.1,0c0.1,0,0.2,0,0.3,0.1c0.1,0,0.2,0.1,0.2,0.1c0.1,0.1,0.3,0.1,0.3,0.2
					C18.9,36.3,18.9,36.3,18.9,36.3z"/>
			</g>
			<g>
				<path class="st1" d="M17.9,40.2c-1.8,0-3.1-3.2-3.2-3.3c0-0.1,0-0.1,0-0.2c-0.1-0.8,1-1.6,2.6-1.8c0.2,0,0.5,0,0.7,0
					c1.3,0,2.2,0.5,2.2,1.1c0,0.1,0,0.1,0,0.2C20.1,36.6,19.7,40.2,17.9,40.2z M17.9,35.2c-0.2,0-0.4,0-0.6,0
					c-1.4,0.2-2.3,0.9-2.2,1.4c0,0,0,0.1,0,0.1c0,0,1.3,3,2.8,3c1.5,0,1.9-3.6,1.9-3.6c0,0,0-0.1,0-0.1
					C19.7,35.6,18.9,35.2,17.9,35.2z"/>
			</g>
		</g>
		<g>
			<g>
				<path class="st3" d="M12.1,37.2c1-0.8,2.2-1.1,2.6-0.5c0,0,0.1,0.1,0.1,0.1c0,0,1.2,3.2,0.3,4.1c-0.9,0.9-3.9-1.1-4-1.2
					c0,0-0.1-0.1-0.1-0.1C10.6,39.1,11.1,38,12.1,37.2z"/>
			</g>
			<g>
				<path class="st4" d="M14.1,37.6c0,0,0,0-0.1,0.1c-0.1,0-0.2,0.1-0.3,0.1c-0.1,0-0.1,0.1-0.2,0.1c-0.1,0-0.1,0.1-0.2,0.1
					c-0.1,0-0.1,0.1-0.2,0.1c-0.1,0-0.1,0.1-0.2,0.1c-0.1,0-0.1,0.1-0.2,0.1c-0.1,0.1-0.1,0.1-0.2,0.2c0,0,0,0,0,0c0,0,0,0,0,0
					c0,0-0.1,0.1-0.1,0.1c-0.1,0.1-0.1,0.1-0.1,0.2c0,0,0,0-0.1,0.1c0,0,0,0-0.1,0.1c0,0-0.1,0.1-0.1,0.1c-0.1,0.1-0.1,0.1-0.1,0.1
					s0,0,0-0.1c0,0,0-0.1,0-0.1c0-0.1,0-0.1,0.1-0.2c0,0,0-0.1,0-0.1c0,0,0-0.1,0.1-0.1c0,0,0-0.1,0.1-0.1c0,0,0.1-0.1,0.1-0.1
					c0,0,0.1-0.1,0.1-0.1c0,0,0.1-0.1,0.1-0.1c0.1-0.1,0.1-0.1,0.2-0.2c0.1-0.1,0.2-0.1,0.3-0.1c0,0,0.1,0,0.1-0.1c0,0,0.1,0,0.1,0
					c0.1,0,0.2-0.1,0.3-0.1c0.1,0,0.2,0,0.2,0c0.1,0,0.3,0,0.3,0C14.1,37.6,14.1,37.6,14.1,37.6z"/>
			</g>
			<g>
				<path class="st1" d="M14.4,41.3c-1.3,0-3.4-1.4-3.4-1.4c-0.1,0-0.1-0.1-0.1-0.1c-0.5-0.6,0-1.8,1.1-2.7c0.7-0.5,1.4-0.9,2-0.9
					c0.4,0,0.7,0.1,0.9,0.3c0,0,0.1,0.1,0.1,0.2c0,0,1.2,3.3,0.2,4.3C15,41.2,14.8,41.3,14.4,41.3z M11.3,39.6
					c0.1,0.1,2,1.3,3.2,1.3c0.2,0,0.4-0.1,0.5-0.2c0.7-0.7-0.1-3.3-0.3-3.9c0,0,0-0.1-0.1-0.1c-0.1-0.2-0.4-0.2-0.6-0.2
					c-0.5,0-1.2,0.3-1.8,0.8C11.3,38,10.8,39,11.3,39.6C11.2,39.5,11.2,39.5,11.3,39.6z"/>
			</g>
		</g>
		<g>
			<g>
				<path class="st3" d="M11.9,40.2c-0.8-0.4-2.6-0.4-3,0.1c-0.5,0.6-0.4,1.3,0.2,2.2c0.6,0.8,2.4,2,3.5,0.7
					C13.1,42,12.6,40.6,11.9,40.2z"/>
			</g>
			<g>
				<path class="st1" d="M11.4,43.9C11.4,43.9,11.4,43.9,11.4,43.9c-0.9,0-2-0.7-2.4-1.3c-0.8-1.1-0.5-1.9-0.2-2.4
					c0.3-0.5,1.4-0.5,1.7-0.5c0.6,0,1.2,0.1,1.5,0.3c0.8,0.5,1.4,2,0.8,3.3c0,0,0,0,0,0C12.4,43.7,11.9,43.9,11.4,43.9z M10.5,40.1
					c-0.7,0-1.2,0.1-1.4,0.4c-0.4,0.6-0.4,1.2,0.2,2c0.4,0.5,1.3,1.2,2.1,1.2c0,0,0,0,0,0c0.4,0,0.7-0.2,1-0.5
					c0.5-1.1,0.1-2.4-0.6-2.8C11.5,40.2,11,40.1,10.5,40.1z"/>
			</g>
		</g>
		<g>
			<g>
				<path class="st3" d="M10.1,43.3c0,0-1-1-1.8-0.5c-0.8,0.4-2.1,1.9-1.9,3c0.3,1.1,2.3,1.7,2.7,1.7c0.5-0.1,1.6-0.8,1.9-1.8
					C11.4,44.7,11.1,43.9,10.1,43.3z"/>
			</g>
			<g>
				<path class="st4" d="M9.4,44.6c0.1-0.3-0.1-1-0.2-0.6C9.1,44.5,9,44.7,8.8,45c-0.3,0.2-0.5,0.4-0.8,0.2c-0.3-0.2-0.6-0.3-0.3,0
					c0.3,0.3,0.5,0.2,0.6,0.6s0.4,0.7,0.4,0.2c0-0.4-0.1-0.6,0.2-0.8c0.3-0.2,0.4-0.3,0.7-0.1c0.2,0.2,0.4,0,0.1-0.2
					C9.4,44.6,9.3,44.9,9.4,44.6z"/>
			</g>
			<g>
				<path class="st1" d="M9.1,47.6C9.1,47.6,9.1,47.6,9.1,47.6c-0.6,0-2.5-0.6-2.8-1.8c-0.3-1.2,1.1-2.7,2-3.2
					c0.2-0.1,0.3-0.1,0.5-0.1c0.7,0,1.4,0.6,1.5,0.7c1,0.6,1.4,1.5,1,2.5c-0.4,1.1-1.5,1.8-2.1,1.9C9.1,47.6,9.1,47.6,9.1,47.6z
					 M8.8,42.9c-0.1,0-0.3,0-0.4,0.1c-0.8,0.4-2,1.8-1.8,2.8c0.2,0.9,2,1.5,2.5,1.5h0c0,0,0,0,0.1,0c0.4-0.1,1.4-0.7,1.8-1.7
					c0.3-0.9,0-1.6-0.9-2.1c0,0,0,0,0,0C10,43.5,9.4,42.9,8.8,42.9z"/>
			</g>
		</g>
		<g>
			<g>
				<path class="st3" d="M4.8,48.3c0.5-0.2,0.1-0.8,0.7-1.5c0.6-0.8,1.3-0.4,1.3-0.4l0,0c0.5,0.5,1.3,0.9,1.9,1l0,0
					c0.4,0.1,0.6,0.4,0.6,1S8.7,50.7,8,51.2c-0.6,0.5-1.3,0.2-1.9-0.2c-0.6-0.3-1.4-0.3-1.9-0.8C3.8,49.7,4.3,48.4,4.8,48.3z"/>
			</g>
			<g>
				<path class="st4" d="M7,48.5c0-0.1-0.1-1.1-0.1-0.8c-0.1,0.3,0,0.6-0.2,0.4c-0.2-0.2-0.5-0.3-0.2,0.1c0.2,0.4,0.4,1-0.2,1.2
					c-0.5,0.3-0.8,0.7-0.3,0.5c0.5-0.2,0.5-0.6,0.6-0.2c0.2,0.4,0.6,0.7,0.5,0.3c-0.1-0.4-0.4-1.3,0-1.2c0.5,0.1,0.9,0.3,0.6,0
					C7.3,48.7,7,48.7,7,48.5z"/>
			</g>
			<g>
				<path class="st1" d="M7.3,51.6c-0.5,0-0.9-0.2-1.3-0.4c-0.2-0.1-0.5-0.2-0.8-0.3c-0.4-0.1-0.8-0.2-1.1-0.5
					c-0.2-0.2-0.3-0.6-0.2-1.1c0.1-0.5,0.4-1,0.8-1.1c0.1,0,0.2-0.1,0.2-0.4c0-0.3,0.1-0.6,0.4-1c0.4-0.5,0.7-0.6,1-0.6
					c0.3,0,0.5,0.1,0.5,0.1c0,0,0,0,0,0c0.4,0.5,1.2,0.8,1.8,1c0,0,0,0,0,0c0.5,0.2,0.7,0.5,0.7,1.2c0,0.6-0.5,2.3-1.3,2.9
					C7.9,51.5,7.6,51.6,7.3,51.6z M6.3,46.5c-0.3,0-0.5,0.1-0.7,0.4c-0.2,0.3-0.3,0.6-0.3,0.8c0,0.3-0.1,0.6-0.4,0.7
					c-0.2,0.1-0.5,0.4-0.6,0.9c-0.1,0.4-0.1,0.7,0.1,0.8c0.2,0.2,0.6,0.3,1,0.4c0.3,0.1,0.6,0.2,0.9,0.3c0.4,0.2,0.7,0.4,1.1,0.4
					c0.2,0,0.4-0.1,0.6-0.2c0.6-0.5,1.1-2,1.1-2.6c0-0.6-0.2-0.8-0.5-0.9c-0.6-0.1-1.4-0.5-1.9-1C6.6,46.5,6.5,46.5,6.3,46.5z"/>
			</g>
		</g>
		<g>
			<g>
				<path class="st3" d="M4.8,60.2c0.3-0.1,0.6-0.1,0.8-0.2l0,0c1.3-0.3,1.3,0.9,1.6,2.1c0.2,1.2,0.8,2.2-1.3,2.6
					c-2.1,0.3-2.5-0.2-3.4-1.9c-0.9-1.7,0.2-2.9,0.2-2.9C3.1,60.3,4,60.4,4.8,60.2z"/>
			</g>
			<g>
				<path class="st4" d="M4.6,61.4c0.1-0.2,0.2-0.7,0-0.5c-0.2,0.1-0.3,0.4-0.3,0.7c0,0.3-0.1,0.5-0.5,0.4c-0.4-0.1-0.5,0.2,0.1,0.2
					c0.6,0,0.6-0.1,0.6,0.2c0,0.3-0.2,0.5-0.3,0.7c-0.1,0.2,0,0,0.3,0c0.2,0,0.4-0.1,0.5,0.2c0.1,0.3,0.1,1.1,0,1.2
					c-0.1,0.1-0.5,0.2-0.1,0.2c0.4,0,0.9,0,0.7-0.2c-0.2-0.3-0.3-0.5-0.2-0.7c0.1-0.2,0.6-0.2,0.3-0.4c-0.3-0.2-0.8-0.3-0.8-0.6
					C4.9,62.5,4.8,62,5,62c0.2,0,0.8-0.3,0.4-0.3C5.1,61.7,4.5,61.9,4.6,61.4z"/>
			</g>
			<g>
				<path class="st1" d="M4.8,64.9c-1.4,0-1.8-0.8-2.5-2.1c-0.9-1.8,0.2-3,0.2-3.1c0.1-0.1,0.2-0.1,0.2,0c0.4,0.3,0.9,0.4,1.4,0.4
					c0.2,0,0.4,0,0.7-0.1C5,60,5.3,59.9,5.5,59.8c0,0,0,0,0,0c0.1,0,0.3-0.1,0.4-0.1c1,0,1.1,0.9,1.3,1.9c0,0.1,0.1,0.3,0.1,0.4
					c0,0.1,0.1,0.3,0.1,0.4c0.1,0.6,0.3,1.2,0,1.6c-0.3,0.4-0.7,0.6-1.5,0.7C5.4,64.9,5.1,64.9,4.8,64.9z M2.6,60.1
					c-0.2,0.3-0.7,1.2-0.1,2.6c0.7,1.4,1.1,1.9,2.2,1.9c0.3,0,0.6,0,1-0.1c0.7-0.1,1.1-0.3,1.3-0.6c0.2-0.3,0.1-0.8,0-1.4
					c0-0.1-0.1-0.3-0.1-0.4c0-0.1-0.1-0.3-0.1-0.4c-0.2-1-0.3-1.6-0.9-1.6c-0.1,0-0.2,0-0.3,0c-0.3,0.1-0.5,0.2-0.8,0.2
					c-0.2,0.1-0.5,0.1-0.8,0.1c0,0,0,0,0,0C3.6,60.5,3.1,60.4,2.6,60.1z"/>
			</g>
		</g>
	</g>
</g>
</svg>
