<?xml version="1.0" encoding="utf-8"?>
<!-- Generator: Adobe Illustrator 27.0.1, SVG Export Plug-In . SVG Version: 6.00 Build 0)  -->
<svg version="1.1" id="Layer_1" xmlns="http://www.w3.org/2000/svg" xmlns:xlink="http://www.w3.org/1999/xlink" x="0px" y="0px"
	 viewBox="0 0 40 100" style="enable-background:new 0 0 40 100;" xml:space="preserve">
<style type="text/css">
	.st0{fill:#151414;}
	.st1{clip-path:url(#SVGID_00000111911777871182962900000016242248975203881393_);fill:#EDF1F7;}
	.st2{clip-path:url(#SVGID_00000111911777871182962900000016242248975203881393_);fill:#EDF2F7;}
	.st3{clip-path:url(#SVGID_00000111911777871182962900000016242248975203881393_);fill:#EEF3F7;}
	.st4{clip-path:url(#SVGID_00000111911777871182962900000016242248975203881393_);fill:#EFF3F9;}
	.st5{clip-path:url(#SVGID_00000111911777871182962900000016242248975203881393_);fill:#F0F4F9;}
	.st6{clip-path:url(#SVGID_00000111911777871182962900000016242248975203881393_);fill:#F1F5F9;}
	.st7{clip-path:url(#SVGID_00000111911777871182962900000016242248975203881393_);fill:#F3F6FA;}
	.st8{clip-path:url(#SVGID_00000111911777871182962900000016242248975203881393_);fill:#F3F7FC;}
	.st9{clip-path:url(#SVGID_00000111911777871182962900000016242248975203881393_);fill:#F6F7FA;}
	.st10{clip-path:url(#SVGID_00000111911777871182962900000016242248975203881393_);fill:#F7F9FB;}
	.st11{clip-path:url(#SVGID_00000111911777871182962900000016242248975203881393_);fill:#F7FBFE;}
	.st12{clip-path:url(#SVGID_00000111911777871182962900000016242248975203881393_);fill:#F8FBFE;}
	.st13{clip-path:url(#SVGID_00000111911777871182962900000016242248975203881393_);fill:#FAFCFE;}
	.st14{clip-path:url(#SVGID_00000111911777871182962900000016242248975203881393_);fill:#FBFEFF;}
	.st15{clip-path:url(#SVGID_00000111911777871182962900000016242248975203881393_);fill:#FDFEFF;}
	.st16{clip-path:url(#SVGID_00000111911777871182962900000016242248975203881393_);fill:#FFFFFF;}
	.st17{clip-path:url(#SVGID_00000052819443622597381990000002060869794358117541_);fill:#E39975;}
	.st18{clip-path:url(#SVGID_00000052819443622597381990000002060869794358117541_);fill:#E29975;}
	.st19{clip-path:url(#SVGID_00000052819443622597381990000002060869794358117541_);fill:#E39A77;}
	.st20{clip-path:url(#SVGID_00000052819443622597381990000002060869794358117541_);fill:#E39C78;}
	.st21{clip-path:url(#SVGID_00000052819443622597381990000002060869794358117541_);fill:#E39C79;}
	.st22{clip-path:url(#SVGID_00000052819443622597381990000002060869794358117541_);fill:#E39D7A;}
	.st23{clip-path:url(#SVGID_00000052819443622597381990000002060869794358117541_);fill:#E49D7B;}
	.st24{clip-path:url(#SVGID_00000052819443622597381990000002060869794358117541_);fill:#E59F7B;}
	.st25{clip-path:url(#SVGID_00000052819443622597381990000002060869794358117541_);fill:#E5A07C;}
	.st26{clip-path:url(#SVGID_00000052819443622597381990000002060869794358117541_);fill:#E5A07D;}
	.st27{clip-path:url(#SVGID_00000052819443622597381990000002060869794358117541_);fill:#E5A17E;}
	.st28{clip-path:url(#SVGID_00000052819443622597381990000002060869794358117541_);fill:#E5A17F;}
	.st29{clip-path:url(#SVGID_00000052819443622597381990000002060869794358117541_);fill:#E5A380;}
	.st30{clip-path:url(#SVGID_00000052819443622597381990000002060869794358117541_);fill:#E6A481;}
	.st31{clip-path:url(#SVGID_00000052819443622597381990000002060869794358117541_);fill:#E6A482;}
	.st32{clip-path:url(#SVGID_00000052819443622597381990000002060869794358117541_);fill:#E6A683;}
	.st33{clip-path:url(#SVGID_00000052819443622597381990000002060869794358117541_);fill:#E6A785;}
	.st34{clip-path:url(#SVGID_00000052819443622597381990000002060869794358117541_);fill:#E7A785;}
	.st35{clip-path:url(#SVGID_00000052819443622597381990000002060869794358117541_);fill:#E7A886;}
	.st36{clip-path:url(#SVGID_00000052819443622597381990000002060869794358117541_);fill:#E7A887;}
	.st37{clip-path:url(#SVGID_00000052819443622597381990000002060869794358117541_);fill:#E7AA89;}
	.st38{clip-path:url(#SVGID_00000052819443622597381990000002060869794358117541_);fill:#E8AB8A;}
	.st39{clip-path:url(#SVGID_00000052819443622597381990000002060869794358117541_);fill:#E8AC8A;}
	.st40{clip-path:url(#SVGID_00000052819443622597381990000002060869794358117541_);fill:#E8AC8B;}
	.st41{clip-path:url(#SVGID_00000052819443622597381990000002060869794358117541_);fill:#E8AE8C;}
	.st42{clip-path:url(#SVGID_00000052819443622597381990000002060869794358117541_);fill:#E8AD8D;}
	.st43{clip-path:url(#SVGID_00000052819443622597381990000002060869794358117541_);fill:#E9AF8F;}
	.st44{clip-path:url(#SVGID_00000052819443622597381990000002060869794358117541_);fill:#E9B090;}
	.st45{clip-path:url(#SVGID_00000052819443622597381990000002060869794358117541_);fill:#EAB191;}
	.st46{clip-path:url(#SVGID_00000052819443622597381990000002060869794358117541_);fill:#EAB392;}
	.st47{clip-path:url(#SVGID_00000052819443622597381990000002060869794358117541_);fill:#EAB394;}
	.st48{clip-path:url(#SVGID_00000052819443622597381990000002060869794358117541_);fill:#EAB395;}
	.st49{clip-path:url(#SVGID_00000052819443622597381990000002060869794358117541_);fill:#EBB495;}
	.st50{clip-path:url(#SVGID_00000052819443622597381990000002060869794358117541_);fill:#EBB596;}
	.st51{clip-path:url(#SVGID_00000052819443622597381990000002060869794358117541_);fill:#EBB697;}
	.st52{clip-path:url(#SVGID_00000052819443622597381990000002060869794358117541_);fill:#EBB798;}
	.st53{clip-path:url(#SVGID_00000052819443622597381990000002060869794358117541_);fill:#ECB899;}
	.st54{clip-path:url(#SVGID_00000052819443622597381990000002060869794358117541_);fill:#ECB89A;}
	.st55{clip-path:url(#SVGID_00000052819443622597381990000002060869794358117541_);fill:#ECB99B;}
	.st56{clip-path:url(#SVGID_00000052819443622597381990000002060869794358117541_);fill:#ECBA9C;}
	.st57{clip-path:url(#SVGID_00000052819443622597381990000002060869794358117541_);fill:#EDBB9D;}
	.st58{clip-path:url(#SVGID_00000052819443622597381990000002060869794358117541_);fill:#EDBC9E;}
	.st59{clip-path:url(#SVGID_00000052819443622597381990000002060869794358117541_);fill:#EDBD9F;}
	.st60{clip-path:url(#SVGID_00000052819443622597381990000002060869794358117541_);fill:#ECBEA0;}
	.st61{clip-path:url(#SVGID_00000052819443622597381990000002060869794358117541_);fill:#EDBEA1;}
	.st62{clip-path:url(#SVGID_00000052819443622597381990000002060869794358117541_);fill:#EDBFA2;}
	.st63{clip-path:url(#SVGID_00000052819443622597381990000002060869794358117541_);fill:#EDC0A3;}
	.st64{clip-path:url(#SVGID_00000052819443622597381990000002060869794358117541_);fill:#EEC1A5;}
	.st65{clip-path:url(#SVGID_00000052819443622597381990000002060869794358117541_);fill:#EEC2A6;}
	.st66{clip-path:url(#SVGID_00000052819443622597381990000002060869794358117541_);fill:#EEC3A7;}
	.st67{clip-path:url(#SVGID_00000052819443622597381990000002060869794358117541_);fill:#EFC5A9;}
	.st68{clip-path:url(#SVGID_00000052819443622597381990000002060869794358117541_);fill:#F0C4AA;}
	.st69{clip-path:url(#SVGID_00000052819443622597381990000002060869794358117541_);fill:#F0C6AB;}
	.st70{clip-path:url(#SVGID_00000052819443622597381990000002060869794358117541_);fill:#F0C7AC;}
	.st71{clip-path:url(#SVGID_00000052819443622597381990000002060869794358117541_);fill:#F0C8AD;}
	.st72{clip-path:url(#SVGID_00000052819443622597381990000002060869794358117541_);fill:#F1C9AE;}
	.st73{clip-path:url(#SVGID_00000052819443622597381990000002060869794358117541_);fill:#F1CAAF;}
	.st74{clip-path:url(#SVGID_00000052819443622597381990000002060869794358117541_);fill:#F1CBB0;}
	.st75{clip-path:url(#SVGID_00000052819443622597381990000002060869794358117541_);fill:#F1CBB1;}
	.st76{clip-path:url(#SVGID_00000052819443622597381990000002060869794358117541_);fill:#F2CBB2;}
	.st77{clip-path:url(#SVGID_00000052819443622597381990000002060869794358117541_);fill:#F2CDB3;}
	.st78{clip-path:url(#SVGID_00000052819443622597381990000002060869794358117541_);fill:#F2CEB4;}
	.st79{clip-path:url(#SVGID_00000052819443622597381990000002060869794358117541_);fill:#F1CEB4;}
	.st80{clip-path:url(#SVGID_00000052819443622597381990000002060869794358117541_);fill:#F2CFB5;}
	.st81{clip-path:url(#SVGID_00000052819443622597381990000002060869794358117541_);fill:#F3D1B6;}
	.st82{clip-path:url(#SVGID_00000052819443622597381990000002060869794358117541_);fill:#F2D0B7;}
	.st83{clip-path:url(#SVGID_00000052819443622597381990000002060869794358117541_);fill:#F2D1B8;}
	.st84{clip-path:url(#SVGID_00000052819443622597381990000002060869794358117541_);fill:#F3D2B9;}
	.st85{clip-path:url(#SVGID_00000052819443622597381990000002060869794358117541_);fill:#F3D3BA;}
	.st86{clip-path:url(#SVGID_00000052819443622597381990000002060869794358117541_);fill:#F4D4BB;}
	.st87{clip-path:url(#SVGID_00000052819443622597381990000002060869794358117541_);fill:#F4D5BC;}
	.st88{clip-path:url(#SVGID_00000052819443622597381990000002060869794358117541_);fill:#F5D6BD;}
	.st89{clip-path:url(#SVGID_00000052819443622597381990000002060869794358117541_);fill:#F5D6BE;}
	.st90{clip-path:url(#SVGID_00000052819443622597381990000002060869794358117541_);fill:#F5D7BF;}
	.st91{clip-path:url(#SVGID_00000052819443622597381990000002060869794358117541_);fill:#F6D8C0;}
	.st92{clip-path:url(#SVGID_00000052819443622597381990000002060869794358117541_);fill:#F6D9C1;}
	.st93{clip-path:url(#SVGID_00000052819443622597381990000002060869794358117541_);fill:#F6DAC2;}
	.st94{clip-path:url(#SVGID_00000052819443622597381990000002060869794358117541_);fill:#F6DBC3;}
	.st95{clip-path:url(#SVGID_00000052819443622597381990000002060869794358117541_);fill:#F7DBC4;}
	.st96{clip-path:url(#SVGID_00000052819443622597381990000002060869794358117541_);fill:#F7DCC5;}
	.st97{clip-path:url(#SVGID_00000052819443622597381990000002060869794358117541_);fill:#F7DEC6;}
	.st98{clip-path:url(#SVGID_00000052819443622597381990000002060869794358117541_);fill:#F7DEC7;}
	.st99{clip-path:url(#SVGID_00000052819443622597381990000002060869794358117541_);fill:#F7DEC8;}
	.st100{clip-path:url(#SVGID_00000052819443622597381990000002060869794358117541_);fill:#F7E0C9;}
	.st101{clip-path:url(#SVGID_00000052819443622597381990000002060869794358117541_);fill:#F7E1CB;}
	.st102{clip-path:url(#SVGID_00000052819443622597381990000002060869794358117541_);fill:#F8E2CC;}
	.st103{clip-path:url(#SVGID_00000052819443622597381990000002060869794358117541_);fill:#F9E3CD;}
	.st104{clip-path:url(#SVGID_00000052819443622597381990000002060869794358117541_);fill:#F7E3CE;}
	.st105{clip-path:url(#SVGID_00000052819443622597381990000002060869794358117541_);fill:#F8E5CF;}
	.st106{clip-path:url(#SVGID_00000052819443622597381990000002060869794358117541_);fill:#F9E5D0;}
	.st107{clip-path:url(#SVGID_00000052819443622597381990000002060869794358117541_);fill:#F9E7D1;}
	.st108{clip-path:url(#SVGID_00000052819443622597381990000002060869794358117541_);fill:#F9E6D2;}
	.st109{clip-path:url(#SVGID_00000052819443622597381990000002060869794358117541_);fill:#F9E8D3;}
	.st110{clip-path:url(#SVGID_00000052819443622597381990000002060869794358117541_);fill:#FAE9D4;}
	.st111{clip-path:url(#SVGID_00000052819443622597381990000002060869794358117541_);fill:#FAEAD5;}
	.st112{clip-path:url(#SVGID_00000052819443622597381990000002060869794358117541_);fill:#FAEAD6;}
	.st113{clip-path:url(#SVGID_00000052819443622597381990000002060869794358117541_);fill:#FCECD8;}
	.st114{clip-path:url(#SVGID_00000052819443622597381990000002060869794358117541_);fill:#FCEDDA;}
</style>
<g>
	<g id="path158_00000037688266350519879320000007772386019739607690_">
		<path class="st0" d="M30.98,70.44c-0.01-0.09-0.04-0.18-0.05-0.28c-0.15-1.09-0.2-2.21-0.25-3.31c-0.03-0.49-0.04-0.98-0.08-1.47
			l-0.08-1.32c-0.36-5.75-0.73-11.7-1.73-17.48c-0.59-3.43-1.46-6.89-2.31-10.24l-0.43-1.71c-0.56-2.24-1.33-4.46-2.07-6.61
			c-0.61-1.77-1.25-3.6-1.76-5.44c-0.74-2.64-1.26-5.36-1.54-8.1c-0.06-0.55-0.08-1.13-0.1-1.74c-0.08-2.06-0.15-4.19-1.63-5.55
			c-0.24-0.22-0.56-0.35-0.84-0.35c-0.12,0-0.23,0.03-0.34,0.08c-0.39,0.18-0.58,0.67-0.73,1.16c-3.3,9.96-4.38,20.63-5.41,30.95
			c-0.21,2.07-0.42,4.15-0.64,6.21c-0.23,2.11-0.43,4.27-0.63,6.35c-0.53,5.72-1.09,11.63-2.3,17.34c0.34-0.15,0.7-0.25,1.06-0.34
			c0.36-0.09,0.7-0.18,1.01-0.32c0.78-0.35,1.58-0.86,2.44-1.57c0.52-0.44,1.04-0.91,1.54-1.37c0.85-0.78,1.73-1.59,2.71-2.25
			c2.3-1.54,5.67-2.14,7.66,0.16c0.59,0.68,1.15,1.38,1.71,2.08C27.74,67.21,29.18,68.98,30.98,70.44L30.98,70.44z M33.7,94.79
			c0.75-7.96-1.07-16.52-2.55-23.44l-0.01,0.02l-0.04-0.03c-2.11-1.58-3.77-3.62-5.37-5.6c-0.56-0.7-1.13-1.38-1.71-2.07
			c-1.73-2.01-4.75-1.44-6.82-0.05c-0.95,0.63-1.81,1.42-2.64,2.19c-0.51,0.46-1.03,0.94-1.57,1.38c-0.91,0.75-1.76,1.29-2.59,1.66
			c-0.36,0.16-0.73,0.26-1.1,0.35c-0.51,0.13-0.99,0.26-1.38,0.53C6.33,77.46,5.85,83.27,6.27,89.6c0.03,0.51,0.03,1.02,0.03,1.51
			c-0.01,0.98-0.02,1.91,0.25,2.79c0.51,1.71,1.68,2.83,3.14,3c1.07,0.13,2.02,0.35,2.95,0.55c1.18,0.27,2.29,0.52,3.6,0.59
			c3.46,0.21,6.34,0.31,9.06,0.31c1.87,0,3.6-0.04,5.3-0.14C32.48,98.12,33.49,97,33.7,94.79L33.7,94.79z M31.73,71.02
			c1.5,6.99,3.36,15.69,2.6,23.83c-0.23,2.54-1.49,3.88-3.71,4.01C28.9,98.96,27.17,99,25.29,99c-2.74,0-5.63-0.09-9.1-0.31
			c-1.36-0.08-2.55-0.35-3.7-0.61c-0.91-0.2-1.85-0.42-2.88-0.54c-1.71-0.21-3.08-1.5-3.67-3.45c-0.3-0.98-0.28-2-0.27-2.98
			c0-0.48,0.01-0.98-0.03-1.46C5.2,83.03,5.73,77,7.46,68.83c1.21-5.68,1.76-11.58,2.29-17.29c0.2-2.09,0.4-4.25,0.63-6.37
			c0.22-2.06,0.43-4.13,0.64-6.2c1.04-10.35,2.11-21.06,5.44-31.08c0.2-0.58,0.46-1.23,1.06-1.52c0.58-0.27,1.35-0.11,1.88,0.39
			c1.67,1.52,1.75,3.9,1.83,5.98c0.02,0.6,0.04,1.17,0.09,1.7c0.28,2.7,0.78,5.39,1.52,7.99c0.51,1.82,1.14,3.64,1.75,5.4
			c0.75,2.16,1.52,4.39,2.09,6.66l0.43,1.71c0.85,3.36,1.72,6.84,2.31,10.29c1,5.81,1.37,11.77,1.74,17.55l0.08,1.32
			c0.03,0.49,0.05,0.99,0.08,1.48c0.04,1.07,0.09,2.19,0.24,3.24C31.6,70.39,31.67,70.7,31.73,71.02"/>
	</g>
	<g id="path162">
		<g>
			<defs>
				<path id="SVGID_1_" d="M31.16,71.35c1.48,6.92,3.29,15.48,2.55,23.44c-0.21,2.21-1.23,3.33-3.12,3.44
					c-1.7,0.09-3.43,0.14-5.3,0.14c-2.73,0-5.6-0.09-9.06-0.31c-1.31-0.08-2.42-0.33-3.6-0.59c-0.92-0.2-1.88-0.42-2.95-0.55
					c-1.45-0.18-2.62-1.3-3.14-3c-0.27-0.89-0.26-1.81-0.25-2.79c0-0.49,0.01-1.01-0.03-1.51c-0.42-6.34,0.06-12.15,1.65-19.86
					c0.39-0.27,0.87-0.4,1.38-0.53c0.37-0.09,0.74-0.2,1.1-0.35c0.83-0.37,1.68-0.92,2.59-1.66c0.54-0.44,1.06-0.92,1.57-1.38
					c0.83-0.77,1.69-1.56,2.64-2.19c2.07-1.38,5.09-1.96,6.82,0.05c0.58,0.68,1.14,1.37,1.71,2.07c1.6,1.98,3.26,4.02,5.37,5.6
					l0.04,0.03L31.16,71.35"/>
			</defs>
			<clipPath id="SVGID_00000090989060538019029620000004441062949231355028_">
				<use xlink:href="#SVGID_1_"  style="overflow:visible;"/>
			</clipPath>
			
				<rect x="5.85" y="87.48" style="clip-path:url(#SVGID_00000090989060538019029620000004441062949231355028_);fill:#EDF1F7;" width="28.6" height="10.88"/>
			
				<rect x="5.85" y="86.64" style="clip-path:url(#SVGID_00000090989060538019029620000004441062949231355028_);fill:#EDF1F7;" width="28.6" height="0.84"/>
			
				<rect x="5.85" y="85.8" style="clip-path:url(#SVGID_00000090989060538019029620000004441062949231355028_);fill:#EDF2F7;" width="28.6" height="0.84"/>
			
				<rect x="5.85" y="84.96" style="clip-path:url(#SVGID_00000090989060538019029620000004441062949231355028_);fill:#EEF3F7;" width="28.6" height="0.84"/>
			
				<rect x="5.85" y="84.12" style="clip-path:url(#SVGID_00000090989060538019029620000004441062949231355028_);fill:#EFF3F9;" width="28.6" height="0.84"/>
			
				<rect x="5.85" y="83.28" style="clip-path:url(#SVGID_00000090989060538019029620000004441062949231355028_);fill:#F0F4F9;" width="28.6" height="0.84"/>
			
				<rect x="5.85" y="82.44" style="clip-path:url(#SVGID_00000090989060538019029620000004441062949231355028_);fill:#F1F5F9;" width="28.6" height="0.84"/>
			
				<rect x="5.85" y="81.6" style="clip-path:url(#SVGID_00000090989060538019029620000004441062949231355028_);fill:#F3F6FA;" width="28.6" height="0.84"/>
			
				<rect x="5.85" y="80.76" style="clip-path:url(#SVGID_00000090989060538019029620000004441062949231355028_);fill:#F3F6FA;" width="28.6" height="0.84"/>
			
				<rect x="5.85" y="79.92" style="clip-path:url(#SVGID_00000090989060538019029620000004441062949231355028_);fill:#F3F7FC;" width="28.6" height="0.84"/>
			
				<rect x="5.85" y="79.08" style="clip-path:url(#SVGID_00000090989060538019029620000004441062949231355028_);fill:#F6F7FA;" width="28.6" height="0.84"/>
			
				<rect x="5.85" y="78.24" style="clip-path:url(#SVGID_00000090989060538019029620000004441062949231355028_);fill:#F7F9FB;" width="28.6" height="0.84"/>
			
				<rect x="5.85" y="77.4" style="clip-path:url(#SVGID_00000090989060538019029620000004441062949231355028_);fill:#F7FBFE;" width="28.6" height="0.84"/>
			
				<rect x="5.85" y="76.56" style="clip-path:url(#SVGID_00000090989060538019029620000004441062949231355028_);fill:#F8FBFE;" width="28.6" height="0.84"/>
			
				<rect x="5.85" y="75.72" style="clip-path:url(#SVGID_00000090989060538019029620000004441062949231355028_);fill:#FAFCFE;" width="28.6" height="0.84"/>
			
				<rect x="5.85" y="74.88" style="clip-path:url(#SVGID_00000090989060538019029620000004441062949231355028_);fill:#FBFEFF;" width="28.6" height="0.84"/>
			
				<rect x="5.85" y="74.03" style="clip-path:url(#SVGID_00000090989060538019029620000004441062949231355028_);fill:#FDFEFF;" width="28.6" height="0.84"/>
			
				<rect x="5.85" y="73.19" style="clip-path:url(#SVGID_00000090989060538019029620000004441062949231355028_);fill:#FFFFFF;" width="28.6" height="0.84"/>
			
				<rect x="5.85" y="72.35" style="clip-path:url(#SVGID_00000090989060538019029620000004441062949231355028_);fill:#FFFFFF;" width="28.6" height="0.84"/>
			
				<rect x="5.85" y="71.51" style="clip-path:url(#SVGID_00000090989060538019029620000004441062949231355028_);fill:#FFFFFF;" width="28.6" height="0.84"/>
			
				<rect x="5.85" y="61.66" style="clip-path:url(#SVGID_00000090989060538019029620000004441062949231355028_);fill:#FFFFFF;" width="28.6" height="9.86"/>
		</g>
	</g>
	<g id="path166_00000059994651654043500900000011674799732852278452_">
		<g>
			<defs>
				<path id="SVGID_00000029736436410552066620000010192926215428654476_" d="M30.93,70.16c0.01,0.09,0.04,0.18,0.05,0.28
					c-1.8-1.46-3.24-3.23-4.76-5.1c-0.56-0.7-1.13-1.4-1.71-2.08c-1.99-2.31-5.36-1.7-7.66-0.16c-0.99,0.66-1.87,1.47-2.71,2.25
					c-0.5,0.46-1.02,0.93-1.54,1.37c-0.86,0.71-1.66,1.22-2.44,1.57C9.84,68.42,9.5,68.5,9.14,68.6c-0.35,0.09-0.71,0.2-1.06,0.34
					c1.21-5.71,1.76-11.62,2.3-17.34c0.2-2.09,0.4-4.24,0.63-6.35c0.23-2.06,0.44-4.14,0.64-6.21c1.03-10.31,2.11-20.99,5.41-30.95
					c0.16-0.49,0.35-0.97,0.73-1.16c0.1-0.05,0.21-0.08,0.34-0.08c0.28,0,0.6,0.13,0.84,0.35c1.47,1.35,1.55,3.48,1.63,5.55
					c0.03,0.61,0.04,1.19,0.1,1.74c0.28,2.74,0.8,5.46,1.54,8.1c0.51,1.84,1.15,3.67,1.76,5.44c0.74,2.14,1.51,4.37,2.07,6.61
					l0.43,1.71c0.85,3.35,1.71,6.82,2.31,10.24c0.99,5.77,1.37,11.72,1.73,17.48l0.08,1.32c0.03,0.49,0.05,0.98,0.08,1.47
					C30.74,67.95,30.79,69.07,30.93,70.16"/>
			</defs>
			<clipPath id="SVGID_00000123427047538163393150000009874167767667954084_">
				<use xlink:href="#SVGID_00000029736436410552066620000010192926215428654476_"  style="overflow:visible;"/>
			</clipPath>
			<path style="clip-path:url(#SVGID_00000123427047538163393150000009874167767667954084_);fill:#E39975;" d="M8.09,70.44h22.9
				H8.09z"/>
			
				<rect x="8.09" y="70.2" style="clip-path:url(#SVGID_00000123427047538163393150000009874167767667954084_);fill:#E39975;" width="22.9" height="0.24"/>
			
				<rect x="8.09" y="69.95" style="clip-path:url(#SVGID_00000123427047538163393150000009874167767667954084_);fill:#E29975;" width="22.9" height="0.24"/>
			
				<rect x="8.09" y="69.71" style="clip-path:url(#SVGID_00000123427047538163393150000009874167767667954084_);fill:#E39A77;" width="22.9" height="0.24"/>
			
				<rect x="8.09" y="69.47" style="clip-path:url(#SVGID_00000123427047538163393150000009874167767667954084_);fill:#E39C78;" width="22.9" height="0.24"/>
			
				<rect x="8.09" y="69.22" style="clip-path:url(#SVGID_00000123427047538163393150000009874167767667954084_);fill:#E39C79;" width="22.9" height="0.24"/>
			
				<rect x="8.09" y="68.98" style="clip-path:url(#SVGID_00000123427047538163393150000009874167767667954084_);fill:#E39D7A;" width="22.9" height="0.24"/>
			
				<rect x="8.09" y="68.74" style="clip-path:url(#SVGID_00000123427047538163393150000009874167767667954084_);fill:#E49D7B;" width="22.9" height="0.24"/>
			
				<rect x="8.09" y="68.49" style="clip-path:url(#SVGID_00000123427047538163393150000009874167767667954084_);fill:#E59F7B;" width="22.9" height="0.24"/>
			
				<rect x="8.09" y="68.25" style="clip-path:url(#SVGID_00000123427047538163393150000009874167767667954084_);fill:#E5A07C;" width="22.9" height="0.24"/>
			
				<rect x="8.09" y="68.01" style="clip-path:url(#SVGID_00000123427047538163393150000009874167767667954084_);fill:#E5A07D;" width="22.9" height="0.24"/>
			
				<rect x="8.09" y="67.76" style="clip-path:url(#SVGID_00000123427047538163393150000009874167767667954084_);fill:#E5A17E;" width="22.9" height="0.24"/>
			
				<rect x="8.09" y="67.52" style="clip-path:url(#SVGID_00000123427047538163393150000009874167767667954084_);fill:#E5A17F;" width="22.9" height="0.24"/>
			
				<rect x="8.09" y="67.28" style="clip-path:url(#SVGID_00000123427047538163393150000009874167767667954084_);fill:#E5A380;" width="22.9" height="0.24"/>
			
				<rect x="8.09" y="67.03" style="clip-path:url(#SVGID_00000123427047538163393150000009874167767667954084_);fill:#E6A481;" width="22.9" height="0.24"/>
			
				<rect x="8.09" y="66.79" style="clip-path:url(#SVGID_00000123427047538163393150000009874167767667954084_);fill:#E6A482;" width="22.9" height="0.24"/>
			
				<rect x="8.09" y="66.55" style="clip-path:url(#SVGID_00000123427047538163393150000009874167767667954084_);fill:#E6A683;" width="22.9" height="0.24"/>
			
				<rect x="8.09" y="66.3" style="clip-path:url(#SVGID_00000123427047538163393150000009874167767667954084_);fill:#E6A785;" width="22.9" height="0.24"/>
			
				<rect x="8.09" y="66.06" style="clip-path:url(#SVGID_00000123427047538163393150000009874167767667954084_);fill:#E7A785;" width="22.9" height="0.24"/>
			
				<rect x="8.09" y="65.82" style="clip-path:url(#SVGID_00000123427047538163393150000009874167767667954084_);fill:#E7A886;" width="22.9" height="0.24"/>
			
				<rect x="8.09" y="65.57" style="clip-path:url(#SVGID_00000123427047538163393150000009874167767667954084_);fill:#E7A887;" width="22.9" height="0.24"/>
			
				<rect x="8.09" y="65.33" style="clip-path:url(#SVGID_00000123427047538163393150000009874167767667954084_);fill:#E7AA89;" width="22.9" height="0.24"/>
			
				<rect x="8.09" y="65.09" style="clip-path:url(#SVGID_00000123427047538163393150000009874167767667954084_);fill:#E8AB8A;" width="22.9" height="0.24"/>
			
				<rect x="8.09" y="64.84" style="clip-path:url(#SVGID_00000123427047538163393150000009874167767667954084_);fill:#E8AC8A;" width="22.9" height="0.24"/>
			
				<rect x="8.09" y="64.6" style="clip-path:url(#SVGID_00000123427047538163393150000009874167767667954084_);fill:#E8AC8B;" width="22.9" height="0.24"/>
			
				<rect x="8.09" y="64.36" style="clip-path:url(#SVGID_00000123427047538163393150000009874167767667954084_);fill:#E8AE8C;" width="22.9" height="0.24"/>
			
				<rect x="8.09" y="64.11" style="clip-path:url(#SVGID_00000123427047538163393150000009874167767667954084_);fill:#E8AD8D;" width="22.9" height="0.24"/>
			
				<rect x="8.09" y="63.87" style="clip-path:url(#SVGID_00000123427047538163393150000009874167767667954084_);fill:#E9AF8F;" width="22.9" height="0.24"/>
			
				<rect x="8.09" y="63.63" style="clip-path:url(#SVGID_00000123427047538163393150000009874167767667954084_);fill:#E9AF8F;" width="22.9" height="0.24"/>
			
				<rect x="8.09" y="63.38" style="clip-path:url(#SVGID_00000123427047538163393150000009874167767667954084_);fill:#E9B090;" width="22.9" height="0.24"/>
			
				<rect x="8.09" y="63.14" style="clip-path:url(#SVGID_00000123427047538163393150000009874167767667954084_);fill:#EAB191;" width="22.9" height="0.24"/>
			
				<rect x="8.09" y="62.9" style="clip-path:url(#SVGID_00000123427047538163393150000009874167767667954084_);fill:#EAB392;" width="22.9" height="0.24"/>
			
				<rect x="8.09" y="62.65" style="clip-path:url(#SVGID_00000123427047538163393150000009874167767667954084_);fill:#EAB394;" width="22.9" height="0.24"/>
			
				<rect x="8.09" y="62.41" style="clip-path:url(#SVGID_00000123427047538163393150000009874167767667954084_);fill:#EAB395;" width="22.9" height="0.24"/>
			
				<rect x="8.09" y="62.17" style="clip-path:url(#SVGID_00000123427047538163393150000009874167767667954084_);fill:#EBB495;" width="22.9" height="0.24"/>
			
				<rect x="8.09" y="61.92" style="clip-path:url(#SVGID_00000123427047538163393150000009874167767667954084_);fill:#EBB596;" width="22.9" height="0.24"/>
			
				<rect x="8.09" y="61.68" style="clip-path:url(#SVGID_00000123427047538163393150000009874167767667954084_);fill:#EBB697;" width="22.9" height="0.24"/>
			
				<rect x="8.09" y="61.44" style="clip-path:url(#SVGID_00000123427047538163393150000009874167767667954084_);fill:#EBB798;" width="22.9" height="0.24"/>
			
				<rect x="8.09" y="61.2" style="clip-path:url(#SVGID_00000123427047538163393150000009874167767667954084_);fill:#ECB899;" width="22.9" height="0.24"/>
			
				<rect x="8.09" y="60.95" style="clip-path:url(#SVGID_00000123427047538163393150000009874167767667954084_);fill:#ECB89A;" width="22.9" height="0.24"/>
			
				<rect x="8.09" y="60.71" style="clip-path:url(#SVGID_00000123427047538163393150000009874167767667954084_);fill:#ECB99B;" width="22.9" height="0.24"/>
			
				<rect x="8.09" y="60.47" style="clip-path:url(#SVGID_00000123427047538163393150000009874167767667954084_);fill:#ECBA9C;" width="22.9" height="0.24"/>
			
				<rect x="8.09" y="60.22" style="clip-path:url(#SVGID_00000123427047538163393150000009874167767667954084_);fill:#EDBB9D;" width="22.9" height="0.24"/>
			
				<rect x="8.09" y="59.98" style="clip-path:url(#SVGID_00000123427047538163393150000009874167767667954084_);fill:#EDBC9E;" width="22.9" height="0.24"/>
			
				<rect x="8.09" y="59.74" style="clip-path:url(#SVGID_00000123427047538163393150000009874167767667954084_);fill:#EDBD9F;" width="22.9" height="0.24"/>
			
				<rect x="8.09" y="59.49" style="clip-path:url(#SVGID_00000123427047538163393150000009874167767667954084_);fill:#ECBEA0;" width="22.9" height="0.24"/>
			
				<rect x="8.09" y="59.25" style="clip-path:url(#SVGID_00000123427047538163393150000009874167767667954084_);fill:#EDBEA1;" width="22.9" height="0.24"/>
			
				<rect x="8.09" y="59.01" style="clip-path:url(#SVGID_00000123427047538163393150000009874167767667954084_);fill:#EDBFA2;" width="22.9" height="0.24"/>
			
				<rect x="8.09" y="58.76" style="clip-path:url(#SVGID_00000123427047538163393150000009874167767667954084_);fill:#EDC0A3;" width="22.9" height="0.24"/>
			
				<rect x="8.09" y="58.52" style="clip-path:url(#SVGID_00000123427047538163393150000009874167767667954084_);fill:#EEC1A5;" width="22.9" height="0.24"/>
			
				<rect x="8.09" y="58.28" style="clip-path:url(#SVGID_00000123427047538163393150000009874167767667954084_);fill:#EEC2A6;" width="22.9" height="0.24"/>
			
				<rect x="8.09" y="58.03" style="clip-path:url(#SVGID_00000123427047538163393150000009874167767667954084_);fill:#EEC3A7;" width="22.9" height="0.24"/>
			
				<rect x="8.09" y="57.79" style="clip-path:url(#SVGID_00000123427047538163393150000009874167767667954084_);fill:#EFC5A9;" width="22.9" height="0.24"/>
			
				<rect x="8.09" y="57.55" style="clip-path:url(#SVGID_00000123427047538163393150000009874167767667954084_);fill:#F0C4AA;" width="22.9" height="0.24"/>
			
				<rect x="8.09" y="57.3" style="clip-path:url(#SVGID_00000123427047538163393150000009874167767667954084_);fill:#F0C6AB;" width="22.9" height="0.24"/>
			
				<rect x="8.09" y="57.06" style="clip-path:url(#SVGID_00000123427047538163393150000009874167767667954084_);fill:#F0C7AC;" width="22.9" height="0.24"/>
			
				<rect x="8.09" y="56.82" style="clip-path:url(#SVGID_00000123427047538163393150000009874167767667954084_);fill:#F0C8AD;" width="22.9" height="0.24"/>
			
				<rect x="8.09" y="56.57" style="clip-path:url(#SVGID_00000123427047538163393150000009874167767667954084_);fill:#F1C9AE;" width="22.9" height="0.24"/>
			
				<rect x="8.09" y="56.33" style="clip-path:url(#SVGID_00000123427047538163393150000009874167767667954084_);fill:#F1CAAF;" width="22.9" height="0.24"/>
			
				<rect x="8.09" y="56.09" style="clip-path:url(#SVGID_00000123427047538163393150000009874167767667954084_);fill:#F1CBB0;" width="22.9" height="0.24"/>
			
				<rect x="8.09" y="55.84" style="clip-path:url(#SVGID_00000123427047538163393150000009874167767667954084_);fill:#F1CBB1;" width="22.9" height="0.24"/>
			
				<rect x="8.09" y="55.6" style="clip-path:url(#SVGID_00000123427047538163393150000009874167767667954084_);fill:#F2CBB2;" width="22.9" height="0.24"/>
			
				<rect x="8.09" y="55.36" style="clip-path:url(#SVGID_00000123427047538163393150000009874167767667954084_);fill:#F2CDB3;" width="22.9" height="0.24"/>
			
				<rect x="8.09" y="55.11" style="clip-path:url(#SVGID_00000123427047538163393150000009874167767667954084_);fill:#F2CEB4;" width="22.9" height="0.24"/>
			
				<rect x="8.09" y="54.87" style="clip-path:url(#SVGID_00000123427047538163393150000009874167767667954084_);fill:#F1CEB4;" width="22.9" height="0.24"/>
			
				<rect x="8.09" y="54.63" style="clip-path:url(#SVGID_00000123427047538163393150000009874167767667954084_);fill:#F2CFB5;" width="22.9" height="0.24"/>
			
				<rect x="8.09" y="54.38" style="clip-path:url(#SVGID_00000123427047538163393150000009874167767667954084_);fill:#F3D1B6;" width="22.9" height="0.24"/>
			
				<rect x="8.09" y="54.14" style="clip-path:url(#SVGID_00000123427047538163393150000009874167767667954084_);fill:#F2D0B7;" width="22.9" height="0.24"/>
			
				<rect x="8.09" y="53.9" style="clip-path:url(#SVGID_00000123427047538163393150000009874167767667954084_);fill:#F2D1B8;" width="22.9" height="0.24"/>
			
				<rect x="8.09" y="53.65" style="clip-path:url(#SVGID_00000123427047538163393150000009874167767667954084_);fill:#F3D2B9;" width="22.9" height="0.24"/>
			
				<rect x="8.09" y="53.41" style="clip-path:url(#SVGID_00000123427047538163393150000009874167767667954084_);fill:#F3D3BA;" width="22.9" height="0.24"/>
			
				<rect x="8.09" y="53.17" style="clip-path:url(#SVGID_00000123427047538163393150000009874167767667954084_);fill:#F4D4BB;" width="22.9" height="0.24"/>
			
				<rect x="8.09" y="52.92" style="clip-path:url(#SVGID_00000123427047538163393150000009874167767667954084_);fill:#F4D5BC;" width="22.9" height="0.24"/>
			
				<rect x="8.09" y="52.68" style="clip-path:url(#SVGID_00000123427047538163393150000009874167767667954084_);fill:#F5D6BD;" width="22.9" height="0.24"/>
			
				<rect x="8.09" y="52.44" style="clip-path:url(#SVGID_00000123427047538163393150000009874167767667954084_);fill:#F5D6BE;" width="22.9" height="0.24"/>
			
				<rect x="8.09" y="52.2" style="clip-path:url(#SVGID_00000123427047538163393150000009874167767667954084_);fill:#F5D7BF;" width="22.9" height="0.24"/>
			
				<rect x="8.09" y="51.95" style="clip-path:url(#SVGID_00000123427047538163393150000009874167767667954084_);fill:#F6D8C0;" width="22.9" height="0.24"/>
			
				<rect x="8.09" y="51.71" style="clip-path:url(#SVGID_00000123427047538163393150000009874167767667954084_);fill:#F6D9C1;" width="22.9" height="0.24"/>
			
				<rect x="8.09" y="51.47" style="clip-path:url(#SVGID_00000123427047538163393150000009874167767667954084_);fill:#F6DAC2;" width="22.9" height="0.24"/>
			
				<rect x="8.09" y="51.22" style="clip-path:url(#SVGID_00000123427047538163393150000009874167767667954084_);fill:#F6DBC3;" width="22.9" height="0.24"/>
			
				<rect x="8.09" y="50.98" style="clip-path:url(#SVGID_00000123427047538163393150000009874167767667954084_);fill:#F7DBC4;" width="22.9" height="0.24"/>
			
				<rect x="8.09" y="50.74" style="clip-path:url(#SVGID_00000123427047538163393150000009874167767667954084_);fill:#F7DCC5;" width="22.9" height="0.24"/>
			
				<rect x="8.09" y="50.49" style="clip-path:url(#SVGID_00000123427047538163393150000009874167767667954084_);fill:#F7DEC6;" width="22.9" height="0.24"/>
			
				<rect x="8.09" y="50.25" style="clip-path:url(#SVGID_00000123427047538163393150000009874167767667954084_);fill:#F7DEC7;" width="22.9" height="0.24"/>
			
				<rect x="8.09" y="50.01" style="clip-path:url(#SVGID_00000123427047538163393150000009874167767667954084_);fill:#F7DEC8;" width="22.9" height="0.24"/>
			
				<rect x="8.09" y="49.76" style="clip-path:url(#SVGID_00000123427047538163393150000009874167767667954084_);fill:#F7E0C9;" width="22.9" height="0.24"/>
			
				<rect x="8.09" y="49.52" style="clip-path:url(#SVGID_00000123427047538163393150000009874167767667954084_);fill:#F7E1CB;" width="22.9" height="0.24"/>
			
				<rect x="8.09" y="49.28" style="clip-path:url(#SVGID_00000123427047538163393150000009874167767667954084_);fill:#F7E1CB;" width="22.9" height="0.24"/>
			
				<rect x="8.09" y="49.03" style="clip-path:url(#SVGID_00000123427047538163393150000009874167767667954084_);fill:#F8E2CC;" width="22.9" height="0.24"/>
			
				<rect x="8.09" y="48.79" style="clip-path:url(#SVGID_00000123427047538163393150000009874167767667954084_);fill:#F9E3CD;" width="22.9" height="0.24"/>
			
				<rect x="8.09" y="48.55" style="clip-path:url(#SVGID_00000123427047538163393150000009874167767667954084_);fill:#F7E3CE;" width="22.9" height="0.24"/>
			
				<rect x="8.09" y="48.3" style="clip-path:url(#SVGID_00000123427047538163393150000009874167767667954084_);fill:#F8E5CF;" width="22.9" height="0.24"/>
			
				<rect x="8.09" y="48.06" style="clip-path:url(#SVGID_00000123427047538163393150000009874167767667954084_);fill:#F9E5D0;" width="22.9" height="0.24"/>
			
				<rect x="8.09" y="47.82" style="clip-path:url(#SVGID_00000123427047538163393150000009874167767667954084_);fill:#F9E7D1;" width="22.9" height="0.24"/>
			
				<rect x="8.09" y="47.57" style="clip-path:url(#SVGID_00000123427047538163393150000009874167767667954084_);fill:#F9E6D2;" width="22.9" height="0.24"/>
			
				<rect x="8.09" y="47.33" style="clip-path:url(#SVGID_00000123427047538163393150000009874167767667954084_);fill:#F9E8D3;" width="22.9" height="0.24"/>
			
				<rect x="8.09" y="47.09" style="clip-path:url(#SVGID_00000123427047538163393150000009874167767667954084_);fill:#FAE9D4;" width="22.9" height="0.24"/>
			
				<rect x="8.09" y="46.84" style="clip-path:url(#SVGID_00000123427047538163393150000009874167767667954084_);fill:#FAEAD5;" width="22.9" height="0.24"/>
			
				<rect x="8.09" y="36.85" style="clip-path:url(#SVGID_00000123427047538163393150000009874167767667954084_);fill:#FAEAD5;" width="22.9" height="10"/>
			
				<rect x="8.09" y="26.85" style="clip-path:url(#SVGID_00000123427047538163393150000009874167767667954084_);fill:#FAEAD6;" width="22.9" height="10"/>
			
				<rect x="8.09" y="16.86" style="clip-path:url(#SVGID_00000123427047538163393150000009874167767667954084_);fill:#FCECD8;" width="22.9" height="10"/>
			
				<rect x="8.09" y="6.86" style="clip-path:url(#SVGID_00000123427047538163393150000009874167767667954084_);fill:#FCEDDA;" width="22.9" height="10"/>
			<path style="clip-path:url(#SVGID_00000123427047538163393150000009874167767667954084_);fill:#FCEDDA;" d="M30.98,6.86H8.09
				H30.98z"/>
		</g>
	</g>
</g>
</svg>
