<?xml version="1.0" encoding="utf-8"?>
<!-- Generator: Adobe Illustrator 27.0.1, SVG Export Plug-In . SVG Version: 6.00 Build 0)  -->
<svg version="1.1" id="Layer_1" xmlns="http://www.w3.org/2000/svg" xmlns:xlink="http://www.w3.org/1999/xlink" x="0px" y="0px"
	 viewBox="0 0 40 100" style="enable-background:new 0 0 40 100;" xml:space="preserve">
<style type="text/css">
	.st0{fill:#151414;}
	.st1{clip-path:url(#SVGID_00000081641724307887552010000001807746128820898703_);fill:#EDF1F7;}
	.st2{clip-path:url(#SVGID_00000081641724307887552010000001807746128820898703_);fill:#EDF2F7;}
	.st3{clip-path:url(#SVGID_00000081641724307887552010000001807746128820898703_);fill:#EEF3F7;}
	.st4{clip-path:url(#SVGID_00000081641724307887552010000001807746128820898703_);fill:#EFF3F9;}
	.st5{clip-path:url(#SVGID_00000081641724307887552010000001807746128820898703_);fill:#F0F4F9;}
	.st6{clip-path:url(#SVGID_00000081641724307887552010000001807746128820898703_);fill:#F1F5F9;}
	.st7{clip-path:url(#SVGID_00000081641724307887552010000001807746128820898703_);fill:#F3F6FA;}
	.st8{clip-path:url(#SVGID_00000081641724307887552010000001807746128820898703_);fill:#F3F7FC;}
	.st9{clip-path:url(#SVGID_00000081641724307887552010000001807746128820898703_);fill:#F6F7FA;}
	.st10{clip-path:url(#SVGID_00000081641724307887552010000001807746128820898703_);fill:#F7F9FB;}
	.st11{clip-path:url(#SVGID_00000081641724307887552010000001807746128820898703_);fill:#F7FBFE;}
	.st12{clip-path:url(#SVGID_00000081641724307887552010000001807746128820898703_);fill:#F8FBFE;}
	.st13{clip-path:url(#SVGID_00000081641724307887552010000001807746128820898703_);fill:#FAFCFE;}
	.st14{clip-path:url(#SVGID_00000081641724307887552010000001807746128820898703_);fill:#FBFEFF;}
	.st15{clip-path:url(#SVGID_00000081641724307887552010000001807746128820898703_);fill:#FDFEFF;}
	.st16{clip-path:url(#SVGID_00000081641724307887552010000001807746128820898703_);fill:#FFFFFF;}
	.st17{clip-path:url(#SVGID_00000124121041031296357920000005163969617053218455_);fill:#E39975;}
	.st18{clip-path:url(#SVGID_00000124121041031296357920000005163969617053218455_);fill:#E29975;}
	.st19{clip-path:url(#SVGID_00000124121041031296357920000005163969617053218455_);fill:#E39A77;}
	.st20{clip-path:url(#SVGID_00000124121041031296357920000005163969617053218455_);fill:#E39C78;}
	.st21{clip-path:url(#SVGID_00000124121041031296357920000005163969617053218455_);fill:#E39C79;}
	.st22{clip-path:url(#SVGID_00000124121041031296357920000005163969617053218455_);fill:#E39D7A;}
	.st23{clip-path:url(#SVGID_00000124121041031296357920000005163969617053218455_);fill:#E49D7B;}
	.st24{clip-path:url(#SVGID_00000124121041031296357920000005163969617053218455_);fill:#E59F7B;}
	.st25{clip-path:url(#SVGID_00000124121041031296357920000005163969617053218455_);fill:#E5A07C;}
	.st26{clip-path:url(#SVGID_00000124121041031296357920000005163969617053218455_);fill:#E5A07D;}
	.st27{clip-path:url(#SVGID_00000124121041031296357920000005163969617053218455_);fill:#E5A17E;}
	.st28{clip-path:url(#SVGID_00000124121041031296357920000005163969617053218455_);fill:#E5A17F;}
	.st29{clip-path:url(#SVGID_00000124121041031296357920000005163969617053218455_);fill:#E5A380;}
	.st30{clip-path:url(#SVGID_00000124121041031296357920000005163969617053218455_);fill:#E6A481;}
	.st31{clip-path:url(#SVGID_00000124121041031296357920000005163969617053218455_);fill:#E6A482;}
	.st32{clip-path:url(#SVGID_00000124121041031296357920000005163969617053218455_);fill:#E6A683;}
	.st33{clip-path:url(#SVGID_00000124121041031296357920000005163969617053218455_);fill:#E6A785;}
	.st34{clip-path:url(#SVGID_00000124121041031296357920000005163969617053218455_);fill:#E7A785;}
	.st35{clip-path:url(#SVGID_00000124121041031296357920000005163969617053218455_);fill:#E7A886;}
	.st36{clip-path:url(#SVGID_00000124121041031296357920000005163969617053218455_);fill:#E7A887;}
	.st37{clip-path:url(#SVGID_00000124121041031296357920000005163969617053218455_);fill:#E7AA89;}
	.st38{clip-path:url(#SVGID_00000124121041031296357920000005163969617053218455_);fill:#E8AB8A;}
	.st39{clip-path:url(#SVGID_00000124121041031296357920000005163969617053218455_);fill:#E8AC8A;}
	.st40{clip-path:url(#SVGID_00000124121041031296357920000005163969617053218455_);fill:#E8AC8B;}
	.st41{clip-path:url(#SVGID_00000124121041031296357920000005163969617053218455_);fill:#E8AE8C;}
	.st42{clip-path:url(#SVGID_00000124121041031296357920000005163969617053218455_);fill:#E8AD8D;}
	.st43{clip-path:url(#SVGID_00000124121041031296357920000005163969617053218455_);fill:#E9AF8F;}
	.st44{clip-path:url(#SVGID_00000124121041031296357920000005163969617053218455_);fill:#E9B090;}
	.st45{clip-path:url(#SVGID_00000124121041031296357920000005163969617053218455_);fill:#EAB191;}
	.st46{clip-path:url(#SVGID_00000124121041031296357920000005163969617053218455_);fill:#EAB392;}
	.st47{clip-path:url(#SVGID_00000124121041031296357920000005163969617053218455_);fill:#EAB394;}
	.st48{clip-path:url(#SVGID_00000124121041031296357920000005163969617053218455_);fill:#EAB395;}
	.st49{clip-path:url(#SVGID_00000124121041031296357920000005163969617053218455_);fill:#EBB495;}
	.st50{clip-path:url(#SVGID_00000124121041031296357920000005163969617053218455_);fill:#EBB596;}
	.st51{clip-path:url(#SVGID_00000124121041031296357920000005163969617053218455_);fill:#EBB697;}
	.st52{clip-path:url(#SVGID_00000124121041031296357920000005163969617053218455_);fill:#EBB798;}
	.st53{clip-path:url(#SVGID_00000124121041031296357920000005163969617053218455_);fill:#ECB899;}
	.st54{clip-path:url(#SVGID_00000124121041031296357920000005163969617053218455_);fill:#ECB89A;}
	.st55{clip-path:url(#SVGID_00000124121041031296357920000005163969617053218455_);fill:#ECB99B;}
	.st56{clip-path:url(#SVGID_00000124121041031296357920000005163969617053218455_);fill:#ECBA9C;}
	.st57{clip-path:url(#SVGID_00000124121041031296357920000005163969617053218455_);fill:#EDBB9D;}
	.st58{clip-path:url(#SVGID_00000124121041031296357920000005163969617053218455_);fill:#EDBC9E;}
	.st59{clip-path:url(#SVGID_00000124121041031296357920000005163969617053218455_);fill:#EDBD9F;}
	.st60{clip-path:url(#SVGID_00000124121041031296357920000005163969617053218455_);fill:#ECBEA0;}
	.st61{clip-path:url(#SVGID_00000124121041031296357920000005163969617053218455_);fill:#EDBEA1;}
	.st62{clip-path:url(#SVGID_00000124121041031296357920000005163969617053218455_);fill:#EDBFA2;}
	.st63{clip-path:url(#SVGID_00000124121041031296357920000005163969617053218455_);fill:#EDC0A3;}
	.st64{clip-path:url(#SVGID_00000124121041031296357920000005163969617053218455_);fill:#EEC1A5;}
	.st65{clip-path:url(#SVGID_00000124121041031296357920000005163969617053218455_);fill:#EEC2A6;}
	.st66{clip-path:url(#SVGID_00000124121041031296357920000005163969617053218455_);fill:#EEC3A7;}
	.st67{clip-path:url(#SVGID_00000124121041031296357920000005163969617053218455_);fill:#EFC5A9;}
	.st68{clip-path:url(#SVGID_00000124121041031296357920000005163969617053218455_);fill:#F0C4AA;}
	.st69{clip-path:url(#SVGID_00000124121041031296357920000005163969617053218455_);fill:#F0C6AB;}
	.st70{clip-path:url(#SVGID_00000124121041031296357920000005163969617053218455_);fill:#F0C7AC;}
	.st71{clip-path:url(#SVGID_00000124121041031296357920000005163969617053218455_);fill:#F0C8AD;}
	.st72{clip-path:url(#SVGID_00000124121041031296357920000005163969617053218455_);fill:#F1C9AE;}
	.st73{clip-path:url(#SVGID_00000124121041031296357920000005163969617053218455_);fill:#F1CAAF;}
	.st74{clip-path:url(#SVGID_00000124121041031296357920000005163969617053218455_);fill:#F1CBB0;}
	.st75{clip-path:url(#SVGID_00000124121041031296357920000005163969617053218455_);fill:#F1CBB1;}
	.st76{clip-path:url(#SVGID_00000124121041031296357920000005163969617053218455_);fill:#F2CBB2;}
	.st77{clip-path:url(#SVGID_00000124121041031296357920000005163969617053218455_);fill:#F2CDB3;}
	.st78{clip-path:url(#SVGID_00000124121041031296357920000005163969617053218455_);fill:#F2CEB4;}
	.st79{clip-path:url(#SVGID_00000124121041031296357920000005163969617053218455_);fill:#F1CEB4;}
	.st80{clip-path:url(#SVGID_00000124121041031296357920000005163969617053218455_);fill:#F2CFB5;}
	.st81{clip-path:url(#SVGID_00000124121041031296357920000005163969617053218455_);fill:#F3D1B6;}
	.st82{clip-path:url(#SVGID_00000124121041031296357920000005163969617053218455_);fill:#F2D0B7;}
	.st83{clip-path:url(#SVGID_00000124121041031296357920000005163969617053218455_);fill:#F2D1B8;}
	.st84{clip-path:url(#SVGID_00000124121041031296357920000005163969617053218455_);fill:#F3D2B9;}
	.st85{clip-path:url(#SVGID_00000124121041031296357920000005163969617053218455_);fill:#F3D3BA;}
	.st86{clip-path:url(#SVGID_00000124121041031296357920000005163969617053218455_);fill:#F4D4BB;}
	.st87{clip-path:url(#SVGID_00000124121041031296357920000005163969617053218455_);fill:#F4D5BC;}
	.st88{clip-path:url(#SVGID_00000124121041031296357920000005163969617053218455_);fill:#F5D6BD;}
	.st89{clip-path:url(#SVGID_00000124121041031296357920000005163969617053218455_);fill:#F5D6BE;}
	.st90{clip-path:url(#SVGID_00000124121041031296357920000005163969617053218455_);fill:#F5D7BF;}
	.st91{clip-path:url(#SVGID_00000124121041031296357920000005163969617053218455_);fill:#F6D8C0;}
	.st92{clip-path:url(#SVGID_00000124121041031296357920000005163969617053218455_);fill:#F6D9C1;}
	.st93{clip-path:url(#SVGID_00000124121041031296357920000005163969617053218455_);fill:#F6DAC2;}
	.st94{clip-path:url(#SVGID_00000124121041031296357920000005163969617053218455_);fill:#F6DBC3;}
	.st95{clip-path:url(#SVGID_00000124121041031296357920000005163969617053218455_);fill:#F7DBC4;}
	.st96{clip-path:url(#SVGID_00000124121041031296357920000005163969617053218455_);fill:#F7DCC5;}
	.st97{clip-path:url(#SVGID_00000124121041031296357920000005163969617053218455_);fill:#F7DEC6;}
	.st98{clip-path:url(#SVGID_00000124121041031296357920000005163969617053218455_);fill:#F7DEC7;}
	.st99{clip-path:url(#SVGID_00000124121041031296357920000005163969617053218455_);fill:#F7DEC8;}
	.st100{clip-path:url(#SVGID_00000124121041031296357920000005163969617053218455_);fill:#F7E0C9;}
	.st101{clip-path:url(#SVGID_00000124121041031296357920000005163969617053218455_);fill:#F7E1CB;}
	.st102{clip-path:url(#SVGID_00000124121041031296357920000005163969617053218455_);fill:#F8E2CC;}
	.st103{clip-path:url(#SVGID_00000124121041031296357920000005163969617053218455_);fill:#F9E3CD;}
	.st104{clip-path:url(#SVGID_00000124121041031296357920000005163969617053218455_);fill:#F7E3CE;}
	.st105{clip-path:url(#SVGID_00000124121041031296357920000005163969617053218455_);fill:#F8E5CF;}
	.st106{clip-path:url(#SVGID_00000124121041031296357920000005163969617053218455_);fill:#F9E5D0;}
	.st107{clip-path:url(#SVGID_00000124121041031296357920000005163969617053218455_);fill:#F9E7D1;}
	.st108{clip-path:url(#SVGID_00000124121041031296357920000005163969617053218455_);fill:#F9E6D2;}
	.st109{clip-path:url(#SVGID_00000124121041031296357920000005163969617053218455_);fill:#F9E8D3;}
	.st110{clip-path:url(#SVGID_00000124121041031296357920000005163969617053218455_);fill:#FAE9D4;}
	.st111{clip-path:url(#SVGID_00000124121041031296357920000005163969617053218455_);fill:#FAEAD5;}
	.st112{clip-path:url(#SVGID_00000124121041031296357920000005163969617053218455_);fill:#FAEAD6;}
	.st113{clip-path:url(#SVGID_00000124121041031296357920000005163969617053218455_);fill:#FCECD8;}
	.st114{clip-path:url(#SVGID_00000124121041031296357920000005163969617053218455_);fill:#FCEDDA;}
</style>
<g>
	<g id="path174_00000064323537343216900440000015298144582412541874_">
		<path class="st0" d="M28.83,68.42c-0.04-0.26-0.09-0.53-0.12-0.8c-0.5-3.47-0.99-6.27-1.56-8.81c-0.45-2.02-0.99-4.07-1.52-6.05
			c-0.85-3.23-1.73-6.58-2.26-9.94c-0.38-2.39-0.58-4.85-0.78-7.22c-0.2-2.37-0.4-4.84-0.78-7.22c-1.14-7.19-3.31-11.64-6.63-13.59
			c-0.46-0.27-0.91-0.42-1.3-0.42c-0.67,0-1.15,0.42-1.44,1.23c-0.37,1.02-0.11,2.38,0.13,3.7c0.11,0.61,0.22,1.2,0.27,1.73
			c0.36,4.35,0.22,8.64-0.09,13.75c-0.34,5.49-0.82,11.06-1.28,16.4c0,2.18-0.26,4.42-0.51,6.6c-0.12,1.07-0.24,2.17-0.34,3.23
			c-0.09,1.02-0.16,2.05-0.22,3.08c-0.09,1.33-0.18,2.68-0.31,4.02c0,0,4.82-4.11,4.82-4.11c1.33-1.13,2.69-1.73,4.46-1.28
			c1.94,0.49,3.1,1.83,4.52,3.1c0.65,0.57,1.46,1.04,2.23,1.45C26.41,67.43,28.81,68.28,28.83,68.42L28.83,68.42z M31.91,97.68
			c1.07-1.21,0.76-3.9,0.51-6.06c-0.07-0.6-0.13-1.17-0.16-1.65c-0.22-3.63-0.62-7.29-1.19-10.89c-0.26-1.69-0.67-3.36-1.07-4.98
			c-0.35-1.45-0.72-2.95-0.98-4.47c-0.03-0.15-0.05-0.3-0.07-0.45c-2.79-0.85-5.13-2.27-6.96-4.21c-0.34-0.36-0.74-0.69-1.17-0.93
			c-2.15-1.2-3.93-1.05-5.44,0.47l-5.39,4.59c-0.07,0.59-0.16,1.17-0.26,1.74l-0.09,0.49C8.53,77.61,7.47,83.55,7.4,89.91
			c-0.32,3.28,0.66,5.37,3.01,6.38c1.09,0.11,19.31,2,19.4,2.02C30.77,98.41,31.45,98.2,31.91,97.68L31.91,97.68z M33.09,91.55
			c0.27,2.29,0.6,5.15-0.67,6.59C31.9,98.71,31.18,99,30.25,99c-0.16,0-0.33-0.01-0.51-0.03c-0.09-0.01-19.45-2.02-19.45-2.02
			l-0.1-0.02c-2.65-1.12-3.82-3.5-3.47-7.06C6.8,83.49,7.86,77.52,8.98,71.2l0.08-0.49c0.38-2.17,0.53-4.45,0.67-6.66
			c0.07-1.04,0.13-2.08,0.22-3.1c0.09-1.07,0.22-2.18,0.34-3.24c0.25-2.15,0.51-4.38,0.51-6.55c0.47-5.38,0.94-10.94,1.28-16.42
			c0.31-5.08,0.45-9.34,0.09-13.65c-0.04-0.51-0.15-1.07-0.26-1.67c-0.26-1.34-0.54-2.86-0.11-4.05c0.59-1.66,2.08-2.12,3.72-1.16
			c3.51,2.06,5.78,6.66,6.95,14.06c0.38,2.41,0.59,4.89,0.79,7.28c0.2,2.36,0.4,4.8,0.78,7.17c0.52,3.34,1.4,6.66,2.25,9.88
			c0.53,1.98,1.07,4.03,1.52,6.08c0.57,2.55,1.07,5.36,1.57,8.85c0.09,0.68,0.2,1.34,0.31,1.98c0.26,1.49,0.63,2.99,0.97,4.42
			c0.4,1.64,0.81,3.33,1.08,5.04c0.57,3.62,0.97,7.31,1.19,10.95C32.96,90.4,33.02,90.95,33.09,91.55"/>
	</g>
	<g id="path176_00000104668448228861463400000004362647901783657889_">
		<g>
			<defs>
				<path id="SVGID_1_" d="M32.42,91.62c0.25,2.17,0.57,4.86-0.51,6.06c-0.46,0.51-1.14,0.72-2.1,0.62
					c-0.09-0.01-18.31-1.91-19.4-2.02c-2.35-1.01-3.33-3.1-3.01-6.38c0.07-6.35,1.13-12.3,2.24-18.59l0.09-0.49
					c0.1-0.57,0.18-1.15,0.26-1.74l5.39-4.59c1.51-1.52,3.29-1.67,5.44-0.47c0.44,0.24,0.83,0.57,1.17,0.93
					c1.83,1.94,4.18,3.36,6.96,4.21c0.03,0.15,0.05,0.3,0.07,0.45c0.26,1.52,0.63,3.02,0.98,4.47c0.39,1.63,0.8,3.3,1.07,4.98
					c0.57,3.6,0.96,7.26,1.19,10.89C32.28,90.45,32.35,91.02,32.42,91.62"/>
			</defs>
			<clipPath id="SVGID_00000054229073609632457660000016387439144421703077_">
				<use xlink:href="#SVGID_1_"  style="overflow:visible;"/>
			</clipPath>
			
				<rect x="7.08" y="87.72" style="clip-path:url(#SVGID_00000054229073609632457660000016387439144421703077_);fill:#EDF1F7;" width="25.91" height="10.69"/>
			
				<rect x="7.08" y="86.9" style="clip-path:url(#SVGID_00000054229073609632457660000016387439144421703077_);fill:#EDF1F7;" width="25.91" height="0.82"/>
			
				<rect x="7.08" y="86.08" style="clip-path:url(#SVGID_00000054229073609632457660000016387439144421703077_);fill:#EDF2F7;" width="25.91" height="0.82"/>
			
				<rect x="7.08" y="85.26" style="clip-path:url(#SVGID_00000054229073609632457660000016387439144421703077_);fill:#EEF3F7;" width="25.91" height="0.82"/>
			
				<rect x="7.08" y="84.44" style="clip-path:url(#SVGID_00000054229073609632457660000016387439144421703077_);fill:#EFF3F9;" width="25.91" height="0.82"/>
			
				<rect x="7.08" y="83.62" style="clip-path:url(#SVGID_00000054229073609632457660000016387439144421703077_);fill:#F0F4F9;" width="25.91" height="0.82"/>
			
				<rect x="7.08" y="82.81" style="clip-path:url(#SVGID_00000054229073609632457660000016387439144421703077_);fill:#F1F5F9;" width="25.91" height="0.82"/>
			
				<rect x="7.08" y="81.99" style="clip-path:url(#SVGID_00000054229073609632457660000016387439144421703077_);fill:#F3F6FA;" width="25.91" height="0.82"/>
			
				<rect x="7.08" y="81.17" style="clip-path:url(#SVGID_00000054229073609632457660000016387439144421703077_);fill:#F3F6FA;" width="25.91" height="0.82"/>
			
				<rect x="7.08" y="80.35" style="clip-path:url(#SVGID_00000054229073609632457660000016387439144421703077_);fill:#F3F7FC;" width="25.91" height="0.82"/>
			
				<rect x="7.08" y="79.53" style="clip-path:url(#SVGID_00000054229073609632457660000016387439144421703077_);fill:#F6F7FA;" width="25.91" height="0.82"/>
			
				<rect x="7.08" y="78.71" style="clip-path:url(#SVGID_00000054229073609632457660000016387439144421703077_);fill:#F7F9FB;" width="25.91" height="0.82"/>
			
				<rect x="7.08" y="77.89" style="clip-path:url(#SVGID_00000054229073609632457660000016387439144421703077_);fill:#F7FBFE;" width="25.91" height="0.82"/>
			
				<rect x="7.08" y="77.07" style="clip-path:url(#SVGID_00000054229073609632457660000016387439144421703077_);fill:#F8FBFE;" width="25.91" height="0.82"/>
			
				<rect x="7.08" y="76.25" style="clip-path:url(#SVGID_00000054229073609632457660000016387439144421703077_);fill:#FAFCFE;" width="25.91" height="0.82"/>
			
				<rect x="7.08" y="75.43" style="clip-path:url(#SVGID_00000054229073609632457660000016387439144421703077_);fill:#FBFEFF;" width="25.91" height="0.82"/>
			
				<rect x="7.08" y="74.61" style="clip-path:url(#SVGID_00000054229073609632457660000016387439144421703077_);fill:#FDFEFF;" width="25.91" height="0.82"/>
			
				<rect x="7.08" y="73.79" style="clip-path:url(#SVGID_00000054229073609632457660000016387439144421703077_);fill:#FFFFFF;" width="25.91" height="0.82"/>
			
				<rect x="7.08" y="72.97" style="clip-path:url(#SVGID_00000054229073609632457660000016387439144421703077_);fill:#FFFFFF;" width="25.91" height="0.82"/>
			
				<rect x="7.08" y="72.15" style="clip-path:url(#SVGID_00000054229073609632457660000016387439144421703077_);fill:#FFFFFF;" width="25.91" height="0.82"/>
			
				<rect x="7.08" y="62.83" style="clip-path:url(#SVGID_00000054229073609632457660000016387439144421703077_);fill:#FFFFFF;" width="25.91" height="9.32"/>
		</g>
	</g>
	<g id="path178_00000135649967446398052330000010390428157718059195_">
		<g>
			<defs>
				<path id="SVGID_00000005972064023715027520000013738430759461664902_" d="M28.71,67.63c0.03,0.27,0.08,0.53,0.12,0.8
					c-0.02-0.14-2.42-1-2.71-1.15c-0.76-0.41-1.58-0.88-2.23-1.45c-1.42-1.27-2.58-2.62-4.52-3.1c-1.77-0.45-3.13,0.16-4.46,1.28
					c-0.01,0.01-4.82,4.11-4.82,4.11c0.13-1.34,0.22-2.69,0.31-4.02c0.06-1.03,0.13-2.06,0.22-3.08c0.09-1.07,0.22-2.17,0.34-3.23
					c0.25-2.17,0.51-4.42,0.51-6.6c0.46-5.35,0.94-10.91,1.28-16.4c0.31-5.11,0.45-9.4,0.09-13.75c-0.05-0.53-0.16-1.12-0.27-1.73
					c-0.25-1.32-0.51-2.68-0.13-3.7c0.29-0.81,0.78-1.23,1.44-1.23c0.39,0,0.84,0.15,1.3,0.42c3.33,1.96,5.49,6.4,6.63,13.59
					c0.38,2.39,0.58,4.85,0.78,7.22c0.2,2.37,0.4,4.83,0.78,7.22c0.53,3.37,1.41,6.71,2.26,9.94c0.53,1.98,1.07,4.03,1.52,6.05
					C27.72,61.35,28.21,64.15,28.71,67.63"/>
			</defs>
			<clipPath id="SVGID_00000127022117065216198300000012763744507973863814_">
				<use xlink:href="#SVGID_00000005972064023715027520000013738430759461664902_"  style="overflow:visible;"/>
			</clipPath>
			<path style="clip-path:url(#SVGID_00000127022117065216198300000012763744507973863814_);fill:#E39975;" d="M10.09,68.42h18.74
				H10.09z"/>
			
				<rect x="10.09" y="68.22" style="clip-path:url(#SVGID_00000127022117065216198300000012763744507973863814_);fill:#E39975;" width="18.74" height="0.21"/>
			
				<rect x="10.09" y="68.01" style="clip-path:url(#SVGID_00000127022117065216198300000012763744507973863814_);fill:#E29975;" width="18.74" height="0.21"/>
			
				<rect x="10.09" y="67.8" style="clip-path:url(#SVGID_00000127022117065216198300000012763744507973863814_);fill:#E39A77;" width="18.74" height="0.21"/>
			
				<rect x="10.09" y="67.6" style="clip-path:url(#SVGID_00000127022117065216198300000012763744507973863814_);fill:#E39C78;" width="18.74" height="0.21"/>
			
				<rect x="10.09" y="67.39" style="clip-path:url(#SVGID_00000127022117065216198300000012763744507973863814_);fill:#E39C79;" width="18.74" height="0.21"/>
			
				<rect x="10.09" y="67.18" style="clip-path:url(#SVGID_00000127022117065216198300000012763744507973863814_);fill:#E39D7A;" width="18.74" height="0.21"/>
			
				<rect x="10.09" y="66.98" style="clip-path:url(#SVGID_00000127022117065216198300000012763744507973863814_);fill:#E49D7B;" width="18.74" height="0.21"/>
			
				<rect x="10.09" y="66.77" style="clip-path:url(#SVGID_00000127022117065216198300000012763744507973863814_);fill:#E59F7B;" width="18.74" height="0.21"/>
			
				<rect x="10.09" y="66.56" style="clip-path:url(#SVGID_00000127022117065216198300000012763744507973863814_);fill:#E5A07C;" width="18.74" height="0.21"/>
			
				<rect x="10.09" y="66.36" style="clip-path:url(#SVGID_00000127022117065216198300000012763744507973863814_);fill:#E5A07D;" width="18.74" height="0.21"/>
			
				<rect x="10.09" y="66.15" style="clip-path:url(#SVGID_00000127022117065216198300000012763744507973863814_);fill:#E5A17E;" width="18.74" height="0.21"/>
			
				<rect x="10.09" y="65.94" style="clip-path:url(#SVGID_00000127022117065216198300000012763744507973863814_);fill:#E5A17F;" width="18.74" height="0.21"/>
			
				<rect x="10.09" y="65.73" style="clip-path:url(#SVGID_00000127022117065216198300000012763744507973863814_);fill:#E5A380;" width="18.74" height="0.21"/>
			
				<rect x="10.09" y="65.53" style="clip-path:url(#SVGID_00000127022117065216198300000012763744507973863814_);fill:#E6A481;" width="18.74" height="0.21"/>
			
				<rect x="10.09" y="65.32" style="clip-path:url(#SVGID_00000127022117065216198300000012763744507973863814_);fill:#E6A482;" width="18.74" height="0.21"/>
			
				<rect x="10.09" y="65.11" style="clip-path:url(#SVGID_00000127022117065216198300000012763744507973863814_);fill:#E6A683;" width="18.74" height="0.21"/>
			
				<rect x="10.09" y="64.91" style="clip-path:url(#SVGID_00000127022117065216198300000012763744507973863814_);fill:#E6A785;" width="18.74" height="0.21"/>
			
				<rect x="10.09" y="64.7" style="clip-path:url(#SVGID_00000127022117065216198300000012763744507973863814_);fill:#E7A785;" width="18.74" height="0.21"/>
			
				<rect x="10.09" y="64.49" style="clip-path:url(#SVGID_00000127022117065216198300000012763744507973863814_);fill:#E7A886;" width="18.74" height="0.21"/>
			
				<rect x="10.09" y="64.29" style="clip-path:url(#SVGID_00000127022117065216198300000012763744507973863814_);fill:#E7A887;" width="18.74" height="0.21"/>
			
				<rect x="10.09" y="64.08" style="clip-path:url(#SVGID_00000127022117065216198300000012763744507973863814_);fill:#E7AA89;" width="18.74" height="0.21"/>
			
				<rect x="10.09" y="63.87" style="clip-path:url(#SVGID_00000127022117065216198300000012763744507973863814_);fill:#E8AB8A;" width="18.74" height="0.21"/>
			
				<rect x="10.09" y="63.67" style="clip-path:url(#SVGID_00000127022117065216198300000012763744507973863814_);fill:#E8AC8A;" width="18.74" height="0.21"/>
			
				<rect x="10.09" y="63.46" style="clip-path:url(#SVGID_00000127022117065216198300000012763744507973863814_);fill:#E8AC8B;" width="18.74" height="0.21"/>
			
				<rect x="10.09" y="63.25" style="clip-path:url(#SVGID_00000127022117065216198300000012763744507973863814_);fill:#E8AE8C;" width="18.74" height="0.21"/>
			
				<rect x="10.09" y="63.05" style="clip-path:url(#SVGID_00000127022117065216198300000012763744507973863814_);fill:#E8AD8D;" width="18.74" height="0.21"/>
			
				<rect x="10.09" y="62.84" style="clip-path:url(#SVGID_00000127022117065216198300000012763744507973863814_);fill:#E9AF8F;" width="18.74" height="0.21"/>
			
				<rect x="10.09" y="62.63" style="clip-path:url(#SVGID_00000127022117065216198300000012763744507973863814_);fill:#E9AF8F;" width="18.74" height="0.21"/>
			
				<rect x="10.09" y="62.43" style="clip-path:url(#SVGID_00000127022117065216198300000012763744507973863814_);fill:#E9B090;" width="18.74" height="0.21"/>
			
				<rect x="10.09" y="62.22" style="clip-path:url(#SVGID_00000127022117065216198300000012763744507973863814_);fill:#EAB191;" width="18.74" height="0.21"/>
			
				<rect x="10.09" y="62.01" style="clip-path:url(#SVGID_00000127022117065216198300000012763744507973863814_);fill:#EAB392;" width="18.74" height="0.21"/>
			
				<rect x="10.09" y="61.81" style="clip-path:url(#SVGID_00000127022117065216198300000012763744507973863814_);fill:#EAB394;" width="18.74" height="0.21"/>
			
				<rect x="10.09" y="61.6" style="clip-path:url(#SVGID_00000127022117065216198300000012763744507973863814_);fill:#EAB395;" width="18.74" height="0.21"/>
			
				<rect x="10.09" y="61.39" style="clip-path:url(#SVGID_00000127022117065216198300000012763744507973863814_);fill:#EBB495;" width="18.74" height="0.21"/>
			
				<rect x="10.09" y="61.18" style="clip-path:url(#SVGID_00000127022117065216198300000012763744507973863814_);fill:#EBB596;" width="18.74" height="0.21"/>
			
				<rect x="10.09" y="60.98" style="clip-path:url(#SVGID_00000127022117065216198300000012763744507973863814_);fill:#EBB697;" width="18.74" height="0.21"/>
			
				<rect x="10.09" y="60.77" style="clip-path:url(#SVGID_00000127022117065216198300000012763744507973863814_);fill:#EBB798;" width="18.74" height="0.21"/>
			
				<rect x="10.09" y="60.56" style="clip-path:url(#SVGID_00000127022117065216198300000012763744507973863814_);fill:#ECB899;" width="18.74" height="0.21"/>
			
				<rect x="10.09" y="60.36" style="clip-path:url(#SVGID_00000127022117065216198300000012763744507973863814_);fill:#ECB89A;" width="18.74" height="0.21"/>
			
				<rect x="10.09" y="60.15" style="clip-path:url(#SVGID_00000127022117065216198300000012763744507973863814_);fill:#ECB99B;" width="18.74" height="0.21"/>
			
				<rect x="10.09" y="59.94" style="clip-path:url(#SVGID_00000127022117065216198300000012763744507973863814_);fill:#ECBA9C;" width="18.74" height="0.21"/>
			
				<rect x="10.09" y="59.74" style="clip-path:url(#SVGID_00000127022117065216198300000012763744507973863814_);fill:#EDBB9D;" width="18.74" height="0.21"/>
			
				<rect x="10.09" y="59.53" style="clip-path:url(#SVGID_00000127022117065216198300000012763744507973863814_);fill:#EDBC9E;" width="18.74" height="0.21"/>
			
				<rect x="10.09" y="59.32" style="clip-path:url(#SVGID_00000127022117065216198300000012763744507973863814_);fill:#EDBD9F;" width="18.74" height="0.21"/>
			
				<rect x="10.09" y="59.12" style="clip-path:url(#SVGID_00000127022117065216198300000012763744507973863814_);fill:#ECBEA0;" width="18.74" height="0.21"/>
			
				<rect x="10.09" y="58.91" style="clip-path:url(#SVGID_00000127022117065216198300000012763744507973863814_);fill:#EDBEA1;" width="18.74" height="0.21"/>
			
				<rect x="10.09" y="58.7" style="clip-path:url(#SVGID_00000127022117065216198300000012763744507973863814_);fill:#EDBFA2;" width="18.74" height="0.21"/>
			
				<rect x="10.09" y="58.5" style="clip-path:url(#SVGID_00000127022117065216198300000012763744507973863814_);fill:#EDC0A3;" width="18.74" height="0.21"/>
			
				<rect x="10.09" y="58.29" style="clip-path:url(#SVGID_00000127022117065216198300000012763744507973863814_);fill:#EEC1A5;" width="18.74" height="0.21"/>
			
				<rect x="10.09" y="58.08" style="clip-path:url(#SVGID_00000127022117065216198300000012763744507973863814_);fill:#EEC2A6;" width="18.74" height="0.21"/>
			
				<rect x="10.09" y="57.88" style="clip-path:url(#SVGID_00000127022117065216198300000012763744507973863814_);fill:#EEC3A7;" width="18.74" height="0.21"/>
			
				<rect x="10.09" y="57.67" style="clip-path:url(#SVGID_00000127022117065216198300000012763744507973863814_);fill:#EFC5A9;" width="18.74" height="0.21"/>
			
				<rect x="10.09" y="57.46" style="clip-path:url(#SVGID_00000127022117065216198300000012763744507973863814_);fill:#F0C4AA;" width="18.74" height="0.21"/>
			
				<rect x="10.09" y="57.26" style="clip-path:url(#SVGID_00000127022117065216198300000012763744507973863814_);fill:#F0C6AB;" width="18.74" height="0.21"/>
			
				<rect x="10.09" y="57.05" style="clip-path:url(#SVGID_00000127022117065216198300000012763744507973863814_);fill:#F0C7AC;" width="18.74" height="0.21"/>
			
				<rect x="10.09" y="56.84" style="clip-path:url(#SVGID_00000127022117065216198300000012763744507973863814_);fill:#F0C8AD;" width="18.74" height="0.21"/>
			
				<rect x="10.09" y="56.63" style="clip-path:url(#SVGID_00000127022117065216198300000012763744507973863814_);fill:#F1C9AE;" width="18.74" height="0.21"/>
			
				<rect x="10.09" y="56.43" style="clip-path:url(#SVGID_00000127022117065216198300000012763744507973863814_);fill:#F1CAAF;" width="18.74" height="0.21"/>
			
				<rect x="10.09" y="56.22" style="clip-path:url(#SVGID_00000127022117065216198300000012763744507973863814_);fill:#F1CBB0;" width="18.74" height="0.21"/>
			
				<rect x="10.09" y="56.01" style="clip-path:url(#SVGID_00000127022117065216198300000012763744507973863814_);fill:#F1CBB1;" width="18.74" height="0.21"/>
			
				<rect x="10.09" y="55.81" style="clip-path:url(#SVGID_00000127022117065216198300000012763744507973863814_);fill:#F2CBB2;" width="18.74" height="0.21"/>
			
				<rect x="10.09" y="55.6" style="clip-path:url(#SVGID_00000127022117065216198300000012763744507973863814_);fill:#F2CDB3;" width="18.74" height="0.21"/>
			
				<rect x="10.09" y="55.39" style="clip-path:url(#SVGID_00000127022117065216198300000012763744507973863814_);fill:#F2CEB4;" width="18.74" height="0.21"/>
			
				<rect x="10.09" y="55.19" style="clip-path:url(#SVGID_00000127022117065216198300000012763744507973863814_);fill:#F1CEB4;" width="18.74" height="0.21"/>
			
				<rect x="10.09" y="54.98" style="clip-path:url(#SVGID_00000127022117065216198300000012763744507973863814_);fill:#F2CFB5;" width="18.74" height="0.21"/>
			
				<rect x="10.09" y="54.77" style="clip-path:url(#SVGID_00000127022117065216198300000012763744507973863814_);fill:#F3D1B6;" width="18.74" height="0.21"/>
			
				<rect x="10.09" y="54.57" style="clip-path:url(#SVGID_00000127022117065216198300000012763744507973863814_);fill:#F2D0B7;" width="18.74" height="0.21"/>
			
				<rect x="10.09" y="54.36" style="clip-path:url(#SVGID_00000127022117065216198300000012763744507973863814_);fill:#F2D1B8;" width="18.74" height="0.21"/>
			
				<rect x="10.09" y="54.15" style="clip-path:url(#SVGID_00000127022117065216198300000012763744507973863814_);fill:#F3D2B9;" width="18.74" height="0.21"/>
			
				<rect x="10.09" y="53.95" style="clip-path:url(#SVGID_00000127022117065216198300000012763744507973863814_);fill:#F3D3BA;" width="18.74" height="0.21"/>
			
				<rect x="10.09" y="53.74" style="clip-path:url(#SVGID_00000127022117065216198300000012763744507973863814_);fill:#F4D4BB;" width="18.74" height="0.21"/>
			
				<rect x="10.09" y="53.53" style="clip-path:url(#SVGID_00000127022117065216198300000012763744507973863814_);fill:#F4D5BC;" width="18.74" height="0.21"/>
			
				<rect x="10.09" y="53.33" style="clip-path:url(#SVGID_00000127022117065216198300000012763744507973863814_);fill:#F5D6BD;" width="18.74" height="0.21"/>
			
				<rect x="10.09" y="53.12" style="clip-path:url(#SVGID_00000127022117065216198300000012763744507973863814_);fill:#F5D6BE;" width="18.74" height="0.21"/>
			
				<rect x="10.09" y="52.91" style="clip-path:url(#SVGID_00000127022117065216198300000012763744507973863814_);fill:#F5D7BF;" width="18.74" height="0.21"/>
			
				<rect x="10.09" y="52.71" style="clip-path:url(#SVGID_00000127022117065216198300000012763744507973863814_);fill:#F6D8C0;" width="18.74" height="0.21"/>
			
				<rect x="10.09" y="52.5" style="clip-path:url(#SVGID_00000127022117065216198300000012763744507973863814_);fill:#F6D9C1;" width="18.74" height="0.21"/>
			
				<rect x="10.09" y="52.29" style="clip-path:url(#SVGID_00000127022117065216198300000012763744507973863814_);fill:#F6DAC2;" width="18.74" height="0.21"/>
			
				<rect x="10.09" y="52.08" style="clip-path:url(#SVGID_00000127022117065216198300000012763744507973863814_);fill:#F6DBC3;" width="18.74" height="0.21"/>
			
				<rect x="10.09" y="51.88" style="clip-path:url(#SVGID_00000127022117065216198300000012763744507973863814_);fill:#F7DBC4;" width="18.74" height="0.21"/>
			
				<rect x="10.09" y="51.67" style="clip-path:url(#SVGID_00000127022117065216198300000012763744507973863814_);fill:#F7DCC5;" width="18.74" height="0.21"/>
			
				<rect x="10.09" y="51.46" style="clip-path:url(#SVGID_00000127022117065216198300000012763744507973863814_);fill:#F7DEC6;" width="18.74" height="0.21"/>
			
				<rect x="10.09" y="51.26" style="clip-path:url(#SVGID_00000127022117065216198300000012763744507973863814_);fill:#F7DEC7;" width="18.74" height="0.21"/>
			
				<rect x="10.09" y="51.05" style="clip-path:url(#SVGID_00000127022117065216198300000012763744507973863814_);fill:#F7DEC8;" width="18.74" height="0.21"/>
			
				<rect x="10.09" y="50.84" style="clip-path:url(#SVGID_00000127022117065216198300000012763744507973863814_);fill:#F7E0C9;" width="18.74" height="0.21"/>
			
				<rect x="10.09" y="50.64" style="clip-path:url(#SVGID_00000127022117065216198300000012763744507973863814_);fill:#F7E1CB;" width="18.74" height="0.21"/>
			
				<rect x="10.09" y="50.43" style="clip-path:url(#SVGID_00000127022117065216198300000012763744507973863814_);fill:#F7E1CB;" width="18.74" height="0.21"/>
			
				<rect x="10.09" y="50.22" style="clip-path:url(#SVGID_00000127022117065216198300000012763744507973863814_);fill:#F8E2CC;" width="18.74" height="0.21"/>
			
				<rect x="10.09" y="50.02" style="clip-path:url(#SVGID_00000127022117065216198300000012763744507973863814_);fill:#F9E3CD;" width="18.74" height="0.21"/>
			
				<rect x="10.09" y="49.81" style="clip-path:url(#SVGID_00000127022117065216198300000012763744507973863814_);fill:#F7E3CE;" width="18.74" height="0.21"/>
			
				<rect x="10.09" y="49.6" style="clip-path:url(#SVGID_00000127022117065216198300000012763744507973863814_);fill:#F8E5CF;" width="18.74" height="0.21"/>
			
				<rect x="10.09" y="49.4" style="clip-path:url(#SVGID_00000127022117065216198300000012763744507973863814_);fill:#F9E5D0;" width="18.74" height="0.21"/>
			
				<rect x="10.09" y="49.19" style="clip-path:url(#SVGID_00000127022117065216198300000012763744507973863814_);fill:#F9E7D1;" width="18.74" height="0.21"/>
			
				<rect x="10.09" y="48.98" style="clip-path:url(#SVGID_00000127022117065216198300000012763744507973863814_);fill:#F9E6D2;" width="18.74" height="0.21"/>
			
				<rect x="10.09" y="48.78" style="clip-path:url(#SVGID_00000127022117065216198300000012763744507973863814_);fill:#F9E8D3;" width="18.74" height="0.21"/>
			
				<rect x="10.09" y="48.57" style="clip-path:url(#SVGID_00000127022117065216198300000012763744507973863814_);fill:#FAE9D4;" width="18.74" height="0.21"/>
			
				<rect x="10.09" y="48.36" style="clip-path:url(#SVGID_00000127022117065216198300000012763744507973863814_);fill:#FAEAD5;" width="18.74" height="0.21"/>
			
				<rect x="10.09" y="39.86" style="clip-path:url(#SVGID_00000127022117065216198300000012763744507973863814_);fill:#FAEAD5;" width="18.74" height="8.5"/>
			
				<rect x="10.09" y="31.36" style="clip-path:url(#SVGID_00000127022117065216198300000012763744507973863814_);fill:#FAEAD6;" width="18.74" height="8.5"/>
			
				<rect x="10.09" y="22.87" style="clip-path:url(#SVGID_00000127022117065216198300000012763744507973863814_);fill:#FCECD8;" width="18.74" height="8.5"/>
			
				<rect x="10.09" y="14.37" style="clip-path:url(#SVGID_00000127022117065216198300000012763744507973863814_);fill:#FCEDDA;" width="18.74" height="8.5"/>
			<path style="clip-path:url(#SVGID_00000127022117065216198300000012763744507973863814_);fill:#FCEDDA;" d="M28.83,14.37H10.09
				H28.83z"/>
		</g>
	</g>
</g>
</svg>
