<?xml version="1.0" encoding="utf-8"?>
<!-- Generator: Adobe Illustrator 27.0.1, SVG Export Plug-In . SVG Version: 6.00 Build 0)  -->
<svg version="1.1" id="Layer_1" xmlns="http://www.w3.org/2000/svg" xmlns:xlink="http://www.w3.org/1999/xlink" x="0px" y="0px"
	 viewBox="0 0 40 100" style="enable-background:new 0 0 40 100;" xml:space="preserve">
<style type="text/css">
	.st0{fill:#151414;}
	.st1{clip-path:url(#SVGID_00000100357317376904051340000001178108552454709948_);fill:#EDF1F7;}
	.st2{clip-path:url(#SVGID_00000100357317376904051340000001178108552454709948_);fill:#EDF2F7;}
	.st3{clip-path:url(#SVGID_00000100357317376904051340000001178108552454709948_);fill:#EEF3F7;}
	.st4{clip-path:url(#SVGID_00000100357317376904051340000001178108552454709948_);fill:#EFF3F9;}
	.st5{clip-path:url(#SVGID_00000100357317376904051340000001178108552454709948_);fill:#F0F4F9;}
	.st6{clip-path:url(#SVGID_00000100357317376904051340000001178108552454709948_);fill:#F1F5F9;}
	.st7{clip-path:url(#SVGID_00000100357317376904051340000001178108552454709948_);fill:#F3F6FA;}
	.st8{clip-path:url(#SVGID_00000100357317376904051340000001178108552454709948_);fill:#F3F7FC;}
	.st9{clip-path:url(#SVGID_00000100357317376904051340000001178108552454709948_);fill:#F6F7FA;}
	.st10{clip-path:url(#SVGID_00000100357317376904051340000001178108552454709948_);fill:#F7F9FB;}
	.st11{clip-path:url(#SVGID_00000100357317376904051340000001178108552454709948_);fill:#F7FBFE;}
	.st12{clip-path:url(#SVGID_00000100357317376904051340000001178108552454709948_);fill:#F8FBFE;}
	.st13{clip-path:url(#SVGID_00000100357317376904051340000001178108552454709948_);fill:#FAFCFE;}
	.st14{clip-path:url(#SVGID_00000100357317376904051340000001178108552454709948_);fill:#FBFEFF;}
	.st15{clip-path:url(#SVGID_00000100357317376904051340000001178108552454709948_);fill:#FDFEFF;}
	.st16{clip-path:url(#SVGID_00000100357317376904051340000001178108552454709948_);fill:#FFFFFF;}
	.st17{clip-path:url(#SVGID_00000079457508531038038940000016722741280381740437_);fill:#E39975;}
	.st18{clip-path:url(#SVGID_00000079457508531038038940000016722741280381740437_);fill:#E29975;}
	.st19{clip-path:url(#SVGID_00000079457508531038038940000016722741280381740437_);fill:#E39A77;}
	.st20{clip-path:url(#SVGID_00000079457508531038038940000016722741280381740437_);fill:#E39C78;}
	.st21{clip-path:url(#SVGID_00000079457508531038038940000016722741280381740437_);fill:#E39C79;}
	.st22{clip-path:url(#SVGID_00000079457508531038038940000016722741280381740437_);fill:#E39D7A;}
	.st23{clip-path:url(#SVGID_00000079457508531038038940000016722741280381740437_);fill:#E49D7B;}
	.st24{clip-path:url(#SVGID_00000079457508531038038940000016722741280381740437_);fill:#E59F7B;}
	.st25{clip-path:url(#SVGID_00000079457508531038038940000016722741280381740437_);fill:#E5A07C;}
	.st26{clip-path:url(#SVGID_00000079457508531038038940000016722741280381740437_);fill:#E5A07D;}
	.st27{clip-path:url(#SVGID_00000079457508531038038940000016722741280381740437_);fill:#E5A17E;}
	.st28{clip-path:url(#SVGID_00000079457508531038038940000016722741280381740437_);fill:#E5A17F;}
	.st29{clip-path:url(#SVGID_00000079457508531038038940000016722741280381740437_);fill:#E5A380;}
	.st30{clip-path:url(#SVGID_00000079457508531038038940000016722741280381740437_);fill:#E6A481;}
	.st31{clip-path:url(#SVGID_00000079457508531038038940000016722741280381740437_);fill:#E6A482;}
	.st32{clip-path:url(#SVGID_00000079457508531038038940000016722741280381740437_);fill:#E6A683;}
	.st33{clip-path:url(#SVGID_00000079457508531038038940000016722741280381740437_);fill:#E6A785;}
	.st34{clip-path:url(#SVGID_00000079457508531038038940000016722741280381740437_);fill:#E7A785;}
	.st35{clip-path:url(#SVGID_00000079457508531038038940000016722741280381740437_);fill:#E7A886;}
	.st36{clip-path:url(#SVGID_00000079457508531038038940000016722741280381740437_);fill:#E7A887;}
	.st37{clip-path:url(#SVGID_00000079457508531038038940000016722741280381740437_);fill:#E7AA89;}
	.st38{clip-path:url(#SVGID_00000079457508531038038940000016722741280381740437_);fill:#E8AB8A;}
	.st39{clip-path:url(#SVGID_00000079457508531038038940000016722741280381740437_);fill:#E8AC8A;}
	.st40{clip-path:url(#SVGID_00000079457508531038038940000016722741280381740437_);fill:#E8AC8B;}
	.st41{clip-path:url(#SVGID_00000079457508531038038940000016722741280381740437_);fill:#E8AE8C;}
	.st42{clip-path:url(#SVGID_00000079457508531038038940000016722741280381740437_);fill:#E8AD8D;}
	.st43{clip-path:url(#SVGID_00000079457508531038038940000016722741280381740437_);fill:#E9AF8F;}
	.st44{clip-path:url(#SVGID_00000079457508531038038940000016722741280381740437_);fill:#E9B090;}
	.st45{clip-path:url(#SVGID_00000079457508531038038940000016722741280381740437_);fill:#EAB191;}
	.st46{clip-path:url(#SVGID_00000079457508531038038940000016722741280381740437_);fill:#EAB392;}
	.st47{clip-path:url(#SVGID_00000079457508531038038940000016722741280381740437_);fill:#EAB394;}
	.st48{clip-path:url(#SVGID_00000079457508531038038940000016722741280381740437_);fill:#EAB395;}
	.st49{clip-path:url(#SVGID_00000079457508531038038940000016722741280381740437_);fill:#EBB495;}
	.st50{clip-path:url(#SVGID_00000079457508531038038940000016722741280381740437_);fill:#EBB596;}
	.st51{clip-path:url(#SVGID_00000079457508531038038940000016722741280381740437_);fill:#EBB697;}
	.st52{clip-path:url(#SVGID_00000079457508531038038940000016722741280381740437_);fill:#EBB798;}
	.st53{clip-path:url(#SVGID_00000079457508531038038940000016722741280381740437_);fill:#ECB899;}
	.st54{clip-path:url(#SVGID_00000079457508531038038940000016722741280381740437_);fill:#ECB89A;}
	.st55{clip-path:url(#SVGID_00000079457508531038038940000016722741280381740437_);fill:#ECB99B;}
	.st56{clip-path:url(#SVGID_00000079457508531038038940000016722741280381740437_);fill:#ECBA9C;}
	.st57{clip-path:url(#SVGID_00000079457508531038038940000016722741280381740437_);fill:#EDBB9D;}
	.st58{clip-path:url(#SVGID_00000079457508531038038940000016722741280381740437_);fill:#EDBC9E;}
	.st59{clip-path:url(#SVGID_00000079457508531038038940000016722741280381740437_);fill:#EDBD9F;}
	.st60{clip-path:url(#SVGID_00000079457508531038038940000016722741280381740437_);fill:#ECBEA0;}
	.st61{clip-path:url(#SVGID_00000079457508531038038940000016722741280381740437_);fill:#EDBEA1;}
	.st62{clip-path:url(#SVGID_00000079457508531038038940000016722741280381740437_);fill:#EDBFA2;}
	.st63{clip-path:url(#SVGID_00000079457508531038038940000016722741280381740437_);fill:#EDC0A3;}
	.st64{clip-path:url(#SVGID_00000079457508531038038940000016722741280381740437_);fill:#EEC1A5;}
	.st65{clip-path:url(#SVGID_00000079457508531038038940000016722741280381740437_);fill:#EEC2A6;}
	.st66{clip-path:url(#SVGID_00000079457508531038038940000016722741280381740437_);fill:#EEC3A7;}
	.st67{clip-path:url(#SVGID_00000079457508531038038940000016722741280381740437_);fill:#EFC5A9;}
	.st68{clip-path:url(#SVGID_00000079457508531038038940000016722741280381740437_);fill:#F0C4AA;}
	.st69{clip-path:url(#SVGID_00000079457508531038038940000016722741280381740437_);fill:#F0C6AB;}
	.st70{clip-path:url(#SVGID_00000079457508531038038940000016722741280381740437_);fill:#F0C7AC;}
	.st71{clip-path:url(#SVGID_00000079457508531038038940000016722741280381740437_);fill:#F0C8AD;}
	.st72{clip-path:url(#SVGID_00000079457508531038038940000016722741280381740437_);fill:#F1C9AE;}
	.st73{clip-path:url(#SVGID_00000079457508531038038940000016722741280381740437_);fill:#F1CAAF;}
	.st74{clip-path:url(#SVGID_00000079457508531038038940000016722741280381740437_);fill:#F1CBB0;}
	.st75{clip-path:url(#SVGID_00000079457508531038038940000016722741280381740437_);fill:#F1CBB1;}
	.st76{clip-path:url(#SVGID_00000079457508531038038940000016722741280381740437_);fill:#F2CBB2;}
	.st77{clip-path:url(#SVGID_00000079457508531038038940000016722741280381740437_);fill:#F2CDB3;}
	.st78{clip-path:url(#SVGID_00000079457508531038038940000016722741280381740437_);fill:#F2CEB4;}
	.st79{clip-path:url(#SVGID_00000079457508531038038940000016722741280381740437_);fill:#F1CEB4;}
	.st80{clip-path:url(#SVGID_00000079457508531038038940000016722741280381740437_);fill:#F2CFB5;}
	.st81{clip-path:url(#SVGID_00000079457508531038038940000016722741280381740437_);fill:#F3D1B6;}
	.st82{clip-path:url(#SVGID_00000079457508531038038940000016722741280381740437_);fill:#F2D0B7;}
	.st83{clip-path:url(#SVGID_00000079457508531038038940000016722741280381740437_);fill:#F2D1B8;}
	.st84{clip-path:url(#SVGID_00000079457508531038038940000016722741280381740437_);fill:#F3D2B9;}
	.st85{clip-path:url(#SVGID_00000079457508531038038940000016722741280381740437_);fill:#F3D3BA;}
	.st86{clip-path:url(#SVGID_00000079457508531038038940000016722741280381740437_);fill:#F4D4BB;}
	.st87{clip-path:url(#SVGID_00000079457508531038038940000016722741280381740437_);fill:#F4D5BC;}
	.st88{clip-path:url(#SVGID_00000079457508531038038940000016722741280381740437_);fill:#F5D6BD;}
	.st89{clip-path:url(#SVGID_00000079457508531038038940000016722741280381740437_);fill:#F5D6BE;}
	.st90{clip-path:url(#SVGID_00000079457508531038038940000016722741280381740437_);fill:#F5D7BF;}
	.st91{clip-path:url(#SVGID_00000079457508531038038940000016722741280381740437_);fill:#F6D8C0;}
	.st92{clip-path:url(#SVGID_00000079457508531038038940000016722741280381740437_);fill:#F6D9C1;}
	.st93{clip-path:url(#SVGID_00000079457508531038038940000016722741280381740437_);fill:#F6DAC2;}
	.st94{clip-path:url(#SVGID_00000079457508531038038940000016722741280381740437_);fill:#F6DBC3;}
	.st95{clip-path:url(#SVGID_00000079457508531038038940000016722741280381740437_);fill:#F7DBC4;}
	.st96{clip-path:url(#SVGID_00000079457508531038038940000016722741280381740437_);fill:#F7DCC5;}
	.st97{clip-path:url(#SVGID_00000079457508531038038940000016722741280381740437_);fill:#F7DEC6;}
	.st98{clip-path:url(#SVGID_00000079457508531038038940000016722741280381740437_);fill:#F7DEC7;}
	.st99{clip-path:url(#SVGID_00000079457508531038038940000016722741280381740437_);fill:#F7DEC8;}
	.st100{clip-path:url(#SVGID_00000079457508531038038940000016722741280381740437_);fill:#F7E0C9;}
	.st101{clip-path:url(#SVGID_00000079457508531038038940000016722741280381740437_);fill:#F7E1CB;}
	.st102{clip-path:url(#SVGID_00000079457508531038038940000016722741280381740437_);fill:#F8E2CC;}
	.st103{clip-path:url(#SVGID_00000079457508531038038940000016722741280381740437_);fill:#F9E3CD;}
	.st104{clip-path:url(#SVGID_00000079457508531038038940000016722741280381740437_);fill:#F7E3CE;}
	.st105{clip-path:url(#SVGID_00000079457508531038038940000016722741280381740437_);fill:#F8E5CF;}
	.st106{clip-path:url(#SVGID_00000079457508531038038940000016722741280381740437_);fill:#F9E5D0;}
	.st107{clip-path:url(#SVGID_00000079457508531038038940000016722741280381740437_);fill:#F9E7D1;}
	.st108{clip-path:url(#SVGID_00000079457508531038038940000016722741280381740437_);fill:#F9E6D2;}
	.st109{clip-path:url(#SVGID_00000079457508531038038940000016722741280381740437_);fill:#F9E8D3;}
	.st110{clip-path:url(#SVGID_00000079457508531038038940000016722741280381740437_);fill:#FAE9D4;}
	.st111{clip-path:url(#SVGID_00000079457508531038038940000016722741280381740437_);fill:#FAEAD5;}
	.st112{clip-path:url(#SVGID_00000079457508531038038940000016722741280381740437_);fill:#FAEAD6;}
	.st113{clip-path:url(#SVGID_00000079457508531038038940000016722741280381740437_);fill:#FCECD8;}
	.st114{clip-path:url(#SVGID_00000079457508531038038940000016722741280381740437_);fill:#FCEDDA;}
</style>
<g>
	<g id="path186_00000071542497568425002330000005997408100365981583_">
		<path class="st0" d="M27.97,66.67c0.15,0.09,0.3,0.18,0.45,0.26c-0.05-0.21-0.1-0.42-0.13-0.62c-0.53-4-0.78-8.08-1.02-12.03
			c-0.23-3.74-0.46-7.61-0.94-11.4c-1.65-13.01-3.85-26.62-10.73-37.44c-0.08-0.12-0.16-0.27-0.25-0.43
			c-0.39-0.67-0.93-1.6-1.58-1.6c-0.04,0-0.08,0.01-0.12,0.01c-0.47,0.08-0.75,0.53-0.91,1.46c-0.15,0.92-0.03,1.85,0.11,2.83
			c0.08,0.56,0.16,1.13,0.18,1.71c0.24,6.72-0.35,13.53-0.92,20.1c0,2.86-0.34,5.8-0.67,8.64c-0.16,1.4-0.32,2.84-0.45,4.24
			L9.86,55.51c-0.06,0.73-0.14,1.45-0.21,2.18c-0.15,1.43-0.29,2.91-0.36,4.36c-0.03,0.67,0,1.33,0.03,1.97
			c0.03,0.45,0.04,0.91,0.04,1.37c1.34-0.39,2.48-1.02,3.79-2.13l0.27-0.22c1.17-0.99,2.51-2.12,4.18-2.34
			c1.73-0.22,3.56,0.53,5.59,2.31c0.31,0.27,0.6,0.54,0.9,0.81c0.59,0.53,1.18,1.09,1.82,1.57S27.27,66.28,27.97,66.67L27.97,66.67z
			 M33.1,92.03c0.71-1.18,0.53-2.63,0.34-4.03c-0.03-0.27-0.06-0.52-0.1-0.78c-0.2-1.85-0.48-3.7-0.83-5.52
			c-0.5-2.56-1.27-5.07-2.02-7.5c-0.57-1.86-1.16-3.78-1.64-5.71c-0.05-0.21-0.11-0.43-0.18-0.66c-0.34-0.2-0.68-0.39-1.02-0.59
			c-0.71-0.4-1.45-0.81-2.11-1.32c-0.67-0.5-1.28-1.06-1.87-1.6c-0.3-0.27-0.59-0.54-0.89-0.81c-1.89-1.65-3.55-2.35-5.09-2.15
			c-1.49,0.19-2.69,1.21-3.86,2.19l-0.27,0.23c-1.45,1.22-2.69,1.9-4.21,2.31c-0.01,0.25-0.03,0.5-0.06,0.76
			c-0.43,3.76-1.1,7.54-1.74,11.2l-0.28,1.59c-0.17,1.02-0.35,2.04-0.52,3.06c-0.38,2.3-0.64,4.51,0.31,6.31
			c0.91,1.71,2.65,2.63,4.49,3.61c0.66,0.36,1.34,0.72,1.98,1.12c0.84,0.53,1.63,1.15,2.39,1.76c0.71,0.56,1.45,1.14,2.21,1.64
			c1.3,0.84,2.6,1.25,3.96,1.25c2.95,0,5.77-1.97,8.26-3.7C31.39,93.93,32.44,93.11,33.1,92.03L33.1,92.03z M34.07,87.91
			c0.19,1.44,0.4,3.08-0.43,4.45c-0.72,1.19-1.83,2.06-2.93,2.83C28.15,96.97,25.25,99,22.09,99c-1.5,0-2.9-0.44-4.31-1.35
			c-0.79-0.51-1.54-1.1-2.27-1.67c-0.74-0.59-1.52-1.2-2.34-1.72c-0.61-0.39-1.29-0.74-1.93-1.09c-1.85-0.99-3.75-2-4.75-3.88
			c-1.14-2.13-0.7-4.78-0.38-6.71c0.17-1.02,0.34-2.05,0.52-3.07l0.28-1.59c0.64-3.65,1.3-7.43,1.74-11.16
			c0.11-0.94,0.07-1.79,0.03-2.71c-0.03-0.65-0.06-1.33-0.03-2.03c0.06-1.46,0.21-2.95,0.36-4.39c0.08-0.73,0.15-1.45,0.21-2.18
			l1.13-13.11c0.13-1.41,0.29-2.85,0.45-4.25c0.32-2.83,0.66-5.75,0.66-8.62c0.57-6.56,1.16-13.35,0.92-20.03
			c-0.02-0.54-0.1-1.1-0.17-1.64c-0.13-0.98-0.27-2-0.1-3.02c0.08-0.49,0.31-1.79,1.43-1.98c1.14-0.2,1.85,1.02,2.35,1.9
			c0.09,0.15,0.17,0.29,0.24,0.4c6.95,10.93,9.16,24.62,10.82,37.7c0.48,3.81,0.72,7.69,0.94,11.44c0.24,3.93,0.48,8,1.02,11.98
			c0.05,0.38,0.19,0.82,0.32,1.25c0.09,0.29,0.18,0.58,0.25,0.85c0.46,1.92,1.05,3.82,1.62,5.67c0.76,2.45,1.53,4.98,2.04,7.57
			c0.36,1.84,0.64,3.72,0.84,5.57C34.01,87.39,34.04,87.65,34.07,87.91"/>
	</g>
	<g id="path188_00000071520834703052052190000001741497595690769593_">
		<g>
			<defs>
				<path id="SVGID_1_" d="M33.44,87.99c0.18,1.4,0.37,2.86-0.34,4.03c-0.66,1.09-1.71,1.91-2.74,2.63c-2.49,1.74-5.31,3.7-8.26,3.7
					c-1.37,0-2.66-0.41-3.96-1.25c-0.76-0.5-1.5-1.08-2.21-1.64c-0.76-0.6-1.55-1.23-2.39-1.76c-0.64-0.4-1.32-0.76-1.98-1.12
					c-1.84-0.98-3.58-1.91-4.49-3.61c-0.95-1.79-0.69-4.01-0.31-6.31c0.17-1.02,0.35-2.04,0.52-3.06l0.28-1.59
					c0.64-3.66,1.31-7.44,1.74-11.2c0.03-0.26,0.05-0.52,0.06-0.76c1.52-0.41,2.76-1.09,4.21-2.31l0.27-0.23
					c1.16-0.98,2.37-2,3.86-2.19c1.54-0.2,3.2,0.5,5.09,2.15c0.3,0.27,0.59,0.53,0.89,0.81c0.59,0.54,1.2,1.11,1.87,1.6
					c0.66,0.5,1.4,0.92,2.11,1.32c0.34,0.2,0.69,0.39,1.02,0.59c0.07,0.23,0.13,0.45,0.18,0.66c0.47,1.93,1.06,3.86,1.64,5.71
					c0.74,2.43,1.52,4.94,2.02,7.5c0.35,1.82,0.63,3.68,0.83,5.52C33.38,87.47,33.41,87.72,33.44,87.99"/>
			</defs>
			<clipPath id="SVGID_00000137826798707748037000000008999071913851789470_">
				<use xlink:href="#SVGID_1_"  style="overflow:visible;"/>
			</clipPath>
			
				<rect x="6.1" y="87.16" style="clip-path:url(#SVGID_00000137826798707748037000000008999071913851789470_);fill:#EDF1F7;" width="27.71" height="11.2"/>
			
				<rect x="6.1" y="86.3" style="clip-path:url(#SVGID_00000137826798707748037000000008999071913851789470_);fill:#EDF1F7;" width="27.71" height="0.87"/>
			
				<rect x="6.1" y="85.43" style="clip-path:url(#SVGID_00000137826798707748037000000008999071913851789470_);fill:#EDF2F7;" width="27.71" height="0.87"/>
			
				<rect x="6.1" y="84.57" style="clip-path:url(#SVGID_00000137826798707748037000000008999071913851789470_);fill:#EEF3F7;" width="27.71" height="0.87"/>
			
				<rect x="6.1" y="83.7" style="clip-path:url(#SVGID_00000137826798707748037000000008999071913851789470_);fill:#EFF3F9;" width="27.71" height="0.87"/>
			
				<rect x="6.1" y="82.84" style="clip-path:url(#SVGID_00000137826798707748037000000008999071913851789470_);fill:#F0F4F9;" width="27.71" height="0.87"/>
			
				<rect x="6.1" y="81.97" style="clip-path:url(#SVGID_00000137826798707748037000000008999071913851789470_);fill:#F1F5F9;" width="27.71" height="0.87"/>
			
				<rect x="6.1" y="81.11" style="clip-path:url(#SVGID_00000137826798707748037000000008999071913851789470_);fill:#F3F6FA;" width="27.71" height="0.87"/>
			
				<rect x="6.1" y="80.24" style="clip-path:url(#SVGID_00000137826798707748037000000008999071913851789470_);fill:#F3F6FA;" width="27.71" height="0.87"/>
			
				<rect x="6.1" y="79.38" style="clip-path:url(#SVGID_00000137826798707748037000000008999071913851789470_);fill:#F3F7FC;" width="27.71" height="0.87"/>
			
				<rect x="6.1" y="78.51" style="clip-path:url(#SVGID_00000137826798707748037000000008999071913851789470_);fill:#F6F7FA;" width="27.71" height="0.87"/>
			
				<rect x="6.1" y="77.65" style="clip-path:url(#SVGID_00000137826798707748037000000008999071913851789470_);fill:#F7F9FB;" width="27.71" height="0.87"/>
			
				<rect x="6.1" y="76.78" style="clip-path:url(#SVGID_00000137826798707748037000000008999071913851789470_);fill:#F7FBFE;" width="27.71" height="0.87"/>
			
				<rect x="6.1" y="75.92" style="clip-path:url(#SVGID_00000137826798707748037000000008999071913851789470_);fill:#F8FBFE;" width="27.71" height="0.87"/>
			
				<rect x="6.1" y="75.05" style="clip-path:url(#SVGID_00000137826798707748037000000008999071913851789470_);fill:#FAFCFE;" width="27.71" height="0.87"/>
			
				<rect x="6.1" y="74.19" style="clip-path:url(#SVGID_00000137826798707748037000000008999071913851789470_);fill:#FBFEFF;" width="27.71" height="0.87"/>
			
				<rect x="6.1" y="73.32" style="clip-path:url(#SVGID_00000137826798707748037000000008999071913851789470_);fill:#FDFEFF;" width="27.71" height="0.87"/>
			
				<rect x="6.1" y="72.46" style="clip-path:url(#SVGID_00000137826798707748037000000008999071913851789470_);fill:#FFFFFF;" width="27.71" height="0.87"/>
			
				<rect x="6.1" y="71.59" style="clip-path:url(#SVGID_00000137826798707748037000000008999071913851789470_);fill:#FFFFFF;" width="27.71" height="0.87"/>
			
				<rect x="6.1" y="70.72" style="clip-path:url(#SVGID_00000137826798707748037000000008999071913851789470_);fill:#FFFFFF;" width="27.71" height="0.87"/>
			
				<rect x="6.1" y="61.13" style="clip-path:url(#SVGID_00000137826798707748037000000008999071913851789470_);fill:#FFFFFF;" width="27.71" height="9.59"/>
		</g>
	</g>
	<g id="path190">
		<g>
			<defs>
				<path id="SVGID_00000070084883607672116970000006456523791620387480_" d="M28.41,66.93c-0.15-0.08-0.29-0.17-0.45-0.26
					c-0.69-0.39-1.41-0.8-2.05-1.27s-1.23-1.03-1.82-1.57c-0.29-0.27-0.59-0.55-0.9-0.81c-2.04-1.78-3.86-2.53-5.59-2.31
					c-1.67,0.22-3.01,1.35-4.18,2.34l-0.27,0.22c-1.32,1.11-2.45,1.74-3.79,2.13c0-0.46-0.02-0.92-0.04-1.37
					c-0.03-0.64-0.06-1.3-0.03-1.97c0.06-1.45,0.21-2.93,0.36-4.36c0.07-0.73,0.15-1.46,0.21-2.18l1.13-13.11
					c0.12-1.4,0.29-2.84,0.45-4.24c0.33-2.84,0.67-5.78,0.67-8.64c0.57-6.57,1.16-13.38,0.92-20.1c-0.02-0.57-0.1-1.15-0.18-1.71
					c-0.13-0.97-0.26-1.9-0.11-2.83c0.16-0.93,0.44-1.38,0.91-1.46c0.04-0.01,0.08-0.01,0.12-0.01c0.65,0,1.18,0.93,1.58,1.6
					c0.09,0.16,0.17,0.31,0.25,0.43c6.88,10.82,9.07,24.42,10.73,37.44c0.48,3.79,0.71,7.66,0.94,11.4
					c0.24,3.95,0.48,8.02,1.02,12.03C28.31,66.51,28.36,66.72,28.41,66.93"/>
			</defs>
			<clipPath id="SVGID_00000038399759012778006950000016164479754655166108_">
				<use xlink:href="#SVGID_00000070084883607672116970000006456523791620387480_"  style="overflow:visible;"/>
			</clipPath>
			<path style="clip-path:url(#SVGID_00000038399759012778006950000016164479754655166108_);fill:#E39975;" d="M9.26,66.93h19.15
				H9.26z"/>
			
				<rect x="9.26" y="66.68" style="clip-path:url(#SVGID_00000038399759012778006950000016164479754655166108_);fill:#E39975;" width="19.15" height="0.24"/>
			
				<rect x="9.26" y="66.44" style="clip-path:url(#SVGID_00000038399759012778006950000016164479754655166108_);fill:#E29975;" width="19.15" height="0.24"/>
			
				<rect x="9.26" y="66.2" style="clip-path:url(#SVGID_00000038399759012778006950000016164479754655166108_);fill:#E39A77;" width="19.15" height="0.24"/>
			
				<rect x="9.26" y="65.95" style="clip-path:url(#SVGID_00000038399759012778006950000016164479754655166108_);fill:#E39C78;" width="19.15" height="0.24"/>
			
				<rect x="9.26" y="65.71" style="clip-path:url(#SVGID_00000038399759012778006950000016164479754655166108_);fill:#E39C79;" width="19.15" height="0.24"/>
			
				<rect x="9.26" y="65.47" style="clip-path:url(#SVGID_00000038399759012778006950000016164479754655166108_);fill:#E39D7A;" width="19.15" height="0.24"/>
			
				<rect x="9.26" y="65.23" style="clip-path:url(#SVGID_00000038399759012778006950000016164479754655166108_);fill:#E49D7B;" width="19.15" height="0.24"/>
			
				<rect x="9.26" y="64.98" style="clip-path:url(#SVGID_00000038399759012778006950000016164479754655166108_);fill:#E59F7B;" width="19.15" height="0.24"/>
			
				<rect x="9.26" y="64.74" style="clip-path:url(#SVGID_00000038399759012778006950000016164479754655166108_);fill:#E5A07C;" width="19.15" height="0.24"/>
			
				<rect x="9.26" y="64.5" style="clip-path:url(#SVGID_00000038399759012778006950000016164479754655166108_);fill:#E5A07D;" width="19.15" height="0.24"/>
			
				<rect x="9.26" y="64.25" style="clip-path:url(#SVGID_00000038399759012778006950000016164479754655166108_);fill:#E5A17E;" width="19.15" height="0.24"/>
			
				<rect x="9.26" y="64.01" style="clip-path:url(#SVGID_00000038399759012778006950000016164479754655166108_);fill:#E5A17F;" width="19.15" height="0.24"/>
			
				<rect x="9.26" y="63.77" style="clip-path:url(#SVGID_00000038399759012778006950000016164479754655166108_);fill:#E5A380;" width="19.15" height="0.24"/>
			
				<rect x="9.26" y="63.52" style="clip-path:url(#SVGID_00000038399759012778006950000016164479754655166108_);fill:#E6A481;" width="19.15" height="0.24"/>
			
				<rect x="9.26" y="63.28" style="clip-path:url(#SVGID_00000038399759012778006950000016164479754655166108_);fill:#E6A482;" width="19.15" height="0.24"/>
			
				<rect x="9.26" y="63.04" style="clip-path:url(#SVGID_00000038399759012778006950000016164479754655166108_);fill:#E6A683;" width="19.15" height="0.24"/>
			
				<rect x="9.26" y="62.8" style="clip-path:url(#SVGID_00000038399759012778006950000016164479754655166108_);fill:#E6A785;" width="19.15" height="0.24"/>
			
				<rect x="9.26" y="62.55" style="clip-path:url(#SVGID_00000038399759012778006950000016164479754655166108_);fill:#E7A785;" width="19.15" height="0.24"/>
			
				<rect x="9.26" y="62.31" style="clip-path:url(#SVGID_00000038399759012778006950000016164479754655166108_);fill:#E7A886;" width="19.15" height="0.24"/>
			
				<rect x="9.26" y="62.07" style="clip-path:url(#SVGID_00000038399759012778006950000016164479754655166108_);fill:#E7A887;" width="19.15" height="0.24"/>
			
				<rect x="9.26" y="61.82" style="clip-path:url(#SVGID_00000038399759012778006950000016164479754655166108_);fill:#E7AA89;" width="19.15" height="0.24"/>
			
				<rect x="9.26" y="61.58" style="clip-path:url(#SVGID_00000038399759012778006950000016164479754655166108_);fill:#E8AB8A;" width="19.15" height="0.24"/>
			
				<rect x="9.26" y="61.34" style="clip-path:url(#SVGID_00000038399759012778006950000016164479754655166108_);fill:#E8AC8A;" width="19.15" height="0.24"/>
			
				<rect x="9.26" y="61.09" style="clip-path:url(#SVGID_00000038399759012778006950000016164479754655166108_);fill:#E8AC8B;" width="19.15" height="0.24"/>
			
				<rect x="9.26" y="60.85" style="clip-path:url(#SVGID_00000038399759012778006950000016164479754655166108_);fill:#E8AE8C;" width="19.15" height="0.24"/>
			
				<rect x="9.26" y="60.61" style="clip-path:url(#SVGID_00000038399759012778006950000016164479754655166108_);fill:#E8AD8D;" width="19.15" height="0.24"/>
			
				<rect x="9.26" y="60.37" style="clip-path:url(#SVGID_00000038399759012778006950000016164479754655166108_);fill:#E9AF8F;" width="19.15" height="0.24"/>
			
				<rect x="9.26" y="60.12" style="clip-path:url(#SVGID_00000038399759012778006950000016164479754655166108_);fill:#E9AF8F;" width="19.15" height="0.24"/>
			
				<rect x="9.26" y="59.88" style="clip-path:url(#SVGID_00000038399759012778006950000016164479754655166108_);fill:#E9B090;" width="19.15" height="0.24"/>
			
				<rect x="9.26" y="59.64" style="clip-path:url(#SVGID_00000038399759012778006950000016164479754655166108_);fill:#EAB191;" width="19.15" height="0.24"/>
			
				<rect x="9.26" y="59.39" style="clip-path:url(#SVGID_00000038399759012778006950000016164479754655166108_);fill:#EAB392;" width="19.15" height="0.24"/>
			
				<rect x="9.26" y="59.15" style="clip-path:url(#SVGID_00000038399759012778006950000016164479754655166108_);fill:#EAB394;" width="19.15" height="0.24"/>
			
				<rect x="9.26" y="58.91" style="clip-path:url(#SVGID_00000038399759012778006950000016164479754655166108_);fill:#EAB395;" width="19.15" height="0.24"/>
			
				<rect x="9.26" y="58.66" style="clip-path:url(#SVGID_00000038399759012778006950000016164479754655166108_);fill:#EBB495;" width="19.15" height="0.24"/>
			
				<rect x="9.26" y="58.42" style="clip-path:url(#SVGID_00000038399759012778006950000016164479754655166108_);fill:#EBB596;" width="19.15" height="0.24"/>
			
				<rect x="9.26" y="58.18" style="clip-path:url(#SVGID_00000038399759012778006950000016164479754655166108_);fill:#EBB697;" width="19.15" height="0.24"/>
			
				<rect x="9.26" y="57.94" style="clip-path:url(#SVGID_00000038399759012778006950000016164479754655166108_);fill:#EBB798;" width="19.15" height="0.24"/>
			
				<rect x="9.26" y="57.69" style="clip-path:url(#SVGID_00000038399759012778006950000016164479754655166108_);fill:#ECB899;" width="19.15" height="0.24"/>
			
				<rect x="9.26" y="57.45" style="clip-path:url(#SVGID_00000038399759012778006950000016164479754655166108_);fill:#ECB89A;" width="19.15" height="0.24"/>
			
				<rect x="9.26" y="57.21" style="clip-path:url(#SVGID_00000038399759012778006950000016164479754655166108_);fill:#ECB99B;" width="19.15" height="0.24"/>
			
				<rect x="9.26" y="56.96" style="clip-path:url(#SVGID_00000038399759012778006950000016164479754655166108_);fill:#ECBA9C;" width="19.15" height="0.24"/>
			
				<rect x="9.26" y="56.72" style="clip-path:url(#SVGID_00000038399759012778006950000016164479754655166108_);fill:#EDBB9D;" width="19.15" height="0.24"/>
			
				<rect x="9.26" y="56.48" style="clip-path:url(#SVGID_00000038399759012778006950000016164479754655166108_);fill:#EDBC9E;" width="19.15" height="0.24"/>
			
				<rect x="9.26" y="56.23" style="clip-path:url(#SVGID_00000038399759012778006950000016164479754655166108_);fill:#EDBD9F;" width="19.15" height="0.24"/>
			
				<rect x="9.26" y="55.99" style="clip-path:url(#SVGID_00000038399759012778006950000016164479754655166108_);fill:#ECBEA0;" width="19.15" height="0.24"/>
			
				<rect x="9.26" y="55.75" style="clip-path:url(#SVGID_00000038399759012778006950000016164479754655166108_);fill:#EDBEA1;" width="19.15" height="0.24"/>
			
				<rect x="9.26" y="55.51" style="clip-path:url(#SVGID_00000038399759012778006950000016164479754655166108_);fill:#EDBFA2;" width="19.15" height="0.24"/>
			
				<rect x="9.26" y="55.26" style="clip-path:url(#SVGID_00000038399759012778006950000016164479754655166108_);fill:#EDC0A3;" width="19.15" height="0.24"/>
			
				<rect x="9.26" y="55.02" style="clip-path:url(#SVGID_00000038399759012778006950000016164479754655166108_);fill:#EEC1A5;" width="19.15" height="0.24"/>
			
				<rect x="9.26" y="54.78" style="clip-path:url(#SVGID_00000038399759012778006950000016164479754655166108_);fill:#EEC2A6;" width="19.15" height="0.24"/>
			
				<rect x="9.26" y="54.53" style="clip-path:url(#SVGID_00000038399759012778006950000016164479754655166108_);fill:#EEC3A7;" width="19.15" height="0.24"/>
			
				<rect x="9.26" y="54.29" style="clip-path:url(#SVGID_00000038399759012778006950000016164479754655166108_);fill:#EFC5A9;" width="19.15" height="0.24"/>
			
				<rect x="9.26" y="54.05" style="clip-path:url(#SVGID_00000038399759012778006950000016164479754655166108_);fill:#F0C4AA;" width="19.15" height="0.24"/>
			
				<rect x="9.26" y="53.8" style="clip-path:url(#SVGID_00000038399759012778006950000016164479754655166108_);fill:#F0C6AB;" width="19.15" height="0.24"/>
			
				<rect x="9.26" y="53.56" style="clip-path:url(#SVGID_00000038399759012778006950000016164479754655166108_);fill:#F0C7AC;" width="19.15" height="0.24"/>
			
				<rect x="9.26" y="53.32" style="clip-path:url(#SVGID_00000038399759012778006950000016164479754655166108_);fill:#F0C8AD;" width="19.15" height="0.24"/>
			
				<rect x="9.26" y="53.08" style="clip-path:url(#SVGID_00000038399759012778006950000016164479754655166108_);fill:#F1C9AE;" width="19.15" height="0.24"/>
			
				<rect x="9.26" y="52.83" style="clip-path:url(#SVGID_00000038399759012778006950000016164479754655166108_);fill:#F1CAAF;" width="19.15" height="0.24"/>
			
				<rect x="9.26" y="52.59" style="clip-path:url(#SVGID_00000038399759012778006950000016164479754655166108_);fill:#F1CBB0;" width="19.15" height="0.24"/>
			
				<rect x="9.26" y="52.35" style="clip-path:url(#SVGID_00000038399759012778006950000016164479754655166108_);fill:#F1CBB1;" width="19.15" height="0.24"/>
			
				<rect x="9.26" y="52.1" style="clip-path:url(#SVGID_00000038399759012778006950000016164479754655166108_);fill:#F2CBB2;" width="19.15" height="0.24"/>
			
				<rect x="9.26" y="51.86" style="clip-path:url(#SVGID_00000038399759012778006950000016164479754655166108_);fill:#F2CDB3;" width="19.15" height="0.24"/>
			
				<rect x="9.26" y="51.62" style="clip-path:url(#SVGID_00000038399759012778006950000016164479754655166108_);fill:#F2CEB4;" width="19.15" height="0.24"/>
			
				<rect x="9.26" y="51.37" style="clip-path:url(#SVGID_00000038399759012778006950000016164479754655166108_);fill:#F1CEB4;" width="19.15" height="0.24"/>
			
				<rect x="9.26" y="51.13" style="clip-path:url(#SVGID_00000038399759012778006950000016164479754655166108_);fill:#F2CFB5;" width="19.15" height="0.24"/>
			
				<rect x="9.26" y="50.89" style="clip-path:url(#SVGID_00000038399759012778006950000016164479754655166108_);fill:#F3D1B6;" width="19.15" height="0.24"/>
			
				<rect x="9.26" y="50.65" style="clip-path:url(#SVGID_00000038399759012778006950000016164479754655166108_);fill:#F2D0B7;" width="19.15" height="0.24"/>
			
				<rect x="9.26" y="50.4" style="clip-path:url(#SVGID_00000038399759012778006950000016164479754655166108_);fill:#F2D1B8;" width="19.15" height="0.24"/>
			
				<rect x="9.26" y="50.16" style="clip-path:url(#SVGID_00000038399759012778006950000016164479754655166108_);fill:#F3D2B9;" width="19.15" height="0.24"/>
			
				<rect x="9.26" y="49.92" style="clip-path:url(#SVGID_00000038399759012778006950000016164479754655166108_);fill:#F3D3BA;" width="19.15" height="0.24"/>
			
				<rect x="9.26" y="49.67" style="clip-path:url(#SVGID_00000038399759012778006950000016164479754655166108_);fill:#F4D4BB;" width="19.15" height="0.24"/>
			
				<rect x="9.26" y="49.43" style="clip-path:url(#SVGID_00000038399759012778006950000016164479754655166108_);fill:#F4D5BC;" width="19.15" height="0.24"/>
			
				<rect x="9.26" y="49.19" style="clip-path:url(#SVGID_00000038399759012778006950000016164479754655166108_);fill:#F5D6BD;" width="19.15" height="0.24"/>
			
				<rect x="9.26" y="48.95" style="clip-path:url(#SVGID_00000038399759012778006950000016164479754655166108_);fill:#F5D6BE;" width="19.15" height="0.24"/>
			
				<rect x="9.26" y="48.7" style="clip-path:url(#SVGID_00000038399759012778006950000016164479754655166108_);fill:#F5D7BF;" width="19.15" height="0.24"/>
			
				<rect x="9.26" y="48.46" style="clip-path:url(#SVGID_00000038399759012778006950000016164479754655166108_);fill:#F6D8C0;" width="19.15" height="0.24"/>
			
				<rect x="9.26" y="48.22" style="clip-path:url(#SVGID_00000038399759012778006950000016164479754655166108_);fill:#F6D9C1;" width="19.15" height="0.24"/>
			
				<rect x="9.26" y="47.97" style="clip-path:url(#SVGID_00000038399759012778006950000016164479754655166108_);fill:#F6DAC2;" width="19.15" height="0.24"/>
			
				<rect x="9.26" y="47.73" style="clip-path:url(#SVGID_00000038399759012778006950000016164479754655166108_);fill:#F6DBC3;" width="19.15" height="0.24"/>
			
				<rect x="9.26" y="47.49" style="clip-path:url(#SVGID_00000038399759012778006950000016164479754655166108_);fill:#F7DBC4;" width="19.15" height="0.24"/>
			
				<rect x="9.26" y="47.24" style="clip-path:url(#SVGID_00000038399759012778006950000016164479754655166108_);fill:#F7DCC5;" width="19.15" height="0.24"/>
			
				<rect x="9.26" y="47" style="clip-path:url(#SVGID_00000038399759012778006950000016164479754655166108_);fill:#F7DEC6;" width="19.15" height="0.24"/>
			
				<rect x="9.26" y="46.76" style="clip-path:url(#SVGID_00000038399759012778006950000016164479754655166108_);fill:#F7DEC7;" width="19.15" height="0.24"/>
			
				<rect x="9.26" y="46.52" style="clip-path:url(#SVGID_00000038399759012778006950000016164479754655166108_);fill:#F7DEC8;" width="19.15" height="0.24"/>
			
				<rect x="9.26" y="46.27" style="clip-path:url(#SVGID_00000038399759012778006950000016164479754655166108_);fill:#F7E0C9;" width="19.15" height="0.24"/>
			
				<rect x="9.26" y="46.03" style="clip-path:url(#SVGID_00000038399759012778006950000016164479754655166108_);fill:#F7E1CB;" width="19.15" height="0.24"/>
			
				<rect x="9.26" y="45.79" style="clip-path:url(#SVGID_00000038399759012778006950000016164479754655166108_);fill:#F7E1CB;" width="19.15" height="0.24"/>
			
				<rect x="9.26" y="45.54" style="clip-path:url(#SVGID_00000038399759012778006950000016164479754655166108_);fill:#F8E2CC;" width="19.15" height="0.24"/>
			
				<rect x="9.26" y="45.3" style="clip-path:url(#SVGID_00000038399759012778006950000016164479754655166108_);fill:#F9E3CD;" width="19.15" height="0.24"/>
			
				<rect x="9.26" y="45.06" style="clip-path:url(#SVGID_00000038399759012778006950000016164479754655166108_);fill:#F7E3CE;" width="19.15" height="0.24"/>
			
				<rect x="9.26" y="44.81" style="clip-path:url(#SVGID_00000038399759012778006950000016164479754655166108_);fill:#F8E5CF;" width="19.15" height="0.24"/>
			
				<rect x="9.26" y="44.57" style="clip-path:url(#SVGID_00000038399759012778006950000016164479754655166108_);fill:#F9E5D0;" width="19.15" height="0.24"/>
			
				<rect x="9.26" y="44.33" style="clip-path:url(#SVGID_00000038399759012778006950000016164479754655166108_);fill:#F9E7D1;" width="19.15" height="0.24"/>
			
				<rect x="9.26" y="44.09" style="clip-path:url(#SVGID_00000038399759012778006950000016164479754655166108_);fill:#F9E6D2;" width="19.15" height="0.24"/>
			
				<rect x="9.26" y="43.84" style="clip-path:url(#SVGID_00000038399759012778006950000016164479754655166108_);fill:#F9E8D3;" width="19.15" height="0.24"/>
			
				<rect x="9.26" y="43.6" style="clip-path:url(#SVGID_00000038399759012778006950000016164479754655166108_);fill:#FAE9D4;" width="19.15" height="0.24"/>
			
				<rect x="9.26" y="43.36" style="clip-path:url(#SVGID_00000038399759012778006950000016164479754655166108_);fill:#FAEAD5;" width="19.15" height="0.24"/>
			
				<rect x="9.26" y="33.37" style="clip-path:url(#SVGID_00000038399759012778006950000016164479754655166108_);fill:#FAEAD5;" width="19.15" height="9.99"/>
			
				<rect x="9.26" y="23.39" style="clip-path:url(#SVGID_00000038399759012778006950000016164479754655166108_);fill:#FAEAD6;" width="19.15" height="9.99"/>
			
				<rect x="9.26" y="13.4" style="clip-path:url(#SVGID_00000038399759012778006950000016164479754655166108_);fill:#FCECD8;" width="19.15" height="9.99"/>
			
				<rect x="9.26" y="3.41" style="clip-path:url(#SVGID_00000038399759012778006950000016164479754655166108_);fill:#FCEDDA;" width="19.15" height="9.99"/>
			<path style="clip-path:url(#SVGID_00000038399759012778006950000016164479754655166108_);fill:#FCEDDA;" d="M28.41,3.41H9.26
				H28.41z"/>
		</g>
	</g>
</g>
</svg>
