<?xml version="1.0" encoding="utf-8"?>
<!-- Generator: Adobe Illustrator 27.0.1, SVG Export Plug-In . SVG Version: 6.00 Build 0)  -->
<svg version="1.1" id="Layer_1" xmlns="http://www.w3.org/2000/svg" xmlns:xlink="http://www.w3.org/1999/xlink" x="0px" y="0px"
	 viewBox="0 0 40 100" style="enable-background:new 0 0 40 100;" xml:space="preserve">
<style type="text/css">
	.st0{fill:#151414;}
	.st1{clip-path:url(#SVGID_00000028287687576766549970000012294748402457612933_);fill:#EDF1F7;}
	.st2{clip-path:url(#SVGID_00000028287687576766549970000012294748402457612933_);fill:#EDF2F7;}
	.st3{clip-path:url(#SVGID_00000028287687576766549970000012294748402457612933_);fill:#EEF3F7;}
	.st4{clip-path:url(#SVGID_00000028287687576766549970000012294748402457612933_);fill:#EFF3F9;}
	.st5{clip-path:url(#SVGID_00000028287687576766549970000012294748402457612933_);fill:#F0F4F9;}
	.st6{clip-path:url(#SVGID_00000028287687576766549970000012294748402457612933_);fill:#F1F5F9;}
	.st7{clip-path:url(#SVGID_00000028287687576766549970000012294748402457612933_);fill:#F3F6FA;}
	.st8{clip-path:url(#SVGID_00000028287687576766549970000012294748402457612933_);fill:#F3F7FC;}
	.st9{clip-path:url(#SVGID_00000028287687576766549970000012294748402457612933_);fill:#F6F7FA;}
	.st10{clip-path:url(#SVGID_00000028287687576766549970000012294748402457612933_);fill:#F7F9FB;}
	.st11{clip-path:url(#SVGID_00000028287687576766549970000012294748402457612933_);fill:#F7FBFE;}
	.st12{clip-path:url(#SVGID_00000028287687576766549970000012294748402457612933_);fill:#F8FBFE;}
	.st13{clip-path:url(#SVGID_00000028287687576766549970000012294748402457612933_);fill:#FAFCFE;}
	.st14{clip-path:url(#SVGID_00000028287687576766549970000012294748402457612933_);fill:#FBFEFF;}
	.st15{clip-path:url(#SVGID_00000028287687576766549970000012294748402457612933_);fill:#FDFEFF;}
	.st16{clip-path:url(#SVGID_00000028287687576766549970000012294748402457612933_);fill:#FFFFFF;}
	.st17{clip-path:url(#SVGID_00000177485132286847715530000002523778194912604549_);fill:#E39975;}
	.st18{clip-path:url(#SVGID_00000177485132286847715530000002523778194912604549_);fill:#E29975;}
	.st19{clip-path:url(#SVGID_00000177485132286847715530000002523778194912604549_);fill:#E39A77;}
	.st20{clip-path:url(#SVGID_00000177485132286847715530000002523778194912604549_);fill:#E39C78;}
	.st21{clip-path:url(#SVGID_00000177485132286847715530000002523778194912604549_);fill:#E39C79;}
	.st22{clip-path:url(#SVGID_00000177485132286847715530000002523778194912604549_);fill:#E39D7A;}
	.st23{clip-path:url(#SVGID_00000177485132286847715530000002523778194912604549_);fill:#E49D7B;}
	.st24{clip-path:url(#SVGID_00000177485132286847715530000002523778194912604549_);fill:#E59F7B;}
	.st25{clip-path:url(#SVGID_00000177485132286847715530000002523778194912604549_);fill:#E5A07C;}
	.st26{clip-path:url(#SVGID_00000177485132286847715530000002523778194912604549_);fill:#E5A07D;}
	.st27{clip-path:url(#SVGID_00000177485132286847715530000002523778194912604549_);fill:#E5A17E;}
	.st28{clip-path:url(#SVGID_00000177485132286847715530000002523778194912604549_);fill:#E5A17F;}
	.st29{clip-path:url(#SVGID_00000177485132286847715530000002523778194912604549_);fill:#E5A380;}
	.st30{clip-path:url(#SVGID_00000177485132286847715530000002523778194912604549_);fill:#E6A481;}
	.st31{clip-path:url(#SVGID_00000177485132286847715530000002523778194912604549_);fill:#E6A482;}
	.st32{clip-path:url(#SVGID_00000177485132286847715530000002523778194912604549_);fill:#E6A683;}
	.st33{clip-path:url(#SVGID_00000177485132286847715530000002523778194912604549_);fill:#E6A785;}
	.st34{clip-path:url(#SVGID_00000177485132286847715530000002523778194912604549_);fill:#E7A785;}
	.st35{clip-path:url(#SVGID_00000177485132286847715530000002523778194912604549_);fill:#E7A886;}
	.st36{clip-path:url(#SVGID_00000177485132286847715530000002523778194912604549_);fill:#E7A887;}
	.st37{clip-path:url(#SVGID_00000177485132286847715530000002523778194912604549_);fill:#E7AA89;}
	.st38{clip-path:url(#SVGID_00000177485132286847715530000002523778194912604549_);fill:#E8AB8A;}
	.st39{clip-path:url(#SVGID_00000177485132286847715530000002523778194912604549_);fill:#E8AC8A;}
	.st40{clip-path:url(#SVGID_00000177485132286847715530000002523778194912604549_);fill:#E8AC8B;}
	.st41{clip-path:url(#SVGID_00000177485132286847715530000002523778194912604549_);fill:#E8AE8C;}
	.st42{clip-path:url(#SVGID_00000177485132286847715530000002523778194912604549_);fill:#E8AD8D;}
	.st43{clip-path:url(#SVGID_00000177485132286847715530000002523778194912604549_);fill:#E9AF8F;}
	.st44{clip-path:url(#SVGID_00000177485132286847715530000002523778194912604549_);fill:#E9B090;}
	.st45{clip-path:url(#SVGID_00000177485132286847715530000002523778194912604549_);fill:#EAB191;}
	.st46{clip-path:url(#SVGID_00000177485132286847715530000002523778194912604549_);fill:#EAB392;}
	.st47{clip-path:url(#SVGID_00000177485132286847715530000002523778194912604549_);fill:#EAB394;}
	.st48{clip-path:url(#SVGID_00000177485132286847715530000002523778194912604549_);fill:#EAB395;}
	.st49{clip-path:url(#SVGID_00000177485132286847715530000002523778194912604549_);fill:#EBB495;}
	.st50{clip-path:url(#SVGID_00000177485132286847715530000002523778194912604549_);fill:#EBB596;}
	.st51{clip-path:url(#SVGID_00000177485132286847715530000002523778194912604549_);fill:#EBB697;}
	.st52{clip-path:url(#SVGID_00000177485132286847715530000002523778194912604549_);fill:#EBB798;}
	.st53{clip-path:url(#SVGID_00000177485132286847715530000002523778194912604549_);fill:#ECB899;}
	.st54{clip-path:url(#SVGID_00000177485132286847715530000002523778194912604549_);fill:#ECB89A;}
	.st55{clip-path:url(#SVGID_00000177485132286847715530000002523778194912604549_);fill:#ECB99B;}
	.st56{clip-path:url(#SVGID_00000177485132286847715530000002523778194912604549_);fill:#ECBA9C;}
	.st57{clip-path:url(#SVGID_00000177485132286847715530000002523778194912604549_);fill:#EDBB9D;}
	.st58{clip-path:url(#SVGID_00000177485132286847715530000002523778194912604549_);fill:#EDBC9E;}
	.st59{clip-path:url(#SVGID_00000177485132286847715530000002523778194912604549_);fill:#EDBD9F;}
	.st60{clip-path:url(#SVGID_00000177485132286847715530000002523778194912604549_);fill:#ECBEA0;}
	.st61{clip-path:url(#SVGID_00000177485132286847715530000002523778194912604549_);fill:#EDBEA1;}
	.st62{clip-path:url(#SVGID_00000177485132286847715530000002523778194912604549_);fill:#EDBFA2;}
	.st63{clip-path:url(#SVGID_00000177485132286847715530000002523778194912604549_);fill:#EDC0A3;}
	.st64{clip-path:url(#SVGID_00000177485132286847715530000002523778194912604549_);fill:#EEC1A5;}
	.st65{clip-path:url(#SVGID_00000177485132286847715530000002523778194912604549_);fill:#EEC2A6;}
	.st66{clip-path:url(#SVGID_00000177485132286847715530000002523778194912604549_);fill:#EEC3A7;}
	.st67{clip-path:url(#SVGID_00000177485132286847715530000002523778194912604549_);fill:#EFC5A9;}
	.st68{clip-path:url(#SVGID_00000177485132286847715530000002523778194912604549_);fill:#F0C4AA;}
	.st69{clip-path:url(#SVGID_00000177485132286847715530000002523778194912604549_);fill:#F0C6AB;}
	.st70{clip-path:url(#SVGID_00000177485132286847715530000002523778194912604549_);fill:#F0C7AC;}
	.st71{clip-path:url(#SVGID_00000177485132286847715530000002523778194912604549_);fill:#F0C8AD;}
	.st72{clip-path:url(#SVGID_00000177485132286847715530000002523778194912604549_);fill:#F1C9AE;}
	.st73{clip-path:url(#SVGID_00000177485132286847715530000002523778194912604549_);fill:#F1CAAF;}
	.st74{clip-path:url(#SVGID_00000177485132286847715530000002523778194912604549_);fill:#F1CBB0;}
	.st75{clip-path:url(#SVGID_00000177485132286847715530000002523778194912604549_);fill:#F1CBB1;}
	.st76{clip-path:url(#SVGID_00000177485132286847715530000002523778194912604549_);fill:#F2CBB2;}
	.st77{clip-path:url(#SVGID_00000177485132286847715530000002523778194912604549_);fill:#F2CDB3;}
	.st78{clip-path:url(#SVGID_00000177485132286847715530000002523778194912604549_);fill:#F2CEB4;}
	.st79{clip-path:url(#SVGID_00000177485132286847715530000002523778194912604549_);fill:#F1CEB4;}
	.st80{clip-path:url(#SVGID_00000177485132286847715530000002523778194912604549_);fill:#F2CFB5;}
	.st81{clip-path:url(#SVGID_00000177485132286847715530000002523778194912604549_);fill:#F3D1B6;}
	.st82{clip-path:url(#SVGID_00000177485132286847715530000002523778194912604549_);fill:#F2D0B7;}
	.st83{clip-path:url(#SVGID_00000177485132286847715530000002523778194912604549_);fill:#F2D1B8;}
	.st84{clip-path:url(#SVGID_00000177485132286847715530000002523778194912604549_);fill:#F3D2B9;}
	.st85{clip-path:url(#SVGID_00000177485132286847715530000002523778194912604549_);fill:#F3D3BA;}
	.st86{clip-path:url(#SVGID_00000177485132286847715530000002523778194912604549_);fill:#F4D4BB;}
	.st87{clip-path:url(#SVGID_00000177485132286847715530000002523778194912604549_);fill:#F4D5BC;}
	.st88{clip-path:url(#SVGID_00000177485132286847715530000002523778194912604549_);fill:#F5D6BD;}
	.st89{clip-path:url(#SVGID_00000177485132286847715530000002523778194912604549_);fill:#F5D6BE;}
	.st90{clip-path:url(#SVGID_00000177485132286847715530000002523778194912604549_);fill:#F5D7BF;}
	.st91{clip-path:url(#SVGID_00000177485132286847715530000002523778194912604549_);fill:#F6D8C0;}
	.st92{clip-path:url(#SVGID_00000177485132286847715530000002523778194912604549_);fill:#F6D9C1;}
	.st93{clip-path:url(#SVGID_00000177485132286847715530000002523778194912604549_);fill:#F6DAC2;}
	.st94{clip-path:url(#SVGID_00000177485132286847715530000002523778194912604549_);fill:#F6DBC3;}
	.st95{clip-path:url(#SVGID_00000177485132286847715530000002523778194912604549_);fill:#F7DBC4;}
	.st96{clip-path:url(#SVGID_00000177485132286847715530000002523778194912604549_);fill:#F7DCC5;}
	.st97{clip-path:url(#SVGID_00000177485132286847715530000002523778194912604549_);fill:#F7DEC6;}
	.st98{clip-path:url(#SVGID_00000177485132286847715530000002523778194912604549_);fill:#F7DEC7;}
	.st99{clip-path:url(#SVGID_00000177485132286847715530000002523778194912604549_);fill:#F7DEC8;}
	.st100{clip-path:url(#SVGID_00000177485132286847715530000002523778194912604549_);fill:#F7E0C9;}
	.st101{clip-path:url(#SVGID_00000177485132286847715530000002523778194912604549_);fill:#F7E1CB;}
	.st102{clip-path:url(#SVGID_00000177485132286847715530000002523778194912604549_);fill:#F8E2CC;}
	.st103{clip-path:url(#SVGID_00000177485132286847715530000002523778194912604549_);fill:#F9E3CD;}
	.st104{clip-path:url(#SVGID_00000177485132286847715530000002523778194912604549_);fill:#F7E3CE;}
	.st105{clip-path:url(#SVGID_00000177485132286847715530000002523778194912604549_);fill:#F8E5CF;}
	.st106{clip-path:url(#SVGID_00000177485132286847715530000002523778194912604549_);fill:#F9E5D0;}
	.st107{clip-path:url(#SVGID_00000177485132286847715530000002523778194912604549_);fill:#F9E7D1;}
	.st108{clip-path:url(#SVGID_00000177485132286847715530000002523778194912604549_);fill:#F9E6D2;}
	.st109{clip-path:url(#SVGID_00000177485132286847715530000002523778194912604549_);fill:#F9E8D3;}
	.st110{clip-path:url(#SVGID_00000177485132286847715530000002523778194912604549_);fill:#FAE9D4;}
	.st111{clip-path:url(#SVGID_00000177485132286847715530000002523778194912604549_);fill:#FAEAD5;}
	.st112{clip-path:url(#SVGID_00000177485132286847715530000002523778194912604549_);fill:#FAEAD6;}
	.st113{clip-path:url(#SVGID_00000177485132286847715530000002523778194912604549_);fill:#FCECD8;}
	.st114{clip-path:url(#SVGID_00000177485132286847715530000002523778194912604549_);fill:#FCEDDA;}
</style>
<g>
	<g id="path198_00000125595682212056553890000008157949613659857552_">
		<path class="st0" d="M33.08,38.37c0.06-1.88,0.13-3.82-0.08-5.75c-0.14-1.33-0.49-2.66-0.83-3.94c-0.15-0.58-0.31-1.16-0.44-1.74
			l-1.38-5.86c-0.16-0.7-0.34-1.39-0.51-2.09c-0.32-1.27-0.65-2.58-0.91-3.9L28.8,14.5c-0.08-0.4-0.15-0.8-0.25-1.25
			c-0.39-1.88-0.88-4.22-2.36-5.38c-0.37-0.29-0.59-0.35-0.71-0.35c-0.21,0-0.57,0.27-0.61,2.08v18.77
			c0.07,0.44,0.15,0.89,0.23,1.33c0.29,1.67,0.59,3.39,0.79,5.14c0.39,3.43,0.74,6.93,1.04,10.38l0.2,13.04
			c-0.21-4.31-0.5-8.68-0.87-12.99c-0.3-3.44-0.64-6.93-1.03-10.36c-0.2-1.72-0.5-3.43-0.79-5.09c-0.03-0.21-0.07-0.43-0.11-0.65
			l-0.12,0.01l-1.27-6.94c-0.27-1.48-0.51-2.97-0.75-4.45c-0.44-2.68-0.9-5.44-1.5-8.11l-0.11-0.53c-0.44-2.01-0.95-4.29-2.79-5.38
			c-0.2-0.11-0.38-0.17-0.52-0.17c-0.42,0-1,0.51-1.3,2.91L15.2,21.58l-1.35,13.98l-3.79,29.87c1.41,0.09,3.14-0.41,5.38-1.56
			c4.21-2.3,4.7-1.87,10.14,1.86c1.72,1,3.89,2.93,6.63,3.12c0-0.03,0-0.07,0-0.08c-0.01-0.75-0.03-3.47,0-4.19
			c0.13-2.95,0.22-5.95,0.3-8.85c0.05-1.82,0.1-3.63,0.16-5.45L33.08,38.37z M34.32,88.77c0.44-2.05,0.16-4.19-0.21-6.21
			c-0.93-5.03-1.6-9.26-1.86-13.56c-0.01-0.06-0.01,0.9-0.03,0.51c-2.88-0.2-5.17-2.15-7.01-3.23c-5.23-3.58-5.5-3.99-9.47-1.83
			c-2.42,1.25-4.22,1.75-5.78,1.64L9.9,66.72L7.2,78.17c-0.16,0.67-0.35,1.38-0.55,2.12c-0.91,3.31-1.93,7.07-0.44,9.93
			c0.54,1.03,1.42,1.85,2.28,2.64c0.68,0.63,1.5,1.04,2.37,1.46c0.54,0.27,1.1,0.55,1.62,0.87c0.42,0.28,0.84,0.57,1.25,0.86
			c0.84,0.6,1.71,1.22,2.66,1.62c1.55,0.67,3.49,0.82,5.67,0.45c2.93-0.5,5.71-1.75,7.82-3.52C31.79,93,33.77,91.34,34.32,88.77
			L34.32,88.77z M34.77,82.44c0.38,2.08,0.67,4.31,0.21,6.47c-0.61,2.79-2.67,4.53-4.66,6.21c-2.2,1.85-5.09,3.16-8.15,3.67
			c-0.81,0.14-1.6,0.21-2.34,0.21c-1.37,0-2.61-0.24-3.69-0.7c-1.02-0.43-1.92-1.07-2.79-1.69c-0.4-0.29-0.81-0.58-1.22-0.84
			c-0.49-0.32-1.04-0.59-1.55-0.84c-0.87-0.43-1.78-0.87-2.53-1.57c-0.85-0.79-1.83-1.68-2.42-2.81C4,87.44,5.06,83.55,6,80.11
			c0.2-0.73,0.39-1.43,0.55-2.09l2.69-11.42l3.95-31.11l1.35-13.95l0.75-15.09c0.12-0.96,0.45-3.52,1.97-3.52
			c0.27,0,0.57,0.09,0.86,0.27c2.11,1.23,2.64,3.66,3.11,5.81l0.12,0.53c0.61,2.69,1.06,5.46,1.5,8.14
			c0.24,1.49,0.48,2.97,0.75,4.44l0.6,3.28V9.59c0.02-0.82,0.07-2.75,1.29-2.75c0.34,0,0.71,0.16,1.13,0.5
			c1.67,1.31,2.21,3.89,2.6,5.81c0.09,0.4,0.16,0.81,0.24,1.21l0.11,0.6c0.26,1.31,0.59,2.61,0.9,3.87c0.17,0.7,0.35,1.39,0.51,2.09
			l1.38,5.86c0.13,0.58,0.29,1.15,0.44,1.72c0.34,1.31,0.71,2.66,0.85,4.04c0.21,1.98,0.14,3.94,0.08,5.84l-0.4,11.9
			c-0.06,1.81-0.11,3.63-0.16,5.44c-0.09,2.9-0.17,5.9-0.3,8.86c-0.03,0.71-0.01,2.07,0,2.81c0.01,0.17,0.04,1.46,0.05,1.56
			C33.18,73.23,33.85,77.44,34.77,82.44"/>
	</g>
	<g id="path200">
		<g>
			<defs>
				<path id="SVGID_1_" d="M34.11,82.56c0.37,2.01,0.65,4.16,0.21,6.21c-0.55,2.57-2.53,4.23-4.44,5.84
					c-2.11,1.77-4.89,3.02-7.82,3.52c-2.18,0.37-4.11,0.22-5.67-0.45c-0.95-0.4-1.82-1.02-2.66-1.62c-0.41-0.29-0.83-0.59-1.25-0.86
					c-0.52-0.33-1.08-0.61-1.62-0.87c-0.87-0.42-1.69-0.83-2.37-1.46c-0.86-0.79-1.74-1.61-2.28-2.64
					c-1.49-2.86-0.47-6.62,0.44-9.93c0.2-0.74,0.39-1.45,0.55-2.12l2.7-11.45l0.07-0.63c1.56,0.11,3.37-0.39,5.78-1.64
					c3.97-2.16,4.24-1.75,9.47,1.83c1.84,1.08,4.13,3.04,7.01,3.23c0.01,0.38,0.02-0.57,0.03-0.51
					C32.51,73.3,33.19,77.54,34.11,82.56"/>
			</defs>
			<clipPath id="SVGID_00000173159702314081959190000013374745427838281866_">
				<use xlink:href="#SVGID_1_"  style="overflow:visible;"/>
			</clipPath>
			
				<rect x="4.72" y="87.69" style="clip-path:url(#SVGID_00000173159702314081959190000013374745427838281866_);fill:#EDF1F7;" width="30.05" height="10.81"/>
			
				<rect x="4.72" y="86.87" style="clip-path:url(#SVGID_00000173159702314081959190000013374745427838281866_);fill:#EDF1F7;" width="30.05" height="0.82"/>
			
				<rect x="4.72" y="86.05" style="clip-path:url(#SVGID_00000173159702314081959190000013374745427838281866_);fill:#EDF2F7;" width="30.05" height="0.82"/>
			
				<rect x="4.72" y="85.23" style="clip-path:url(#SVGID_00000173159702314081959190000013374745427838281866_);fill:#EEF3F7;" width="30.05" height="0.82"/>
			
				<rect x="4.72" y="84.4" style="clip-path:url(#SVGID_00000173159702314081959190000013374745427838281866_);fill:#EFF3F9;" width="30.05" height="0.82"/>
			
				<rect x="4.72" y="83.58" style="clip-path:url(#SVGID_00000173159702314081959190000013374745427838281866_);fill:#F0F4F9;" width="30.05" height="0.82"/>
			
				<rect x="4.72" y="82.76" style="clip-path:url(#SVGID_00000173159702314081959190000013374745427838281866_);fill:#F1F5F9;" width="30.05" height="0.82"/>
			
				<rect x="4.72" y="81.94" style="clip-path:url(#SVGID_00000173159702314081959190000013374745427838281866_);fill:#F3F6FA;" width="30.05" height="0.82"/>
			
				<rect x="4.72" y="81.12" style="clip-path:url(#SVGID_00000173159702314081959190000013374745427838281866_);fill:#F3F6FA;" width="30.05" height="0.82"/>
			
				<rect x="4.72" y="80.3" style="clip-path:url(#SVGID_00000173159702314081959190000013374745427838281866_);fill:#F3F7FC;" width="30.05" height="0.82"/>
			
				<rect x="4.72" y="79.47" style="clip-path:url(#SVGID_00000173159702314081959190000013374745427838281866_);fill:#F6F7FA;" width="30.05" height="0.82"/>
			
				<rect x="4.72" y="78.65" style="clip-path:url(#SVGID_00000173159702314081959190000013374745427838281866_);fill:#F7F9FB;" width="30.05" height="0.82"/>
			
				<rect x="4.72" y="77.83" style="clip-path:url(#SVGID_00000173159702314081959190000013374745427838281866_);fill:#F7FBFE;" width="30.05" height="0.82"/>
			
				<rect x="4.72" y="77.01" style="clip-path:url(#SVGID_00000173159702314081959190000013374745427838281866_);fill:#F8FBFE;" width="30.05" height="0.82"/>
			
				<rect x="4.72" y="76.19" style="clip-path:url(#SVGID_00000173159702314081959190000013374745427838281866_);fill:#FAFCFE;" width="30.05" height="0.82"/>
			
				<rect x="4.72" y="75.37" style="clip-path:url(#SVGID_00000173159702314081959190000013374745427838281866_);fill:#FBFEFF;" width="30.05" height="0.82"/>
			
				<rect x="4.72" y="74.54" style="clip-path:url(#SVGID_00000173159702314081959190000013374745427838281866_);fill:#FDFEFF;" width="30.05" height="0.82"/>
			
				<rect x="4.72" y="73.72" style="clip-path:url(#SVGID_00000173159702314081959190000013374745427838281866_);fill:#FFFFFF;" width="30.05" height="0.82"/>
			
				<rect x="4.72" y="72.9" style="clip-path:url(#SVGID_00000173159702314081959190000013374745427838281866_);fill:#FFFFFF;" width="30.05" height="0.82"/>
			
				<rect x="4.72" y="72.08" style="clip-path:url(#SVGID_00000173159702314081959190000013374745427838281866_);fill:#FFFFFF;" width="30.05" height="0.82"/>
			
				<rect x="4.72" y="62.29" style="clip-path:url(#SVGID_00000173159702314081959190000013374745427838281866_);fill:#FFFFFF;" width="30.05" height="9.79"/>
		</g>
	</g>
	<g id="path202">
		<g>
			<defs>
				<path id="SVGID_00000052782342856879948330000005666201039259386021_" d="M33,32.62c0.21,1.93,0.14,3.88,0.08,5.75l-0.4,11.89
					c-0.06,1.82-0.11,3.63-0.16,5.45c-0.09,2.9-0.17,5.9-0.3,8.85c-0.03,0.73-0.01,3.44,0,4.19c0,0.01,0,0.05,0,0.08
					c-2.74-0.2-4.91-2.12-6.63-3.12c-5.44-3.73-5.94-4.15-10.14-1.86c-2.24,1.15-3.96,1.65-5.38,1.56l3.79-29.87l1.35-13.98
					L15.96,6.5c0.3-2.4,0.87-2.91,1.3-2.91c0.15,0,0.33,0.06,0.52,0.17c1.84,1.08,2.35,3.37,2.79,5.38l0.11,0.53
					c0.61,2.67,1.06,5.43,1.5,8.11c0.24,1.48,0.48,2.97,0.75,4.45l1.27,6.94l0.12-0.01c0.03,0.22,0.07,0.44,0.11,0.65
					c0.29,1.66,0.59,3.38,0.79,5.09c0.39,3.43,0.73,6.92,1.03,10.36c0.36,4.31,0.66,8.68,0.87,12.99l-0.2-13.04
					c-0.3-3.45-0.65-6.95-1.04-10.38c-0.2-1.74-0.5-3.47-0.79-5.14c-0.08-0.44-0.15-0.88-0.23-1.33V9.6
					c0.04-1.81,0.4-2.08,0.61-2.08c0.12,0,0.34,0.06,0.71,0.35c1.47,1.16,1.97,3.51,2.36,5.38c0.09,0.44,0.17,0.84,0.25,1.25
					l0.11,0.61c0.26,1.31,0.59,2.63,0.91,3.9c0.17,0.69,0.35,1.39,0.51,2.09l1.38,5.86c0.13,0.59,0.29,1.16,0.44,1.74
					C32.51,29.96,32.86,31.29,33,32.62"/>
			</defs>
			<clipPath id="SVGID_00000073704232084939920220000002302460822914050212_">
				<use xlink:href="#SVGID_00000052782342856879948330000005666201039259386021_"  style="overflow:visible;"/>
			</clipPath>
			
				<rect x="10.06" y="68.59" style="clip-path:url(#SVGID_00000073704232084939920220000002302460822914050212_);fill:#E39975;" width="23.15" height="0.25"/>
			
				<rect x="10.06" y="68.34" style="clip-path:url(#SVGID_00000073704232084939920220000002302460822914050212_);fill:#E29975;" width="23.15" height="0.25"/>
			
				<rect x="10.06" y="68.09" style="clip-path:url(#SVGID_00000073704232084939920220000002302460822914050212_);fill:#E39A77;" width="23.15" height="0.25"/>
			
				<rect x="10.06" y="67.84" style="clip-path:url(#SVGID_00000073704232084939920220000002302460822914050212_);fill:#E39C78;" width="23.15" height="0.25"/>
			
				<rect x="10.06" y="67.59" style="clip-path:url(#SVGID_00000073704232084939920220000002302460822914050212_);fill:#E39C79;" width="23.15" height="0.25"/>
			
				<rect x="10.06" y="67.34" style="clip-path:url(#SVGID_00000073704232084939920220000002302460822914050212_);fill:#E39D7A;" width="23.15" height="0.25"/>
			
				<rect x="10.06" y="67.09" style="clip-path:url(#SVGID_00000073704232084939920220000002302460822914050212_);fill:#E49D7B;" width="23.15" height="0.25"/>
			
				<rect x="10.06" y="66.84" style="clip-path:url(#SVGID_00000073704232084939920220000002302460822914050212_);fill:#E59F7B;" width="23.15" height="0.25"/>
			
				<rect x="10.06" y="66.6" style="clip-path:url(#SVGID_00000073704232084939920220000002302460822914050212_);fill:#E5A07C;" width="23.15" height="0.25"/>
			
				<rect x="10.06" y="66.35" style="clip-path:url(#SVGID_00000073704232084939920220000002302460822914050212_);fill:#E5A07D;" width="23.15" height="0.25"/>
			
				<rect x="10.06" y="66.1" style="clip-path:url(#SVGID_00000073704232084939920220000002302460822914050212_);fill:#E5A17E;" width="23.15" height="0.25"/>
			
				<rect x="10.06" y="65.85" style="clip-path:url(#SVGID_00000073704232084939920220000002302460822914050212_);fill:#E5A17F;" width="23.15" height="0.25"/>
			
				<rect x="10.06" y="65.6" style="clip-path:url(#SVGID_00000073704232084939920220000002302460822914050212_);fill:#E5A380;" width="23.15" height="0.25"/>
			
				<rect x="10.06" y="65.35" style="clip-path:url(#SVGID_00000073704232084939920220000002302460822914050212_);fill:#E6A481;" width="23.15" height="0.25"/>
			
				<rect x="10.06" y="65.1" style="clip-path:url(#SVGID_00000073704232084939920220000002302460822914050212_);fill:#E6A482;" width="23.15" height="0.25"/>
			
				<rect x="10.06" y="64.85" style="clip-path:url(#SVGID_00000073704232084939920220000002302460822914050212_);fill:#E6A683;" width="23.15" height="0.25"/>
			
				<rect x="10.06" y="64.6" style="clip-path:url(#SVGID_00000073704232084939920220000002302460822914050212_);fill:#E6A785;" width="23.15" height="0.25"/>
			
				<rect x="10.06" y="64.35" style="clip-path:url(#SVGID_00000073704232084939920220000002302460822914050212_);fill:#E7A785;" width="23.15" height="0.25"/>
			
				<rect x="10.06" y="64.1" style="clip-path:url(#SVGID_00000073704232084939920220000002302460822914050212_);fill:#E7A886;" width="23.15" height="0.25"/>
			
				<rect x="10.06" y="63.85" style="clip-path:url(#SVGID_00000073704232084939920220000002302460822914050212_);fill:#E7A887;" width="23.15" height="0.25"/>
			
				<rect x="10.06" y="63.6" style="clip-path:url(#SVGID_00000073704232084939920220000002302460822914050212_);fill:#E7AA89;" width="23.15" height="0.25"/>
			
				<rect x="10.06" y="63.35" style="clip-path:url(#SVGID_00000073704232084939920220000002302460822914050212_);fill:#E8AB8A;" width="23.15" height="0.25"/>
			
				<rect x="10.06" y="63.1" style="clip-path:url(#SVGID_00000073704232084939920220000002302460822914050212_);fill:#E8AC8A;" width="23.15" height="0.25"/>
			
				<rect x="10.06" y="62.85" style="clip-path:url(#SVGID_00000073704232084939920220000002302460822914050212_);fill:#E8AC8B;" width="23.15" height="0.25"/>
			
				<rect x="10.06" y="62.6" style="clip-path:url(#SVGID_00000073704232084939920220000002302460822914050212_);fill:#E8AE8C;" width="23.15" height="0.25"/>
			
				<rect x="10.06" y="62.35" style="clip-path:url(#SVGID_00000073704232084939920220000002302460822914050212_);fill:#E8AD8D;" width="23.15" height="0.25"/>
			
				<rect x="10.06" y="62.1" style="clip-path:url(#SVGID_00000073704232084939920220000002302460822914050212_);fill:#E9AF8F;" width="23.15" height="0.25"/>
			
				<rect x="10.06" y="61.85" style="clip-path:url(#SVGID_00000073704232084939920220000002302460822914050212_);fill:#E9AF8F;" width="23.15" height="0.25"/>
			
				<rect x="10.06" y="61.6" style="clip-path:url(#SVGID_00000073704232084939920220000002302460822914050212_);fill:#E9B090;" width="23.15" height="0.25"/>
			
				<rect x="10.06" y="61.35" style="clip-path:url(#SVGID_00000073704232084939920220000002302460822914050212_);fill:#EAB191;" width="23.15" height="0.25"/>
			
				<rect x="10.06" y="61.1" style="clip-path:url(#SVGID_00000073704232084939920220000002302460822914050212_);fill:#EAB392;" width="23.15" height="0.25"/>
			
				<rect x="10.06" y="60.85" style="clip-path:url(#SVGID_00000073704232084939920220000002302460822914050212_);fill:#EAB394;" width="23.15" height="0.25"/>
			
				<rect x="10.06" y="60.6" style="clip-path:url(#SVGID_00000073704232084939920220000002302460822914050212_);fill:#EAB395;" width="23.15" height="0.25"/>
			
				<rect x="10.06" y="60.35" style="clip-path:url(#SVGID_00000073704232084939920220000002302460822914050212_);fill:#EBB495;" width="23.15" height="0.25"/>
			
				<rect x="10.06" y="60.1" style="clip-path:url(#SVGID_00000073704232084939920220000002302460822914050212_);fill:#EBB596;" width="23.15" height="0.25"/>
			
				<rect x="10.06" y="59.85" style="clip-path:url(#SVGID_00000073704232084939920220000002302460822914050212_);fill:#EBB697;" width="23.15" height="0.25"/>
			
				<rect x="10.06" y="59.61" style="clip-path:url(#SVGID_00000073704232084939920220000002302460822914050212_);fill:#EBB798;" width="23.15" height="0.25"/>
			
				<rect x="10.06" y="59.36" style="clip-path:url(#SVGID_00000073704232084939920220000002302460822914050212_);fill:#ECB899;" width="23.15" height="0.25"/>
			
				<rect x="10.06" y="59.11" style="clip-path:url(#SVGID_00000073704232084939920220000002302460822914050212_);fill:#ECB89A;" width="23.15" height="0.25"/>
			
				<rect x="10.06" y="58.86" style="clip-path:url(#SVGID_00000073704232084939920220000002302460822914050212_);fill:#ECB99B;" width="23.15" height="0.25"/>
			
				<rect x="10.06" y="58.61" style="clip-path:url(#SVGID_00000073704232084939920220000002302460822914050212_);fill:#ECBA9C;" width="23.15" height="0.25"/>
			
				<rect x="10.06" y="58.36" style="clip-path:url(#SVGID_00000073704232084939920220000002302460822914050212_);fill:#EDBB9D;" width="23.15" height="0.25"/>
			
				<rect x="10.06" y="58.11" style="clip-path:url(#SVGID_00000073704232084939920220000002302460822914050212_);fill:#EDBC9E;" width="23.15" height="0.25"/>
			
				<rect x="10.06" y="57.86" style="clip-path:url(#SVGID_00000073704232084939920220000002302460822914050212_);fill:#EDBD9F;" width="23.15" height="0.25"/>
			
				<rect x="10.06" y="57.61" style="clip-path:url(#SVGID_00000073704232084939920220000002302460822914050212_);fill:#ECBEA0;" width="23.15" height="0.25"/>
			
				<rect x="10.06" y="57.36" style="clip-path:url(#SVGID_00000073704232084939920220000002302460822914050212_);fill:#EDBEA1;" width="23.15" height="0.25"/>
			
				<rect x="10.06" y="57.11" style="clip-path:url(#SVGID_00000073704232084939920220000002302460822914050212_);fill:#EDBFA2;" width="23.15" height="0.25"/>
			
				<rect x="10.06" y="56.86" style="clip-path:url(#SVGID_00000073704232084939920220000002302460822914050212_);fill:#EDC0A3;" width="23.15" height="0.25"/>
			
				<rect x="10.06" y="56.61" style="clip-path:url(#SVGID_00000073704232084939920220000002302460822914050212_);fill:#EEC1A5;" width="23.15" height="0.25"/>
			
				<rect x="10.06" y="56.36" style="clip-path:url(#SVGID_00000073704232084939920220000002302460822914050212_);fill:#EEC2A6;" width="23.15" height="0.25"/>
			
				<rect x="10.06" y="56.11" style="clip-path:url(#SVGID_00000073704232084939920220000002302460822914050212_);fill:#EEC3A7;" width="23.15" height="0.25"/>
			
				<rect x="10.06" y="55.86" style="clip-path:url(#SVGID_00000073704232084939920220000002302460822914050212_);fill:#EFC5A9;" width="23.15" height="0.25"/>
			
				<rect x="10.06" y="55.61" style="clip-path:url(#SVGID_00000073704232084939920220000002302460822914050212_);fill:#F0C4AA;" width="23.15" height="0.25"/>
			
				<rect x="10.06" y="55.36" style="clip-path:url(#SVGID_00000073704232084939920220000002302460822914050212_);fill:#F0C6AB;" width="23.15" height="0.25"/>
			
				<rect x="10.06" y="55.11" style="clip-path:url(#SVGID_00000073704232084939920220000002302460822914050212_);fill:#F0C7AC;" width="23.15" height="0.25"/>
			
				<rect x="10.06" y="54.86" style="clip-path:url(#SVGID_00000073704232084939920220000002302460822914050212_);fill:#F0C8AD;" width="23.15" height="0.25"/>
			
				<rect x="10.06" y="54.61" style="clip-path:url(#SVGID_00000073704232084939920220000002302460822914050212_);fill:#F1C9AE;" width="23.15" height="0.25"/>
			
				<rect x="10.06" y="54.36" style="clip-path:url(#SVGID_00000073704232084939920220000002302460822914050212_);fill:#F1CAAF;" width="23.15" height="0.25"/>
			
				<rect x="10.06" y="54.11" style="clip-path:url(#SVGID_00000073704232084939920220000002302460822914050212_);fill:#F1CBB0;" width="23.15" height="0.25"/>
			
				<rect x="10.06" y="53.86" style="clip-path:url(#SVGID_00000073704232084939920220000002302460822914050212_);fill:#F1CBB1;" width="23.15" height="0.25"/>
			
				<rect x="10.06" y="53.61" style="clip-path:url(#SVGID_00000073704232084939920220000002302460822914050212_);fill:#F2CBB2;" width="23.15" height="0.25"/>
			
				<rect x="10.06" y="53.36" style="clip-path:url(#SVGID_00000073704232084939920220000002302460822914050212_);fill:#F2CDB3;" width="23.15" height="0.25"/>
			
				<rect x="10.06" y="53.11" style="clip-path:url(#SVGID_00000073704232084939920220000002302460822914050212_);fill:#F2CEB4;" width="23.15" height="0.25"/>
			
				<rect x="10.06" y="52.87" style="clip-path:url(#SVGID_00000073704232084939920220000002302460822914050212_);fill:#F1CEB4;" width="23.15" height="0.25"/>
			
				<rect x="10.06" y="52.62" style="clip-path:url(#SVGID_00000073704232084939920220000002302460822914050212_);fill:#F2CFB5;" width="23.15" height="0.25"/>
			
				<rect x="10.06" y="52.37" style="clip-path:url(#SVGID_00000073704232084939920220000002302460822914050212_);fill:#F3D1B6;" width="23.15" height="0.25"/>
			
				<rect x="10.06" y="52.12" style="clip-path:url(#SVGID_00000073704232084939920220000002302460822914050212_);fill:#F2D0B7;" width="23.15" height="0.25"/>
			
				<rect x="10.06" y="51.87" style="clip-path:url(#SVGID_00000073704232084939920220000002302460822914050212_);fill:#F2D1B8;" width="23.15" height="0.25"/>
			
				<rect x="10.06" y="51.62" style="clip-path:url(#SVGID_00000073704232084939920220000002302460822914050212_);fill:#F3D2B9;" width="23.15" height="0.25"/>
			
				<rect x="10.06" y="51.37" style="clip-path:url(#SVGID_00000073704232084939920220000002302460822914050212_);fill:#F3D3BA;" width="23.15" height="0.25"/>
			
				<rect x="10.06" y="51.12" style="clip-path:url(#SVGID_00000073704232084939920220000002302460822914050212_);fill:#F4D4BB;" width="23.15" height="0.25"/>
			
				<rect x="10.06" y="50.87" style="clip-path:url(#SVGID_00000073704232084939920220000002302460822914050212_);fill:#F4D5BC;" width="23.15" height="0.25"/>
			
				<rect x="10.06" y="50.62" style="clip-path:url(#SVGID_00000073704232084939920220000002302460822914050212_);fill:#F5D6BD;" width="23.15" height="0.25"/>
			
				<rect x="10.06" y="50.37" style="clip-path:url(#SVGID_00000073704232084939920220000002302460822914050212_);fill:#F5D6BE;" width="23.15" height="0.25"/>
			
				<rect x="10.06" y="50.12" style="clip-path:url(#SVGID_00000073704232084939920220000002302460822914050212_);fill:#F5D7BF;" width="23.15" height="0.25"/>
			
				<rect x="10.06" y="49.87" style="clip-path:url(#SVGID_00000073704232084939920220000002302460822914050212_);fill:#F6D8C0;" width="23.15" height="0.25"/>
			
				<rect x="10.06" y="49.62" style="clip-path:url(#SVGID_00000073704232084939920220000002302460822914050212_);fill:#F6D9C1;" width="23.15" height="0.25"/>
			
				<rect x="10.06" y="49.37" style="clip-path:url(#SVGID_00000073704232084939920220000002302460822914050212_);fill:#F6DAC2;" width="23.15" height="0.25"/>
			
				<rect x="10.06" y="49.12" style="clip-path:url(#SVGID_00000073704232084939920220000002302460822914050212_);fill:#F6DBC3;" width="23.15" height="0.25"/>
			
				<rect x="10.06" y="48.87" style="clip-path:url(#SVGID_00000073704232084939920220000002302460822914050212_);fill:#F7DBC4;" width="23.15" height="0.25"/>
			
				<rect x="10.06" y="48.62" style="clip-path:url(#SVGID_00000073704232084939920220000002302460822914050212_);fill:#F7DCC5;" width="23.15" height="0.25"/>
			
				<rect x="10.06" y="48.37" style="clip-path:url(#SVGID_00000073704232084939920220000002302460822914050212_);fill:#F7DEC6;" width="23.15" height="0.25"/>
			
				<rect x="10.06" y="48.12" style="clip-path:url(#SVGID_00000073704232084939920220000002302460822914050212_);fill:#F7DEC7;" width="23.15" height="0.25"/>
			
				<rect x="10.06" y="47.87" style="clip-path:url(#SVGID_00000073704232084939920220000002302460822914050212_);fill:#F7DEC8;" width="23.15" height="0.25"/>
			
				<rect x="10.06" y="47.62" style="clip-path:url(#SVGID_00000073704232084939920220000002302460822914050212_);fill:#F7E0C9;" width="23.15" height="0.25"/>
			
				<rect x="10.06" y="47.37" style="clip-path:url(#SVGID_00000073704232084939920220000002302460822914050212_);fill:#F7E1CB;" width="23.15" height="0.25"/>
			
				<rect x="10.06" y="47.12" style="clip-path:url(#SVGID_00000073704232084939920220000002302460822914050212_);fill:#F7E1CB;" width="23.15" height="0.25"/>
			
				<rect x="10.06" y="46.87" style="clip-path:url(#SVGID_00000073704232084939920220000002302460822914050212_);fill:#F8E2CC;" width="23.15" height="0.25"/>
			
				<rect x="10.06" y="46.62" style="clip-path:url(#SVGID_00000073704232084939920220000002302460822914050212_);fill:#F9E3CD;" width="23.15" height="0.25"/>
			
				<rect x="10.06" y="46.37" style="clip-path:url(#SVGID_00000073704232084939920220000002302460822914050212_);fill:#F7E3CE;" width="23.15" height="0.25"/>
			
				<rect x="10.06" y="46.13" style="clip-path:url(#SVGID_00000073704232084939920220000002302460822914050212_);fill:#F8E5CF;" width="23.15" height="0.25"/>
			
				<rect x="10.06" y="45.88" style="clip-path:url(#SVGID_00000073704232084939920220000002302460822914050212_);fill:#F9E5D0;" width="23.15" height="0.25"/>
			
				<rect x="10.06" y="45.63" style="clip-path:url(#SVGID_00000073704232084939920220000002302460822914050212_);fill:#F9E7D1;" width="23.15" height="0.25"/>
			
				<rect x="10.06" y="45.38" style="clip-path:url(#SVGID_00000073704232084939920220000002302460822914050212_);fill:#F9E6D2;" width="23.15" height="0.25"/>
			
				<rect x="10.06" y="45.13" style="clip-path:url(#SVGID_00000073704232084939920220000002302460822914050212_);fill:#F9E8D3;" width="23.15" height="0.25"/>
			
				<rect x="10.06" y="44.88" style="clip-path:url(#SVGID_00000073704232084939920220000002302460822914050212_);fill:#FAE9D4;" width="23.15" height="0.25"/>
			
				<rect x="10.06" y="44.63" style="clip-path:url(#SVGID_00000073704232084939920220000002302460822914050212_);fill:#FAEAD5;" width="23.15" height="0.25"/>
			
				<rect x="10.06" y="34.37" style="clip-path:url(#SVGID_00000073704232084939920220000002302460822914050212_);fill:#FAEAD5;" width="23.15" height="10.26"/>
			
				<rect x="10.06" y="24.11" style="clip-path:url(#SVGID_00000073704232084939920220000002302460822914050212_);fill:#FAEAD6;" width="23.15" height="10.26"/>
			
				<rect x="10.06" y="13.85" style="clip-path:url(#SVGID_00000073704232084939920220000002302460822914050212_);fill:#FCECD8;" width="23.15" height="10.26"/>
			
				<rect x="10.06" y="3.59" style="clip-path:url(#SVGID_00000073704232084939920220000002302460822914050212_);fill:#FCEDDA;" width="23.15" height="10.26"/>
			<path style="clip-path:url(#SVGID_00000073704232084939920220000002302460822914050212_);fill:#FCEDDA;" d="M33.21,3.59H10.06
				H33.21z"/>
		</g>
	</g>
</g>
</svg>
