<?xml version="1.0" encoding="utf-8"?>
<!-- Generator: Adobe Illustrator 27.0.1, SVG Export Plug-In . SVG Version: 6.00 Build 0)  -->
<svg version="1.1" id="Layer_1" xmlns="http://www.w3.org/2000/svg" xmlns:xlink="http://www.w3.org/1999/xlink" x="0px" y="0px"
	 viewBox="0 0 40 100" style="enable-background:new 0 0 40 100;" xml:space="preserve">
<style type="text/css">
	.st0{fill:#151414;}
	.st1{clip-path:url(#SVGID_00000163772789204707456780000011358342858052103870_);fill:#EDF1F7;}
	.st2{clip-path:url(#SVGID_00000163772789204707456780000011358342858052103870_);fill:#EDF2F7;}
	.st3{clip-path:url(#SVGID_00000163772789204707456780000011358342858052103870_);fill:#EEF3F7;}
	.st4{clip-path:url(#SVGID_00000163772789204707456780000011358342858052103870_);fill:#EFF3F9;}
	.st5{clip-path:url(#SVGID_00000163772789204707456780000011358342858052103870_);fill:#F0F4F9;}
	.st6{clip-path:url(#SVGID_00000163772789204707456780000011358342858052103870_);fill:#F1F5F9;}
	.st7{clip-path:url(#SVGID_00000163772789204707456780000011358342858052103870_);fill:#F3F6FA;}
	.st8{clip-path:url(#SVGID_00000163772789204707456780000011358342858052103870_);fill:#F3F7FC;}
	.st9{clip-path:url(#SVGID_00000163772789204707456780000011358342858052103870_);fill:#F6F7FA;}
	.st10{clip-path:url(#SVGID_00000163772789204707456780000011358342858052103870_);fill:#F7F9FB;}
	.st11{clip-path:url(#SVGID_00000163772789204707456780000011358342858052103870_);fill:#F7FBFE;}
	.st12{clip-path:url(#SVGID_00000163772789204707456780000011358342858052103870_);fill:#F8FBFE;}
	.st13{clip-path:url(#SVGID_00000163772789204707456780000011358342858052103870_);fill:#FAFCFE;}
	.st14{clip-path:url(#SVGID_00000163772789204707456780000011358342858052103870_);fill:#FBFEFF;}
	.st15{clip-path:url(#SVGID_00000163772789204707456780000011358342858052103870_);fill:#FDFEFF;}
	.st16{clip-path:url(#SVGID_00000163772789204707456780000011358342858052103870_);fill:#FFFFFF;}
	.st17{clip-path:url(#SVGID_00000104674681868802611940000011823547092498125701_);fill:#E39975;}
	.st18{clip-path:url(#SVGID_00000104674681868802611940000011823547092498125701_);fill:#E29975;}
	.st19{clip-path:url(#SVGID_00000104674681868802611940000011823547092498125701_);fill:#E39A77;}
	.st20{clip-path:url(#SVGID_00000104674681868802611940000011823547092498125701_);fill:#E39C78;}
	.st21{clip-path:url(#SVGID_00000104674681868802611940000011823547092498125701_);fill:#E39C79;}
	.st22{clip-path:url(#SVGID_00000104674681868802611940000011823547092498125701_);fill:#E39D7A;}
	.st23{clip-path:url(#SVGID_00000104674681868802611940000011823547092498125701_);fill:#E49D7B;}
	.st24{clip-path:url(#SVGID_00000104674681868802611940000011823547092498125701_);fill:#E59F7B;}
	.st25{clip-path:url(#SVGID_00000104674681868802611940000011823547092498125701_);fill:#E5A07C;}
	.st26{clip-path:url(#SVGID_00000104674681868802611940000011823547092498125701_);fill:#E5A07D;}
	.st27{clip-path:url(#SVGID_00000104674681868802611940000011823547092498125701_);fill:#E5A17E;}
	.st28{clip-path:url(#SVGID_00000104674681868802611940000011823547092498125701_);fill:#E5A17F;}
	.st29{clip-path:url(#SVGID_00000104674681868802611940000011823547092498125701_);fill:#E5A380;}
	.st30{clip-path:url(#SVGID_00000104674681868802611940000011823547092498125701_);fill:#E6A481;}
	.st31{clip-path:url(#SVGID_00000104674681868802611940000011823547092498125701_);fill:#E6A482;}
	.st32{clip-path:url(#SVGID_00000104674681868802611940000011823547092498125701_);fill:#E6A683;}
	.st33{clip-path:url(#SVGID_00000104674681868802611940000011823547092498125701_);fill:#E6A785;}
	.st34{clip-path:url(#SVGID_00000104674681868802611940000011823547092498125701_);fill:#E7A785;}
	.st35{clip-path:url(#SVGID_00000104674681868802611940000011823547092498125701_);fill:#E7A886;}
	.st36{clip-path:url(#SVGID_00000104674681868802611940000011823547092498125701_);fill:#E7A887;}
	.st37{clip-path:url(#SVGID_00000104674681868802611940000011823547092498125701_);fill:#E7AA89;}
	.st38{clip-path:url(#SVGID_00000104674681868802611940000011823547092498125701_);fill:#E8AB8A;}
	.st39{clip-path:url(#SVGID_00000104674681868802611940000011823547092498125701_);fill:#E8AC8A;}
	.st40{clip-path:url(#SVGID_00000104674681868802611940000011823547092498125701_);fill:#E8AC8B;}
	.st41{clip-path:url(#SVGID_00000104674681868802611940000011823547092498125701_);fill:#E8AE8C;}
	.st42{clip-path:url(#SVGID_00000104674681868802611940000011823547092498125701_);fill:#E8AD8D;}
	.st43{clip-path:url(#SVGID_00000104674681868802611940000011823547092498125701_);fill:#E9AF8F;}
	.st44{clip-path:url(#SVGID_00000104674681868802611940000011823547092498125701_);fill:#E9B090;}
	.st45{clip-path:url(#SVGID_00000104674681868802611940000011823547092498125701_);fill:#EAB191;}
	.st46{clip-path:url(#SVGID_00000104674681868802611940000011823547092498125701_);fill:#EAB392;}
	.st47{clip-path:url(#SVGID_00000104674681868802611940000011823547092498125701_);fill:#EAB394;}
	.st48{clip-path:url(#SVGID_00000104674681868802611940000011823547092498125701_);fill:#EAB395;}
	.st49{clip-path:url(#SVGID_00000104674681868802611940000011823547092498125701_);fill:#EBB495;}
	.st50{clip-path:url(#SVGID_00000104674681868802611940000011823547092498125701_);fill:#EBB596;}
	.st51{clip-path:url(#SVGID_00000104674681868802611940000011823547092498125701_);fill:#EBB697;}
	.st52{clip-path:url(#SVGID_00000104674681868802611940000011823547092498125701_);fill:#EBB798;}
	.st53{clip-path:url(#SVGID_00000104674681868802611940000011823547092498125701_);fill:#ECB899;}
	.st54{clip-path:url(#SVGID_00000104674681868802611940000011823547092498125701_);fill:#ECB89A;}
	.st55{clip-path:url(#SVGID_00000104674681868802611940000011823547092498125701_);fill:#ECB99B;}
	.st56{clip-path:url(#SVGID_00000104674681868802611940000011823547092498125701_);fill:#ECBA9C;}
	.st57{clip-path:url(#SVGID_00000104674681868802611940000011823547092498125701_);fill:#EDBB9D;}
	.st58{clip-path:url(#SVGID_00000104674681868802611940000011823547092498125701_);fill:#EDBC9E;}
	.st59{clip-path:url(#SVGID_00000104674681868802611940000011823547092498125701_);fill:#EDBD9F;}
	.st60{clip-path:url(#SVGID_00000104674681868802611940000011823547092498125701_);fill:#ECBEA0;}
	.st61{clip-path:url(#SVGID_00000104674681868802611940000011823547092498125701_);fill:#EDBEA1;}
	.st62{clip-path:url(#SVGID_00000104674681868802611940000011823547092498125701_);fill:#EDBFA2;}
	.st63{clip-path:url(#SVGID_00000104674681868802611940000011823547092498125701_);fill:#EDC0A3;}
	.st64{clip-path:url(#SVGID_00000104674681868802611940000011823547092498125701_);fill:#EEC1A5;}
	.st65{clip-path:url(#SVGID_00000104674681868802611940000011823547092498125701_);fill:#EEC2A6;}
	.st66{clip-path:url(#SVGID_00000104674681868802611940000011823547092498125701_);fill:#EEC3A7;}
	.st67{clip-path:url(#SVGID_00000104674681868802611940000011823547092498125701_);fill:#EFC5A9;}
	.st68{clip-path:url(#SVGID_00000104674681868802611940000011823547092498125701_);fill:#F0C4AA;}
	.st69{clip-path:url(#SVGID_00000104674681868802611940000011823547092498125701_);fill:#F0C6AB;}
	.st70{clip-path:url(#SVGID_00000104674681868802611940000011823547092498125701_);fill:#F0C7AC;}
	.st71{clip-path:url(#SVGID_00000104674681868802611940000011823547092498125701_);fill:#F0C8AD;}
	.st72{clip-path:url(#SVGID_00000104674681868802611940000011823547092498125701_);fill:#F1C9AE;}
	.st73{clip-path:url(#SVGID_00000104674681868802611940000011823547092498125701_);fill:#F1CAAF;}
	.st74{clip-path:url(#SVGID_00000104674681868802611940000011823547092498125701_);fill:#F1CBB0;}
	.st75{clip-path:url(#SVGID_00000104674681868802611940000011823547092498125701_);fill:#F1CBB1;}
	.st76{clip-path:url(#SVGID_00000104674681868802611940000011823547092498125701_);fill:#F2CBB2;}
	.st77{clip-path:url(#SVGID_00000104674681868802611940000011823547092498125701_);fill:#F2CDB3;}
	.st78{clip-path:url(#SVGID_00000104674681868802611940000011823547092498125701_);fill:#F2CEB4;}
	.st79{clip-path:url(#SVGID_00000104674681868802611940000011823547092498125701_);fill:#F1CEB4;}
	.st80{clip-path:url(#SVGID_00000104674681868802611940000011823547092498125701_);fill:#F2CFB5;}
	.st81{clip-path:url(#SVGID_00000104674681868802611940000011823547092498125701_);fill:#F3D1B6;}
	.st82{clip-path:url(#SVGID_00000104674681868802611940000011823547092498125701_);fill:#F2D0B7;}
	.st83{clip-path:url(#SVGID_00000104674681868802611940000011823547092498125701_);fill:#F2D1B8;}
	.st84{clip-path:url(#SVGID_00000104674681868802611940000011823547092498125701_);fill:#F3D2B9;}
	.st85{clip-path:url(#SVGID_00000104674681868802611940000011823547092498125701_);fill:#F3D3BA;}
	.st86{clip-path:url(#SVGID_00000104674681868802611940000011823547092498125701_);fill:#F4D4BB;}
	.st87{clip-path:url(#SVGID_00000104674681868802611940000011823547092498125701_);fill:#F4D5BC;}
	.st88{clip-path:url(#SVGID_00000104674681868802611940000011823547092498125701_);fill:#F5D6BD;}
	.st89{clip-path:url(#SVGID_00000104674681868802611940000011823547092498125701_);fill:#F5D6BE;}
	.st90{clip-path:url(#SVGID_00000104674681868802611940000011823547092498125701_);fill:#F5D7BF;}
	.st91{clip-path:url(#SVGID_00000104674681868802611940000011823547092498125701_);fill:#F6D8C0;}
	.st92{clip-path:url(#SVGID_00000104674681868802611940000011823547092498125701_);fill:#F6D9C1;}
	.st93{clip-path:url(#SVGID_00000104674681868802611940000011823547092498125701_);fill:#F6DAC2;}
	.st94{clip-path:url(#SVGID_00000104674681868802611940000011823547092498125701_);fill:#F6DBC3;}
	.st95{clip-path:url(#SVGID_00000104674681868802611940000011823547092498125701_);fill:#F7DBC4;}
	.st96{clip-path:url(#SVGID_00000104674681868802611940000011823547092498125701_);fill:#F7DCC5;}
	.st97{clip-path:url(#SVGID_00000104674681868802611940000011823547092498125701_);fill:#F7DEC6;}
	.st98{clip-path:url(#SVGID_00000104674681868802611940000011823547092498125701_);fill:#F7DEC7;}
	.st99{clip-path:url(#SVGID_00000104674681868802611940000011823547092498125701_);fill:#F7DEC8;}
	.st100{clip-path:url(#SVGID_00000104674681868802611940000011823547092498125701_);fill:#F7E0C9;}
	.st101{clip-path:url(#SVGID_00000104674681868802611940000011823547092498125701_);fill:#F7E1CB;}
	.st102{clip-path:url(#SVGID_00000104674681868802611940000011823547092498125701_);fill:#F8E2CC;}
	.st103{clip-path:url(#SVGID_00000104674681868802611940000011823547092498125701_);fill:#F9E3CD;}
	.st104{clip-path:url(#SVGID_00000104674681868802611940000011823547092498125701_);fill:#F7E3CE;}
	.st105{clip-path:url(#SVGID_00000104674681868802611940000011823547092498125701_);fill:#F8E5CF;}
	.st106{clip-path:url(#SVGID_00000104674681868802611940000011823547092498125701_);fill:#F9E5D0;}
	.st107{clip-path:url(#SVGID_00000104674681868802611940000011823547092498125701_);fill:#F9E7D1;}
	.st108{clip-path:url(#SVGID_00000104674681868802611940000011823547092498125701_);fill:#F9E6D2;}
	.st109{clip-path:url(#SVGID_00000104674681868802611940000011823547092498125701_);fill:#F9E8D3;}
	.st110{clip-path:url(#SVGID_00000104674681868802611940000011823547092498125701_);fill:#FAE9D4;}
	.st111{clip-path:url(#SVGID_00000104674681868802611940000011823547092498125701_);fill:#FAEAD5;}
	.st112{clip-path:url(#SVGID_00000104674681868802611940000011823547092498125701_);fill:#FAEAD6;}
	.st113{clip-path:url(#SVGID_00000104674681868802611940000011823547092498125701_);fill:#FCECD8;}
	.st114{clip-path:url(#SVGID_00000104674681868802611940000011823547092498125701_);fill:#FCEDDA;}
</style>
<g>
	<g id="path210">
		<path class="st0" d="M31.42,70.69l-0.08-5.82h0.06l-0.06-10.14c-0.08-1.35-0.13-2.69-0.19-4.04c-0.06-1.56-0.13-3.16-0.24-4.73
			c-0.3-4.31-1.73-8.44-2.79-11.17c-0.65-1.68-1.37-3.38-2.07-5.01c-1.21-2.84-2.46-5.78-3.39-8.78c-1.06-3.4-1.68-6.18-1.94-8.73
			c-0.3-2.9-1.25-5.46-2.81-7.6c-0.37-0.5-0.96-1-1.4-0.79c-0.32,0.16-0.44,0.61-0.52,1.09c-0.98,5.59-1.63,10.26-1.57,14.91
			c0.03,2.14,0.15,4.32,0.26,6.43c0.11,1.99,0.22,4.04,0.26,6.08c0.2,11.72-2.23,23.28-4.62,34.47c0.67,0.05,2.54,0.08,2.82,0.05
			c0.82-0.08,1.49-0.49,2.2-0.92c0.36-0.22,0.73-0.44,1.13-0.63c1.37-0.64,2.96-0.91,4.5-0.75c2.94,0.3,4.66,1.99,6.32,3.86
			c0.89,1,1.6,1.24,2.51,1.55C30.26,70.2,30.8,70.39,31.42,70.69L31.42,70.69z M32.72,90.5c1.16-2.09,1.43-4.76,0.84-8.15
			c-0.38-2.21-0.86-4.45-1.32-6.62c-0.31-1.44-0.61-2.87-0.9-4.31c-0.67-0.36-1.23-0.55-1.77-0.73c-0.96-0.33-1.79-0.61-2.8-1.75
			c-1.62-1.83-3.18-3.36-5.88-3.64c-1.41-0.14-2.88,0.1-4.14,0.69c-0.37,0.18-0.73,0.39-1.06,0.6c-0.74,0.44-1.51,0.91-2.49,1
			c-0.02,0.01-2.02,0.07-2.99-0.07l-2.29,6.71c-0.65,1.89-1.08,3.85-1.28,5.84l-0.38,3.8c-0.42,4.08,0.41,6.6,2.86,8.71
			c1.25,1.08,2.72,1.93,4.14,2.76l0.53,0.31c0.73,0.43,1.5,0.9,2.39,1.5c0.07,0.05,0.18,0.13,0.3,0.22c0.24,0.18,0.73,0.55,0.9,0.58
			c1.37,0.32,2.8,0.66,4.41,0.03c0.42-0.15,0.84-0.31,1.25-0.47c1.5-0.55,2.93-1.06,4.21-1.93C29.25,94.24,31.49,92.71,32.72,90.5
			L32.72,90.5z M34.22,82.23c0.62,3.56,0.32,6.37-0.91,8.6c-1.31,2.36-3.63,3.93-5.67,5.31c-1.34,0.91-2.88,1.47-4.35,2.01
			c-0.41,0.15-0.83,0.3-1.24,0.47C21.29,98.9,20.58,99,19.9,99c-0.96,0-1.85-0.21-2.67-0.4c-0.28-0.07-0.67-0.34-1.15-0.69
			c-0.11-0.08-0.21-0.15-0.28-0.2c-0.89-0.59-1.64-1.06-2.37-1.48l-0.53-0.3c-1.44-0.84-2.94-1.71-4.24-2.83
			c-3.27-2.82-3.42-6.13-3.1-9.29L5.97,80c0.21-2.04,0.65-4.06,1.31-6l2.23-6.54H9.51l0.07-0.35c2.41-11.27,4.89-22.93,4.68-34.71
			c-0.03-2.02-0.15-4.06-0.26-6.05c-0.11-2.12-0.24-4.31-0.26-6.46c-0.06-4.71,0.59-9.41,1.58-15.04c0.07-0.4,0.22-1.25,0.88-1.57
			c0.69-0.34,1.53,0.03,2.24,0.99c1.64,2.23,2.63,4.89,2.94,7.93c0.26,2.51,0.87,5.24,1.91,8.6c0.92,2.97,2.17,5.9,3.37,8.72
			c0.7,1.64,1.43,3.34,2.08,5.03c1.07,2.77,2.53,6.96,2.83,11.36c0.11,1.58,0.18,3.19,0.24,4.75c0.05,1.34,0.11,2.68,0.19,4.04
			l0.09,15.2h-0.03l0.03,1.88c0.25,1.26,0.52,2.52,0.79,3.79C33.35,77.76,33.83,80,34.22,82.23"/>
	</g>
	<g id="path212_00000041269827669227623290000002070553889596650658_">
		<g>
			<defs>
				<path id="SVGID_1_" d="M33.55,82.34c0.59,3.4,0.32,6.07-0.84,8.15c-1.23,2.22-3.47,3.74-5.45,5.09
					c-1.27,0.86-2.7,1.38-4.21,1.93c-0.42,0.15-0.84,0.31-1.25,0.47c-1.62,0.63-3.04,0.29-4.41-0.03c-0.17-0.03-0.67-0.4-0.9-0.58
					c-0.12-0.09-0.23-0.17-0.3-0.22c-0.9-0.59-1.66-1.06-2.39-1.5l-0.53-0.31c-1.42-0.82-2.89-1.68-4.14-2.76
					c-2.45-2.12-3.28-4.64-2.86-8.71l0.38-3.8c0.2-1.99,0.63-3.96,1.28-5.84l2.29-6.71c0.96,0.14,2.97,0.07,2.99,0.07
					c0.98-0.09,1.75-0.56,2.49-1c0.34-0.21,0.69-0.42,1.06-0.6c1.25-0.59,2.73-0.83,4.14-0.69c2.7,0.28,4.26,1.81,5.88,3.64
					c1,1.14,1.84,1.42,2.8,1.75c0.54,0.18,1.09,0.37,1.77,0.73c0.28,1.44,0.59,2.88,0.9,4.31C32.69,77.89,33.17,80.13,33.55,82.34"
					/>
			</defs>
			<clipPath id="SVGID_00000113327724627187866080000006847353424131781054_">
				<use xlink:href="#SVGID_1_"  style="overflow:visible;"/>
			</clipPath>
			
				<rect x="5.84" y="88.33" style="clip-path:url(#SVGID_00000113327724627187866080000006847353424131781054_);fill:#EDF1F7;" width="28.31" height="10.27"/>
			
				<rect x="5.84" y="87.56" style="clip-path:url(#SVGID_00000113327724627187866080000006847353424131781054_);fill:#EDF1F7;" width="28.31" height="0.77"/>
			
				<rect x="5.84" y="86.79" style="clip-path:url(#SVGID_00000113327724627187866080000006847353424131781054_);fill:#EDF2F7;" width="28.31" height="0.77"/>
			
				<rect x="5.84" y="86.02" style="clip-path:url(#SVGID_00000113327724627187866080000006847353424131781054_);fill:#EEF3F7;" width="28.31" height="0.77"/>
			
				<rect x="5.84" y="85.24" style="clip-path:url(#SVGID_00000113327724627187866080000006847353424131781054_);fill:#EFF3F9;" width="28.31" height="0.77"/>
			
				<rect x="5.84" y="84.47" style="clip-path:url(#SVGID_00000113327724627187866080000006847353424131781054_);fill:#F0F4F9;" width="28.31" height="0.77"/>
			
				<rect x="5.84" y="83.7" style="clip-path:url(#SVGID_00000113327724627187866080000006847353424131781054_);fill:#F1F5F9;" width="28.31" height="0.77"/>
			
				<rect x="5.84" y="82.93" style="clip-path:url(#SVGID_00000113327724627187866080000006847353424131781054_);fill:#F3F6FA;" width="28.31" height="0.77"/>
			
				<rect x="5.84" y="82.16" style="clip-path:url(#SVGID_00000113327724627187866080000006847353424131781054_);fill:#F3F6FA;" width="28.31" height="0.77"/>
			
				<rect x="5.84" y="81.38" style="clip-path:url(#SVGID_00000113327724627187866080000006847353424131781054_);fill:#F3F7FC;" width="28.31" height="0.77"/>
			
				<rect x="5.84" y="80.61" style="clip-path:url(#SVGID_00000113327724627187866080000006847353424131781054_);fill:#F6F7FA;" width="28.31" height="0.77"/>
			
				<rect x="5.84" y="79.84" style="clip-path:url(#SVGID_00000113327724627187866080000006847353424131781054_);fill:#F7F9FB;" width="28.31" height="0.77"/>
			
				<rect x="5.84" y="79.07" style="clip-path:url(#SVGID_00000113327724627187866080000006847353424131781054_);fill:#F7FBFE;" width="28.31" height="0.77"/>
			
				<rect x="5.84" y="78.3" style="clip-path:url(#SVGID_00000113327724627187866080000006847353424131781054_);fill:#F8FBFE;" width="28.31" height="0.77"/>
			
				<rect x="5.84" y="77.52" style="clip-path:url(#SVGID_00000113327724627187866080000006847353424131781054_);fill:#FAFCFE;" width="28.31" height="0.77"/>
			
				<rect x="5.84" y="76.75" style="clip-path:url(#SVGID_00000113327724627187866080000006847353424131781054_);fill:#FBFEFF;" width="28.31" height="0.77"/>
			
				<rect x="5.84" y="75.98" style="clip-path:url(#SVGID_00000113327724627187866080000006847353424131781054_);fill:#FDFEFF;" width="28.31" height="0.77"/>
			
				<rect x="5.84" y="75.21" style="clip-path:url(#SVGID_00000113327724627187866080000006847353424131781054_);fill:#FFFFFF;" width="28.31" height="0.77"/>
			
				<rect x="5.84" y="74.44" style="clip-path:url(#SVGID_00000113327724627187866080000006847353424131781054_);fill:#FFFFFF;" width="28.31" height="0.77"/>
			
				<rect x="5.84" y="73.66" style="clip-path:url(#SVGID_00000113327724627187866080000006847353424131781054_);fill:#FFFFFF;" width="28.31" height="0.77"/>
			
				<rect x="5.84" y="65.16" style="clip-path:url(#SVGID_00000113327724627187866080000006847353424131781054_);fill:#FFFFFF;" width="28.31" height="8.51"/>
		</g>
	</g>
	<g id="path214_00000139999603954447530010000004520745080662178227_">
		<g>
			<defs>
				<path id="SVGID_00000005951419753778831570000015498614234655962515_" d="M31.33,64.87l0.08,5.82c-0.62-0.3-1.15-0.49-1.63-0.65
					c-0.9-0.31-1.62-0.55-2.51-1.55c-1.66-1.87-3.38-3.57-6.32-3.86c-1.54-0.16-3.13,0.11-4.5,0.75c-0.4,0.18-0.77,0.41-1.13,0.63
					c-0.71,0.43-1.37,0.84-2.2,0.92c-0.28,0.03-2.14,0-2.82-0.05c2.39-11.19,4.82-22.75,4.62-34.47c-0.03-2.04-0.15-4.09-0.26-6.08
					c-0.11-2.11-0.24-4.29-0.26-6.43c-0.06-4.66,0.59-9.33,1.57-14.91c0.08-0.47,0.2-0.92,0.52-1.09c0.44-0.22,1.03,0.29,1.4,0.79
					c1.56,2.14,2.51,4.69,2.81,7.6c0.26,2.55,0.88,5.33,1.94,8.73c0.93,3.01,2.18,5.94,3.39,8.78c0.7,1.64,1.42,3.33,2.07,5.01
					c1.06,2.73,2.49,6.85,2.79,11.17c0.11,1.57,0.18,3.17,0.24,4.73c0.05,1.35,0.11,2.69,0.19,4.04l0.06,10.14L31.33,64.87"/>
			</defs>
			<clipPath id="SVGID_00000129200467555224926160000010589616650966174906_">
				<use xlink:href="#SVGID_00000005951419753778831570000015498614234655962515_"  style="overflow:visible;"/>
			</clipPath>
			<path style="clip-path:url(#SVGID_00000129200467555224926160000010589616650966174906_);fill:#E39975;" d="M10.32,70.69h21.09
				H10.32z"/>
			
				<rect x="10.32" y="70.44" style="clip-path:url(#SVGID_00000129200467555224926160000010589616650966174906_);fill:#E39975;" width="21.09" height="0.26"/>
			
				<rect x="10.32" y="70.18" style="clip-path:url(#SVGID_00000129200467555224926160000010589616650966174906_);fill:#E29975;" width="21.09" height="0.26"/>
			
				<rect x="10.32" y="69.93" style="clip-path:url(#SVGID_00000129200467555224926160000010589616650966174906_);fill:#E39A77;" width="21.09" height="0.26"/>
			
				<rect x="10.32" y="69.67" style="clip-path:url(#SVGID_00000129200467555224926160000010589616650966174906_);fill:#E39C78;" width="21.09" height="0.26"/>
			
				<rect x="10.32" y="69.42" style="clip-path:url(#SVGID_00000129200467555224926160000010589616650966174906_);fill:#E39C79;" width="21.09" height="0.26"/>
			
				<rect x="10.32" y="69.16" style="clip-path:url(#SVGID_00000129200467555224926160000010589616650966174906_);fill:#E39D7A;" width="21.09" height="0.26"/>
			
				<rect x="10.32" y="68.9" style="clip-path:url(#SVGID_00000129200467555224926160000010589616650966174906_);fill:#E49D7B;" width="21.09" height="0.26"/>
			
				<rect x="10.32" y="68.65" style="clip-path:url(#SVGID_00000129200467555224926160000010589616650966174906_);fill:#E59F7B;" width="21.09" height="0.26"/>
			
				<rect x="10.32" y="68.39" style="clip-path:url(#SVGID_00000129200467555224926160000010589616650966174906_);fill:#E5A07C;" width="21.09" height="0.26"/>
			
				<rect x="10.32" y="68.14" style="clip-path:url(#SVGID_00000129200467555224926160000010589616650966174906_);fill:#E5A07D;" width="21.09" height="0.26"/>
			
				<rect x="10.32" y="67.88" style="clip-path:url(#SVGID_00000129200467555224926160000010589616650966174906_);fill:#E5A17E;" width="21.09" height="0.26"/>
			
				<rect x="10.32" y="67.63" style="clip-path:url(#SVGID_00000129200467555224926160000010589616650966174906_);fill:#E5A17F;" width="21.09" height="0.26"/>
			
				<rect x="10.32" y="67.37" style="clip-path:url(#SVGID_00000129200467555224926160000010589616650966174906_);fill:#E5A380;" width="21.09" height="0.26"/>
			
				<rect x="10.32" y="67.11" style="clip-path:url(#SVGID_00000129200467555224926160000010589616650966174906_);fill:#E6A481;" width="21.09" height="0.26"/>
			
				<rect x="10.32" y="66.86" style="clip-path:url(#SVGID_00000129200467555224926160000010589616650966174906_);fill:#E6A482;" width="21.09" height="0.26"/>
			
				<rect x="10.32" y="66.6" style="clip-path:url(#SVGID_00000129200467555224926160000010589616650966174906_);fill:#E6A683;" width="21.09" height="0.26"/>
			
				<rect x="10.32" y="66.35" style="clip-path:url(#SVGID_00000129200467555224926160000010589616650966174906_);fill:#E6A785;" width="21.09" height="0.26"/>
			
				<rect x="10.32" y="66.09" style="clip-path:url(#SVGID_00000129200467555224926160000010589616650966174906_);fill:#E7A785;" width="21.09" height="0.26"/>
			
				<rect x="10.32" y="65.83" style="clip-path:url(#SVGID_00000129200467555224926160000010589616650966174906_);fill:#E7A886;" width="21.09" height="0.26"/>
			
				<rect x="10.32" y="65.58" style="clip-path:url(#SVGID_00000129200467555224926160000010589616650966174906_);fill:#E7A887;" width="21.09" height="0.26"/>
			
				<rect x="10.32" y="65.32" style="clip-path:url(#SVGID_00000129200467555224926160000010589616650966174906_);fill:#E7AA89;" width="21.09" height="0.26"/>
			
				<rect x="10.32" y="65.07" style="clip-path:url(#SVGID_00000129200467555224926160000010589616650966174906_);fill:#E8AB8A;" width="21.09" height="0.26"/>
			
				<rect x="10.32" y="64.81" style="clip-path:url(#SVGID_00000129200467555224926160000010589616650966174906_);fill:#E8AC8A;" width="21.09" height="0.26"/>
			
				<rect x="10.32" y="64.56" style="clip-path:url(#SVGID_00000129200467555224926160000010589616650966174906_);fill:#E8AC8B;" width="21.09" height="0.26"/>
			
				<rect x="10.32" y="64.3" style="clip-path:url(#SVGID_00000129200467555224926160000010589616650966174906_);fill:#E8AE8C;" width="21.09" height="0.26"/>
			
				<rect x="10.32" y="64.04" style="clip-path:url(#SVGID_00000129200467555224926160000010589616650966174906_);fill:#E8AD8D;" width="21.09" height="0.26"/>
			
				<rect x="10.32" y="63.79" style="clip-path:url(#SVGID_00000129200467555224926160000010589616650966174906_);fill:#E9AF8F;" width="21.09" height="0.26"/>
			
				<rect x="10.32" y="63.53" style="clip-path:url(#SVGID_00000129200467555224926160000010589616650966174906_);fill:#E9AF8F;" width="21.09" height="0.26"/>
			
				<rect x="10.32" y="63.28" style="clip-path:url(#SVGID_00000129200467555224926160000010589616650966174906_);fill:#E9B090;" width="21.09" height="0.26"/>
			
				<rect x="10.32" y="63.02" style="clip-path:url(#SVGID_00000129200467555224926160000010589616650966174906_);fill:#EAB191;" width="21.09" height="0.26"/>
			
				<rect x="10.32" y="62.77" style="clip-path:url(#SVGID_00000129200467555224926160000010589616650966174906_);fill:#EAB392;" width="21.09" height="0.26"/>
			
				<rect x="10.32" y="62.51" style="clip-path:url(#SVGID_00000129200467555224926160000010589616650966174906_);fill:#EAB394;" width="21.09" height="0.26"/>
			
				<rect x="10.32" y="62.25" style="clip-path:url(#SVGID_00000129200467555224926160000010589616650966174906_);fill:#EAB395;" width="21.09" height="0.26"/>
			
				<rect x="10.32" y="62" style="clip-path:url(#SVGID_00000129200467555224926160000010589616650966174906_);fill:#EBB495;" width="21.09" height="0.26"/>
			
				<rect x="10.32" y="61.74" style="clip-path:url(#SVGID_00000129200467555224926160000010589616650966174906_);fill:#EBB596;" width="21.09" height="0.26"/>
			
				<rect x="10.32" y="61.49" style="clip-path:url(#SVGID_00000129200467555224926160000010589616650966174906_);fill:#EBB697;" width="21.09" height="0.26"/>
			
				<rect x="10.32" y="61.23" style="clip-path:url(#SVGID_00000129200467555224926160000010589616650966174906_);fill:#EBB798;" width="21.09" height="0.26"/>
			
				<rect x="10.32" y="60.98" style="clip-path:url(#SVGID_00000129200467555224926160000010589616650966174906_);fill:#ECB899;" width="21.09" height="0.26"/>
			
				<rect x="10.32" y="60.72" style="clip-path:url(#SVGID_00000129200467555224926160000010589616650966174906_);fill:#ECB89A;" width="21.09" height="0.26"/>
			
				<rect x="10.32" y="60.46" style="clip-path:url(#SVGID_00000129200467555224926160000010589616650966174906_);fill:#ECB99B;" width="21.09" height="0.26"/>
			
				<rect x="10.32" y="60.21" style="clip-path:url(#SVGID_00000129200467555224926160000010589616650966174906_);fill:#ECBA9C;" width="21.09" height="0.26"/>
			
				<rect x="10.32" y="59.95" style="clip-path:url(#SVGID_00000129200467555224926160000010589616650966174906_);fill:#EDBB9D;" width="21.09" height="0.26"/>
			
				<rect x="10.32" y="59.7" style="clip-path:url(#SVGID_00000129200467555224926160000010589616650966174906_);fill:#EDBC9E;" width="21.09" height="0.26"/>
			
				<rect x="10.32" y="59.44" style="clip-path:url(#SVGID_00000129200467555224926160000010589616650966174906_);fill:#EDBD9F;" width="21.09" height="0.26"/>
			
				<rect x="10.32" y="59.18" style="clip-path:url(#SVGID_00000129200467555224926160000010589616650966174906_);fill:#ECBEA0;" width="21.09" height="0.26"/>
			
				<rect x="10.32" y="58.93" style="clip-path:url(#SVGID_00000129200467555224926160000010589616650966174906_);fill:#EDBEA1;" width="21.09" height="0.26"/>
			
				<rect x="10.32" y="58.67" style="clip-path:url(#SVGID_00000129200467555224926160000010589616650966174906_);fill:#EDBFA2;" width="21.09" height="0.26"/>
			
				<rect x="10.32" y="58.42" style="clip-path:url(#SVGID_00000129200467555224926160000010589616650966174906_);fill:#EDC0A3;" width="21.09" height="0.26"/>
			
				<rect x="10.32" y="58.16" style="clip-path:url(#SVGID_00000129200467555224926160000010589616650966174906_);fill:#EEC1A5;" width="21.09" height="0.26"/>
			
				<rect x="10.32" y="57.91" style="clip-path:url(#SVGID_00000129200467555224926160000010589616650966174906_);fill:#EEC2A6;" width="21.09" height="0.26"/>
			
				<rect x="10.32" y="57.65" style="clip-path:url(#SVGID_00000129200467555224926160000010589616650966174906_);fill:#EEC3A7;" width="21.09" height="0.26"/>
			
				<rect x="10.32" y="57.39" style="clip-path:url(#SVGID_00000129200467555224926160000010589616650966174906_);fill:#EFC5A9;" width="21.09" height="0.26"/>
			
				<rect x="10.32" y="57.14" style="clip-path:url(#SVGID_00000129200467555224926160000010589616650966174906_);fill:#F0C4AA;" width="21.09" height="0.26"/>
			
				<rect x="10.32" y="56.88" style="clip-path:url(#SVGID_00000129200467555224926160000010589616650966174906_);fill:#F0C6AB;" width="21.09" height="0.26"/>
			
				<rect x="10.32" y="56.63" style="clip-path:url(#SVGID_00000129200467555224926160000010589616650966174906_);fill:#F0C7AC;" width="21.09" height="0.26"/>
			
				<rect x="10.32" y="56.37" style="clip-path:url(#SVGID_00000129200467555224926160000010589616650966174906_);fill:#F0C8AD;" width="21.09" height="0.26"/>
			
				<rect x="10.32" y="56.12" style="clip-path:url(#SVGID_00000129200467555224926160000010589616650966174906_);fill:#F1C9AE;" width="21.09" height="0.26"/>
			
				<rect x="10.32" y="55.86" style="clip-path:url(#SVGID_00000129200467555224926160000010589616650966174906_);fill:#F1CAAF;" width="21.09" height="0.26"/>
			
				<rect x="10.32" y="55.6" style="clip-path:url(#SVGID_00000129200467555224926160000010589616650966174906_);fill:#F1CBB0;" width="21.09" height="0.26"/>
			
				<rect x="10.32" y="55.35" style="clip-path:url(#SVGID_00000129200467555224926160000010589616650966174906_);fill:#F1CBB1;" width="21.09" height="0.26"/>
			
				<rect x="10.32" y="55.09" style="clip-path:url(#SVGID_00000129200467555224926160000010589616650966174906_);fill:#F2CBB2;" width="21.09" height="0.26"/>
			
				<rect x="10.32" y="54.84" style="clip-path:url(#SVGID_00000129200467555224926160000010589616650966174906_);fill:#F2CDB3;" width="21.09" height="0.26"/>
			
				<rect x="10.32" y="54.58" style="clip-path:url(#SVGID_00000129200467555224926160000010589616650966174906_);fill:#F2CEB4;" width="21.09" height="0.26"/>
			
				<rect x="10.32" y="54.32" style="clip-path:url(#SVGID_00000129200467555224926160000010589616650966174906_);fill:#F1CEB4;" width="21.09" height="0.26"/>
			
				<rect x="10.32" y="54.07" style="clip-path:url(#SVGID_00000129200467555224926160000010589616650966174906_);fill:#F2CFB5;" width="21.09" height="0.26"/>
			
				<rect x="10.32" y="53.81" style="clip-path:url(#SVGID_00000129200467555224926160000010589616650966174906_);fill:#F3D1B6;" width="21.09" height="0.26"/>
			
				<rect x="10.32" y="53.56" style="clip-path:url(#SVGID_00000129200467555224926160000010589616650966174906_);fill:#F2D0B7;" width="21.09" height="0.26"/>
			
				<rect x="10.32" y="53.3" style="clip-path:url(#SVGID_00000129200467555224926160000010589616650966174906_);fill:#F2D1B8;" width="21.09" height="0.26"/>
			
				<rect x="10.32" y="53.05" style="clip-path:url(#SVGID_00000129200467555224926160000010589616650966174906_);fill:#F3D2B9;" width="21.09" height="0.26"/>
			
				<rect x="10.32" y="52.79" style="clip-path:url(#SVGID_00000129200467555224926160000010589616650966174906_);fill:#F3D3BA;" width="21.09" height="0.26"/>
			
				<rect x="10.32" y="52.53" style="clip-path:url(#SVGID_00000129200467555224926160000010589616650966174906_);fill:#F4D4BB;" width="21.09" height="0.26"/>
			
				<rect x="10.32" y="52.28" style="clip-path:url(#SVGID_00000129200467555224926160000010589616650966174906_);fill:#F4D5BC;" width="21.09" height="0.26"/>
			
				<rect x="10.32" y="52.02" style="clip-path:url(#SVGID_00000129200467555224926160000010589616650966174906_);fill:#F5D6BD;" width="21.09" height="0.26"/>
			
				<rect x="10.32" y="51.77" style="clip-path:url(#SVGID_00000129200467555224926160000010589616650966174906_);fill:#F5D6BE;" width="21.09" height="0.26"/>
			
				<rect x="10.32" y="51.51" style="clip-path:url(#SVGID_00000129200467555224926160000010589616650966174906_);fill:#F5D7BF;" width="21.09" height="0.26"/>
			
				<rect x="10.32" y="51.26" style="clip-path:url(#SVGID_00000129200467555224926160000010589616650966174906_);fill:#F6D8C0;" width="21.09" height="0.26"/>
			
				<rect x="10.32" y="51" style="clip-path:url(#SVGID_00000129200467555224926160000010589616650966174906_);fill:#F6D9C1;" width="21.09" height="0.26"/>
			
				<rect x="10.32" y="50.74" style="clip-path:url(#SVGID_00000129200467555224926160000010589616650966174906_);fill:#F6DAC2;" width="21.09" height="0.26"/>
			
				<rect x="10.32" y="50.49" style="clip-path:url(#SVGID_00000129200467555224926160000010589616650966174906_);fill:#F6DBC3;" width="21.09" height="0.26"/>
			
				<rect x="10.32" y="50.23" style="clip-path:url(#SVGID_00000129200467555224926160000010589616650966174906_);fill:#F7DBC4;" width="21.09" height="0.26"/>
			
				<rect x="10.32" y="49.98" style="clip-path:url(#SVGID_00000129200467555224926160000010589616650966174906_);fill:#F7DCC5;" width="21.09" height="0.26"/>
			
				<rect x="10.32" y="49.72" style="clip-path:url(#SVGID_00000129200467555224926160000010589616650966174906_);fill:#F7DEC6;" width="21.09" height="0.26"/>
			
				<rect x="10.32" y="49.46" style="clip-path:url(#SVGID_00000129200467555224926160000010589616650966174906_);fill:#F7DEC7;" width="21.09" height="0.26"/>
			
				<rect x="10.32" y="49.21" style="clip-path:url(#SVGID_00000129200467555224926160000010589616650966174906_);fill:#F7DEC8;" width="21.09" height="0.26"/>
			
				<rect x="10.32" y="48.95" style="clip-path:url(#SVGID_00000129200467555224926160000010589616650966174906_);fill:#F7E0C9;" width="21.09" height="0.26"/>
			
				<rect x="10.32" y="48.7" style="clip-path:url(#SVGID_00000129200467555224926160000010589616650966174906_);fill:#F7E1CB;" width="21.09" height="0.26"/>
			
				<rect x="10.32" y="48.44" style="clip-path:url(#SVGID_00000129200467555224926160000010589616650966174906_);fill:#F7E1CB;" width="21.09" height="0.26"/>
			
				<rect x="10.32" y="48.19" style="clip-path:url(#SVGID_00000129200467555224926160000010589616650966174906_);fill:#F8E2CC;" width="21.09" height="0.26"/>
			
				<rect x="10.32" y="47.93" style="clip-path:url(#SVGID_00000129200467555224926160000010589616650966174906_);fill:#F9E3CD;" width="21.09" height="0.26"/>
			
				<rect x="10.32" y="47.67" style="clip-path:url(#SVGID_00000129200467555224926160000010589616650966174906_);fill:#F7E3CE;" width="21.09" height="0.26"/>
			
				<rect x="10.32" y="47.42" style="clip-path:url(#SVGID_00000129200467555224926160000010589616650966174906_);fill:#F8E5CF;" width="21.09" height="0.26"/>
			
				<rect x="10.32" y="47.16" style="clip-path:url(#SVGID_00000129200467555224926160000010589616650966174906_);fill:#F9E5D0;" width="21.09" height="0.26"/>
			
				<rect x="10.32" y="46.91" style="clip-path:url(#SVGID_00000129200467555224926160000010589616650966174906_);fill:#F9E7D1;" width="21.09" height="0.26"/>
			
				<rect x="10.32" y="46.65" style="clip-path:url(#SVGID_00000129200467555224926160000010589616650966174906_);fill:#F9E6D2;" width="21.09" height="0.26"/>
			
				<rect x="10.32" y="46.4" style="clip-path:url(#SVGID_00000129200467555224926160000010589616650966174906_);fill:#F9E8D3;" width="21.09" height="0.26"/>
			
				<rect x="10.32" y="46.14" style="clip-path:url(#SVGID_00000129200467555224926160000010589616650966174906_);fill:#FAE9D4;" width="21.09" height="0.26"/>
			
				<rect x="10.32" y="45.88" style="clip-path:url(#SVGID_00000129200467555224926160000010589616650966174906_);fill:#FAEAD5;" width="21.09" height="0.26"/>
			
				<rect x="10.32" y="35.37" style="clip-path:url(#SVGID_00000129200467555224926160000010589616650966174906_);fill:#FAEAD5;" width="21.09" height="10.51"/>
			
				<rect x="10.32" y="24.86" style="clip-path:url(#SVGID_00000129200467555224926160000010589616650966174906_);fill:#FAEAD6;" width="21.09" height="10.51"/>
			
				<rect x="10.32" y="14.35" style="clip-path:url(#SVGID_00000129200467555224926160000010589616650966174906_);fill:#FCECD8;" width="21.09" height="10.51"/>
			
				<rect x="10.32" y="3.84" style="clip-path:url(#SVGID_00000129200467555224926160000010589616650966174906_);fill:#FCEDDA;" width="21.09" height="10.51"/>
			
				<rect x="10.32" y="3.67" style="clip-path:url(#SVGID_00000129200467555224926160000010589616650966174906_);fill:#FCEDDA;" width="21.09" height="0.16"/>
		</g>
	</g>
</g>
</svg>
