<?xml version="1.0" encoding="utf-8"?>
<!-- Generator: Adobe Illustrator 27.0.1, SVG Export Plug-In . SVG Version: 6.00 Build 0)  -->
<svg version="1.1" id="Layer_1" xmlns="http://www.w3.org/2000/svg" xmlns:xlink="http://www.w3.org/1999/xlink" x="0px" y="0px"
	 viewBox="0 0 40 100" style="enable-background:new 0 0 40 100;" xml:space="preserve">
<style type="text/css">
	.st0{fill:#131212;}
	.st1{clip-path:url(#SVGID_00000060031663490576265250000015391064646594677395_);fill:#ECF1F7;}
	.st2{clip-path:url(#SVGID_00000060031663490576265250000015391064646594677395_);fill:#EDF2F7;}
	.st3{clip-path:url(#SVGID_00000060031663490576265250000015391064646594677395_);fill:#EEF3F8;}
	.st4{clip-path:url(#SVGID_00000060031663490576265250000015391064646594677395_);fill:#EFF3F8;}
	.st5{clip-path:url(#SVGID_00000060031663490576265250000015391064646594677395_);fill:#F0F4F9;}
	.st6{clip-path:url(#SVGID_00000060031663490576265250000015391064646594677395_);fill:#F1F5F9;}
	.st7{clip-path:url(#SVGID_00000060031663490576265250000015391064646594677395_);fill:#F2F6FA;}
	.st8{clip-path:url(#SVGID_00000060031663490576265250000015391064646594677395_);fill:#F3F6FA;}
	.st9{clip-path:url(#SVGID_00000060031663490576265250000015391064646594677395_);fill:#F4F7FB;}
	.st10{clip-path:url(#SVGID_00000060031663490576265250000015391064646594677395_);fill:#F6F8FB;}
	.st11{clip-path:url(#SVGID_00000060031663490576265250000015391064646594677395_);fill:#F7F9FB;}
	.st12{clip-path:url(#SVGID_00000060031663490576265250000015391064646594677395_);fill:#F8FAFC;}
	.st13{clip-path:url(#SVGID_00000060031663490576265250000015391064646594677395_);fill:#F9FAFC;}
	.st14{clip-path:url(#SVGID_00000060031663490576265250000015391064646594677395_);fill:#FAFBFD;}
	.st15{clip-path:url(#SVGID_00000060031663490576265250000015391064646594677395_);fill:#FBFCFD;}
	.st16{clip-path:url(#SVGID_00000060031663490576265250000015391064646594677395_);fill:#FCFDFE;}
	.st17{clip-path:url(#SVGID_00000060031663490576265250000015391064646594677395_);fill:#FDFDFE;}
	.st18{clip-path:url(#SVGID_00000060031663490576265250000015391064646594677395_);fill:#FEFEFF;}
	.st19{clip-path:url(#SVGID_00000060031663490576265250000015391064646594677395_);fill:#FFFFFF;}
	.st20{clip-path:url(#SVGID_00000173158425895331042580000007220935384737548949_);fill:#FBEAD5;}
	.st21{clip-path:url(#SVGID_00000173158425895331042580000007220935384737548949_);fill:#FBEBD6;}
	.st22{clip-path:url(#SVGID_00000173158425895331042580000007220935384737548949_);fill:#FCECD8;}
	.st23{clip-path:url(#SVGID_00000173158425895331042580000007220935384737548949_);fill:#FCEDD9;}
	.st24{clip-path:url(#SVGID_00000173158425895331042580000007220935384737548949_);fill:#FBEBD7;}
	.st25{clip-path:url(#SVGID_00000173158425895331042580000007220935384737548949_);fill:#FBEAD6;}
	.st26{clip-path:url(#SVGID_00000173158425895331042580000007220935384737548949_);fill:#FBE9D4;}
	.st27{clip-path:url(#SVGID_00000173158425895331042580000007220935384737548949_);fill:#FAE8D3;}
	.st28{clip-path:url(#SVGID_00000173158425895331042580000007220935384737548949_);fill:#FAE7D2;}
	.st29{clip-path:url(#SVGID_00000173158425895331042580000007220935384737548949_);fill:#FAE6D1;}
	.st30{clip-path:url(#SVGID_00000173158425895331042580000007220935384737548949_);fill:#FAE5D0;}
	.st31{clip-path:url(#SVGID_00000173158425895331042580000007220935384737548949_);fill:#F9E5CF;}
	.st32{clip-path:url(#SVGID_00000173158425895331042580000007220935384737548949_);fill:#F9E4CE;}
	.st33{clip-path:url(#SVGID_00000173158425895331042580000007220935384737548949_);fill:#F9E3CD;}
	.st34{clip-path:url(#SVGID_00000173158425895331042580000007220935384737548949_);fill:#F9E2CC;}
	.st35{clip-path:url(#SVGID_00000173158425895331042580000007220935384737548949_);fill:#F8E1CB;}
	.st36{clip-path:url(#SVGID_00000173158425895331042580000007220935384737548949_);fill:#F8E0CA;}
	.st37{clip-path:url(#SVGID_00000173158425895331042580000007220935384737548949_);fill:#F8DFC9;}
	.st38{clip-path:url(#SVGID_00000173158425895331042580000007220935384737548949_);fill:#F8DFC8;}
	.st39{clip-path:url(#SVGID_00000173158425895331042580000007220935384737548949_);fill:#F7DEC7;}
	.st40{clip-path:url(#SVGID_00000173158425895331042580000007220935384737548949_);fill:#F7DDC6;}
	.st41{clip-path:url(#SVGID_00000173158425895331042580000007220935384737548949_);fill:#F7DCC5;}
	.st42{clip-path:url(#SVGID_00000173158425895331042580000007220935384737548949_);fill:#F7DBC4;}
	.st43{clip-path:url(#SVGID_00000173158425895331042580000007220935384737548949_);fill:#F6DAC3;}
	.st44{clip-path:url(#SVGID_00000173158425895331042580000007220935384737548949_);fill:#F6D9C2;}
	.st45{clip-path:url(#SVGID_00000173158425895331042580000007220935384737548949_);fill:#F6D9C1;}
	.st46{clip-path:url(#SVGID_00000173158425895331042580000007220935384737548949_);fill:#F6D8C0;}
	.st47{clip-path:url(#SVGID_00000173158425895331042580000007220935384737548949_);fill:#F5D7BF;}
	.st48{clip-path:url(#SVGID_00000173158425895331042580000007220935384737548949_);fill:#F5D6BE;}
	.st49{clip-path:url(#SVGID_00000173158425895331042580000007220935384737548949_);fill:#F5D5BD;}
	.st50{clip-path:url(#SVGID_00000173158425895331042580000007220935384737548949_);fill:#F4D4BC;}
	.st51{clip-path:url(#SVGID_00000173158425895331042580000007220935384737548949_);fill:#F4D4BB;}
	.st52{clip-path:url(#SVGID_00000173158425895331042580000007220935384737548949_);fill:#F4D3BA;}
	.st53{clip-path:url(#SVGID_00000173158425895331042580000007220935384737548949_);fill:#F4D2B9;}
	.st54{clip-path:url(#SVGID_00000173158425895331042580000007220935384737548949_);fill:#F3D1B8;}
	.st55{clip-path:url(#SVGID_00000173158425895331042580000007220935384737548949_);fill:#F3D0B7;}
	.st56{clip-path:url(#SVGID_00000173158425895331042580000007220935384737548949_);fill:#F3CFB6;}
	.st57{clip-path:url(#SVGID_00000173158425895331042580000007220935384737548949_);fill:#F3CEB5;}
	.st58{clip-path:url(#SVGID_00000173158425895331042580000007220935384737548949_);fill:#F2CEB4;}
	.st59{clip-path:url(#SVGID_00000173158425895331042580000007220935384737548949_);fill:#F2CDB3;}
	.st60{clip-path:url(#SVGID_00000173158425895331042580000007220935384737548949_);fill:#F2CCB2;}
	.st61{clip-path:url(#SVGID_00000173158425895331042580000007220935384737548949_);fill:#F2CBB1;}
	.st62{clip-path:url(#SVGID_00000173158425895331042580000007220935384737548949_);fill:#F1CAB0;}
	.st63{clip-path:url(#SVGID_00000173158425895331042580000007220935384737548949_);fill:#F1C9AF;}
	.st64{clip-path:url(#SVGID_00000173158425895331042580000007220935384737548949_);fill:#F1C8AE;}
	.st65{clip-path:url(#SVGID_00000173158425895331042580000007220935384737548949_);fill:#F1C8AD;}
	.st66{clip-path:url(#SVGID_00000173158425895331042580000007220935384737548949_);fill:#F0C7AC;}
	.st67{clip-path:url(#SVGID_00000173158425895331042580000007220935384737548949_);fill:#F0C6AB;}
	.st68{clip-path:url(#SVGID_00000173158425895331042580000007220935384737548949_);fill:#F0C5AA;}
	.st69{clip-path:url(#SVGID_00000173158425895331042580000007220935384737548949_);fill:#F0C4A9;}
	.st70{clip-path:url(#SVGID_00000173158425895331042580000007220935384737548949_);fill:#EFC3A8;}
	.st71{clip-path:url(#SVGID_00000173158425895331042580000007220935384737548949_);fill:#EFC3A7;}
	.st72{clip-path:url(#SVGID_00000173158425895331042580000007220935384737548949_);fill:#EFC2A5;}
	.st73{clip-path:url(#SVGID_00000173158425895331042580000007220935384737548949_);fill:#EEC1A4;}
	.st74{clip-path:url(#SVGID_00000173158425895331042580000007220935384737548949_);fill:#EEC0A3;}
	.st75{clip-path:url(#SVGID_00000173158425895331042580000007220935384737548949_);fill:#EEBFA2;}
	.st76{clip-path:url(#SVGID_00000173158425895331042580000007220935384737548949_);fill:#EEBEA1;}
	.st77{clip-path:url(#SVGID_00000173158425895331042580000007220935384737548949_);fill:#EDBDA0;}
	.st78{clip-path:url(#SVGID_00000173158425895331042580000007220935384737548949_);fill:#EDBD9F;}
	.st79{clip-path:url(#SVGID_00000173158425895331042580000007220935384737548949_);fill:#EDBC9E;}
	.st80{clip-path:url(#SVGID_00000173158425895331042580000007220935384737548949_);fill:#EDBB9D;}
	.st81{clip-path:url(#SVGID_00000173158425895331042580000007220935384737548949_);fill:#ECBA9C;}
	.st82{clip-path:url(#SVGID_00000173158425895331042580000007220935384737548949_);fill:#ECB99B;}
	.st83{clip-path:url(#SVGID_00000173158425895331042580000007220935384737548949_);fill:#ECB89A;}
	.st84{clip-path:url(#SVGID_00000173158425895331042580000007220935384737548949_);fill:#ECB799;}
	.st85{clip-path:url(#SVGID_00000173158425895331042580000007220935384737548949_);fill:#EBB798;}
	.st86{clip-path:url(#SVGID_00000173158425895331042580000007220935384737548949_);fill:#EBB697;}
	.st87{clip-path:url(#SVGID_00000173158425895331042580000007220935384737548949_);fill:#EBB596;}
	.st88{clip-path:url(#SVGID_00000173158425895331042580000007220935384737548949_);fill:#EBB495;}
	.st89{clip-path:url(#SVGID_00000173158425895331042580000007220935384737548949_);fill:#EAB394;}
	.st90{clip-path:url(#SVGID_00000173158425895331042580000007220935384737548949_);fill:#EAB293;}
	.st91{clip-path:url(#SVGID_00000173158425895331042580000007220935384737548949_);fill:#EAB292;}
	.st92{clip-path:url(#SVGID_00000173158425895331042580000007220935384737548949_);fill:#EAB191;}
	.st93{clip-path:url(#SVGID_00000173158425895331042580000007220935384737548949_);fill:#E9B090;}
	.st94{clip-path:url(#SVGID_00000173158425895331042580000007220935384737548949_);fill:#E9AF8F;}
	.st95{clip-path:url(#SVGID_00000173158425895331042580000007220935384737548949_);fill:#E9AE8E;}
	.st96{clip-path:url(#SVGID_00000173158425895331042580000007220935384737548949_);fill:#E9AD8D;}
	.st97{clip-path:url(#SVGID_00000173158425895331042580000007220935384737548949_);fill:#E8AC8C;}
	.st98{clip-path:url(#SVGID_00000173158425895331042580000007220935384737548949_);fill:#E8AC8B;}
	.st99{clip-path:url(#SVGID_00000173158425895331042580000007220935384737548949_);fill:#E8AB8A;}
	.st100{clip-path:url(#SVGID_00000173158425895331042580000007220935384737548949_);fill:#E7AA89;}
	.st101{clip-path:url(#SVGID_00000173158425895331042580000007220935384737548949_);fill:#E7A988;}
	.st102{clip-path:url(#SVGID_00000173158425895331042580000007220935384737548949_);fill:#E7A887;}
	.st103{clip-path:url(#SVGID_00000173158425895331042580000007220935384737548949_);fill:#E7A786;}
	.st104{clip-path:url(#SVGID_00000173158425895331042580000007220935384737548949_);fill:#E6A685;}
	.st105{clip-path:url(#SVGID_00000173158425895331042580000007220935384737548949_);fill:#E6A684;}
	.st106{clip-path:url(#SVGID_00000173158425895331042580000007220935384737548949_);fill:#E6A583;}
	.st107{clip-path:url(#SVGID_00000173158425895331042580000007220935384737548949_);fill:#E6A482;}
	.st108{clip-path:url(#SVGID_00000173158425895331042580000007220935384737548949_);fill:#E5A381;}
	.st109{clip-path:url(#SVGID_00000173158425895331042580000007220935384737548949_);fill:#E5A280;}
	.st110{clip-path:url(#SVGID_00000173158425895331042580000007220935384737548949_);fill:#E5A17F;}
	.st111{clip-path:url(#SVGID_00000173158425895331042580000007220935384737548949_);fill:#E5A17E;}
	.st112{clip-path:url(#SVGID_00000173158425895331042580000007220935384737548949_);fill:#E4A07D;}
	.st113{clip-path:url(#SVGID_00000173158425895331042580000007220935384737548949_);fill:#E49F7C;}
	.st114{clip-path:url(#SVGID_00000173158425895331042580000007220935384737548949_);fill:#E49E7B;}
	.st115{clip-path:url(#SVGID_00000173158425895331042580000007220935384737548949_);fill:#E49D7A;}
	.st116{clip-path:url(#SVGID_00000173158425895331042580000007220935384737548949_);fill:#E39C79;}
	.st117{clip-path:url(#SVGID_00000173158425895331042580000007220935384737548949_);fill:#E39B78;}
	.st118{clip-path:url(#SVGID_00000173158425895331042580000007220935384737548949_);fill:#E39B77;}
	.st119{clip-path:url(#SVGID_00000173158425895331042580000007220935384737548949_);fill:#E39A76;}
	.st120{clip-path:url(#SVGID_00000173158425895331042580000007220935384737548949_);fill:#E29975;}
	.st121{clip-path:url(#SVGID_00000173158425895331042580000007220935384737548949_);fill:#E29874;}
</style>
<g>
	<g id="path156_00000178182008778367561860000015661108828128350376_">
		<path class="st0" d="M28.59,27.68c0.01-0.03,0.02-0.05,0.03-0.08c-1.19,0.22-2.14,1.43-2.95,2.75l-0.06,0.09
			c-0.74,1.21-1.59,2.59-2.97,3.2c-0.46,0.21-0.97,0.31-1.5,0.33c-1.09,0.03-2.27-0.32-3.38-1.05c-0.95-0.62-1.76-1.41-2.55-2.17
			c-0.36-0.35-0.72-0.7-1.1-1.04c-0.74-0.66-1.4-1.13-2.07-1.46c-0.92-0.45-1.48-0.58-1.7-0.57l0.11,1.1h0.01
			c0.05,0.21,0.1,0.42,0.15,0.63c0.01,0.02,0.01,0.04,0.02,0.05c0.07,0.26,0.13,0.48,0.15,0.6h-0.01
			c4.01,15.92,5.94,32.89,5.88,51.84c0.6,1.09,1.22,1.66,1.84,1.68c0.7,0.02,1.47-0.62,2.3-1.91c1.84-4.37,3.08-9.44,3.65-15.04
			c0.23-2.24,0.25-4.53,0.26-6.74c0.01-1.84,0.03-3.73,0.16-5.59C25.52,45.39,26.77,36.43,28.59,27.68L28.59,27.68z M30.31,17.95
			c0.13-3.73,0.05-7.54-0.04-11.22l-0.03-1.55c-0.12-2.7-1.84-3.06-4.66-3.34c-2.91-0.29-5.86-0.21-8.75,0.25
			c-0.28,0.05-0.58,0.09-0.9,0.13c-1.31,0.17-2.93,0.38-3.87,1.05c-0.87,0.62-1.01,1.63-1.17,2.71c-0.02,0.17-0.05,0.34-0.07,0.5
			c-1.35,8.23-1.54,14.81-0.58,20.57c0.36-0.04,0.99,0.07,2.11,0.62c0.72,0.36,1.43,0.86,2.22,1.56c0.38,0.34,0.75,0.7,1.12,1.06
			c0.76,0.74,1.55,1.51,2.44,2.09c1.47,0.95,3.05,1.2,4.25,0.67c1.2-0.53,1.95-1.76,2.68-2.94l0.06-0.09c0.65-1.06,1.83-3,3.69-3.1
			c0.13-0.48,0.27-0.95,0.42-1.41c0.28-0.85,0.54-1.65,0.68-2.52C30.16,21.28,30.25,19.55,30.31,17.95L30.31,17.95z M30.93,6.7
			c0.09,3.69,0.17,7.51,0.04,11.27c-0.06,1.62-0.15,3.37-0.42,5.11c-0.15,0.92-0.42,1.79-0.7,2.63c-0.23,0.68-0.46,1.39-0.61,2.11
			c-1.82,8.72-3.06,17.65-3.71,26.54c-0.13,1.84-0.15,3.73-0.16,5.54c-0.01,2.23-0.03,4.53-0.26,6.8
			c-0.58,5.66-1.84,10.8-3.73,15.27c-0.97,1.51-1.88,2.24-2.79,2.27c-0.04,0-0.08,0-0.12,0c-0.9-0.03-1.69-0.72-2.43-2.1L16,82.08
			v-0.09c0.07-19.19-1.91-36.34-6.02-52.41c-0.25-0.87-0.32-1.34-0.33-1.78c-0.01-0.21-0.03-0.42-0.07-0.62
			c-0.98-5.84-0.8-12.5,0.57-20.83c0.03-0.16,0.05-0.32,0.07-0.48c0.17-1.11,0.34-2.37,1.45-3.15c1.07-0.77,2.79-0.99,4.17-1.17
			c0.31-0.04,0.61-0.08,0.88-0.12c2.95-0.47,5.95-0.56,8.92-0.26c2.51,0.25,5.11,0.5,5.26,3.98L30.93,6.7"/>
	</g>
	<g id="path160">
		<g>
			<defs>
				<path id="SVGID_1_" d="M30.27,6.72c0.09,3.68,0.17,7.49,0.04,11.22c-0.06,1.61-0.15,3.33-0.42,5.03
					c-0.13,0.87-0.4,1.67-0.68,2.52c-0.15,0.46-0.29,0.92-0.42,1.41c-1.86,0.11-3.04,2.04-3.69,3.1l-0.06,0.09
					c-0.73,1.18-1.48,2.41-2.68,2.94s-2.79,0.28-4.25-0.67c-0.89-0.58-1.68-1.35-2.44-2.09c-0.37-0.36-0.74-0.72-1.12-1.06
					c-0.79-0.7-1.5-1.2-2.22-1.56c-1.12-0.55-1.75-0.66-2.11-0.62C9.27,21.28,9.45,14.7,10.8,6.47c0.03-0.16,0.05-0.32,0.07-0.5
					c0.16-1.07,0.31-2.09,1.17-2.71c0.94-0.67,2.57-0.88,3.87-1.05c0.32-0.04,0.62-0.08,0.9-0.13c2.89-0.45,5.84-0.54,8.75-0.25
					c2.83,0.28,4.54,0.64,4.66,3.34L30.27,6.72"/>
			</defs>
			<clipPath id="SVGID_00000101069505857560068420000009571038253222537353_">
				<use xlink:href="#SVGID_1_"  style="overflow:visible;"/>
			</clipPath>
			
				<rect x="9.27" y="23.75" style="clip-path:url(#SVGID_00000101069505857560068420000009571038253222537353_);fill:#ECF1F7;" width="21.18" height="9.82"/>
			
				<rect x="9.27" y="23.01" style="clip-path:url(#SVGID_00000101069505857560068420000009571038253222537353_);fill:#ECF1F7;" width="21.18" height="0.74"/>
			
				<rect x="9.27" y="22.27" style="clip-path:url(#SVGID_00000101069505857560068420000009571038253222537353_);fill:#EDF2F7;" width="21.18" height="0.74"/>
			
				<rect x="9.27" y="21.53" style="clip-path:url(#SVGID_00000101069505857560068420000009571038253222537353_);fill:#EEF3F8;" width="21.18" height="0.74"/>
			
				<rect x="9.27" y="20.79" style="clip-path:url(#SVGID_00000101069505857560068420000009571038253222537353_);fill:#EFF3F8;" width="21.18" height="0.74"/>
			
				<rect x="9.27" y="20.06" style="clip-path:url(#SVGID_00000101069505857560068420000009571038253222537353_);fill:#F0F4F9;" width="21.18" height="0.74"/>
			
				<rect x="9.27" y="19.32" style="clip-path:url(#SVGID_00000101069505857560068420000009571038253222537353_);fill:#F1F5F9;" width="21.18" height="0.74"/>
			
				<rect x="9.27" y="18.58" style="clip-path:url(#SVGID_00000101069505857560068420000009571038253222537353_);fill:#F2F6FA;" width="21.18" height="0.74"/>
			
				<rect x="9.27" y="17.84" style="clip-path:url(#SVGID_00000101069505857560068420000009571038253222537353_);fill:#F3F6FA;" width="21.18" height="0.74"/>
			
				<rect x="9.27" y="17.1" style="clip-path:url(#SVGID_00000101069505857560068420000009571038253222537353_);fill:#F4F7FB;" width="21.18" height="0.74"/>
			
				<rect x="9.27" y="16.36" style="clip-path:url(#SVGID_00000101069505857560068420000009571038253222537353_);fill:#F6F8FB;" width="21.18" height="0.74"/>
			
				<rect x="9.27" y="15.62" style="clip-path:url(#SVGID_00000101069505857560068420000009571038253222537353_);fill:#F7F9FB;" width="21.18" height="0.74"/>
			
				<rect x="9.27" y="14.88" style="clip-path:url(#SVGID_00000101069505857560068420000009571038253222537353_);fill:#F8FAFC;" width="21.18" height="0.74"/>
			
				<rect x="9.27" y="14.14" style="clip-path:url(#SVGID_00000101069505857560068420000009571038253222537353_);fill:#F9FAFC;" width="21.18" height="0.74"/>
			
				<rect x="9.27" y="13.41" style="clip-path:url(#SVGID_00000101069505857560068420000009571038253222537353_);fill:#FAFBFD;" width="21.18" height="0.74"/>
			
				<rect x="9.27" y="12.67" style="clip-path:url(#SVGID_00000101069505857560068420000009571038253222537353_);fill:#FBFCFD;" width="21.18" height="0.74"/>
			
				<rect x="9.27" y="11.93" style="clip-path:url(#SVGID_00000101069505857560068420000009571038253222537353_);fill:#FCFDFE;" width="21.18" height="0.74"/>
			
				<rect x="9.27" y="11.19" style="clip-path:url(#SVGID_00000101069505857560068420000009571038253222537353_);fill:#FDFDFE;" width="21.18" height="0.74"/>
			
				<rect x="9.27" y="10.45" style="clip-path:url(#SVGID_00000101069505857560068420000009571038253222537353_);fill:#FEFEFF;" width="21.18" height="0.74"/>
			
				<rect x="9.27" y="9.71" style="clip-path:url(#SVGID_00000101069505857560068420000009571038253222537353_);fill:#FFFFFF;" width="21.18" height="0.74"/>
			
				<rect x="9.27" y="1.55" style="clip-path:url(#SVGID_00000101069505857560068420000009571038253222537353_);fill:#FFFFFF;" width="21.18" height="8.17"/>
		</g>
	</g>
	<g id="path164">
		<g>
			<defs>
				<path id="SVGID_00000018211345829803830950000010908537872633369487_" d="M28.62,27.6c-0.01,0.03-0.02,0.05-0.03,0.08
					c-1.82,8.75-3.07,17.71-3.72,26.63c-0.13,1.86-0.15,3.75-0.16,5.59c-0.01,2.21-0.03,4.5-0.26,6.74
					c-0.58,5.59-1.82,10.66-3.65,15.04c-0.84,1.29-1.61,1.93-2.3,1.91c-0.62-0.02-1.23-0.59-1.84-1.68
					c0.05-18.95-1.87-35.92-5.88-51.84h0.01c-0.03-0.12-0.09-0.34-0.15-0.6c-0.01-0.01-0.01-0.03-0.02-0.05
					c-0.05-0.21-0.1-0.42-0.15-0.63h-0.01l-0.11-1.1c0.22-0.01,0.78,0.12,1.7,0.57c0.67,0.33,1.33,0.8,2.07,1.46
					c0.38,0.34,0.74,0.69,1.1,1.04c0.79,0.76,1.6,1.55,2.55,2.17c1.11,0.72,2.29,1.08,3.38,1.05c0.53-0.02,1.03-0.13,1.5-0.33
					c1.39-0.61,2.23-1.98,2.97-3.2l0.06-0.09C26.48,29.04,27.42,27.82,28.62,27.6"/>
			</defs>
			<clipPath id="SVGID_00000132066013604717865200000015532426280020243628_">
				<use xlink:href="#SVGID_00000018211345829803830950000010908537872633369487_"  style="overflow:visible;"/>
			</clipPath>
			
				<rect x="10.34" y="80.72" style="clip-path:url(#SVGID_00000132066013604717865200000015532426280020243628_);fill:#FBEAD5;" width="18.28" height="2.88"/>
			
				<rect x="10.34" y="73.59" style="clip-path:url(#SVGID_00000132066013604717865200000015532426280020243628_);fill:#FBEAD5;" width="18.28" height="7.13"/>
			
				<rect x="10.34" y="66.46" style="clip-path:url(#SVGID_00000132066013604717865200000015532426280020243628_);fill:#FBEBD6;" width="18.28" height="7.13"/>
			
				<rect x="10.34" y="59.32" style="clip-path:url(#SVGID_00000132066013604717865200000015532426280020243628_);fill:#FCECD8;" width="18.28" height="7.13"/>
			
				<rect x="10.34" y="52.19" style="clip-path:url(#SVGID_00000132066013604717865200000015532426280020243628_);fill:#FCEDD9;" width="18.28" height="7.13"/>
			
				<rect x="10.34" y="51.95" style="clip-path:url(#SVGID_00000132066013604717865200000015532426280020243628_);fill:#FCEDD9;" width="18.28" height="0.24"/>
			
				<rect x="10.34" y="51.7" style="clip-path:url(#SVGID_00000132066013604717865200000015532426280020243628_);fill:#FCECD8;" width="18.28" height="0.24"/>
			
				<rect x="10.34" y="51.46" style="clip-path:url(#SVGID_00000132066013604717865200000015532426280020243628_);fill:#FBEBD7;" width="18.28" height="0.24"/>
			
				<rect x="10.34" y="51.22" style="clip-path:url(#SVGID_00000132066013604717865200000015532426280020243628_);fill:#FBEAD6;" width="18.28" height="0.24"/>
			
				<rect x="10.34" y="50.97" style="clip-path:url(#SVGID_00000132066013604717865200000015532426280020243628_);fill:#FBEAD5;" width="18.28" height="0.24"/>
			
				<rect x="10.34" y="50.73" style="clip-path:url(#SVGID_00000132066013604717865200000015532426280020243628_);fill:#FBE9D4;" width="18.28" height="0.24"/>
			
				<rect x="10.34" y="50.49" style="clip-path:url(#SVGID_00000132066013604717865200000015532426280020243628_);fill:#FAE8D3;" width="18.28" height="0.24"/>
			
				<rect x="10.34" y="50.24" style="clip-path:url(#SVGID_00000132066013604717865200000015532426280020243628_);fill:#FAE7D2;" width="18.28" height="0.24"/>
			
				<rect x="10.34" y="50" style="clip-path:url(#SVGID_00000132066013604717865200000015532426280020243628_);fill:#FAE6D1;" width="18.28" height="0.24"/>
			
				<rect x="10.34" y="49.76" style="clip-path:url(#SVGID_00000132066013604717865200000015532426280020243628_);fill:#FAE5D0;" width="18.28" height="0.24"/>
			
				<rect x="10.34" y="49.51" style="clip-path:url(#SVGID_00000132066013604717865200000015532426280020243628_);fill:#F9E5CF;" width="18.28" height="0.24"/>
			
				<rect x="10.34" y="49.27" style="clip-path:url(#SVGID_00000132066013604717865200000015532426280020243628_);fill:#F9E4CE;" width="18.28" height="0.24"/>
			
				<rect x="10.34" y="49.03" style="clip-path:url(#SVGID_00000132066013604717865200000015532426280020243628_);fill:#F9E3CD;" width="18.28" height="0.24"/>
			
				<rect x="10.34" y="48.78" style="clip-path:url(#SVGID_00000132066013604717865200000015532426280020243628_);fill:#F9E2CC;" width="18.28" height="0.24"/>
			
				<rect x="10.34" y="48.54" style="clip-path:url(#SVGID_00000132066013604717865200000015532426280020243628_);fill:#F8E1CB;" width="18.28" height="0.24"/>
			
				<rect x="10.34" y="48.3" style="clip-path:url(#SVGID_00000132066013604717865200000015532426280020243628_);fill:#F8E0CA;" width="18.28" height="0.24"/>
			
				<rect x="10.34" y="48.05" style="clip-path:url(#SVGID_00000132066013604717865200000015532426280020243628_);fill:#F8DFC9;" width="18.28" height="0.24"/>
			
				<rect x="10.34" y="47.81" style="clip-path:url(#SVGID_00000132066013604717865200000015532426280020243628_);fill:#F8DFC8;" width="18.28" height="0.24"/>
			
				<rect x="10.34" y="47.57" style="clip-path:url(#SVGID_00000132066013604717865200000015532426280020243628_);fill:#F7DEC7;" width="18.28" height="0.24"/>
			
				<rect x="10.34" y="47.32" style="clip-path:url(#SVGID_00000132066013604717865200000015532426280020243628_);fill:#F7DDC6;" width="18.28" height="0.24"/>
			
				<rect x="10.34" y="47.08" style="clip-path:url(#SVGID_00000132066013604717865200000015532426280020243628_);fill:#F7DCC5;" width="18.28" height="0.24"/>
			
				<rect x="10.34" y="46.83" style="clip-path:url(#SVGID_00000132066013604717865200000015532426280020243628_);fill:#F7DBC4;" width="18.28" height="0.24"/>
			
				<rect x="10.34" y="46.59" style="clip-path:url(#SVGID_00000132066013604717865200000015532426280020243628_);fill:#F6DAC3;" width="18.28" height="0.24"/>
			
				<rect x="10.34" y="46.35" style="clip-path:url(#SVGID_00000132066013604717865200000015532426280020243628_);fill:#F6D9C2;" width="18.28" height="0.24"/>
			
				<rect x="10.34" y="46.1" style="clip-path:url(#SVGID_00000132066013604717865200000015532426280020243628_);fill:#F6D9C1;" width="18.28" height="0.24"/>
			
				<rect x="10.34" y="45.86" style="clip-path:url(#SVGID_00000132066013604717865200000015532426280020243628_);fill:#F6D8C0;" width="18.28" height="0.24"/>
			
				<rect x="10.34" y="45.62" style="clip-path:url(#SVGID_00000132066013604717865200000015532426280020243628_);fill:#F5D7BF;" width="18.28" height="0.24"/>
			
				<rect x="10.34" y="45.37" style="clip-path:url(#SVGID_00000132066013604717865200000015532426280020243628_);fill:#F5D6BE;" width="18.28" height="0.24"/>
			
				<rect x="10.34" y="45.13" style="clip-path:url(#SVGID_00000132066013604717865200000015532426280020243628_);fill:#F5D5BD;" width="18.28" height="0.24"/>
			
				<rect x="10.34" y="44.89" style="clip-path:url(#SVGID_00000132066013604717865200000015532426280020243628_);fill:#F4D4BC;" width="18.28" height="0.24"/>
			
				<rect x="10.34" y="44.64" style="clip-path:url(#SVGID_00000132066013604717865200000015532426280020243628_);fill:#F4D4BB;" width="18.28" height="0.24"/>
			
				<rect x="10.34" y="44.4" style="clip-path:url(#SVGID_00000132066013604717865200000015532426280020243628_);fill:#F4D3BA;" width="18.28" height="0.24"/>
			
				<rect x="10.34" y="44.16" style="clip-path:url(#SVGID_00000132066013604717865200000015532426280020243628_);fill:#F4D2B9;" width="18.28" height="0.24"/>
			
				<rect x="10.34" y="43.91" style="clip-path:url(#SVGID_00000132066013604717865200000015532426280020243628_);fill:#F3D1B8;" width="18.28" height="0.24"/>
			
				<rect x="10.34" y="43.67" style="clip-path:url(#SVGID_00000132066013604717865200000015532426280020243628_);fill:#F3D0B7;" width="18.28" height="0.24"/>
			
				<rect x="10.34" y="43.43" style="clip-path:url(#SVGID_00000132066013604717865200000015532426280020243628_);fill:#F3CFB6;" width="18.28" height="0.24"/>
			
				<rect x="10.34" y="43.18" style="clip-path:url(#SVGID_00000132066013604717865200000015532426280020243628_);fill:#F3CEB5;" width="18.28" height="0.24"/>
			
				<rect x="10.34" y="42.94" style="clip-path:url(#SVGID_00000132066013604717865200000015532426280020243628_);fill:#F2CEB4;" width="18.28" height="0.24"/>
			
				<rect x="10.34" y="42.7" style="clip-path:url(#SVGID_00000132066013604717865200000015532426280020243628_);fill:#F2CDB3;" width="18.28" height="0.24"/>
			
				<rect x="10.34" y="42.45" style="clip-path:url(#SVGID_00000132066013604717865200000015532426280020243628_);fill:#F2CCB2;" width="18.28" height="0.24"/>
			
				<rect x="10.34" y="42.21" style="clip-path:url(#SVGID_00000132066013604717865200000015532426280020243628_);fill:#F2CBB1;" width="18.28" height="0.24"/>
			
				<rect x="10.34" y="41.97" style="clip-path:url(#SVGID_00000132066013604717865200000015532426280020243628_);fill:#F1CAB0;" width="18.28" height="0.24"/>
			
				<rect x="10.34" y="41.72" style="clip-path:url(#SVGID_00000132066013604717865200000015532426280020243628_);fill:#F1C9AF;" width="18.28" height="0.24"/>
			
				<rect x="10.34" y="41.48" style="clip-path:url(#SVGID_00000132066013604717865200000015532426280020243628_);fill:#F1C8AE;" width="18.28" height="0.24"/>
			
				<rect x="10.34" y="41.24" style="clip-path:url(#SVGID_00000132066013604717865200000015532426280020243628_);fill:#F1C8AD;" width="18.28" height="0.24"/>
			
				<rect x="10.34" y="40.99" style="clip-path:url(#SVGID_00000132066013604717865200000015532426280020243628_);fill:#F0C7AC;" width="18.28" height="0.24"/>
			
				<rect x="10.34" y="40.75" style="clip-path:url(#SVGID_00000132066013604717865200000015532426280020243628_);fill:#F0C6AB;" width="18.28" height="0.24"/>
			
				<rect x="10.34" y="40.51" style="clip-path:url(#SVGID_00000132066013604717865200000015532426280020243628_);fill:#F0C5AA;" width="18.28" height="0.24"/>
			
				<rect x="10.34" y="40.26" style="clip-path:url(#SVGID_00000132066013604717865200000015532426280020243628_);fill:#F0C4A9;" width="18.28" height="0.24"/>
			
				<rect x="10.34" y="40.02" style="clip-path:url(#SVGID_00000132066013604717865200000015532426280020243628_);fill:#EFC3A8;" width="18.28" height="0.24"/>
			
				<rect x="10.34" y="39.78" style="clip-path:url(#SVGID_00000132066013604717865200000015532426280020243628_);fill:#EFC3A7;" width="18.28" height="0.24"/>
			
				<rect x="10.34" y="39.53" style="clip-path:url(#SVGID_00000132066013604717865200000015532426280020243628_);fill:#EFC2A5;" width="18.28" height="0.24"/>
			
				<rect x="10.34" y="39.29" style="clip-path:url(#SVGID_00000132066013604717865200000015532426280020243628_);fill:#EEC1A4;" width="18.28" height="0.24"/>
			
				<rect x="10.34" y="39.04" style="clip-path:url(#SVGID_00000132066013604717865200000015532426280020243628_);fill:#EEC0A3;" width="18.28" height="0.24"/>
			
				<rect x="10.34" y="38.8" style="clip-path:url(#SVGID_00000132066013604717865200000015532426280020243628_);fill:#EEBFA2;" width="18.28" height="0.24"/>
			
				<rect x="10.34" y="38.56" style="clip-path:url(#SVGID_00000132066013604717865200000015532426280020243628_);fill:#EEBEA1;" width="18.28" height="0.24"/>
			
				<rect x="10.34" y="38.31" style="clip-path:url(#SVGID_00000132066013604717865200000015532426280020243628_);fill:#EDBDA0;" width="18.28" height="0.24"/>
			
				<rect x="10.34" y="38.07" style="clip-path:url(#SVGID_00000132066013604717865200000015532426280020243628_);fill:#EDBD9F;" width="18.28" height="0.24"/>
			
				<rect x="10.34" y="37.83" style="clip-path:url(#SVGID_00000132066013604717865200000015532426280020243628_);fill:#EDBC9E;" width="18.28" height="0.24"/>
			
				<rect x="10.34" y="37.58" style="clip-path:url(#SVGID_00000132066013604717865200000015532426280020243628_);fill:#EDBB9D;" width="18.28" height="0.24"/>
			
				<rect x="10.34" y="37.34" style="clip-path:url(#SVGID_00000132066013604717865200000015532426280020243628_);fill:#ECBA9C;" width="18.28" height="0.24"/>
			
				<rect x="10.34" y="37.1" style="clip-path:url(#SVGID_00000132066013604717865200000015532426280020243628_);fill:#ECB99B;" width="18.28" height="0.24"/>
			
				<rect x="10.34" y="36.85" style="clip-path:url(#SVGID_00000132066013604717865200000015532426280020243628_);fill:#ECB89A;" width="18.28" height="0.24"/>
			
				<rect x="10.34" y="36.61" style="clip-path:url(#SVGID_00000132066013604717865200000015532426280020243628_);fill:#ECB799;" width="18.28" height="0.24"/>
			
				<rect x="10.34" y="36.37" style="clip-path:url(#SVGID_00000132066013604717865200000015532426280020243628_);fill:#EBB798;" width="18.28" height="0.24"/>
			
				<rect x="10.34" y="36.12" style="clip-path:url(#SVGID_00000132066013604717865200000015532426280020243628_);fill:#EBB697;" width="18.28" height="0.24"/>
			
				<rect x="10.34" y="35.88" style="clip-path:url(#SVGID_00000132066013604717865200000015532426280020243628_);fill:#EBB596;" width="18.28" height="0.24"/>
			
				<rect x="10.34" y="35.64" style="clip-path:url(#SVGID_00000132066013604717865200000015532426280020243628_);fill:#EBB495;" width="18.28" height="0.24"/>
			
				<rect x="10.34" y="35.39" style="clip-path:url(#SVGID_00000132066013604717865200000015532426280020243628_);fill:#EAB394;" width="18.28" height="0.24"/>
			
				<rect x="10.34" y="35.15" style="clip-path:url(#SVGID_00000132066013604717865200000015532426280020243628_);fill:#EAB293;" width="18.28" height="0.24"/>
			
				<rect x="10.34" y="34.91" style="clip-path:url(#SVGID_00000132066013604717865200000015532426280020243628_);fill:#EAB292;" width="18.28" height="0.24"/>
			
				<rect x="10.34" y="34.66" style="clip-path:url(#SVGID_00000132066013604717865200000015532426280020243628_);fill:#EAB191;" width="18.28" height="0.24"/>
			
				<rect x="10.34" y="34.42" style="clip-path:url(#SVGID_00000132066013604717865200000015532426280020243628_);fill:#E9B090;" width="18.28" height="0.24"/>
			
				<rect x="10.34" y="34.18" style="clip-path:url(#SVGID_00000132066013604717865200000015532426280020243628_);fill:#E9AF8F;" width="18.28" height="0.24"/>
			
				<rect x="10.34" y="33.93" style="clip-path:url(#SVGID_00000132066013604717865200000015532426280020243628_);fill:#E9AE8E;" width="18.28" height="0.24"/>
			
				<rect x="10.34" y="33.69" style="clip-path:url(#SVGID_00000132066013604717865200000015532426280020243628_);fill:#E9AD8D;" width="18.28" height="0.24"/>
			
				<rect x="10.34" y="33.45" style="clip-path:url(#SVGID_00000132066013604717865200000015532426280020243628_);fill:#E8AC8C;" width="18.28" height="0.24"/>
			
				<rect x="10.34" y="33.2" style="clip-path:url(#SVGID_00000132066013604717865200000015532426280020243628_);fill:#E8AC8B;" width="18.28" height="0.24"/>
			
				<rect x="10.34" y="32.96" style="clip-path:url(#SVGID_00000132066013604717865200000015532426280020243628_);fill:#E8AB8A;" width="18.28" height="0.24"/>
			
				<rect x="10.34" y="32.72" style="clip-path:url(#SVGID_00000132066013604717865200000015532426280020243628_);fill:#E7AA89;" width="18.28" height="0.24"/>
			
				<rect x="10.34" y="32.47" style="clip-path:url(#SVGID_00000132066013604717865200000015532426280020243628_);fill:#E7A988;" width="18.28" height="0.24"/>
			
				<rect x="10.34" y="32.23" style="clip-path:url(#SVGID_00000132066013604717865200000015532426280020243628_);fill:#E7A887;" width="18.28" height="0.24"/>
			
				<rect x="10.34" y="31.99" style="clip-path:url(#SVGID_00000132066013604717865200000015532426280020243628_);fill:#E7A786;" width="18.28" height="0.24"/>
			
				<rect x="10.34" y="31.74" style="clip-path:url(#SVGID_00000132066013604717865200000015532426280020243628_);fill:#E6A685;" width="18.28" height="0.24"/>
			
				<rect x="10.34" y="31.5" style="clip-path:url(#SVGID_00000132066013604717865200000015532426280020243628_);fill:#E6A684;" width="18.28" height="0.24"/>
			
				<rect x="10.34" y="31.25" style="clip-path:url(#SVGID_00000132066013604717865200000015532426280020243628_);fill:#E6A583;" width="18.28" height="0.24"/>
			
				<rect x="10.34" y="31.01" style="clip-path:url(#SVGID_00000132066013604717865200000015532426280020243628_);fill:#E6A482;" width="18.28" height="0.24"/>
			
				<rect x="10.34" y="30.77" style="clip-path:url(#SVGID_00000132066013604717865200000015532426280020243628_);fill:#E5A381;" width="18.28" height="0.24"/>
			
				<rect x="10.34" y="30.52" style="clip-path:url(#SVGID_00000132066013604717865200000015532426280020243628_);fill:#E5A280;" width="18.28" height="0.24"/>
			
				<rect x="10.34" y="30.28" style="clip-path:url(#SVGID_00000132066013604717865200000015532426280020243628_);fill:#E5A17F;" width="18.28" height="0.24"/>
			
				<rect x="10.34" y="30.04" style="clip-path:url(#SVGID_00000132066013604717865200000015532426280020243628_);fill:#E5A17E;" width="18.28" height="0.24"/>
			
				<rect x="10.34" y="29.79" style="clip-path:url(#SVGID_00000132066013604717865200000015532426280020243628_);fill:#E4A07D;" width="18.28" height="0.24"/>
			
				<rect x="10.34" y="29.55" style="clip-path:url(#SVGID_00000132066013604717865200000015532426280020243628_);fill:#E49F7C;" width="18.28" height="0.24"/>
			
				<rect x="10.34" y="29.31" style="clip-path:url(#SVGID_00000132066013604717865200000015532426280020243628_);fill:#E49E7B;" width="18.28" height="0.24"/>
			
				<rect x="10.34" y="29.06" style="clip-path:url(#SVGID_00000132066013604717865200000015532426280020243628_);fill:#E49D7A;" width="18.28" height="0.24"/>
			
				<rect x="10.34" y="28.82" style="clip-path:url(#SVGID_00000132066013604717865200000015532426280020243628_);fill:#E39C79;" width="18.28" height="0.24"/>
			
				<rect x="10.34" y="28.58" style="clip-path:url(#SVGID_00000132066013604717865200000015532426280020243628_);fill:#E39B78;" width="18.28" height="0.24"/>
			
				<rect x="10.34" y="28.33" style="clip-path:url(#SVGID_00000132066013604717865200000015532426280020243628_);fill:#E39B77;" width="18.28" height="0.24"/>
			
				<rect x="10.34" y="28.09" style="clip-path:url(#SVGID_00000132066013604717865200000015532426280020243628_);fill:#E39A76;" width="18.28" height="0.24"/>
			
				<rect x="10.34" y="27.85" style="clip-path:url(#SVGID_00000132066013604717865200000015532426280020243628_);fill:#E29975;" width="18.28" height="0.24"/>
			
				<rect x="10.34" y="27.6" style="clip-path:url(#SVGID_00000132066013604717865200000015532426280020243628_);fill:#E29874;" width="18.28" height="0.24"/>
			<path style="clip-path:url(#SVGID_00000132066013604717865200000015532426280020243628_);fill:#E29874;" d="M28.62,27.6H10.34
				H28.62z"/>
		</g>
	</g>
</g>
</svg>
