<?xml version="1.0" encoding="utf-8"?>
<!-- Generator: Adobe Illustrator 27.0.1, SVG Export Plug-In . SVG Version: 6.00 Build 0)  -->
<svg version="1.1" id="Layer_1" xmlns="http://www.w3.org/2000/svg" xmlns:xlink="http://www.w3.org/1999/xlink" x="0px" y="0px"
	 viewBox="0 0 40 100" style="enable-background:new 0 0 40 100;" xml:space="preserve">
<style type="text/css">
	.st0{fill:#131212;}
	.st1{clip-path:url(#SVGID_00000134968808030151948720000011899275496122916501_);fill:#ECF1F7;}
	.st2{clip-path:url(#SVGID_00000134968808030151948720000011899275496122916501_);fill:#EDF2F7;}
	.st3{clip-path:url(#SVGID_00000134968808030151948720000011899275496122916501_);fill:#EEF3F8;}
	.st4{clip-path:url(#SVGID_00000134968808030151948720000011899275496122916501_);fill:#EFF3F8;}
	.st5{clip-path:url(#SVGID_00000134968808030151948720000011899275496122916501_);fill:#F0F4F9;}
	.st6{clip-path:url(#SVGID_00000134968808030151948720000011899275496122916501_);fill:#F1F5F9;}
	.st7{clip-path:url(#SVGID_00000134968808030151948720000011899275496122916501_);fill:#F2F6FA;}
	.st8{clip-path:url(#SVGID_00000134968808030151948720000011899275496122916501_);fill:#F3F6FA;}
	.st9{clip-path:url(#SVGID_00000134968808030151948720000011899275496122916501_);fill:#F4F7FB;}
	.st10{clip-path:url(#SVGID_00000134968808030151948720000011899275496122916501_);fill:#F6F8FB;}
	.st11{clip-path:url(#SVGID_00000134968808030151948720000011899275496122916501_);fill:#F7F9FB;}
	.st12{clip-path:url(#SVGID_00000134968808030151948720000011899275496122916501_);fill:#F8FAFC;}
	.st13{clip-path:url(#SVGID_00000134968808030151948720000011899275496122916501_);fill:#F9FAFC;}
	.st14{clip-path:url(#SVGID_00000134968808030151948720000011899275496122916501_);fill:#FAFBFD;}
	.st15{clip-path:url(#SVGID_00000134968808030151948720000011899275496122916501_);fill:#FBFCFD;}
	.st16{clip-path:url(#SVGID_00000134968808030151948720000011899275496122916501_);fill:#FCFDFE;}
	.st17{clip-path:url(#SVGID_00000134968808030151948720000011899275496122916501_);fill:#FDFDFE;}
	.st18{clip-path:url(#SVGID_00000134968808030151948720000011899275496122916501_);fill:#FEFEFF;}
	.st19{clip-path:url(#SVGID_00000134968808030151948720000011899275496122916501_);fill:#FFFFFF;}
	.st20{clip-path:url(#SVGID_00000154422860327421563370000006521866479109116058_);fill:#FBEAD5;}
	.st21{clip-path:url(#SVGID_00000154422860327421563370000006521866479109116058_);fill:#FBEBD6;}
	.st22{clip-path:url(#SVGID_00000154422860327421563370000006521866479109116058_);fill:#FCECD8;}
	.st23{clip-path:url(#SVGID_00000154422860327421563370000006521866479109116058_);fill:#FCEDD9;}
	.st24{clip-path:url(#SVGID_00000154422860327421563370000006521866479109116058_);fill:#FBEBD7;}
	.st25{clip-path:url(#SVGID_00000154422860327421563370000006521866479109116058_);fill:#FBEAD6;}
	.st26{clip-path:url(#SVGID_00000154422860327421563370000006521866479109116058_);fill:#FBE9D4;}
	.st27{clip-path:url(#SVGID_00000154422860327421563370000006521866479109116058_);fill:#FAE8D3;}
	.st28{clip-path:url(#SVGID_00000154422860327421563370000006521866479109116058_);fill:#FAE7D2;}
	.st29{clip-path:url(#SVGID_00000154422860327421563370000006521866479109116058_);fill:#FAE6D1;}
	.st30{clip-path:url(#SVGID_00000154422860327421563370000006521866479109116058_);fill:#FAE5D0;}
	.st31{clip-path:url(#SVGID_00000154422860327421563370000006521866479109116058_);fill:#F9E5CF;}
	.st32{clip-path:url(#SVGID_00000154422860327421563370000006521866479109116058_);fill:#F9E4CE;}
	.st33{clip-path:url(#SVGID_00000154422860327421563370000006521866479109116058_);fill:#F9E3CD;}
	.st34{clip-path:url(#SVGID_00000154422860327421563370000006521866479109116058_);fill:#F9E2CC;}
	.st35{clip-path:url(#SVGID_00000154422860327421563370000006521866479109116058_);fill:#F8E1CB;}
	.st36{clip-path:url(#SVGID_00000154422860327421563370000006521866479109116058_);fill:#F8E0CA;}
	.st37{clip-path:url(#SVGID_00000154422860327421563370000006521866479109116058_);fill:#F8DFC9;}
	.st38{clip-path:url(#SVGID_00000154422860327421563370000006521866479109116058_);fill:#F8DFC8;}
	.st39{clip-path:url(#SVGID_00000154422860327421563370000006521866479109116058_);fill:#F7DEC7;}
	.st40{clip-path:url(#SVGID_00000154422860327421563370000006521866479109116058_);fill:#F7DDC6;}
	.st41{clip-path:url(#SVGID_00000154422860327421563370000006521866479109116058_);fill:#F7DCC5;}
	.st42{clip-path:url(#SVGID_00000154422860327421563370000006521866479109116058_);fill:#F7DBC4;}
	.st43{clip-path:url(#SVGID_00000154422860327421563370000006521866479109116058_);fill:#F6DAC3;}
	.st44{clip-path:url(#SVGID_00000154422860327421563370000006521866479109116058_);fill:#F6D9C2;}
	.st45{clip-path:url(#SVGID_00000154422860327421563370000006521866479109116058_);fill:#F6D9C1;}
	.st46{clip-path:url(#SVGID_00000154422860327421563370000006521866479109116058_);fill:#F6D8C0;}
	.st47{clip-path:url(#SVGID_00000154422860327421563370000006521866479109116058_);fill:#F5D7BF;}
	.st48{clip-path:url(#SVGID_00000154422860327421563370000006521866479109116058_);fill:#F5D6BE;}
	.st49{clip-path:url(#SVGID_00000154422860327421563370000006521866479109116058_);fill:#F5D5BD;}
	.st50{clip-path:url(#SVGID_00000154422860327421563370000006521866479109116058_);fill:#F4D4BC;}
	.st51{clip-path:url(#SVGID_00000154422860327421563370000006521866479109116058_);fill:#F4D4BB;}
	.st52{clip-path:url(#SVGID_00000154422860327421563370000006521866479109116058_);fill:#F4D3BA;}
	.st53{clip-path:url(#SVGID_00000154422860327421563370000006521866479109116058_);fill:#F4D2B9;}
	.st54{clip-path:url(#SVGID_00000154422860327421563370000006521866479109116058_);fill:#F3D1B8;}
	.st55{clip-path:url(#SVGID_00000154422860327421563370000006521866479109116058_);fill:#F3D0B7;}
	.st56{clip-path:url(#SVGID_00000154422860327421563370000006521866479109116058_);fill:#F3CFB6;}
	.st57{clip-path:url(#SVGID_00000154422860327421563370000006521866479109116058_);fill:#F3CEB5;}
	.st58{clip-path:url(#SVGID_00000154422860327421563370000006521866479109116058_);fill:#F2CEB4;}
	.st59{clip-path:url(#SVGID_00000154422860327421563370000006521866479109116058_);fill:#F2CDB3;}
	.st60{clip-path:url(#SVGID_00000154422860327421563370000006521866479109116058_);fill:#F2CCB2;}
	.st61{clip-path:url(#SVGID_00000154422860327421563370000006521866479109116058_);fill:#F2CBB1;}
	.st62{clip-path:url(#SVGID_00000154422860327421563370000006521866479109116058_);fill:#F1CAB0;}
	.st63{clip-path:url(#SVGID_00000154422860327421563370000006521866479109116058_);fill:#F1C9AF;}
	.st64{clip-path:url(#SVGID_00000154422860327421563370000006521866479109116058_);fill:#F1C8AE;}
	.st65{clip-path:url(#SVGID_00000154422860327421563370000006521866479109116058_);fill:#F1C8AD;}
	.st66{clip-path:url(#SVGID_00000154422860327421563370000006521866479109116058_);fill:#F0C7AC;}
	.st67{clip-path:url(#SVGID_00000154422860327421563370000006521866479109116058_);fill:#F0C6AB;}
	.st68{clip-path:url(#SVGID_00000154422860327421563370000006521866479109116058_);fill:#F0C5AA;}
	.st69{clip-path:url(#SVGID_00000154422860327421563370000006521866479109116058_);fill:#F0C4A9;}
	.st70{clip-path:url(#SVGID_00000154422860327421563370000006521866479109116058_);fill:#EFC3A8;}
	.st71{clip-path:url(#SVGID_00000154422860327421563370000006521866479109116058_);fill:#EFC3A7;}
	.st72{clip-path:url(#SVGID_00000154422860327421563370000006521866479109116058_);fill:#EFC2A5;}
	.st73{clip-path:url(#SVGID_00000154422860327421563370000006521866479109116058_);fill:#EEC1A4;}
	.st74{clip-path:url(#SVGID_00000154422860327421563370000006521866479109116058_);fill:#EEC0A3;}
	.st75{clip-path:url(#SVGID_00000154422860327421563370000006521866479109116058_);fill:#EEBFA2;}
	.st76{clip-path:url(#SVGID_00000154422860327421563370000006521866479109116058_);fill:#EEBEA1;}
	.st77{clip-path:url(#SVGID_00000154422860327421563370000006521866479109116058_);fill:#EDBDA0;}
	.st78{clip-path:url(#SVGID_00000154422860327421563370000006521866479109116058_);fill:#EDBD9F;}
	.st79{clip-path:url(#SVGID_00000154422860327421563370000006521866479109116058_);fill:#EDBC9E;}
	.st80{clip-path:url(#SVGID_00000154422860327421563370000006521866479109116058_);fill:#EDBB9D;}
	.st81{clip-path:url(#SVGID_00000154422860327421563370000006521866479109116058_);fill:#ECBA9C;}
	.st82{clip-path:url(#SVGID_00000154422860327421563370000006521866479109116058_);fill:#ECB99B;}
	.st83{clip-path:url(#SVGID_00000154422860327421563370000006521866479109116058_);fill:#ECB89A;}
	.st84{clip-path:url(#SVGID_00000154422860327421563370000006521866479109116058_);fill:#ECB799;}
	.st85{clip-path:url(#SVGID_00000154422860327421563370000006521866479109116058_);fill:#EBB798;}
	.st86{clip-path:url(#SVGID_00000154422860327421563370000006521866479109116058_);fill:#EBB697;}
	.st87{clip-path:url(#SVGID_00000154422860327421563370000006521866479109116058_);fill:#EBB596;}
	.st88{clip-path:url(#SVGID_00000154422860327421563370000006521866479109116058_);fill:#EBB495;}
	.st89{clip-path:url(#SVGID_00000154422860327421563370000006521866479109116058_);fill:#EAB394;}
	.st90{clip-path:url(#SVGID_00000154422860327421563370000006521866479109116058_);fill:#EAB293;}
	.st91{clip-path:url(#SVGID_00000154422860327421563370000006521866479109116058_);fill:#EAB292;}
	.st92{clip-path:url(#SVGID_00000154422860327421563370000006521866479109116058_);fill:#EAB191;}
	.st93{clip-path:url(#SVGID_00000154422860327421563370000006521866479109116058_);fill:#E9B090;}
	.st94{clip-path:url(#SVGID_00000154422860327421563370000006521866479109116058_);fill:#E9AF8F;}
	.st95{clip-path:url(#SVGID_00000154422860327421563370000006521866479109116058_);fill:#E9AE8E;}
	.st96{clip-path:url(#SVGID_00000154422860327421563370000006521866479109116058_);fill:#E9AD8D;}
	.st97{clip-path:url(#SVGID_00000154422860327421563370000006521866479109116058_);fill:#E8AC8C;}
	.st98{clip-path:url(#SVGID_00000154422860327421563370000006521866479109116058_);fill:#E8AC8B;}
	.st99{clip-path:url(#SVGID_00000154422860327421563370000006521866479109116058_);fill:#E8AB8A;}
	.st100{clip-path:url(#SVGID_00000154422860327421563370000006521866479109116058_);fill:#E7AA89;}
	.st101{clip-path:url(#SVGID_00000154422860327421563370000006521866479109116058_);fill:#E7A988;}
	.st102{clip-path:url(#SVGID_00000154422860327421563370000006521866479109116058_);fill:#E7A887;}
	.st103{clip-path:url(#SVGID_00000154422860327421563370000006521866479109116058_);fill:#E7A786;}
	.st104{clip-path:url(#SVGID_00000154422860327421563370000006521866479109116058_);fill:#E6A685;}
	.st105{clip-path:url(#SVGID_00000154422860327421563370000006521866479109116058_);fill:#E6A684;}
	.st106{clip-path:url(#SVGID_00000154422860327421563370000006521866479109116058_);fill:#E6A583;}
	.st107{clip-path:url(#SVGID_00000154422860327421563370000006521866479109116058_);fill:#E6A482;}
	.st108{clip-path:url(#SVGID_00000154422860327421563370000006521866479109116058_);fill:#E5A381;}
	.st109{clip-path:url(#SVGID_00000154422860327421563370000006521866479109116058_);fill:#E5A280;}
	.st110{clip-path:url(#SVGID_00000154422860327421563370000006521866479109116058_);fill:#E5A17F;}
	.st111{clip-path:url(#SVGID_00000154422860327421563370000006521866479109116058_);fill:#E5A17E;}
	.st112{clip-path:url(#SVGID_00000154422860327421563370000006521866479109116058_);fill:#E4A07D;}
	.st113{clip-path:url(#SVGID_00000154422860327421563370000006521866479109116058_);fill:#E49F7C;}
	.st114{clip-path:url(#SVGID_00000154422860327421563370000006521866479109116058_);fill:#E49E7B;}
	.st115{clip-path:url(#SVGID_00000154422860327421563370000006521866479109116058_);fill:#E49D7A;}
	.st116{clip-path:url(#SVGID_00000154422860327421563370000006521866479109116058_);fill:#E39C79;}
	.st117{clip-path:url(#SVGID_00000154422860327421563370000006521866479109116058_);fill:#E39B78;}
	.st118{clip-path:url(#SVGID_00000154422860327421563370000006521866479109116058_);fill:#E39B77;}
	.st119{clip-path:url(#SVGID_00000154422860327421563370000006521866479109116058_);fill:#E39A76;}
	.st120{clip-path:url(#SVGID_00000154422860327421563370000006521866479109116058_);fill:#E29975;}
	.st121{clip-path:url(#SVGID_00000154422860327421563370000006521866479109116058_);fill:#E29874;}
</style>
<g>
	<g id="path180_00000119828074191156926760000008933551924208985001_">
		<path class="st0" d="M29.05,35.31c0.3-2.32,0.82-4.57,1.29-6.49c-4.54,6.22-8.52,9.26-12.14,9.26c-0.19,0-0.39-0.01-0.59-0.03
			c-2.52-0.23-4.8-2.05-6.81-5.4c0.6,2.68,0.83,5.48,1.05,8.2c0.1,1.29,0.2,2.61,0.35,3.89c0.11,1.02,0.21,2.03,0.31,3.05
			c0.2,2.1,0.41,4.27,0.76,6.37c0.28,1.7,0.75,3.54,1.19,5.32c0.32,1.25,0.64,2.55,0.89,3.79c1.33,6.34,2.26,12.84,2.77,19.3
			c0.02,0.28,0.03,0.68,0.04,1.15c0.05,2.2,0.12,6.3,1.94,6.3c0.33,0,0.72-0.13,1.16-0.38c2.72-1.55,3.87-4.96,4.65-8.09
			c1.92-7.82,1.91-15.87,1.89-23.65c-0.01-4.18-0.02-8.5,0.26-12.76C28.27,42.08,28.59,38.86,29.05,35.31L29.05,35.31z M30.89,26.59
			c0.71-2.83,1.47-6.14,1.45-9.47c-0.02-2.91-0.62-5.47-1.79-7.6c-1.52-2.76-4.27-5.68-6.7-7.1C23,1.91,22.03,1.64,21.15,1.64
			c-0.51,0-1,0.09-1.44,0.27c-0.82,0.34-1.47,0.97-2.16,1.63c-0.17,0.16-0.34,0.32-0.51,0.48c-1.45,1.33-2.7,2.21-4.07,2.84
			c-0.18,0.09-0.37,0.17-0.56,0.26c-1.23,0.56-2.5,1.14-3.3,2.22c-0.79,1.07-1,2.5-1.15,3.87c-0.54,5.08-0.37,8.85,0.56,12.22
			c0.28,1.01,0.64,2.02,0.98,2.99c0.12,0.34,0.24,0.69,0.37,1.04h0.01c2.25,5.01,4.87,7.69,7.8,7.96
			c3.72,0.33,8.12-3.13,13.09-10.31c0.01-0.06,0.03-0.11,0.04-0.16L30.89,26.59z M32.99,17.12c0.02,3.4-0.75,6.76-1.47,9.63
			l-0.09,0.36c-0.15,0.58-0.29,1.16-0.43,1.73c-0.48,1.93-1,4.21-1.31,6.55c-0.46,3.54-0.78,6.74-0.99,9.8
			c-0.28,4.23-0.28,8.54-0.26,12.71c0.02,7.82,0.03,15.92-1.91,23.81c-0.8,3.26-2.02,6.83-4.95,8.5c-0.54,0.31-1.04,0.46-1.48,0.46
			c-2.45,0-2.53-4.34-2.59-6.93c-0.01-0.45-0.01-0.84-0.04-1.11c-0.5-6.43-1.42-12.89-2.75-19.21c-0.26-1.23-0.59-2.52-0.89-3.77
			c-0.45-1.79-0.91-3.64-1.2-5.37c-0.35-2.12-0.56-4.3-0.77-6.41c-0.1-1.02-0.19-2.03-0.31-3.04c-0.14-1.29-0.24-2.63-0.35-3.91
			c-0.25-3.2-0.51-6.5-1.4-9.55c-0.26-0.91-0.59-1.84-0.91-2.73c-0.35-0.98-0.72-2.01-1-3.04c-0.95-3.44-1.13-7.28-0.58-12.45
			c0.15-1.46,0.39-2.99,1.27-4.19c0.9-1.21,2.25-1.82,3.55-2.42c0.19-0.08,0.37-0.17,0.55-0.25c1.3-0.61,2.5-1.45,3.9-2.74
			c0.17-0.15,0.33-0.32,0.5-0.48c0.71-0.68,1.43-1.37,2.37-1.76c1.38-0.57,3.18-0.35,4.73,0.55c2.52,1.47,5.37,4.49,6.93,7.35
			C32.35,11.44,32.97,14.11,32.99,17.12"/>
	</g>
	<g id="path182_00000151516001491914853040000002952297593813922439_">
		<g>
			<defs>
				<path id="SVGID_1_" d="M32.35,17.12c0.02,3.33-0.74,6.64-1.45,9.47l-0.09,0.36c-0.01,0.05-0.03,0.1-0.04,0.16
					c-4.97,7.17-9.37,10.64-13.09,10.31c-2.93-0.27-5.55-2.95-7.8-7.96H9.87c-0.12-0.35-0.24-0.7-0.37-1.04
					c-0.35-0.97-0.71-1.98-0.98-2.99c-0.93-3.36-1.1-7.14-0.56-12.22c0.14-1.37,0.35-2.8,1.15-3.87c0.8-1.08,2.07-1.66,3.3-2.22
					c0.19-0.08,0.38-0.17,0.56-0.26c1.36-0.64,2.61-1.51,4.07-2.84c0.17-0.16,0.34-0.32,0.51-0.48c0.69-0.66,1.34-1.29,2.16-1.63
					c0.44-0.18,0.93-0.27,1.44-0.27c0.89,0,1.85,0.28,2.72,0.78c2.43,1.42,5.18,4.34,6.7,7.1C31.73,11.66,32.33,14.22,32.35,17.12"
					/>
			</defs>
			<clipPath id="SVGID_00000128475787038476895170000005328610045081025964_">
				<use xlink:href="#SVGID_1_"  style="overflow:visible;"/>
			</clipPath>
			
				<rect x="7.42" y="26.62" style="clip-path:url(#SVGID_00000128475787038476895170000005328610045081025964_);fill:#ECF1F7;" width="24.95" height="11.14"/>
			
				<rect x="7.42" y="25.79" style="clip-path:url(#SVGID_00000128475787038476895170000005328610045081025964_);fill:#ECF1F7;" width="24.95" height="0.84"/>
			
				<rect x="7.42" y="24.95" style="clip-path:url(#SVGID_00000128475787038476895170000005328610045081025964_);fill:#EDF2F7;" width="24.95" height="0.84"/>
			
				<rect x="7.42" y="24.11" style="clip-path:url(#SVGID_00000128475787038476895170000005328610045081025964_);fill:#EEF3F8;" width="24.95" height="0.84"/>
			
				<rect x="7.42" y="23.28" style="clip-path:url(#SVGID_00000128475787038476895170000005328610045081025964_);fill:#EFF3F8;" width="24.95" height="0.84"/>
			
				<rect x="7.42" y="22.44" style="clip-path:url(#SVGID_00000128475787038476895170000005328610045081025964_);fill:#F0F4F9;" width="24.95" height="0.84"/>
			
				<rect x="7.42" y="21.61" style="clip-path:url(#SVGID_00000128475787038476895170000005328610045081025964_);fill:#F1F5F9;" width="24.95" height="0.84"/>
			
				<rect x="7.42" y="20.77" style="clip-path:url(#SVGID_00000128475787038476895170000005328610045081025964_);fill:#F2F6FA;" width="24.95" height="0.84"/>
			
				<rect x="7.42" y="19.93" style="clip-path:url(#SVGID_00000128475787038476895170000005328610045081025964_);fill:#F3F6FA;" width="24.95" height="0.84"/>
			
				<rect x="7.42" y="19.1" style="clip-path:url(#SVGID_00000128475787038476895170000005328610045081025964_);fill:#F4F7FB;" width="24.95" height="0.84"/>
			
				<rect x="7.42" y="18.26" style="clip-path:url(#SVGID_00000128475787038476895170000005328610045081025964_);fill:#F6F8FB;" width="24.95" height="0.84"/>
			
				<rect x="7.42" y="17.43" style="clip-path:url(#SVGID_00000128475787038476895170000005328610045081025964_);fill:#F7F9FB;" width="24.95" height="0.84"/>
			
				<rect x="7.42" y="16.59" style="clip-path:url(#SVGID_00000128475787038476895170000005328610045081025964_);fill:#F8FAFC;" width="24.95" height="0.84"/>
			
				<rect x="7.42" y="15.76" style="clip-path:url(#SVGID_00000128475787038476895170000005328610045081025964_);fill:#F9FAFC;" width="24.95" height="0.84"/>
			
				<rect x="7.42" y="14.92" style="clip-path:url(#SVGID_00000128475787038476895170000005328610045081025964_);fill:#FAFBFD;" width="24.95" height="0.84"/>
			
				<rect x="7.42" y="14.08" style="clip-path:url(#SVGID_00000128475787038476895170000005328610045081025964_);fill:#FBFCFD;" width="24.95" height="0.84"/>
			
				<rect x="7.42" y="13.25" style="clip-path:url(#SVGID_00000128475787038476895170000005328610045081025964_);fill:#FCFDFE;" width="24.95" height="0.84"/>
			
				<rect x="7.42" y="12.41" style="clip-path:url(#SVGID_00000128475787038476895170000005328610045081025964_);fill:#FDFDFE;" width="24.95" height="0.84"/>
			
				<rect x="7.42" y="11.58" style="clip-path:url(#SVGID_00000128475787038476895170000005328610045081025964_);fill:#FEFEFF;" width="24.95" height="0.84"/>
			
				<rect x="7.42" y="10.74" style="clip-path:url(#SVGID_00000128475787038476895170000005328610045081025964_);fill:#FFFFFF;" width="24.95" height="0.84"/>
			
				<rect x="7.42" y="1.64" style="clip-path:url(#SVGID_00000128475787038476895170000005328610045081025964_);fill:#FFFFFF;" width="24.95" height="9.1"/>
		</g>
	</g>
	<g id="path184_00000011009436865092475220000006846569424758906268_">
		<g>
			<defs>
				<path id="SVGID_00000004517858674029812980000001049050881580794290_" d="M30.34,28.82c-0.47,1.92-0.98,4.17-1.29,6.49
					c-0.46,3.55-0.78,6.77-1,9.84c-0.28,4.26-0.28,8.58-0.26,12.76c0.02,7.78,0.03,15.83-1.89,23.65c-0.77,3.13-1.92,6.54-4.65,8.09
					c-0.44,0.25-0.83,0.38-1.16,0.38c-1.82,0-1.9-4.1-1.94-6.3c-0.01-0.47-0.02-0.87-0.04-1.15c-0.5-6.46-1.43-12.95-2.77-19.3
					c-0.26-1.24-0.58-2.53-0.89-3.79c-0.44-1.78-0.91-3.62-1.19-5.32c-0.35-2.1-0.56-4.27-0.76-6.37c-0.1-1.02-0.2-2.03-0.31-3.05
					c-0.15-1.28-0.25-2.61-0.35-3.89c-0.22-2.73-0.44-5.53-1.05-8.2c2.01,3.35,4.3,5.17,6.81,5.4c0.19,0.02,0.39,0.03,0.59,0.03
					C21.82,38.09,25.8,35.04,30.34,28.82"/>
			</defs>
			<clipPath id="SVGID_00000054958084834279758250000014189022223764726951_">
				<use xlink:href="#SVGID_00000004517858674029812980000001049050881580794290_"  style="overflow:visible;"/>
			</clipPath>
			
				<rect x="10.8" y="86.89" style="clip-path:url(#SVGID_00000054958084834279758250000014189022223764726951_);fill:#FBEAD5;" width="19.54" height="3.13"/>
			
				<rect x="10.8" y="79.1" style="clip-path:url(#SVGID_00000054958084834279758250000014189022223764726951_);fill:#FBEAD5;" width="19.54" height="7.8"/>
			
				<rect x="10.8" y="71.3" style="clip-path:url(#SVGID_00000054958084834279758250000014189022223764726951_);fill:#FBEBD6;" width="19.54" height="7.8"/>
			
				<rect x="10.8" y="63.5" style="clip-path:url(#SVGID_00000054958084834279758250000014189022223764726951_);fill:#FCECD8;" width="19.54" height="7.8"/>
			
				<rect x="10.8" y="55.7" style="clip-path:url(#SVGID_00000054958084834279758250000014189022223764726951_);fill:#FCEDD9;" width="19.54" height="7.8"/>
			
				<rect x="10.8" y="55.44" style="clip-path:url(#SVGID_00000054958084834279758250000014189022223764726951_);fill:#FCEDD9;" width="19.54" height="0.27"/>
			
				<rect x="10.8" y="55.17" style="clip-path:url(#SVGID_00000054958084834279758250000014189022223764726951_);fill:#FCECD8;" width="19.54" height="0.27"/>
			
				<rect x="10.8" y="54.9" style="clip-path:url(#SVGID_00000054958084834279758250000014189022223764726951_);fill:#FBEBD7;" width="19.54" height="0.27"/>
			
				<rect x="10.8" y="54.64" style="clip-path:url(#SVGID_00000054958084834279758250000014189022223764726951_);fill:#FBEAD6;" width="19.54" height="0.27"/>
			
				<rect x="10.8" y="54.37" style="clip-path:url(#SVGID_00000054958084834279758250000014189022223764726951_);fill:#FBEAD5;" width="19.54" height="0.27"/>
			
				<rect x="10.8" y="54.1" style="clip-path:url(#SVGID_00000054958084834279758250000014189022223764726951_);fill:#FBE9D4;" width="19.54" height="0.27"/>
			
				<rect x="10.8" y="53.84" style="clip-path:url(#SVGID_00000054958084834279758250000014189022223764726951_);fill:#FAE8D3;" width="19.54" height="0.27"/>
			
				<rect x="10.8" y="53.57" style="clip-path:url(#SVGID_00000054958084834279758250000014189022223764726951_);fill:#FAE7D2;" width="19.54" height="0.27"/>
			
				<rect x="10.8" y="53.31" style="clip-path:url(#SVGID_00000054958084834279758250000014189022223764726951_);fill:#FAE6D1;" width="19.54" height="0.27"/>
			
				<rect x="10.8" y="53.04" style="clip-path:url(#SVGID_00000054958084834279758250000014189022223764726951_);fill:#FAE5D0;" width="19.54" height="0.27"/>
			
				<rect x="10.8" y="52.77" style="clip-path:url(#SVGID_00000054958084834279758250000014189022223764726951_);fill:#F9E5CF;" width="19.54" height="0.27"/>
			
				<rect x="10.8" y="52.51" style="clip-path:url(#SVGID_00000054958084834279758250000014189022223764726951_);fill:#F9E4CE;" width="19.54" height="0.27"/>
			
				<rect x="10.8" y="52.24" style="clip-path:url(#SVGID_00000054958084834279758250000014189022223764726951_);fill:#F9E3CD;" width="19.54" height="0.27"/>
			
				<rect x="10.8" y="51.98" style="clip-path:url(#SVGID_00000054958084834279758250000014189022223764726951_);fill:#F9E2CC;" width="19.54" height="0.27"/>
			
				<rect x="10.8" y="51.71" style="clip-path:url(#SVGID_00000054958084834279758250000014189022223764726951_);fill:#F8E1CB;" width="19.54" height="0.27"/>
			
				<rect x="10.8" y="51.44" style="clip-path:url(#SVGID_00000054958084834279758250000014189022223764726951_);fill:#F8E0CA;" width="19.54" height="0.27"/>
			
				<rect x="10.8" y="51.18" style="clip-path:url(#SVGID_00000054958084834279758250000014189022223764726951_);fill:#F8DFC9;" width="19.54" height="0.27"/>
			
				<rect x="10.8" y="50.91" style="clip-path:url(#SVGID_00000054958084834279758250000014189022223764726951_);fill:#F8DFC8;" width="19.54" height="0.27"/>
			
				<rect x="10.8" y="50.64" style="clip-path:url(#SVGID_00000054958084834279758250000014189022223764726951_);fill:#F7DEC7;" width="19.54" height="0.27"/>
			
				<rect x="10.8" y="50.38" style="clip-path:url(#SVGID_00000054958084834279758250000014189022223764726951_);fill:#F7DDC6;" width="19.54" height="0.27"/>
			
				<rect x="10.8" y="50.11" style="clip-path:url(#SVGID_00000054958084834279758250000014189022223764726951_);fill:#F7DCC5;" width="19.54" height="0.27"/>
			
				<rect x="10.8" y="49.85" style="clip-path:url(#SVGID_00000054958084834279758250000014189022223764726951_);fill:#F7DBC4;" width="19.54" height="0.27"/>
			
				<rect x="10.8" y="49.58" style="clip-path:url(#SVGID_00000054958084834279758250000014189022223764726951_);fill:#F6DAC3;" width="19.54" height="0.27"/>
			
				<rect x="10.8" y="49.31" style="clip-path:url(#SVGID_00000054958084834279758250000014189022223764726951_);fill:#F6D9C2;" width="19.54" height="0.27"/>
			
				<rect x="10.8" y="49.05" style="clip-path:url(#SVGID_00000054958084834279758250000014189022223764726951_);fill:#F6D9C1;" width="19.54" height="0.27"/>
			
				<rect x="10.8" y="48.78" style="clip-path:url(#SVGID_00000054958084834279758250000014189022223764726951_);fill:#F6D8C0;" width="19.54" height="0.27"/>
			
				<rect x="10.8" y="48.52" style="clip-path:url(#SVGID_00000054958084834279758250000014189022223764726951_);fill:#F5D7BF;" width="19.54" height="0.27"/>
			
				<rect x="10.8" y="48.25" style="clip-path:url(#SVGID_00000054958084834279758250000014189022223764726951_);fill:#F5D6BE;" width="19.54" height="0.27"/>
			
				<rect x="10.8" y="47.98" style="clip-path:url(#SVGID_00000054958084834279758250000014189022223764726951_);fill:#F5D5BD;" width="19.54" height="0.27"/>
			
				<rect x="10.8" y="47.72" style="clip-path:url(#SVGID_00000054958084834279758250000014189022223764726951_);fill:#F4D4BC;" width="19.54" height="0.27"/>
			
				<rect x="10.8" y="47.45" style="clip-path:url(#SVGID_00000054958084834279758250000014189022223764726951_);fill:#F4D4BB;" width="19.54" height="0.27"/>
			
				<rect x="10.8" y="47.18" style="clip-path:url(#SVGID_00000054958084834279758250000014189022223764726951_);fill:#F4D3BA;" width="19.54" height="0.27"/>
			
				<rect x="10.8" y="46.92" style="clip-path:url(#SVGID_00000054958084834279758250000014189022223764726951_);fill:#F4D2B9;" width="19.54" height="0.27"/>
			
				<rect x="10.8" y="46.65" style="clip-path:url(#SVGID_00000054958084834279758250000014189022223764726951_);fill:#F3D1B8;" width="19.54" height="0.27"/>
			
				<rect x="10.8" y="46.39" style="clip-path:url(#SVGID_00000054958084834279758250000014189022223764726951_);fill:#F3D0B7;" width="19.54" height="0.27"/>
			
				<rect x="10.8" y="46.12" style="clip-path:url(#SVGID_00000054958084834279758250000014189022223764726951_);fill:#F3CFB6;" width="19.54" height="0.27"/>
			
				<rect x="10.8" y="45.85" style="clip-path:url(#SVGID_00000054958084834279758250000014189022223764726951_);fill:#F3CEB5;" width="19.54" height="0.27"/>
			
				<rect x="10.8" y="45.59" style="clip-path:url(#SVGID_00000054958084834279758250000014189022223764726951_);fill:#F2CEB4;" width="19.54" height="0.27"/>
			
				<rect x="10.8" y="45.32" style="clip-path:url(#SVGID_00000054958084834279758250000014189022223764726951_);fill:#F2CDB3;" width="19.54" height="0.27"/>
			
				<rect x="10.8" y="45.06" style="clip-path:url(#SVGID_00000054958084834279758250000014189022223764726951_);fill:#F2CCB2;" width="19.54" height="0.27"/>
			
				<rect x="10.8" y="44.79" style="clip-path:url(#SVGID_00000054958084834279758250000014189022223764726951_);fill:#F2CBB1;" width="19.54" height="0.27"/>
			
				<rect x="10.8" y="44.52" style="clip-path:url(#SVGID_00000054958084834279758250000014189022223764726951_);fill:#F1CAB0;" width="19.54" height="0.27"/>
			
				<rect x="10.8" y="44.26" style="clip-path:url(#SVGID_00000054958084834279758250000014189022223764726951_);fill:#F1C9AF;" width="19.54" height="0.27"/>
			
				<rect x="10.8" y="43.99" style="clip-path:url(#SVGID_00000054958084834279758250000014189022223764726951_);fill:#F1C8AE;" width="19.54" height="0.27"/>
			
				<rect x="10.8" y="43.73" style="clip-path:url(#SVGID_00000054958084834279758250000014189022223764726951_);fill:#F1C8AD;" width="19.54" height="0.27"/>
			
				<rect x="10.8" y="43.46" style="clip-path:url(#SVGID_00000054958084834279758250000014189022223764726951_);fill:#F0C7AC;" width="19.54" height="0.27"/>
			
				<rect x="10.8" y="43.19" style="clip-path:url(#SVGID_00000054958084834279758250000014189022223764726951_);fill:#F0C6AB;" width="19.54" height="0.27"/>
			
				<rect x="10.8" y="42.93" style="clip-path:url(#SVGID_00000054958084834279758250000014189022223764726951_);fill:#F0C5AA;" width="19.54" height="0.27"/>
			
				<rect x="10.8" y="42.66" style="clip-path:url(#SVGID_00000054958084834279758250000014189022223764726951_);fill:#F0C4A9;" width="19.54" height="0.27"/>
			
				<rect x="10.8" y="42.39" style="clip-path:url(#SVGID_00000054958084834279758250000014189022223764726951_);fill:#EFC3A8;" width="19.54" height="0.27"/>
			
				<rect x="10.8" y="42.13" style="clip-path:url(#SVGID_00000054958084834279758250000014189022223764726951_);fill:#EFC3A7;" width="19.54" height="0.27"/>
			
				<rect x="10.8" y="41.86" style="clip-path:url(#SVGID_00000054958084834279758250000014189022223764726951_);fill:#EFC2A5;" width="19.54" height="0.27"/>
			
				<rect x="10.8" y="41.6" style="clip-path:url(#SVGID_00000054958084834279758250000014189022223764726951_);fill:#EEC1A4;" width="19.54" height="0.27"/>
			
				<rect x="10.8" y="41.33" style="clip-path:url(#SVGID_00000054958084834279758250000014189022223764726951_);fill:#EEC0A3;" width="19.54" height="0.27"/>
			
				<rect x="10.8" y="41.06" style="clip-path:url(#SVGID_00000054958084834279758250000014189022223764726951_);fill:#EEBFA2;" width="19.54" height="0.27"/>
			
				<rect x="10.8" y="40.8" style="clip-path:url(#SVGID_00000054958084834279758250000014189022223764726951_);fill:#EEBEA1;" width="19.54" height="0.27"/>
			
				<rect x="10.8" y="40.53" style="clip-path:url(#SVGID_00000054958084834279758250000014189022223764726951_);fill:#EDBDA0;" width="19.54" height="0.27"/>
			
				<rect x="10.8" y="40.27" style="clip-path:url(#SVGID_00000054958084834279758250000014189022223764726951_);fill:#EDBD9F;" width="19.54" height="0.27"/>
			
				<rect x="10.8" y="40" style="clip-path:url(#SVGID_00000054958084834279758250000014189022223764726951_);fill:#EDBC9E;" width="19.54" height="0.27"/>
			
				<rect x="10.8" y="39.73" style="clip-path:url(#SVGID_00000054958084834279758250000014189022223764726951_);fill:#EDBB9D;" width="19.54" height="0.27"/>
			
				<rect x="10.8" y="39.47" style="clip-path:url(#SVGID_00000054958084834279758250000014189022223764726951_);fill:#ECBA9C;" width="19.54" height="0.27"/>
			
				<rect x="10.8" y="39.2" style="clip-path:url(#SVGID_00000054958084834279758250000014189022223764726951_);fill:#ECB99B;" width="19.54" height="0.27"/>
			
				<rect x="10.8" y="38.93" style="clip-path:url(#SVGID_00000054958084834279758250000014189022223764726951_);fill:#ECB89A;" width="19.54" height="0.27"/>
			
				<rect x="10.8" y="38.67" style="clip-path:url(#SVGID_00000054958084834279758250000014189022223764726951_);fill:#ECB799;" width="19.54" height="0.27"/>
			
				<rect x="10.8" y="38.4" style="clip-path:url(#SVGID_00000054958084834279758250000014189022223764726951_);fill:#EBB798;" width="19.54" height="0.27"/>
			
				<rect x="10.8" y="38.14" style="clip-path:url(#SVGID_00000054958084834279758250000014189022223764726951_);fill:#EBB697;" width="19.54" height="0.27"/>
			
				<rect x="10.8" y="37.87" style="clip-path:url(#SVGID_00000054958084834279758250000014189022223764726951_);fill:#EBB596;" width="19.54" height="0.27"/>
			
				<rect x="10.8" y="37.6" style="clip-path:url(#SVGID_00000054958084834279758250000014189022223764726951_);fill:#EBB495;" width="19.54" height="0.27"/>
			
				<rect x="10.8" y="37.34" style="clip-path:url(#SVGID_00000054958084834279758250000014189022223764726951_);fill:#EAB394;" width="19.54" height="0.27"/>
			
				<rect x="10.8" y="37.07" style="clip-path:url(#SVGID_00000054958084834279758250000014189022223764726951_);fill:#EAB293;" width="19.54" height="0.27"/>
			
				<rect x="10.8" y="36.81" style="clip-path:url(#SVGID_00000054958084834279758250000014189022223764726951_);fill:#EAB292;" width="19.54" height="0.27"/>
			
				<rect x="10.8" y="36.54" style="clip-path:url(#SVGID_00000054958084834279758250000014189022223764726951_);fill:#EAB191;" width="19.54" height="0.27"/>
			
				<rect x="10.8" y="36.27" style="clip-path:url(#SVGID_00000054958084834279758250000014189022223764726951_);fill:#E9B090;" width="19.54" height="0.27"/>
			
				<rect x="10.8" y="36.01" style="clip-path:url(#SVGID_00000054958084834279758250000014189022223764726951_);fill:#E9AF8F;" width="19.54" height="0.27"/>
			
				<rect x="10.8" y="35.74" style="clip-path:url(#SVGID_00000054958084834279758250000014189022223764726951_);fill:#E9AE8E;" width="19.54" height="0.27"/>
			
				<rect x="10.8" y="35.47" style="clip-path:url(#SVGID_00000054958084834279758250000014189022223764726951_);fill:#E9AD8D;" width="19.54" height="0.27"/>
			
				<rect x="10.8" y="35.21" style="clip-path:url(#SVGID_00000054958084834279758250000014189022223764726951_);fill:#E8AC8C;" width="19.54" height="0.27"/>
			
				<rect x="10.8" y="34.94" style="clip-path:url(#SVGID_00000054958084834279758250000014189022223764726951_);fill:#E8AC8B;" width="19.54" height="0.27"/>
			
				<rect x="10.8" y="34.68" style="clip-path:url(#SVGID_00000054958084834279758250000014189022223764726951_);fill:#E8AB8A;" width="19.54" height="0.27"/>
			
				<rect x="10.8" y="34.41" style="clip-path:url(#SVGID_00000054958084834279758250000014189022223764726951_);fill:#E7AA89;" width="19.54" height="0.27"/>
			
				<rect x="10.8" y="34.14" style="clip-path:url(#SVGID_00000054958084834279758250000014189022223764726951_);fill:#E7A988;" width="19.54" height="0.27"/>
			
				<rect x="10.8" y="33.88" style="clip-path:url(#SVGID_00000054958084834279758250000014189022223764726951_);fill:#E7A887;" width="19.54" height="0.27"/>
			
				<rect x="10.8" y="33.61" style="clip-path:url(#SVGID_00000054958084834279758250000014189022223764726951_);fill:#E7A786;" width="19.54" height="0.27"/>
			
				<rect x="10.8" y="33.35" style="clip-path:url(#SVGID_00000054958084834279758250000014189022223764726951_);fill:#E6A685;" width="19.54" height="0.27"/>
			
				<rect x="10.8" y="33.08" style="clip-path:url(#SVGID_00000054958084834279758250000014189022223764726951_);fill:#E6A684;" width="19.54" height="0.27"/>
			
				<rect x="10.8" y="32.81" style="clip-path:url(#SVGID_00000054958084834279758250000014189022223764726951_);fill:#E6A583;" width="19.54" height="0.27"/>
			
				<rect x="10.8" y="32.55" style="clip-path:url(#SVGID_00000054958084834279758250000014189022223764726951_);fill:#E6A482;" width="19.54" height="0.27"/>
			
				<rect x="10.8" y="32.28" style="clip-path:url(#SVGID_00000054958084834279758250000014189022223764726951_);fill:#E5A381;" width="19.54" height="0.27"/>
			
				<rect x="10.8" y="32.01" style="clip-path:url(#SVGID_00000054958084834279758250000014189022223764726951_);fill:#E5A280;" width="19.54" height="0.27"/>
			
				<rect x="10.8" y="31.75" style="clip-path:url(#SVGID_00000054958084834279758250000014189022223764726951_);fill:#E5A17F;" width="19.54" height="0.27"/>
			
				<rect x="10.8" y="31.48" style="clip-path:url(#SVGID_00000054958084834279758250000014189022223764726951_);fill:#E5A17E;" width="19.54" height="0.27"/>
			
				<rect x="10.8" y="31.22" style="clip-path:url(#SVGID_00000054958084834279758250000014189022223764726951_);fill:#E4A07D;" width="19.54" height="0.27"/>
			
				<rect x="10.8" y="30.95" style="clip-path:url(#SVGID_00000054958084834279758250000014189022223764726951_);fill:#E49F7C;" width="19.54" height="0.27"/>
			
				<rect x="10.8" y="30.68" style="clip-path:url(#SVGID_00000054958084834279758250000014189022223764726951_);fill:#E49E7B;" width="19.54" height="0.27"/>
			
				<rect x="10.8" y="30.42" style="clip-path:url(#SVGID_00000054958084834279758250000014189022223764726951_);fill:#E49D7A;" width="19.54" height="0.27"/>
			
				<rect x="10.8" y="30.15" style="clip-path:url(#SVGID_00000054958084834279758250000014189022223764726951_);fill:#E39C79;" width="19.54" height="0.27"/>
			
				<rect x="10.8" y="29.89" style="clip-path:url(#SVGID_00000054958084834279758250000014189022223764726951_);fill:#E39B78;" width="19.54" height="0.27"/>
			
				<rect x="10.8" y="29.62" style="clip-path:url(#SVGID_00000054958084834279758250000014189022223764726951_);fill:#E39B77;" width="19.54" height="0.27"/>
			
				<rect x="10.8" y="29.35" style="clip-path:url(#SVGID_00000054958084834279758250000014189022223764726951_);fill:#E39A76;" width="19.54" height="0.27"/>
			
				<rect x="10.8" y="29.09" style="clip-path:url(#SVGID_00000054958084834279758250000014189022223764726951_);fill:#E29975;" width="19.54" height="0.27"/>
			
				<rect x="10.8" y="28.82" style="clip-path:url(#SVGID_00000054958084834279758250000014189022223764726951_);fill:#E29874;" width="19.54" height="0.27"/>
			<path style="clip-path:url(#SVGID_00000054958084834279758250000014189022223764726951_);fill:#E29874;" d="M30.34,28.82H10.8
				H30.34z"/>
		</g>
	</g>
</g>
</svg>
