<?xml version="1.0" encoding="utf-8"?>
<!-- Generator: Adobe Illustrator 27.0.1, SVG Export Plug-In . SVG Version: 6.00 Build 0)  -->
<svg version="1.1" id="Layer_1" xmlns="http://www.w3.org/2000/svg" xmlns:xlink="http://www.w3.org/1999/xlink" x="0px" y="0px"
	 viewBox="0 0 40 100" style="enable-background:new 0 0 40 100;" xml:space="preserve">
<style type="text/css">
	.st0{fill:#131212;}
	.st1{clip-path:url(#SVGID_00000132081408953212187130000006009535566760537535_);fill:#ECF1F7;}
	.st2{clip-path:url(#SVGID_00000132081408953212187130000006009535566760537535_);fill:#EDF2F7;}
	.st3{clip-path:url(#SVGID_00000132081408953212187130000006009535566760537535_);fill:#EEF3F8;}
	.st4{clip-path:url(#SVGID_00000132081408953212187130000006009535566760537535_);fill:#EFF3F8;}
	.st5{clip-path:url(#SVGID_00000132081408953212187130000006009535566760537535_);fill:#F0F4F9;}
	.st6{clip-path:url(#SVGID_00000132081408953212187130000006009535566760537535_);fill:#F1F5F9;}
	.st7{clip-path:url(#SVGID_00000132081408953212187130000006009535566760537535_);fill:#F2F6FA;}
	.st8{clip-path:url(#SVGID_00000132081408953212187130000006009535566760537535_);fill:#F3F6FA;}
	.st9{clip-path:url(#SVGID_00000132081408953212187130000006009535566760537535_);fill:#F4F7FB;}
	.st10{clip-path:url(#SVGID_00000132081408953212187130000006009535566760537535_);fill:#F6F8FB;}
	.st11{clip-path:url(#SVGID_00000132081408953212187130000006009535566760537535_);fill:#F7F9FB;}
	.st12{clip-path:url(#SVGID_00000132081408953212187130000006009535566760537535_);fill:#F8FAFC;}
	.st13{clip-path:url(#SVGID_00000132081408953212187130000006009535566760537535_);fill:#F9FAFC;}
	.st14{clip-path:url(#SVGID_00000132081408953212187130000006009535566760537535_);fill:#FAFBFD;}
	.st15{clip-path:url(#SVGID_00000132081408953212187130000006009535566760537535_);fill:#FBFCFD;}
	.st16{clip-path:url(#SVGID_00000132081408953212187130000006009535566760537535_);fill:#FCFDFE;}
	.st17{clip-path:url(#SVGID_00000132081408953212187130000006009535566760537535_);fill:#FDFDFE;}
	.st18{clip-path:url(#SVGID_00000132081408953212187130000006009535566760537535_);fill:#FEFEFF;}
	.st19{clip-path:url(#SVGID_00000132081408953212187130000006009535566760537535_);fill:#FFFFFF;}
	.st20{clip-path:url(#SVGID_00000101072722053763291990000013210217838691463554_);fill:#FBEAD5;}
	.st21{clip-path:url(#SVGID_00000101072722053763291990000013210217838691463554_);fill:#FBEBD6;}
	.st22{clip-path:url(#SVGID_00000101072722053763291990000013210217838691463554_);fill:#FCECD8;}
	.st23{clip-path:url(#SVGID_00000101072722053763291990000013210217838691463554_);fill:#FCEDD9;}
	.st24{clip-path:url(#SVGID_00000101072722053763291990000013210217838691463554_);fill:#FBEBD7;}
	.st25{clip-path:url(#SVGID_00000101072722053763291990000013210217838691463554_);fill:#FBEAD6;}
	.st26{clip-path:url(#SVGID_00000101072722053763291990000013210217838691463554_);fill:#FBE9D4;}
	.st27{clip-path:url(#SVGID_00000101072722053763291990000013210217838691463554_);fill:#FAE8D3;}
	.st28{clip-path:url(#SVGID_00000101072722053763291990000013210217838691463554_);fill:#FAE7D2;}
	.st29{clip-path:url(#SVGID_00000101072722053763291990000013210217838691463554_);fill:#FAE6D1;}
	.st30{clip-path:url(#SVGID_00000101072722053763291990000013210217838691463554_);fill:#FAE5D0;}
	.st31{clip-path:url(#SVGID_00000101072722053763291990000013210217838691463554_);fill:#F9E5CF;}
	.st32{clip-path:url(#SVGID_00000101072722053763291990000013210217838691463554_);fill:#F9E4CE;}
	.st33{clip-path:url(#SVGID_00000101072722053763291990000013210217838691463554_);fill:#F9E3CD;}
	.st34{clip-path:url(#SVGID_00000101072722053763291990000013210217838691463554_);fill:#F9E2CC;}
	.st35{clip-path:url(#SVGID_00000101072722053763291990000013210217838691463554_);fill:#F8E1CB;}
	.st36{clip-path:url(#SVGID_00000101072722053763291990000013210217838691463554_);fill:#F8E0CA;}
	.st37{clip-path:url(#SVGID_00000101072722053763291990000013210217838691463554_);fill:#F8DFC9;}
	.st38{clip-path:url(#SVGID_00000101072722053763291990000013210217838691463554_);fill:#F8DFC8;}
	.st39{clip-path:url(#SVGID_00000101072722053763291990000013210217838691463554_);fill:#F7DEC7;}
	.st40{clip-path:url(#SVGID_00000101072722053763291990000013210217838691463554_);fill:#F7DDC6;}
	.st41{clip-path:url(#SVGID_00000101072722053763291990000013210217838691463554_);fill:#F7DCC5;}
	.st42{clip-path:url(#SVGID_00000101072722053763291990000013210217838691463554_);fill:#F7DBC4;}
	.st43{clip-path:url(#SVGID_00000101072722053763291990000013210217838691463554_);fill:#F6DAC3;}
	.st44{clip-path:url(#SVGID_00000101072722053763291990000013210217838691463554_);fill:#F6D9C2;}
	.st45{clip-path:url(#SVGID_00000101072722053763291990000013210217838691463554_);fill:#F6D9C1;}
	.st46{clip-path:url(#SVGID_00000101072722053763291990000013210217838691463554_);fill:#F6D8C0;}
	.st47{clip-path:url(#SVGID_00000101072722053763291990000013210217838691463554_);fill:#F5D7BF;}
	.st48{clip-path:url(#SVGID_00000101072722053763291990000013210217838691463554_);fill:#F5D6BE;}
	.st49{clip-path:url(#SVGID_00000101072722053763291990000013210217838691463554_);fill:#F5D5BD;}
	.st50{clip-path:url(#SVGID_00000101072722053763291990000013210217838691463554_);fill:#F4D4BC;}
	.st51{clip-path:url(#SVGID_00000101072722053763291990000013210217838691463554_);fill:#F4D4BB;}
	.st52{clip-path:url(#SVGID_00000101072722053763291990000013210217838691463554_);fill:#F4D3BA;}
	.st53{clip-path:url(#SVGID_00000101072722053763291990000013210217838691463554_);fill:#F4D2B9;}
	.st54{clip-path:url(#SVGID_00000101072722053763291990000013210217838691463554_);fill:#F3D1B8;}
	.st55{clip-path:url(#SVGID_00000101072722053763291990000013210217838691463554_);fill:#F3D0B7;}
	.st56{clip-path:url(#SVGID_00000101072722053763291990000013210217838691463554_);fill:#F3CFB6;}
	.st57{clip-path:url(#SVGID_00000101072722053763291990000013210217838691463554_);fill:#F3CEB5;}
	.st58{clip-path:url(#SVGID_00000101072722053763291990000013210217838691463554_);fill:#F2CEB4;}
	.st59{clip-path:url(#SVGID_00000101072722053763291990000013210217838691463554_);fill:#F2CDB3;}
	.st60{clip-path:url(#SVGID_00000101072722053763291990000013210217838691463554_);fill:#F2CCB2;}
	.st61{clip-path:url(#SVGID_00000101072722053763291990000013210217838691463554_);fill:#F2CBB1;}
	.st62{clip-path:url(#SVGID_00000101072722053763291990000013210217838691463554_);fill:#F1CAB0;}
	.st63{clip-path:url(#SVGID_00000101072722053763291990000013210217838691463554_);fill:#F1C9AF;}
	.st64{clip-path:url(#SVGID_00000101072722053763291990000013210217838691463554_);fill:#F1C8AE;}
	.st65{clip-path:url(#SVGID_00000101072722053763291990000013210217838691463554_);fill:#F1C8AD;}
	.st66{clip-path:url(#SVGID_00000101072722053763291990000013210217838691463554_);fill:#F0C7AC;}
	.st67{clip-path:url(#SVGID_00000101072722053763291990000013210217838691463554_);fill:#F0C6AB;}
	.st68{clip-path:url(#SVGID_00000101072722053763291990000013210217838691463554_);fill:#F0C5AA;}
	.st69{clip-path:url(#SVGID_00000101072722053763291990000013210217838691463554_);fill:#F0C4A9;}
	.st70{clip-path:url(#SVGID_00000101072722053763291990000013210217838691463554_);fill:#EFC3A8;}
	.st71{clip-path:url(#SVGID_00000101072722053763291990000013210217838691463554_);fill:#EFC3A7;}
	.st72{clip-path:url(#SVGID_00000101072722053763291990000013210217838691463554_);fill:#EFC2A5;}
	.st73{clip-path:url(#SVGID_00000101072722053763291990000013210217838691463554_);fill:#EEC1A4;}
	.st74{clip-path:url(#SVGID_00000101072722053763291990000013210217838691463554_);fill:#EEC0A3;}
	.st75{clip-path:url(#SVGID_00000101072722053763291990000013210217838691463554_);fill:#EEBFA2;}
	.st76{clip-path:url(#SVGID_00000101072722053763291990000013210217838691463554_);fill:#EEBEA1;}
	.st77{clip-path:url(#SVGID_00000101072722053763291990000013210217838691463554_);fill:#EDBDA0;}
	.st78{clip-path:url(#SVGID_00000101072722053763291990000013210217838691463554_);fill:#EDBD9F;}
	.st79{clip-path:url(#SVGID_00000101072722053763291990000013210217838691463554_);fill:#EDBC9E;}
	.st80{clip-path:url(#SVGID_00000101072722053763291990000013210217838691463554_);fill:#EDBB9D;}
	.st81{clip-path:url(#SVGID_00000101072722053763291990000013210217838691463554_);fill:#ECBA9C;}
	.st82{clip-path:url(#SVGID_00000101072722053763291990000013210217838691463554_);fill:#ECB99B;}
	.st83{clip-path:url(#SVGID_00000101072722053763291990000013210217838691463554_);fill:#ECB89A;}
	.st84{clip-path:url(#SVGID_00000101072722053763291990000013210217838691463554_);fill:#ECB799;}
	.st85{clip-path:url(#SVGID_00000101072722053763291990000013210217838691463554_);fill:#EBB798;}
	.st86{clip-path:url(#SVGID_00000101072722053763291990000013210217838691463554_);fill:#EBB697;}
	.st87{clip-path:url(#SVGID_00000101072722053763291990000013210217838691463554_);fill:#EBB596;}
	.st88{clip-path:url(#SVGID_00000101072722053763291990000013210217838691463554_);fill:#EBB495;}
	.st89{clip-path:url(#SVGID_00000101072722053763291990000013210217838691463554_);fill:#EAB394;}
	.st90{clip-path:url(#SVGID_00000101072722053763291990000013210217838691463554_);fill:#EAB293;}
	.st91{clip-path:url(#SVGID_00000101072722053763291990000013210217838691463554_);fill:#EAB292;}
	.st92{clip-path:url(#SVGID_00000101072722053763291990000013210217838691463554_);fill:#EAB191;}
	.st93{clip-path:url(#SVGID_00000101072722053763291990000013210217838691463554_);fill:#E9B090;}
	.st94{clip-path:url(#SVGID_00000101072722053763291990000013210217838691463554_);fill:#E9AF8F;}
	.st95{clip-path:url(#SVGID_00000101072722053763291990000013210217838691463554_);fill:#E9AE8E;}
	.st96{clip-path:url(#SVGID_00000101072722053763291990000013210217838691463554_);fill:#E9AD8D;}
	.st97{clip-path:url(#SVGID_00000101072722053763291990000013210217838691463554_);fill:#E8AC8C;}
	.st98{clip-path:url(#SVGID_00000101072722053763291990000013210217838691463554_);fill:#E8AC8B;}
	.st99{clip-path:url(#SVGID_00000101072722053763291990000013210217838691463554_);fill:#E8AB8A;}
	.st100{clip-path:url(#SVGID_00000101072722053763291990000013210217838691463554_);fill:#E7AA89;}
	.st101{clip-path:url(#SVGID_00000101072722053763291990000013210217838691463554_);fill:#E7A988;}
	.st102{clip-path:url(#SVGID_00000101072722053763291990000013210217838691463554_);fill:#E7A887;}
	.st103{clip-path:url(#SVGID_00000101072722053763291990000013210217838691463554_);fill:#E7A786;}
	.st104{clip-path:url(#SVGID_00000101072722053763291990000013210217838691463554_);fill:#E6A685;}
	.st105{clip-path:url(#SVGID_00000101072722053763291990000013210217838691463554_);fill:#E6A684;}
	.st106{clip-path:url(#SVGID_00000101072722053763291990000013210217838691463554_);fill:#E6A583;}
	.st107{clip-path:url(#SVGID_00000101072722053763291990000013210217838691463554_);fill:#E6A482;}
	.st108{clip-path:url(#SVGID_00000101072722053763291990000013210217838691463554_);fill:#E5A381;}
	.st109{clip-path:url(#SVGID_00000101072722053763291990000013210217838691463554_);fill:#E5A280;}
	.st110{clip-path:url(#SVGID_00000101072722053763291990000013210217838691463554_);fill:#E5A17F;}
	.st111{clip-path:url(#SVGID_00000101072722053763291990000013210217838691463554_);fill:#E5A17E;}
	.st112{clip-path:url(#SVGID_00000101072722053763291990000013210217838691463554_);fill:#E4A07D;}
	.st113{clip-path:url(#SVGID_00000101072722053763291990000013210217838691463554_);fill:#E49F7C;}
	.st114{clip-path:url(#SVGID_00000101072722053763291990000013210217838691463554_);fill:#E49E7B;}
	.st115{clip-path:url(#SVGID_00000101072722053763291990000013210217838691463554_);fill:#E49D7A;}
	.st116{clip-path:url(#SVGID_00000101072722053763291990000013210217838691463554_);fill:#E39C79;}
	.st117{clip-path:url(#SVGID_00000101072722053763291990000013210217838691463554_);fill:#E39B78;}
	.st118{clip-path:url(#SVGID_00000101072722053763291990000013210217838691463554_);fill:#E39B77;}
	.st119{clip-path:url(#SVGID_00000101072722053763291990000013210217838691463554_);fill:#E39A76;}
	.st120{clip-path:url(#SVGID_00000101072722053763291990000013210217838691463554_);fill:#E29975;}
	.st121{clip-path:url(#SVGID_00000101072722053763291990000013210217838691463554_);fill:#E29874;}
</style>
<g>
	<g id="path192">
		<path class="st0" d="M30.33,59.34c0.45-8.72,0.67-18.32,0.67-29.32c-1.54-0.35-2.99-0.07-4.44,0.86
			c-0.71,0.46-1.37,1.01-2.03,1.56c-0.62,0.52-1.27,1.05-1.96,1.52c-0.79,0.52-2.18,1.27-3.69,1.27c-0.45,0-0.91-0.06-1.37-0.22
			c-1.63-0.55-2.63-1.99-3.6-3.38l-0.25-0.35c-1.35-1.91-2.89-2.82-4.78-2.87C9.1,29,9.31,29.6,9.51,30.2
			c2.47,7.49,3.76,15.29,3.83,23.18c0.01,0.35,0.01,0.71,0.01,1.06c0.01,2.24,0.01,4.55,0.66,6.7c0.86,2.85,1.31,5.76,1.61,8
			c0.42,3.14,0.64,6.38,0.66,9.64c0.01,1.53-0.03,3.18-0.13,5.04c-0.01,0.35-0.05,0.71-0.09,1.09c-0.11,1.08-0.22,2.2,0.11,3.12
			c0.32,0.91,1.26,1.56,2.03,1.34c0.46-0.12,0.83-0.5,1.2-0.91c3.89-4.21,6.75-8.75,8.49-13.49C29.79,69.85,30.05,64.75,30.33,59.34
			L30.33,59.34z M31.14,29.35c2.36-5.3,3.11-11.33,2.25-17.93c-0.34-2.57-2.31-3.71-4.4-4.92L28.84,6.4
			c-1.85-1.07-3.67-2.23-5.41-3.46c-1.11-0.78-1.99-1.27-2.93-1.27c-0.57,0-1.16,0.18-1.78,0.56c-0.63,0.37-1.24,0.78-1.83,1.17
			c-0.97,0.65-1.97,1.32-3.08,1.87c-0.61,0.31-1.27,0.58-1.95,0.86c-2.32,0.95-4.72,1.94-5.34,4.42c-0.37,1.48-0.28,3.05-0.15,4.67
			c0.06,0.7,0.07,1.42,0.07,2.1c0.01,0.9,0.03,1.82,0.15,2.73c0.35,2.61,1.2,5.17,2.06,7.65c2.23-0.03,4.05,1,5.57,3.16l0.25,0.36
			c0.91,1.3,1.84,2.64,3.25,3.12c1.73,0.59,3.54-0.35,4.46-0.97c0.66-0.44,1.29-0.97,1.9-1.48c0.67-0.56,1.35-1.13,2.1-1.61
			C27.8,29.26,29.43,28.96,31.14,29.35L31.14,29.35z M34.06,11.33c0.89,6.81,0.1,13.03-2.38,18.49c0,11.1-0.22,20.77-0.67,29.57
			c-0.28,5.45-0.54,10.6-2.47,15.82c-1.78,4.83-4.68,9.44-8.64,13.72c-0.42,0.46-0.89,0.93-1.52,1.1c-0.16,0.05-0.33,0.07-0.5,0.07
			c-0.99,0-1.97-0.77-2.36-1.84c-0.37-1.06-0.25-2.25-0.14-3.41c0.04-0.36,0.07-0.71,0.1-1.05c0.09-1.85,0.13-3.49,0.12-5
			c-0.02-3.23-0.25-6.45-0.65-9.56c-0.29-2.21-0.74-5.09-1.58-7.89c-0.68-2.25-0.69-4.61-0.69-6.9c0-0.35,0-0.71-0.01-1.05
			c-0.07-7.82-1.35-15.55-3.8-22.97C8.63,29.71,8.38,29,8.14,28.29c-0.91-2.62-1.84-5.33-2.21-8.14c-0.13-0.95-0.14-1.89-0.15-2.81
			c-0.01-0.67-0.02-1.37-0.07-2.06c-0.14-1.68-0.23-3.31,0.16-4.89c0.69-2.82,3.38-3.91,5.74-4.89c0.67-0.28,1.31-0.54,1.91-0.84
			c1.06-0.54,2.06-1.19,3.01-1.83c0.6-0.4,1.22-0.81,1.85-1.19C19.1,1.21,19.8,1,20.5,1c1.24,0,2.32,0.69,3.32,1.39
			c1.72,1.22,3.53,2.37,5.36,3.43l0.15,0.09C31.47,7.14,33.68,8.42,34.06,11.33"/>
	</g>
	<g id="path194_00000039830991378557855100000011953556957988355506_">
		<g>
			<defs>
				<path id="SVGID_1_" d="M33.39,11.41c0.86,6.6,0.11,12.63-2.25,17.93c-1.72-0.39-3.34-0.09-4.95,0.95
					c-0.75,0.48-1.43,1.05-2.1,1.61c-0.61,0.51-1.24,1.03-1.9,1.48c-0.93,0.61-2.74,1.55-4.46,0.97c-1.42-0.48-2.35-1.82-3.25-3.12
					l-0.25-0.36c-1.52-2.16-3.34-3.19-5.57-3.16c-0.86-2.48-1.72-5.04-2.06-7.65c-0.12-0.91-0.14-1.83-0.15-2.73
					c-0.01-0.69-0.01-1.4-0.07-2.1c-0.13-1.62-0.22-3.19,0.15-4.67c0.61-2.48,3.02-3.47,5.34-4.42c0.69-0.28,1.34-0.55,1.95-0.86
					c1.1-0.55,2.11-1.23,3.08-1.87c0.59-0.39,1.2-0.8,1.83-1.17c0.62-0.37,1.2-0.56,1.78-0.56c0.94,0,1.82,0.48,2.93,1.27
					c1.74,1.23,3.56,2.39,5.41,3.46l0.15,0.09C31.08,7.7,33.05,8.84,33.39,11.41"/>
			</defs>
			<clipPath id="SVGID_00000179641911535813572890000011059633411797383599_">
				<use xlink:href="#SVGID_1_"  style="overflow:visible;"/>
			</clipPath>
			
				<rect x="6.16" y="24.6" style="clip-path:url(#SVGID_00000179641911535813572890000011059633411797383599_);fill:#ECF1F7;" width="28.1" height="10.33"/>
			
				<rect x="6.16" y="23.84" style="clip-path:url(#SVGID_00000179641911535813572890000011059633411797383599_);fill:#ECF1F7;" width="28.1" height="0.77"/>
			
				<rect x="6.16" y="23.07" style="clip-path:url(#SVGID_00000179641911535813572890000011059633411797383599_);fill:#EDF2F7;" width="28.1" height="0.77"/>
			
				<rect x="6.16" y="22.3" style="clip-path:url(#SVGID_00000179641911535813572890000011059633411797383599_);fill:#EEF3F8;" width="28.1" height="0.77"/>
			
				<rect x="6.16" y="21.54" style="clip-path:url(#SVGID_00000179641911535813572890000011059633411797383599_);fill:#EFF3F8;" width="28.1" height="0.77"/>
			
				<rect x="6.16" y="20.77" style="clip-path:url(#SVGID_00000179641911535813572890000011059633411797383599_);fill:#F0F4F9;" width="28.1" height="0.77"/>
			
				<rect x="6.16" y="20" style="clip-path:url(#SVGID_00000179641911535813572890000011059633411797383599_);fill:#F1F5F9;" width="28.1" height="0.77"/>
			
				<rect x="6.16" y="19.24" style="clip-path:url(#SVGID_00000179641911535813572890000011059633411797383599_);fill:#F2F6FA;" width="28.1" height="0.77"/>
			
				<rect x="6.16" y="18.47" style="clip-path:url(#SVGID_00000179641911535813572890000011059633411797383599_);fill:#F3F6FA;" width="28.1" height="0.77"/>
			
				<rect x="6.16" y="17.7" style="clip-path:url(#SVGID_00000179641911535813572890000011059633411797383599_);fill:#F4F7FB;" width="28.1" height="0.77"/>
			
				<rect x="6.16" y="16.94" style="clip-path:url(#SVGID_00000179641911535813572890000011059633411797383599_);fill:#F6F8FB;" width="28.1" height="0.77"/>
			
				<rect x="6.16" y="16.17" style="clip-path:url(#SVGID_00000179641911535813572890000011059633411797383599_);fill:#F7F9FB;" width="28.1" height="0.77"/>
			
				<rect x="6.16" y="15.4" style="clip-path:url(#SVGID_00000179641911535813572890000011059633411797383599_);fill:#F8FAFC;" width="28.1" height="0.77"/>
			
				<rect x="6.16" y="14.63" style="clip-path:url(#SVGID_00000179641911535813572890000011059633411797383599_);fill:#F9FAFC;" width="28.1" height="0.77"/>
			
				<rect x="6.16" y="13.87" style="clip-path:url(#SVGID_00000179641911535813572890000011059633411797383599_);fill:#FAFBFD;" width="28.1" height="0.77"/>
			
				<rect x="6.16" y="13.1" style="clip-path:url(#SVGID_00000179641911535813572890000011059633411797383599_);fill:#FBFCFD;" width="28.1" height="0.77"/>
			
				<rect x="6.16" y="12.33" style="clip-path:url(#SVGID_00000179641911535813572890000011059633411797383599_);fill:#FCFDFE;" width="28.1" height="0.77"/>
			
				<rect x="6.16" y="11.57" style="clip-path:url(#SVGID_00000179641911535813572890000011059633411797383599_);fill:#FDFDFE;" width="28.1" height="0.77"/>
			
				<rect x="6.16" y="10.8" style="clip-path:url(#SVGID_00000179641911535813572890000011059633411797383599_);fill:#FEFEFF;" width="28.1" height="0.77"/>
			
				<rect x="6.16" y="10.03" style="clip-path:url(#SVGID_00000179641911535813572890000011059633411797383599_);fill:#FFFFFF;" width="28.1" height="0.77"/>
			
				<rect x="6.16" y="1.68" style="clip-path:url(#SVGID_00000179641911535813572890000011059633411797383599_);fill:#FFFFFF;" width="28.1" height="8.35"/>
		</g>
	</g>
	<g id="path196_00000160902601535113441660000009379803867064737938_">
		<g>
			<defs>
				<path id="SVGID_00000055702025068770985060000002950159077280220045_" d="M31,30.02c-0.01,11.01-0.22,20.6-0.67,29.32
					c-0.28,5.41-0.54,10.51-2.43,15.64c-1.74,4.74-4.6,9.28-8.49,13.49c-0.37,0.41-0.75,0.78-1.2,0.91
					c-0.77,0.22-1.71-0.43-2.03-1.34c-0.33-0.92-0.22-2.04-0.11-3.12c0.03-0.37,0.07-0.74,0.09-1.09c0.1-1.86,0.14-3.51,0.13-5.04
					c-0.02-3.25-0.25-6.5-0.66-9.64c-0.3-2.23-0.75-5.15-1.61-8c-0.65-2.15-0.65-4.46-0.66-6.7c0-0.35,0-0.71-0.01-1.06
					c-0.07-7.89-1.36-15.69-3.83-23.18c-0.2-0.6-0.41-1.2-0.62-1.8c1.89,0.05,3.43,0.96,4.78,2.87l0.25,0.35
					c0.97,1.39,1.97,2.82,3.6,3.38c0.46,0.16,0.92,0.22,1.37,0.22c1.51,0,2.9-0.74,3.69-1.27c0.69-0.46,1.34-1,1.96-1.52
					c0.65-0.54,1.32-1.1,2.03-1.56C28.01,29.94,29.46,29.66,31,30.02"/>
			</defs>
			<clipPath id="SVGID_00000092447266025820473720000013577776426397511297_">
				<use xlink:href="#SVGID_00000055702025068770985060000002950159077280220045_"  style="overflow:visible;"/>
			</clipPath>
			
				<rect x="8.89" y="86.29" style="clip-path:url(#SVGID_00000092447266025820473720000013577776426397511297_);fill:#FBEAD5;" width="22.11" height="3.3"/>
			
				<rect x="8.89" y="78.52" style="clip-path:url(#SVGID_00000092447266025820473720000013577776426397511297_);fill:#FBEAD5;" width="22.11" height="7.77"/>
			
				<rect x="8.89" y="70.74" style="clip-path:url(#SVGID_00000092447266025820473720000013577776426397511297_);fill:#FBEBD6;" width="22.11" height="7.77"/>
			
				<rect x="8.89" y="62.97" style="clip-path:url(#SVGID_00000092447266025820473720000013577776426397511297_);fill:#FCECD8;" width="22.11" height="7.77"/>
			
				<rect x="8.89" y="55.2" style="clip-path:url(#SVGID_00000092447266025820473720000013577776426397511297_);fill:#FCEDD9;" width="22.11" height="7.77"/>
			
				<rect x="8.89" y="54.93" style="clip-path:url(#SVGID_00000092447266025820473720000013577776426397511297_);fill:#FCEDD9;" width="22.11" height="0.27"/>
			
				<rect x="8.89" y="54.66" style="clip-path:url(#SVGID_00000092447266025820473720000013577776426397511297_);fill:#FCECD8;" width="22.11" height="0.27"/>
			
				<rect x="8.89" y="54.4" style="clip-path:url(#SVGID_00000092447266025820473720000013577776426397511297_);fill:#FBEBD7;" width="22.11" height="0.27"/>
			
				<rect x="8.89" y="54.13" style="clip-path:url(#SVGID_00000092447266025820473720000013577776426397511297_);fill:#FBEAD6;" width="22.11" height="0.27"/>
			
				<rect x="8.89" y="53.87" style="clip-path:url(#SVGID_00000092447266025820473720000013577776426397511297_);fill:#FBEAD5;" width="22.11" height="0.27"/>
			
				<rect x="8.89" y="53.6" style="clip-path:url(#SVGID_00000092447266025820473720000013577776426397511297_);fill:#FBE9D4;" width="22.11" height="0.27"/>
			
				<rect x="8.89" y="53.34" style="clip-path:url(#SVGID_00000092447266025820473720000013577776426397511297_);fill:#FAE8D3;" width="22.11" height="0.27"/>
			
				<rect x="8.89" y="53.07" style="clip-path:url(#SVGID_00000092447266025820473720000013577776426397511297_);fill:#FAE7D2;" width="22.11" height="0.27"/>
			
				<rect x="8.89" y="52.81" style="clip-path:url(#SVGID_00000092447266025820473720000013577776426397511297_);fill:#FAE6D1;" width="22.11" height="0.27"/>
			
				<rect x="8.89" y="52.54" style="clip-path:url(#SVGID_00000092447266025820473720000013577776426397511297_);fill:#FAE5D0;" width="22.11" height="0.27"/>
			
				<rect x="8.89" y="52.28" style="clip-path:url(#SVGID_00000092447266025820473720000013577776426397511297_);fill:#F9E5CF;" width="22.11" height="0.27"/>
			
				<rect x="8.89" y="52.01" style="clip-path:url(#SVGID_00000092447266025820473720000013577776426397511297_);fill:#F9E4CE;" width="22.11" height="0.27"/>
			
				<rect x="8.89" y="51.75" style="clip-path:url(#SVGID_00000092447266025820473720000013577776426397511297_);fill:#F9E3CD;" width="22.11" height="0.27"/>
			
				<rect x="8.89" y="51.48" style="clip-path:url(#SVGID_00000092447266025820473720000013577776426397511297_);fill:#F9E2CC;" width="22.11" height="0.27"/>
			
				<rect x="8.89" y="51.21" style="clip-path:url(#SVGID_00000092447266025820473720000013577776426397511297_);fill:#F8E1CB;" width="22.11" height="0.27"/>
			
				<rect x="8.89" y="50.95" style="clip-path:url(#SVGID_00000092447266025820473720000013577776426397511297_);fill:#F8E0CA;" width="22.11" height="0.27"/>
			
				<rect x="8.89" y="50.68" style="clip-path:url(#SVGID_00000092447266025820473720000013577776426397511297_);fill:#F8DFC9;" width="22.11" height="0.27"/>
			
				<rect x="8.89" y="50.42" style="clip-path:url(#SVGID_00000092447266025820473720000013577776426397511297_);fill:#F8DFC8;" width="22.11" height="0.27"/>
			
				<rect x="8.89" y="50.15" style="clip-path:url(#SVGID_00000092447266025820473720000013577776426397511297_);fill:#F7DEC7;" width="22.11" height="0.27"/>
			
				<rect x="8.89" y="49.89" style="clip-path:url(#SVGID_00000092447266025820473720000013577776426397511297_);fill:#F7DDC6;" width="22.11" height="0.27"/>
			
				<rect x="8.89" y="49.62" style="clip-path:url(#SVGID_00000092447266025820473720000013577776426397511297_);fill:#F7DCC5;" width="22.11" height="0.27"/>
			
				<rect x="8.89" y="49.36" style="clip-path:url(#SVGID_00000092447266025820473720000013577776426397511297_);fill:#F7DBC4;" width="22.11" height="0.27"/>
			
				<rect x="8.89" y="49.09" style="clip-path:url(#SVGID_00000092447266025820473720000013577776426397511297_);fill:#F6DAC3;" width="22.11" height="0.27"/>
			
				<rect x="8.89" y="48.83" style="clip-path:url(#SVGID_00000092447266025820473720000013577776426397511297_);fill:#F6D9C2;" width="22.11" height="0.27"/>
			
				<rect x="8.89" y="48.56" style="clip-path:url(#SVGID_00000092447266025820473720000013577776426397511297_);fill:#F6D9C1;" width="22.11" height="0.27"/>
			
				<rect x="8.89" y="48.3" style="clip-path:url(#SVGID_00000092447266025820473720000013577776426397511297_);fill:#F6D8C0;" width="22.11" height="0.27"/>
			
				<rect x="8.89" y="48.03" style="clip-path:url(#SVGID_00000092447266025820473720000013577776426397511297_);fill:#F5D7BF;" width="22.11" height="0.27"/>
			
				<rect x="8.89" y="47.77" style="clip-path:url(#SVGID_00000092447266025820473720000013577776426397511297_);fill:#F5D6BE;" width="22.11" height="0.27"/>
			
				<rect x="8.89" y="47.5" style="clip-path:url(#SVGID_00000092447266025820473720000013577776426397511297_);fill:#F5D5BD;" width="22.11" height="0.27"/>
			
				<rect x="8.89" y="47.23" style="clip-path:url(#SVGID_00000092447266025820473720000013577776426397511297_);fill:#F4D4BC;" width="22.11" height="0.27"/>
			
				<rect x="8.89" y="46.97" style="clip-path:url(#SVGID_00000092447266025820473720000013577776426397511297_);fill:#F4D4BB;" width="22.11" height="0.27"/>
			
				<rect x="8.89" y="46.7" style="clip-path:url(#SVGID_00000092447266025820473720000013577776426397511297_);fill:#F4D3BA;" width="22.11" height="0.27"/>
			
				<rect x="8.89" y="46.44" style="clip-path:url(#SVGID_00000092447266025820473720000013577776426397511297_);fill:#F4D2B9;" width="22.11" height="0.27"/>
			
				<rect x="8.89" y="46.17" style="clip-path:url(#SVGID_00000092447266025820473720000013577776426397511297_);fill:#F3D1B8;" width="22.11" height="0.27"/>
			
				<rect x="8.89" y="45.91" style="clip-path:url(#SVGID_00000092447266025820473720000013577776426397511297_);fill:#F3D0B7;" width="22.11" height="0.27"/>
			
				<rect x="8.89" y="45.64" style="clip-path:url(#SVGID_00000092447266025820473720000013577776426397511297_);fill:#F3CFB6;" width="22.11" height="0.27"/>
			
				<rect x="8.89" y="45.38" style="clip-path:url(#SVGID_00000092447266025820473720000013577776426397511297_);fill:#F3CEB5;" width="22.11" height="0.27"/>
			
				<rect x="8.89" y="45.11" style="clip-path:url(#SVGID_00000092447266025820473720000013577776426397511297_);fill:#F2CEB4;" width="22.11" height="0.27"/>
			
				<rect x="8.89" y="44.85" style="clip-path:url(#SVGID_00000092447266025820473720000013577776426397511297_);fill:#F2CDB3;" width="22.11" height="0.27"/>
			
				<rect x="8.89" y="44.58" style="clip-path:url(#SVGID_00000092447266025820473720000013577776426397511297_);fill:#F2CCB2;" width="22.11" height="0.27"/>
			
				<rect x="8.89" y="44.32" style="clip-path:url(#SVGID_00000092447266025820473720000013577776426397511297_);fill:#F2CBB1;" width="22.11" height="0.27"/>
			
				<rect x="8.89" y="44.05" style="clip-path:url(#SVGID_00000092447266025820473720000013577776426397511297_);fill:#F1CAB0;" width="22.11" height="0.27"/>
			
				<rect x="8.89" y="43.79" style="clip-path:url(#SVGID_00000092447266025820473720000013577776426397511297_);fill:#F1C9AF;" width="22.11" height="0.27"/>
			
				<rect x="8.89" y="43.52" style="clip-path:url(#SVGID_00000092447266025820473720000013577776426397511297_);fill:#F1C8AE;" width="22.11" height="0.27"/>
			
				<rect x="8.89" y="43.25" style="clip-path:url(#SVGID_00000092447266025820473720000013577776426397511297_);fill:#F1C8AD;" width="22.11" height="0.27"/>
			
				<rect x="8.89" y="42.99" style="clip-path:url(#SVGID_00000092447266025820473720000013577776426397511297_);fill:#F0C7AC;" width="22.11" height="0.27"/>
			
				<rect x="8.89" y="42.72" style="clip-path:url(#SVGID_00000092447266025820473720000013577776426397511297_);fill:#F0C6AB;" width="22.11" height="0.27"/>
			
				<rect x="8.89" y="42.46" style="clip-path:url(#SVGID_00000092447266025820473720000013577776426397511297_);fill:#F0C5AA;" width="22.11" height="0.27"/>
			
				<rect x="8.89" y="42.19" style="clip-path:url(#SVGID_00000092447266025820473720000013577776426397511297_);fill:#F0C4A9;" width="22.11" height="0.27"/>
			
				<rect x="8.89" y="41.93" style="clip-path:url(#SVGID_00000092447266025820473720000013577776426397511297_);fill:#EFC3A8;" width="22.11" height="0.27"/>
			
				<rect x="8.89" y="41.66" style="clip-path:url(#SVGID_00000092447266025820473720000013577776426397511297_);fill:#EFC3A7;" width="22.11" height="0.27"/>
			
				<rect x="8.89" y="41.4" style="clip-path:url(#SVGID_00000092447266025820473720000013577776426397511297_);fill:#EFC2A5;" width="22.11" height="0.27"/>
			
				<rect x="8.89" y="41.13" style="clip-path:url(#SVGID_00000092447266025820473720000013577776426397511297_);fill:#EEC1A4;" width="22.11" height="0.27"/>
			
				<rect x="8.89" y="40.87" style="clip-path:url(#SVGID_00000092447266025820473720000013577776426397511297_);fill:#EEC0A3;" width="22.11" height="0.27"/>
			
				<rect x="8.89" y="40.6" style="clip-path:url(#SVGID_00000092447266025820473720000013577776426397511297_);fill:#EEBFA2;" width="22.11" height="0.27"/>
			
				<rect x="8.89" y="40.34" style="clip-path:url(#SVGID_00000092447266025820473720000013577776426397511297_);fill:#EEBEA1;" width="22.11" height="0.27"/>
			
				<rect x="8.89" y="40.07" style="clip-path:url(#SVGID_00000092447266025820473720000013577776426397511297_);fill:#EDBDA0;" width="22.11" height="0.27"/>
			
				<rect x="8.89" y="39.81" style="clip-path:url(#SVGID_00000092447266025820473720000013577776426397511297_);fill:#EDBD9F;" width="22.11" height="0.27"/>
			
				<rect x="8.89" y="39.54" style="clip-path:url(#SVGID_00000092447266025820473720000013577776426397511297_);fill:#EDBC9E;" width="22.11" height="0.27"/>
			
				<rect x="8.89" y="39.27" style="clip-path:url(#SVGID_00000092447266025820473720000013577776426397511297_);fill:#EDBB9D;" width="22.11" height="0.27"/>
			
				<rect x="8.89" y="39.01" style="clip-path:url(#SVGID_00000092447266025820473720000013577776426397511297_);fill:#ECBA9C;" width="22.11" height="0.27"/>
			
				<rect x="8.89" y="38.74" style="clip-path:url(#SVGID_00000092447266025820473720000013577776426397511297_);fill:#ECB99B;" width="22.11" height="0.27"/>
			
				<rect x="8.89" y="38.48" style="clip-path:url(#SVGID_00000092447266025820473720000013577776426397511297_);fill:#ECB89A;" width="22.11" height="0.27"/>
			
				<rect x="8.89" y="38.21" style="clip-path:url(#SVGID_00000092447266025820473720000013577776426397511297_);fill:#ECB799;" width="22.11" height="0.27"/>
			
				<rect x="8.89" y="37.95" style="clip-path:url(#SVGID_00000092447266025820473720000013577776426397511297_);fill:#EBB798;" width="22.11" height="0.27"/>
			
				<rect x="8.89" y="37.68" style="clip-path:url(#SVGID_00000092447266025820473720000013577776426397511297_);fill:#EBB697;" width="22.11" height="0.27"/>
			
				<rect x="8.89" y="37.42" style="clip-path:url(#SVGID_00000092447266025820473720000013577776426397511297_);fill:#EBB596;" width="22.11" height="0.27"/>
			
				<rect x="8.89" y="37.15" style="clip-path:url(#SVGID_00000092447266025820473720000013577776426397511297_);fill:#EBB495;" width="22.11" height="0.27"/>
			
				<rect x="8.89" y="36.89" style="clip-path:url(#SVGID_00000092447266025820473720000013577776426397511297_);fill:#EAB394;" width="22.11" height="0.27"/>
			
				<rect x="8.89" y="36.62" style="clip-path:url(#SVGID_00000092447266025820473720000013577776426397511297_);fill:#EAB293;" width="22.11" height="0.27"/>
			
				<rect x="8.89" y="36.36" style="clip-path:url(#SVGID_00000092447266025820473720000013577776426397511297_);fill:#EAB292;" width="22.11" height="0.27"/>
			
				<rect x="8.89" y="36.09" style="clip-path:url(#SVGID_00000092447266025820473720000013577776426397511297_);fill:#EAB191;" width="22.11" height="0.27"/>
			
				<rect x="8.89" y="35.83" style="clip-path:url(#SVGID_00000092447266025820473720000013577776426397511297_);fill:#E9B090;" width="22.11" height="0.27"/>
			
				<rect x="8.89" y="35.56" style="clip-path:url(#SVGID_00000092447266025820473720000013577776426397511297_);fill:#E9AF8F;" width="22.11" height="0.27"/>
			
				<rect x="8.89" y="35.29" style="clip-path:url(#SVGID_00000092447266025820473720000013577776426397511297_);fill:#E9AE8E;" width="22.11" height="0.27"/>
			
				<rect x="8.89" y="35.03" style="clip-path:url(#SVGID_00000092447266025820473720000013577776426397511297_);fill:#E9AD8D;" width="22.11" height="0.27"/>
			
				<rect x="8.89" y="34.76" style="clip-path:url(#SVGID_00000092447266025820473720000013577776426397511297_);fill:#E8AC8C;" width="22.11" height="0.27"/>
			
				<rect x="8.89" y="34.5" style="clip-path:url(#SVGID_00000092447266025820473720000013577776426397511297_);fill:#E8AC8B;" width="22.11" height="0.27"/>
			
				<rect x="8.89" y="34.23" style="clip-path:url(#SVGID_00000092447266025820473720000013577776426397511297_);fill:#E8AB8A;" width="22.11" height="0.27"/>
			
				<rect x="8.89" y="33.97" style="clip-path:url(#SVGID_00000092447266025820473720000013577776426397511297_);fill:#E7AA89;" width="22.11" height="0.27"/>
			
				<rect x="8.89" y="33.7" style="clip-path:url(#SVGID_00000092447266025820473720000013577776426397511297_);fill:#E7A988;" width="22.11" height="0.27"/>
			
				<rect x="8.89" y="33.44" style="clip-path:url(#SVGID_00000092447266025820473720000013577776426397511297_);fill:#E7A887;" width="22.11" height="0.27"/>
			
				<rect x="8.89" y="33.17" style="clip-path:url(#SVGID_00000092447266025820473720000013577776426397511297_);fill:#E7A786;" width="22.11" height="0.27"/>
			
				<rect x="8.89" y="32.91" style="clip-path:url(#SVGID_00000092447266025820473720000013577776426397511297_);fill:#E6A685;" width="22.11" height="0.27"/>
			
				<rect x="8.89" y="32.64" style="clip-path:url(#SVGID_00000092447266025820473720000013577776426397511297_);fill:#E6A684;" width="22.11" height="0.27"/>
			
				<rect x="8.89" y="32.38" style="clip-path:url(#SVGID_00000092447266025820473720000013577776426397511297_);fill:#E6A583;" width="22.11" height="0.27"/>
			
				<rect x="8.89" y="32.11" style="clip-path:url(#SVGID_00000092447266025820473720000013577776426397511297_);fill:#E6A482;" width="22.11" height="0.27"/>
			
				<rect x="8.89" y="31.84" style="clip-path:url(#SVGID_00000092447266025820473720000013577776426397511297_);fill:#E5A381;" width="22.11" height="0.27"/>
			
				<rect x="8.89" y="31.58" style="clip-path:url(#SVGID_00000092447266025820473720000013577776426397511297_);fill:#E5A280;" width="22.11" height="0.27"/>
			
				<rect x="8.89" y="31.31" style="clip-path:url(#SVGID_00000092447266025820473720000013577776426397511297_);fill:#E5A17F;" width="22.11" height="0.27"/>
			
				<rect x="8.89" y="31.05" style="clip-path:url(#SVGID_00000092447266025820473720000013577776426397511297_);fill:#E5A17E;" width="22.11" height="0.27"/>
			
				<rect x="8.89" y="30.78" style="clip-path:url(#SVGID_00000092447266025820473720000013577776426397511297_);fill:#E4A07D;" width="22.11" height="0.27"/>
			
				<rect x="8.89" y="30.52" style="clip-path:url(#SVGID_00000092447266025820473720000013577776426397511297_);fill:#E49F7C;" width="22.11" height="0.27"/>
			
				<rect x="8.89" y="30.25" style="clip-path:url(#SVGID_00000092447266025820473720000013577776426397511297_);fill:#E49E7B;" width="22.11" height="0.27"/>
			
				<rect x="8.89" y="29.99" style="clip-path:url(#SVGID_00000092447266025820473720000013577776426397511297_);fill:#E49D7A;" width="22.11" height="0.27"/>
			
				<rect x="8.89" y="29.72" style="clip-path:url(#SVGID_00000092447266025820473720000013577776426397511297_);fill:#E39C79;" width="22.11" height="0.27"/>
			
				<rect x="8.89" y="29.46" style="clip-path:url(#SVGID_00000092447266025820473720000013577776426397511297_);fill:#E39B78;" width="22.11" height="0.27"/>
			
				<rect x="8.89" y="29.19" style="clip-path:url(#SVGID_00000092447266025820473720000013577776426397511297_);fill:#E39B77;" width="22.11" height="0.27"/>
			
				<rect x="8.89" y="28.93" style="clip-path:url(#SVGID_00000092447266025820473720000013577776426397511297_);fill:#E39A76;" width="22.11" height="0.27"/>
			
				<rect x="8.89" y="28.66" style="clip-path:url(#SVGID_00000092447266025820473720000013577776426397511297_);fill:#E29975;" width="22.11" height="0.27"/>
			
				<rect x="8.89" y="28.4" style="clip-path:url(#SVGID_00000092447266025820473720000013577776426397511297_);fill:#E29874;" width="22.11" height="0.27"/>
			<path style="clip-path:url(#SVGID_00000092447266025820473720000013577776426397511297_);fill:#E29874;" d="M31,28.4H8.89H31z"/>
		</g>
	</g>
</g>
</svg>
