<?xml version="1.0" encoding="utf-8"?>
<!-- Generator: Adobe Illustrator 27.0.1, SVG Export Plug-In . SVG Version: 6.00 Build 0)  -->
<svg version="1.1" id="Layer_1" xmlns="http://www.w3.org/2000/svg" xmlns:xlink="http://www.w3.org/1999/xlink" x="0px" y="0px"
	 viewBox="0 0 40 100" style="enable-background:new 0 0 40 100;" xml:space="preserve">
<style type="text/css">
	.st0{fill:#FFFFFF;}
	.st1{fill:#131212;}
	.st2{clip-path:url(#SVGID_00000163047074241895012210000008139747012578543232_);fill:#ECF1F7;}
	.st3{clip-path:url(#SVGID_00000163047074241895012210000008139747012578543232_);fill:#EDF2F7;}
	.st4{clip-path:url(#SVGID_00000163047074241895012210000008139747012578543232_);fill:#EEF3F8;}
	.st5{clip-path:url(#SVGID_00000163047074241895012210000008139747012578543232_);fill:#EFF3F8;}
	.st6{clip-path:url(#SVGID_00000163047074241895012210000008139747012578543232_);fill:#F0F4F9;}
	.st7{clip-path:url(#SVGID_00000163047074241895012210000008139747012578543232_);fill:#F1F5F9;}
	.st8{clip-path:url(#SVGID_00000163047074241895012210000008139747012578543232_);fill:#F2F6FA;}
	.st9{clip-path:url(#SVGID_00000163047074241895012210000008139747012578543232_);fill:#F3F6FA;}
	.st10{clip-path:url(#SVGID_00000163047074241895012210000008139747012578543232_);fill:#F4F7FB;}
	.st11{clip-path:url(#SVGID_00000163047074241895012210000008139747012578543232_);fill:#F6F8FB;}
	.st12{clip-path:url(#SVGID_00000163047074241895012210000008139747012578543232_);fill:#F7F9FB;}
	.st13{clip-path:url(#SVGID_00000163047074241895012210000008139747012578543232_);fill:#F8FAFC;}
	.st14{clip-path:url(#SVGID_00000163047074241895012210000008139747012578543232_);fill:#F9FAFC;}
	.st15{clip-path:url(#SVGID_00000163047074241895012210000008139747012578543232_);fill:#FAFBFD;}
	.st16{clip-path:url(#SVGID_00000163047074241895012210000008139747012578543232_);fill:#FBFCFD;}
	.st17{clip-path:url(#SVGID_00000163047074241895012210000008139747012578543232_);fill:#FCFDFE;}
	.st18{clip-path:url(#SVGID_00000163047074241895012210000008139747012578543232_);fill:#FDFDFE;}
	.st19{clip-path:url(#SVGID_00000163047074241895012210000008139747012578543232_);fill:#FEFEFF;}
	.st20{clip-path:url(#SVGID_00000163047074241895012210000008139747012578543232_);fill:#FFFFFF;}
	.st21{clip-path:url(#SVGID_00000090269222705476472430000014315300799208757141_);fill:#FBEAD5;}
	.st22{clip-path:url(#SVGID_00000090269222705476472430000014315300799208757141_);fill:#FBEBD6;}
	.st23{clip-path:url(#SVGID_00000090269222705476472430000014315300799208757141_);fill:#FCECD8;}
	.st24{clip-path:url(#SVGID_00000090269222705476472430000014315300799208757141_);fill:#FCEDD9;}
	.st25{clip-path:url(#SVGID_00000090269222705476472430000014315300799208757141_);fill:#FBEBD7;}
	.st26{clip-path:url(#SVGID_00000090269222705476472430000014315300799208757141_);fill:#FBEAD6;}
	.st27{clip-path:url(#SVGID_00000090269222705476472430000014315300799208757141_);fill:#FBE9D4;}
	.st28{clip-path:url(#SVGID_00000090269222705476472430000014315300799208757141_);fill:#FAE8D3;}
	.st29{clip-path:url(#SVGID_00000090269222705476472430000014315300799208757141_);fill:#FAE7D2;}
	.st30{clip-path:url(#SVGID_00000090269222705476472430000014315300799208757141_);fill:#FAE6D1;}
	.st31{clip-path:url(#SVGID_00000090269222705476472430000014315300799208757141_);fill:#FAE5D0;}
	.st32{clip-path:url(#SVGID_00000090269222705476472430000014315300799208757141_);fill:#F9E5CF;}
	.st33{clip-path:url(#SVGID_00000090269222705476472430000014315300799208757141_);fill:#F9E4CE;}
	.st34{clip-path:url(#SVGID_00000090269222705476472430000014315300799208757141_);fill:#F9E3CD;}
	.st35{clip-path:url(#SVGID_00000090269222705476472430000014315300799208757141_);fill:#F9E2CC;}
	.st36{clip-path:url(#SVGID_00000090269222705476472430000014315300799208757141_);fill:#F8E1CB;}
	.st37{clip-path:url(#SVGID_00000090269222705476472430000014315300799208757141_);fill:#F8E0CA;}
	.st38{clip-path:url(#SVGID_00000090269222705476472430000014315300799208757141_);fill:#F8DFC9;}
	.st39{clip-path:url(#SVGID_00000090269222705476472430000014315300799208757141_);fill:#F8DFC8;}
	.st40{clip-path:url(#SVGID_00000090269222705476472430000014315300799208757141_);fill:#F7DEC7;}
	.st41{clip-path:url(#SVGID_00000090269222705476472430000014315300799208757141_);fill:#F7DDC6;}
	.st42{clip-path:url(#SVGID_00000090269222705476472430000014315300799208757141_);fill:#F7DCC5;}
	.st43{clip-path:url(#SVGID_00000090269222705476472430000014315300799208757141_);fill:#F7DBC4;}
	.st44{clip-path:url(#SVGID_00000090269222705476472430000014315300799208757141_);fill:#F6DAC3;}
	.st45{clip-path:url(#SVGID_00000090269222705476472430000014315300799208757141_);fill:#F6D9C2;}
	.st46{clip-path:url(#SVGID_00000090269222705476472430000014315300799208757141_);fill:#F6D9C1;}
	.st47{clip-path:url(#SVGID_00000090269222705476472430000014315300799208757141_);fill:#F6D8C0;}
	.st48{clip-path:url(#SVGID_00000090269222705476472430000014315300799208757141_);fill:#F5D7BF;}
	.st49{clip-path:url(#SVGID_00000090269222705476472430000014315300799208757141_);fill:#F5D6BE;}
	.st50{clip-path:url(#SVGID_00000090269222705476472430000014315300799208757141_);fill:#F5D5BD;}
	.st51{clip-path:url(#SVGID_00000090269222705476472430000014315300799208757141_);fill:#F4D4BC;}
	.st52{clip-path:url(#SVGID_00000090269222705476472430000014315300799208757141_);fill:#F4D4BB;}
	.st53{clip-path:url(#SVGID_00000090269222705476472430000014315300799208757141_);fill:#F4D3BA;}
	.st54{clip-path:url(#SVGID_00000090269222705476472430000014315300799208757141_);fill:#F4D2B9;}
	.st55{clip-path:url(#SVGID_00000090269222705476472430000014315300799208757141_);fill:#F3D1B8;}
	.st56{clip-path:url(#SVGID_00000090269222705476472430000014315300799208757141_);fill:#F3D0B7;}
	.st57{clip-path:url(#SVGID_00000090269222705476472430000014315300799208757141_);fill:#F3CFB6;}
	.st58{clip-path:url(#SVGID_00000090269222705476472430000014315300799208757141_);fill:#F3CEB5;}
	.st59{clip-path:url(#SVGID_00000090269222705476472430000014315300799208757141_);fill:#F2CEB4;}
	.st60{clip-path:url(#SVGID_00000090269222705476472430000014315300799208757141_);fill:#F2CDB3;}
	.st61{clip-path:url(#SVGID_00000090269222705476472430000014315300799208757141_);fill:#F2CCB2;}
	.st62{clip-path:url(#SVGID_00000090269222705476472430000014315300799208757141_);fill:#F2CBB1;}
	.st63{clip-path:url(#SVGID_00000090269222705476472430000014315300799208757141_);fill:#F1CAB0;}
	.st64{clip-path:url(#SVGID_00000090269222705476472430000014315300799208757141_);fill:#F1C9AF;}
	.st65{clip-path:url(#SVGID_00000090269222705476472430000014315300799208757141_);fill:#F1C8AE;}
	.st66{clip-path:url(#SVGID_00000090269222705476472430000014315300799208757141_);fill:#F1C8AD;}
	.st67{clip-path:url(#SVGID_00000090269222705476472430000014315300799208757141_);fill:#F0C7AC;}
	.st68{clip-path:url(#SVGID_00000090269222705476472430000014315300799208757141_);fill:#F0C6AB;}
	.st69{clip-path:url(#SVGID_00000090269222705476472430000014315300799208757141_);fill:#F0C5AA;}
	.st70{clip-path:url(#SVGID_00000090269222705476472430000014315300799208757141_);fill:#F0C4A9;}
	.st71{clip-path:url(#SVGID_00000090269222705476472430000014315300799208757141_);fill:#EFC3A8;}
	.st72{clip-path:url(#SVGID_00000090269222705476472430000014315300799208757141_);fill:#EFC3A7;}
	.st73{clip-path:url(#SVGID_00000090269222705476472430000014315300799208757141_);fill:#EFC2A5;}
	.st74{clip-path:url(#SVGID_00000090269222705476472430000014315300799208757141_);fill:#EEC1A4;}
	.st75{clip-path:url(#SVGID_00000090269222705476472430000014315300799208757141_);fill:#EEC0A3;}
	.st76{clip-path:url(#SVGID_00000090269222705476472430000014315300799208757141_);fill:#EEBFA2;}
	.st77{clip-path:url(#SVGID_00000090269222705476472430000014315300799208757141_);fill:#EEBEA1;}
	.st78{clip-path:url(#SVGID_00000090269222705476472430000014315300799208757141_);fill:#EDBDA0;}
	.st79{clip-path:url(#SVGID_00000090269222705476472430000014315300799208757141_);fill:#EDBD9F;}
	.st80{clip-path:url(#SVGID_00000090269222705476472430000014315300799208757141_);fill:#EDBC9E;}
	.st81{clip-path:url(#SVGID_00000090269222705476472430000014315300799208757141_);fill:#EDBB9D;}
	.st82{clip-path:url(#SVGID_00000090269222705476472430000014315300799208757141_);fill:#ECBA9C;}
	.st83{clip-path:url(#SVGID_00000090269222705476472430000014315300799208757141_);fill:#ECB99B;}
	.st84{clip-path:url(#SVGID_00000090269222705476472430000014315300799208757141_);fill:#ECB89A;}
	.st85{clip-path:url(#SVGID_00000090269222705476472430000014315300799208757141_);fill:#ECB799;}
	.st86{clip-path:url(#SVGID_00000090269222705476472430000014315300799208757141_);fill:#EBB798;}
	.st87{clip-path:url(#SVGID_00000090269222705476472430000014315300799208757141_);fill:#EBB697;}
	.st88{clip-path:url(#SVGID_00000090269222705476472430000014315300799208757141_);fill:#EBB596;}
	.st89{clip-path:url(#SVGID_00000090269222705476472430000014315300799208757141_);fill:#EBB495;}
	.st90{clip-path:url(#SVGID_00000090269222705476472430000014315300799208757141_);fill:#EAB394;}
	.st91{clip-path:url(#SVGID_00000090269222705476472430000014315300799208757141_);fill:#EAB293;}
	.st92{clip-path:url(#SVGID_00000090269222705476472430000014315300799208757141_);fill:#EAB292;}
	.st93{clip-path:url(#SVGID_00000090269222705476472430000014315300799208757141_);fill:#EAB191;}
	.st94{clip-path:url(#SVGID_00000090269222705476472430000014315300799208757141_);fill:#E9B090;}
	.st95{clip-path:url(#SVGID_00000090269222705476472430000014315300799208757141_);fill:#E9AF8F;}
	.st96{clip-path:url(#SVGID_00000090269222705476472430000014315300799208757141_);fill:#E9AE8E;}
	.st97{clip-path:url(#SVGID_00000090269222705476472430000014315300799208757141_);fill:#E9AD8D;}
	.st98{clip-path:url(#SVGID_00000090269222705476472430000014315300799208757141_);fill:#E8AC8C;}
	.st99{clip-path:url(#SVGID_00000090269222705476472430000014315300799208757141_);fill:#E8AC8B;}
	.st100{clip-path:url(#SVGID_00000090269222705476472430000014315300799208757141_);fill:#E8AB8A;}
	.st101{clip-path:url(#SVGID_00000090269222705476472430000014315300799208757141_);fill:#E7AA89;}
	.st102{clip-path:url(#SVGID_00000090269222705476472430000014315300799208757141_);fill:#E7A988;}
	.st103{clip-path:url(#SVGID_00000090269222705476472430000014315300799208757141_);fill:#E7A887;}
	.st104{clip-path:url(#SVGID_00000090269222705476472430000014315300799208757141_);fill:#E7A786;}
	.st105{clip-path:url(#SVGID_00000090269222705476472430000014315300799208757141_);fill:#E6A685;}
	.st106{clip-path:url(#SVGID_00000090269222705476472430000014315300799208757141_);fill:#E6A684;}
	.st107{clip-path:url(#SVGID_00000090269222705476472430000014315300799208757141_);fill:#E6A583;}
	.st108{clip-path:url(#SVGID_00000090269222705476472430000014315300799208757141_);fill:#E6A482;}
	.st109{clip-path:url(#SVGID_00000090269222705476472430000014315300799208757141_);fill:#E5A381;}
	.st110{clip-path:url(#SVGID_00000090269222705476472430000014315300799208757141_);fill:#E5A280;}
	.st111{clip-path:url(#SVGID_00000090269222705476472430000014315300799208757141_);fill:#E5A17F;}
	.st112{clip-path:url(#SVGID_00000090269222705476472430000014315300799208757141_);fill:#E5A17E;}
	.st113{clip-path:url(#SVGID_00000090269222705476472430000014315300799208757141_);fill:#E4A07D;}
	.st114{clip-path:url(#SVGID_00000090269222705476472430000014315300799208757141_);fill:#E49F7C;}
	.st115{clip-path:url(#SVGID_00000090269222705476472430000014315300799208757141_);fill:#E49E7B;}
	.st116{clip-path:url(#SVGID_00000090269222705476472430000014315300799208757141_);fill:#E49D7A;}
	.st117{clip-path:url(#SVGID_00000090269222705476472430000014315300799208757141_);fill:#E39C79;}
	.st118{clip-path:url(#SVGID_00000090269222705476472430000014315300799208757141_);fill:#E39B78;}
	.st119{clip-path:url(#SVGID_00000090269222705476472430000014315300799208757141_);fill:#E39B77;}
	.st120{clip-path:url(#SVGID_00000090269222705476472430000014315300799208757141_);fill:#E39A76;}
	.st121{clip-path:url(#SVGID_00000090269222705476472430000014315300799208757141_);fill:#E29975;}
	.st122{clip-path:url(#SVGID_00000090269222705476472430000014315300799208757141_);fill:#E29874;}
</style>
<g>
	<g id="path222_00000103976074578909407530000010152702614850142356_">
		<path class="st0" d="M30.83,2.25c-0.07,0.04-0.14,0.08-0.2,0.12c-2.66,1.42-4.88,1.92-7.14,1.6c-0.24-0.15-0.49-0.29-0.75-0.4
			C24.9,1.38,28.07,1.75,30.83,2.25"/>
	</g>
	<g id="path232">
		<path class="st0" d="M16.79,3.65c-0.47,0.14-0.96,0.31-1.49,0.51c0,0,0,0-0.01,0c-0.2,0.07-0.39,0.15-0.6,0.22
			c-0.15-0.01-0.99-0.43-1.44-0.66c-0.42-0.21-0.69-0.34-0.84-0.39c-0.4-0.13-0.77-0.22-1.14-0.31C13.12,1.98,14.93,2.18,16.79,3.65
			"/>
	</g>
	<g id="path216_00000101086912373597560670000008460030522274142901_">
		<path class="st1" d="M14.72,4.16c0.53-0.2,1.02-0.37,1.49-0.51c-1.86-1.47-3.67-1.67-5.51-0.62c0.37,0.08,0.74,0.18,1.14,0.31
			c0.15,0.05,0.42,0.18,0.84,0.39c0.45,0.22,1.29,0.64,1.44,0.66C14.32,4.31,14.52,4.23,14.72,4.16
			C14.72,4.16,14.72,4.16,14.72,4.16L14.72,4.16z M30.05,2.37c0.06-0.04,0.13-0.08,0.2-0.12c-2.76-0.5-5.93-0.86-8.09,1.31
			c0.26,0.11,0.51,0.25,0.75,0.4C25.17,4.28,27.39,3.79,30.05,2.37z M34.66,42.56c0.12-2.68,0.09-5.4-0.07-8.08
			c-0.04-0.68-0.14-1.39-0.25-2.14c-0.24-1.69-0.49-3.43-0.07-4.98c0.03-0.12,0.07-0.25,0.11-0.38c-0.79,0.29-1.57,0.41-2.33,0.41
			c-1.38,0-2.7-0.37-3.9-0.77c-1.8-0.59-3.66-1.21-5.44-0.76c-0.57,0.15-1.15,0.41-1.7,0.67c-0.91,0.41-1.83,0.85-2.89,0.82
			c-1.09-0.04-2.04-0.57-2.95-1.09c-0.56-0.32-1.14-0.65-1.73-0.85c-1.29-0.43-2.72-0.28-4.1-0.13c-0.38,0.04-0.77,0.08-1.15,0.11
			c-1.98,0.15-3.54-0.29-4.91-1.39c0.82,1.89,1.66,3.85,2.02,6.01c0.8,4.7,0.72,9.86-0.27,16.25c-2.2,10.18-1.46,17,2.32,20.91
			c1.35,1.85,2.5,2.34,3.55,1.44c0.64-0.55,0.98-1.43,0.9-2.35c-0.35-4.23,0.33-7.82,2.06-10.95c0.82-1.77,1.92-4.43,2-6.9
			c0.01-0.33-0.02-0.72-0.05-1.12c-0.12-1.43-0.26-3.21,1.49-3.84c0.85-0.31,1.87-0.15,2.68,0.39c1.63,1.11,1.92,2.92,2.17,4.53
			l0.04,0.24c1.02,6.44,0.06,13.11-0.78,18.99c-0.12,0.83-0.24,1.66-0.35,2.47c-0.07,0.47-0.01,0.93,0.17,1.34
			c0.32,0.76,0.82,1.13,1.51,1.13c0.66,0,1.47-0.34,2.24-0.92c4.39-3.35,6.25-8.93,7.38-13.42C33.67,53.09,34.44,47.84,34.66,42.56
			L34.66,42.56z M36.8,21.97c2.15-4.38,2.83-9.51,1.91-14.43L38.63,7.1c-0.31-1.73-0.74-4.09-2.19-4.96
			c-0.6-0.36-1.31-0.54-2.09-0.54c-1.65,0-3.21,0.8-4,1.29c-2.82,1.51-5.18,2.01-7.58,1.66L22.64,4.5
			c-0.85-0.57-1.83-0.84-3.01-0.84c-1.29,0-2.79,0.34-4.67,1.04c-1.53,0.79-2.2,1.21-2.46,1.99l-0.2,0.42
			c-0.17-0.97,0.5-1.73,1.3-2.3c-0.31-0.12-0.7-0.31-1.2-0.56C12.1,4.1,11.78,3.93,11.66,3.9c-1.01-0.33-1.91-0.5-2.75-0.53
			C8.8,3.37,8.69,3.36,8.58,3.36c-1.7,0-3.25,0.49-4.23,1.33C1.79,6.9,0.77,12.03,0.9,15.86c0.09,2.46,0.89,4.64,1.79,6.73
			c1.5,1.72,3.14,2.37,5.47,2.2c0.37-0.03,0.75-0.07,1.13-0.11c1.45-0.15,2.94-0.31,4.35,0.16c0.65,0.22,1.25,0.56,1.83,0.9
			c0.89,0.51,1.73,0.99,2.67,1.02c0.9,0.03,1.74-0.35,2.63-0.76c0.57-0.27,1.17-0.54,1.8-0.7c1.93-0.49,3.88,0.15,5.78,0.78
			c2.4,0.79,4.31,1.09,6.3,0.17c0.38-0.95,0.86-1.85,1.33-2.73C36.27,23,36.55,22.49,36.8,21.97L36.8,21.97z M39.29,7.43
			c0.94,5.05,0.25,10.31-1.96,14.8c-0.26,0.52-0.53,1.04-0.81,1.55c-0.57,1.05-1.15,2.15-1.54,3.3c-0.05,0.15-0.09,0.29-0.13,0.43
			c-0.38,1.44-0.15,3.12,0.08,4.75c0.11,0.76,0.21,1.49,0.25,2.19c0.16,2.7,0.18,5.44,0.07,8.14c-0.23,5.31-1.01,10.61-2.3,15.74
			c-1.06,4.22-3.01,10.24-7.6,13.74c-0.86,0.66-1.81,1.04-2.59,1.04c-0.65,0-1.54-0.26-2.06-1.49c-0.22-0.5-0.29-1.08-0.21-1.65
			c0.11-0.81,0.22-1.63,0.35-2.47c0.83-5.84,1.79-12.47,0.78-18.81l-0.04-0.24c-0.24-1.56-0.5-3.17-1.91-4.13
			c-0.66-0.44-1.49-0.57-2.15-0.33c-1.32,0.49-1.21,1.89-1.1,3.24c0.04,0.42,0.07,0.82,0.05,1.19c-0.09,2.58-1.21,5.3-2.06,7.15
			c-1.69,3.04-2.34,6.52-2,10.63c0.09,1.11-0.32,2.17-1.11,2.85c-0.45,0.38-0.93,0.57-1.43,0.57c-0.96,0-1.93-0.69-2.96-2.08
			c-3.89-4.03-4.69-11.03-2.45-21.41c0.98-6.31,1.06-11.4,0.27-16.04c-0.37-2.2-1.25-4.2-2.1-6.15c-1.09-2.48-2.22-5.05-2.33-8.07
			C0.2,12.82,0.84,6.93,3.96,4.25c1.09-0.94,2.77-1.48,4.61-1.48c0.12,0,0.24,0.01,0.35,0.01c0.3,0.01,0.6,0.04,0.91,0.09
			c2.34-1.63,4.72-1.44,7.06,0.59c1.01-0.26,1.91-0.39,2.73-0.39c0.7,0,1.33,0.1,1.92,0.28c2.57-2.83,6.58-2.1,9.54-1.54
			C31.98,1.4,33.13,1,34.34,1c0.89,0,1.7,0.21,2.4,0.63c1.67,1,2.13,3.52,2.46,5.36L39.29,7.43"/>
	</g>
	<g id="path218_00000163764015355381181740000000824544452158330016_">
		<g>
			<defs>
				<path id="SVGID_1_" d="M38.7,7.54c0.92,4.92,0.25,10.05-1.91,14.43C36.55,22.49,36.27,23,36,23.5
					c-0.47,0.88-0.95,1.79-1.33,2.73c-1.99,0.92-3.9,0.62-6.3-0.17c-1.9-0.63-3.85-1.27-5.78-0.78c-0.63,0.16-1.23,0.44-1.8,0.7
					c-0.89,0.41-1.73,0.79-2.63,0.76c-0.95-0.03-1.79-0.51-2.67-1.02c-0.58-0.34-1.18-0.68-1.83-0.9c-1.41-0.47-2.91-0.31-4.35-0.16
					c-0.38,0.04-0.76,0.08-1.13,0.11c-2.33,0.18-3.97-0.48-5.47-2.2c-0.89-2.09-1.7-4.28-1.79-6.73C0.77,12.03,1.79,6.9,4.35,4.69
					c0.98-0.85,2.53-1.33,4.23-1.33c0.11,0,0.22,0.01,0.33,0.01c0.84,0.03,1.74,0.2,2.75,0.53c0.12,0.04,0.44,0.2,0.75,0.35
					c0.5,0.25,0.89,0.44,1.2,0.56c-0.8,0.57-1.47,1.33-1.3,2.3l0.2-0.42c0.27-0.79,0.93-1.2,2.46-1.99c1.88-0.7,3.38-1.04,4.67-1.04
					c1.18,0,2.16,0.27,3.01,0.84l0.12,0.05c2.4,0.35,4.76-0.15,7.58-1.66c0.79-0.49,2.35-1.29,4-1.29c0.78,0,1.49,0.18,2.09,0.54
					c1.45,0.87,1.88,3.24,2.19,4.96L38.7,7.54"/>
			</defs>
			<clipPath id="SVGID_00000044875138092609092490000007176688335799482788_">
				<use xlink:href="#SVGID_1_"  style="overflow:visible;"/>
			</clipPath>
			
				<rect x="0.77" y="19.18" style="clip-path:url(#SVGID_00000044875138092609092490000007176688335799482788_);fill:#ECF1F7;" width="38.86" height="7.97"/>
			
				<rect x="0.77" y="18.59" style="clip-path:url(#SVGID_00000044875138092609092490000007176688335799482788_);fill:#ECF1F7;" width="38.86" height="0.59"/>
			
				<rect x="0.77" y="18.01" style="clip-path:url(#SVGID_00000044875138092609092490000007176688335799482788_);fill:#EDF2F7;" width="38.86" height="0.59"/>
			
				<rect x="0.77" y="17.42" style="clip-path:url(#SVGID_00000044875138092609092490000007176688335799482788_);fill:#EEF3F8;" width="38.86" height="0.59"/>
			
				<rect x="0.77" y="16.83" style="clip-path:url(#SVGID_00000044875138092609092490000007176688335799482788_);fill:#EFF3F8;" width="38.86" height="0.59"/>
			
				<rect x="0.77" y="16.24" style="clip-path:url(#SVGID_00000044875138092609092490000007176688335799482788_);fill:#F0F4F9;" width="38.86" height="0.59"/>
			
				<rect x="0.77" y="15.65" style="clip-path:url(#SVGID_00000044875138092609092490000007176688335799482788_);fill:#F1F5F9;" width="38.86" height="0.59"/>
			
				<rect x="0.77" y="15.06" style="clip-path:url(#SVGID_00000044875138092609092490000007176688335799482788_);fill:#F2F6FA;" width="38.86" height="0.59"/>
			
				<rect x="0.77" y="14.47" style="clip-path:url(#SVGID_00000044875138092609092490000007176688335799482788_);fill:#F3F6FA;" width="38.86" height="0.59"/>
			
				<rect x="0.77" y="13.89" style="clip-path:url(#SVGID_00000044875138092609092490000007176688335799482788_);fill:#F4F7FB;" width="38.86" height="0.59"/>
			
				<rect x="0.77" y="13.3" style="clip-path:url(#SVGID_00000044875138092609092490000007176688335799482788_);fill:#F6F8FB;" width="38.86" height="0.59"/>
			
				<rect x="0.77" y="12.71" style="clip-path:url(#SVGID_00000044875138092609092490000007176688335799482788_);fill:#F7F9FB;" width="38.86" height="0.59"/>
			
				<rect x="0.77" y="12.12" style="clip-path:url(#SVGID_00000044875138092609092490000007176688335799482788_);fill:#F8FAFC;" width="38.86" height="0.59"/>
			
				<rect x="0.77" y="11.53" style="clip-path:url(#SVGID_00000044875138092609092490000007176688335799482788_);fill:#F9FAFC;" width="38.86" height="0.59"/>
			
				<rect x="0.77" y="10.94" style="clip-path:url(#SVGID_00000044875138092609092490000007176688335799482788_);fill:#FAFBFD;" width="38.86" height="0.59"/>
			
				<rect x="0.77" y="10.35" style="clip-path:url(#SVGID_00000044875138092609092490000007176688335799482788_);fill:#FBFCFD;" width="38.86" height="0.59"/>
			
				<rect x="0.77" y="9.77" style="clip-path:url(#SVGID_00000044875138092609092490000007176688335799482788_);fill:#FCFDFE;" width="38.86" height="0.59"/>
			
				<rect x="0.77" y="9.18" style="clip-path:url(#SVGID_00000044875138092609092490000007176688335799482788_);fill:#FDFDFE;" width="38.86" height="0.59"/>
			
				<rect x="0.77" y="8.59" style="clip-path:url(#SVGID_00000044875138092609092490000007176688335799482788_);fill:#FEFEFF;" width="38.86" height="0.59"/>
			
				<rect x="0.77" y="8" style="clip-path:url(#SVGID_00000044875138092609092490000007176688335799482788_);fill:#FFFFFF;" width="38.86" height="0.59"/>
			
				<rect x="0.77" y="1.59" style="clip-path:url(#SVGID_00000044875138092609092490000007176688335799482788_);fill:#FFFFFF;" width="38.86" height="6.41"/>
		</g>
	</g>
	<g id="path220_00000173853943952348598500000003068185165596205462_">
		<g>
			<defs>
				<path id="SVGID_00000026860155991553053500000007858830577244316293_" d="M34.6,34.49c0.16,2.67,0.18,5.4,0.07,8.08
					c-0.22,5.27-0.99,10.53-2.28,15.62C31.25,62.67,29.39,68.25,25,71.6c-0.77,0.59-1.58,0.92-2.24,0.92c-0.7,0-1.2-0.37-1.51-1.13
					c-0.17-0.41-0.23-0.87-0.17-1.34c0.11-0.81,0.22-1.63,0.35-2.47c0.84-5.88,1.8-12.55,0.78-18.99l-0.04-0.24
					c-0.25-1.61-0.54-3.43-2.17-4.53c-0.81-0.54-1.83-0.7-2.68-0.39c-1.75,0.63-1.6,2.41-1.49,3.84c0.03,0.4,0.06,0.79,0.05,1.12
					c-0.08,2.47-1.18,5.12-2,6.9c-1.74,3.14-2.42,6.72-2.06,10.95c0.08,0.92-0.25,1.8-0.9,2.35c-1.05,0.9-2.2,0.4-3.55-1.44
					c-3.77-3.9-4.52-10.73-2.32-20.91C6.04,39.86,6.12,34.7,5.32,30c-0.37-2.16-1.2-4.12-2.02-6.01c1.37,1.1,2.93,1.54,4.91,1.39
					c0.38-0.03,0.76-0.07,1.15-0.11c1.38-0.15,2.81-0.3,4.1,0.13c0.59,0.2,1.17,0.53,1.73,0.85c0.91,0.52,1.85,1.06,2.95,1.09
					c1.05,0.03,1.98-0.4,2.89-0.82c0.56-0.26,1.13-0.52,1.7-0.67c1.77-0.44,3.63,0.17,5.44,0.76c1.2,0.4,2.52,0.77,3.9,0.77
					c0.76,0,1.54-0.12,2.33-0.41c-0.04,0.13-0.08,0.25-0.11,0.38c-0.41,1.56-0.17,3.3,0.07,4.98C34.46,33.1,34.56,33.81,34.6,34.49"
					/>
			</defs>
			<clipPath id="SVGID_00000030463905403720874520000013463921846290237878_">
				<use xlink:href="#SVGID_00000026860155991553053500000007858830577244316293_"  style="overflow:visible;"/>
			</clipPath>
			
				<rect x="2.86" y="70.04" style="clip-path:url(#SVGID_00000030463905403720874520000013463921846290237878_);fill:#FBEAD5;" width="31.93" height="2.48"/>
			
				<rect x="2.86" y="63.86" style="clip-path:url(#SVGID_00000030463905403720874520000013463921846290237878_);fill:#FBEAD5;" width="31.93" height="6.18"/>
			
				<rect x="2.86" y="57.67" style="clip-path:url(#SVGID_00000030463905403720874520000013463921846290237878_);fill:#FBEBD6;" width="31.93" height="6.18"/>
			
				<rect x="2.86" y="51.49" style="clip-path:url(#SVGID_00000030463905403720874520000013463921846290237878_);fill:#FCECD8;" width="31.93" height="6.18"/>
			
				<rect x="2.86" y="45.31" style="clip-path:url(#SVGID_00000030463905403720874520000013463921846290237878_);fill:#FCEDD9;" width="31.93" height="6.18"/>
			
				<rect x="2.86" y="45.1" style="clip-path:url(#SVGID_00000030463905403720874520000013463921846290237878_);fill:#FCEDD9;" width="31.93" height="0.21"/>
			
				<rect x="2.86" y="44.88" style="clip-path:url(#SVGID_00000030463905403720874520000013463921846290237878_);fill:#FCECD8;" width="31.93" height="0.21"/>
			
				<rect x="2.86" y="44.67" style="clip-path:url(#SVGID_00000030463905403720874520000013463921846290237878_);fill:#FBEBD7;" width="31.93" height="0.21"/>
			
				<rect x="2.86" y="44.46" style="clip-path:url(#SVGID_00000030463905403720874520000013463921846290237878_);fill:#FBEAD6;" width="31.93" height="0.21"/>
			
				<rect x="2.86" y="44.25" style="clip-path:url(#SVGID_00000030463905403720874520000013463921846290237878_);fill:#FBEAD5;" width="31.93" height="0.21"/>
			
				<rect x="2.86" y="44.04" style="clip-path:url(#SVGID_00000030463905403720874520000013463921846290237878_);fill:#FBE9D4;" width="31.93" height="0.21"/>
			
				<rect x="2.86" y="43.83" style="clip-path:url(#SVGID_00000030463905403720874520000013463921846290237878_);fill:#FAE8D3;" width="31.93" height="0.21"/>
			
				<rect x="2.86" y="43.62" style="clip-path:url(#SVGID_00000030463905403720874520000013463921846290237878_);fill:#FAE7D2;" width="31.93" height="0.21"/>
			
				<rect x="2.86" y="43.41" style="clip-path:url(#SVGID_00000030463905403720874520000013463921846290237878_);fill:#FAE6D1;" width="31.93" height="0.21"/>
			
				<rect x="2.86" y="43.2" style="clip-path:url(#SVGID_00000030463905403720874520000013463921846290237878_);fill:#FAE5D0;" width="31.93" height="0.21"/>
			
				<rect x="2.86" y="42.99" style="clip-path:url(#SVGID_00000030463905403720874520000013463921846290237878_);fill:#F9E5CF;" width="31.93" height="0.21"/>
			
				<rect x="2.86" y="42.77" style="clip-path:url(#SVGID_00000030463905403720874520000013463921846290237878_);fill:#F9E4CE;" width="31.93" height="0.21"/>
			
				<rect x="2.86" y="42.56" style="clip-path:url(#SVGID_00000030463905403720874520000013463921846290237878_);fill:#F9E3CD;" width="31.93" height="0.21"/>
			
				<rect x="2.86" y="42.35" style="clip-path:url(#SVGID_00000030463905403720874520000013463921846290237878_);fill:#F9E2CC;" width="31.93" height="0.21"/>
			
				<rect x="2.86" y="42.14" style="clip-path:url(#SVGID_00000030463905403720874520000013463921846290237878_);fill:#F8E1CB;" width="31.93" height="0.21"/>
			
				<rect x="2.86" y="41.93" style="clip-path:url(#SVGID_00000030463905403720874520000013463921846290237878_);fill:#F8E0CA;" width="31.93" height="0.21"/>
			
				<rect x="2.86" y="41.72" style="clip-path:url(#SVGID_00000030463905403720874520000013463921846290237878_);fill:#F8DFC9;" width="31.93" height="0.21"/>
			
				<rect x="2.86" y="41.51" style="clip-path:url(#SVGID_00000030463905403720874520000013463921846290237878_);fill:#F8DFC8;" width="31.93" height="0.21"/>
			
				<rect x="2.86" y="41.3" style="clip-path:url(#SVGID_00000030463905403720874520000013463921846290237878_);fill:#F7DEC7;" width="31.93" height="0.21"/>
			
				<rect x="2.86" y="41.09" style="clip-path:url(#SVGID_00000030463905403720874520000013463921846290237878_);fill:#F7DDC6;" width="31.93" height="0.21"/>
			
				<rect x="2.86" y="40.88" style="clip-path:url(#SVGID_00000030463905403720874520000013463921846290237878_);fill:#F7DCC5;" width="31.93" height="0.21"/>
			
				<rect x="2.86" y="40.66" style="clip-path:url(#SVGID_00000030463905403720874520000013463921846290237878_);fill:#F7DBC4;" width="31.93" height="0.21"/>
			
				<rect x="2.86" y="40.45" style="clip-path:url(#SVGID_00000030463905403720874520000013463921846290237878_);fill:#F6DAC3;" width="31.93" height="0.21"/>
			
				<rect x="2.86" y="40.24" style="clip-path:url(#SVGID_00000030463905403720874520000013463921846290237878_);fill:#F6D9C2;" width="31.93" height="0.21"/>
			
				<rect x="2.86" y="40.03" style="clip-path:url(#SVGID_00000030463905403720874520000013463921846290237878_);fill:#F6D9C1;" width="31.93" height="0.21"/>
			
				<rect x="2.86" y="39.82" style="clip-path:url(#SVGID_00000030463905403720874520000013463921846290237878_);fill:#F6D8C0;" width="31.93" height="0.21"/>
			
				<rect x="2.86" y="39.61" style="clip-path:url(#SVGID_00000030463905403720874520000013463921846290237878_);fill:#F5D7BF;" width="31.93" height="0.21"/>
			
				<rect x="2.86" y="39.4" style="clip-path:url(#SVGID_00000030463905403720874520000013463921846290237878_);fill:#F5D6BE;" width="31.93" height="0.21"/>
			
				<rect x="2.86" y="39.19" style="clip-path:url(#SVGID_00000030463905403720874520000013463921846290237878_);fill:#F5D5BD;" width="31.93" height="0.21"/>
			
				<rect x="2.86" y="38.98" style="clip-path:url(#SVGID_00000030463905403720874520000013463921846290237878_);fill:#F4D4BC;" width="31.93" height="0.21"/>
			
				<rect x="2.86" y="38.76" style="clip-path:url(#SVGID_00000030463905403720874520000013463921846290237878_);fill:#F4D4BB;" width="31.93" height="0.21"/>
			
				<rect x="2.86" y="38.55" style="clip-path:url(#SVGID_00000030463905403720874520000013463921846290237878_);fill:#F4D3BA;" width="31.93" height="0.21"/>
			
				<rect x="2.86" y="38.34" style="clip-path:url(#SVGID_00000030463905403720874520000013463921846290237878_);fill:#F4D2B9;" width="31.93" height="0.21"/>
			
				<rect x="2.86" y="38.13" style="clip-path:url(#SVGID_00000030463905403720874520000013463921846290237878_);fill:#F3D1B8;" width="31.93" height="0.21"/>
			
				<rect x="2.86" y="37.92" style="clip-path:url(#SVGID_00000030463905403720874520000013463921846290237878_);fill:#F3D0B7;" width="31.93" height="0.21"/>
			
				<rect x="2.86" y="37.71" style="clip-path:url(#SVGID_00000030463905403720874520000013463921846290237878_);fill:#F3CFB6;" width="31.93" height="0.21"/>
			
				<rect x="2.86" y="37.5" style="clip-path:url(#SVGID_00000030463905403720874520000013463921846290237878_);fill:#F3CEB5;" width="31.93" height="0.21"/>
			
				<rect x="2.86" y="37.29" style="clip-path:url(#SVGID_00000030463905403720874520000013463921846290237878_);fill:#F2CEB4;" width="31.93" height="0.21"/>
			
				<rect x="2.86" y="37.08" style="clip-path:url(#SVGID_00000030463905403720874520000013463921846290237878_);fill:#F2CDB3;" width="31.93" height="0.21"/>
			
				<rect x="2.86" y="36.87" style="clip-path:url(#SVGID_00000030463905403720874520000013463921846290237878_);fill:#F2CCB2;" width="31.93" height="0.21"/>
			
				<rect x="2.86" y="36.65" style="clip-path:url(#SVGID_00000030463905403720874520000013463921846290237878_);fill:#F2CBB1;" width="31.93" height="0.21"/>
			
				<rect x="2.86" y="36.44" style="clip-path:url(#SVGID_00000030463905403720874520000013463921846290237878_);fill:#F1CAB0;" width="31.93" height="0.21"/>
			
				<rect x="2.86" y="36.23" style="clip-path:url(#SVGID_00000030463905403720874520000013463921846290237878_);fill:#F1C9AF;" width="31.93" height="0.21"/>
			
				<rect x="2.86" y="36.02" style="clip-path:url(#SVGID_00000030463905403720874520000013463921846290237878_);fill:#F1C8AE;" width="31.93" height="0.21"/>
			
				<rect x="2.86" y="35.81" style="clip-path:url(#SVGID_00000030463905403720874520000013463921846290237878_);fill:#F1C8AD;" width="31.93" height="0.21"/>
			
				<rect x="2.86" y="35.6" style="clip-path:url(#SVGID_00000030463905403720874520000013463921846290237878_);fill:#F0C7AC;" width="31.93" height="0.21"/>
			
				<rect x="2.86" y="35.39" style="clip-path:url(#SVGID_00000030463905403720874520000013463921846290237878_);fill:#F0C6AB;" width="31.93" height="0.21"/>
			
				<rect x="2.86" y="35.18" style="clip-path:url(#SVGID_00000030463905403720874520000013463921846290237878_);fill:#F0C5AA;" width="31.93" height="0.21"/>
			
				<rect x="2.86" y="34.97" style="clip-path:url(#SVGID_00000030463905403720874520000013463921846290237878_);fill:#F0C4A9;" width="31.93" height="0.21"/>
			
				<rect x="2.86" y="34.75" style="clip-path:url(#SVGID_00000030463905403720874520000013463921846290237878_);fill:#EFC3A8;" width="31.93" height="0.21"/>
			
				<rect x="2.86" y="34.54" style="clip-path:url(#SVGID_00000030463905403720874520000013463921846290237878_);fill:#EFC3A7;" width="31.93" height="0.21"/>
			
				<rect x="2.86" y="34.33" style="clip-path:url(#SVGID_00000030463905403720874520000013463921846290237878_);fill:#EFC2A5;" width="31.93" height="0.21"/>
			
				<rect x="2.86" y="34.12" style="clip-path:url(#SVGID_00000030463905403720874520000013463921846290237878_);fill:#EEC1A4;" width="31.93" height="0.21"/>
			
				<rect x="2.86" y="33.91" style="clip-path:url(#SVGID_00000030463905403720874520000013463921846290237878_);fill:#EEC0A3;" width="31.93" height="0.21"/>
			
				<rect x="2.86" y="33.7" style="clip-path:url(#SVGID_00000030463905403720874520000013463921846290237878_);fill:#EEBFA2;" width="31.93" height="0.21"/>
			
				<rect x="2.86" y="33.49" style="clip-path:url(#SVGID_00000030463905403720874520000013463921846290237878_);fill:#EEBEA1;" width="31.93" height="0.21"/>
			
				<rect x="2.86" y="33.28" style="clip-path:url(#SVGID_00000030463905403720874520000013463921846290237878_);fill:#EDBDA0;" width="31.93" height="0.21"/>
			
				<rect x="2.86" y="33.07" style="clip-path:url(#SVGID_00000030463905403720874520000013463921846290237878_);fill:#EDBD9F;" width="31.93" height="0.21"/>
			
				<rect x="2.86" y="32.86" style="clip-path:url(#SVGID_00000030463905403720874520000013463921846290237878_);fill:#EDBC9E;" width="31.93" height="0.21"/>
			
				<rect x="2.86" y="32.64" style="clip-path:url(#SVGID_00000030463905403720874520000013463921846290237878_);fill:#EDBB9D;" width="31.93" height="0.21"/>
			
				<rect x="2.86" y="32.43" style="clip-path:url(#SVGID_00000030463905403720874520000013463921846290237878_);fill:#ECBA9C;" width="31.93" height="0.21"/>
			
				<rect x="2.86" y="32.22" style="clip-path:url(#SVGID_00000030463905403720874520000013463921846290237878_);fill:#ECB99B;" width="31.93" height="0.21"/>
			
				<rect x="2.86" y="32.01" style="clip-path:url(#SVGID_00000030463905403720874520000013463921846290237878_);fill:#ECB89A;" width="31.93" height="0.21"/>
			
				<rect x="2.86" y="31.8" style="clip-path:url(#SVGID_00000030463905403720874520000013463921846290237878_);fill:#ECB799;" width="31.93" height="0.21"/>
			
				<rect x="2.86" y="31.59" style="clip-path:url(#SVGID_00000030463905403720874520000013463921846290237878_);fill:#EBB798;" width="31.93" height="0.21"/>
			
				<rect x="2.86" y="31.38" style="clip-path:url(#SVGID_00000030463905403720874520000013463921846290237878_);fill:#EBB697;" width="31.93" height="0.21"/>
			
				<rect x="2.86" y="31.17" style="clip-path:url(#SVGID_00000030463905403720874520000013463921846290237878_);fill:#EBB596;" width="31.93" height="0.21"/>
			
				<rect x="2.86" y="30.96" style="clip-path:url(#SVGID_00000030463905403720874520000013463921846290237878_);fill:#EBB495;" width="31.93" height="0.21"/>
			
				<rect x="2.86" y="30.74" style="clip-path:url(#SVGID_00000030463905403720874520000013463921846290237878_);fill:#EAB394;" width="31.93" height="0.21"/>
			
				<rect x="2.86" y="30.53" style="clip-path:url(#SVGID_00000030463905403720874520000013463921846290237878_);fill:#EAB293;" width="31.93" height="0.21"/>
			
				<rect x="2.86" y="30.32" style="clip-path:url(#SVGID_00000030463905403720874520000013463921846290237878_);fill:#EAB292;" width="31.93" height="0.21"/>
			
				<rect x="2.86" y="30.11" style="clip-path:url(#SVGID_00000030463905403720874520000013463921846290237878_);fill:#EAB191;" width="31.93" height="0.21"/>
			
				<rect x="2.86" y="29.9" style="clip-path:url(#SVGID_00000030463905403720874520000013463921846290237878_);fill:#E9B090;" width="31.93" height="0.21"/>
			
				<rect x="2.86" y="29.69" style="clip-path:url(#SVGID_00000030463905403720874520000013463921846290237878_);fill:#E9AF8F;" width="31.93" height="0.21"/>
			
				<rect x="2.86" y="29.48" style="clip-path:url(#SVGID_00000030463905403720874520000013463921846290237878_);fill:#E9AE8E;" width="31.93" height="0.21"/>
			
				<rect x="2.86" y="29.27" style="clip-path:url(#SVGID_00000030463905403720874520000013463921846290237878_);fill:#E9AD8D;" width="31.93" height="0.21"/>
			
				<rect x="2.86" y="29.06" style="clip-path:url(#SVGID_00000030463905403720874520000013463921846290237878_);fill:#E8AC8C;" width="31.93" height="0.21"/>
			
				<rect x="2.86" y="28.85" style="clip-path:url(#SVGID_00000030463905403720874520000013463921846290237878_);fill:#E8AC8B;" width="31.93" height="0.21"/>
			
				<rect x="2.86" y="28.63" style="clip-path:url(#SVGID_00000030463905403720874520000013463921846290237878_);fill:#E8AB8A;" width="31.93" height="0.21"/>
			
				<rect x="2.86" y="28.42" style="clip-path:url(#SVGID_00000030463905403720874520000013463921846290237878_);fill:#E7AA89;" width="31.93" height="0.21"/>
			
				<rect x="2.86" y="28.21" style="clip-path:url(#SVGID_00000030463905403720874520000013463921846290237878_);fill:#E7A988;" width="31.93" height="0.21"/>
			
				<rect x="2.86" y="28" style="clip-path:url(#SVGID_00000030463905403720874520000013463921846290237878_);fill:#E7A887;" width="31.93" height="0.21"/>
			
				<rect x="2.86" y="27.79" style="clip-path:url(#SVGID_00000030463905403720874520000013463921846290237878_);fill:#E7A786;" width="31.93" height="0.21"/>
			
				<rect x="2.86" y="27.58" style="clip-path:url(#SVGID_00000030463905403720874520000013463921846290237878_);fill:#E6A685;" width="31.93" height="0.21"/>
			
				<rect x="2.86" y="27.37" style="clip-path:url(#SVGID_00000030463905403720874520000013463921846290237878_);fill:#E6A684;" width="31.93" height="0.21"/>
			
				<rect x="2.86" y="27.16" style="clip-path:url(#SVGID_00000030463905403720874520000013463921846290237878_);fill:#E6A583;" width="31.93" height="0.21"/>
			
				<rect x="2.86" y="26.95" style="clip-path:url(#SVGID_00000030463905403720874520000013463921846290237878_);fill:#E6A482;" width="31.93" height="0.21"/>
			
				<rect x="2.86" y="26.74" style="clip-path:url(#SVGID_00000030463905403720874520000013463921846290237878_);fill:#E5A381;" width="31.93" height="0.21"/>
			
				<rect x="2.86" y="26.52" style="clip-path:url(#SVGID_00000030463905403720874520000013463921846290237878_);fill:#E5A280;" width="31.93" height="0.21"/>
			
				<rect x="2.86" y="26.31" style="clip-path:url(#SVGID_00000030463905403720874520000013463921846290237878_);fill:#E5A17F;" width="31.93" height="0.21"/>
			
				<rect x="2.86" y="26.1" style="clip-path:url(#SVGID_00000030463905403720874520000013463921846290237878_);fill:#E5A17E;" width="31.93" height="0.21"/>
			
				<rect x="2.86" y="25.89" style="clip-path:url(#SVGID_00000030463905403720874520000013463921846290237878_);fill:#E4A07D;" width="31.93" height="0.21"/>
			
				<rect x="2.86" y="25.68" style="clip-path:url(#SVGID_00000030463905403720874520000013463921846290237878_);fill:#E49F7C;" width="31.93" height="0.21"/>
			
				<rect x="2.86" y="25.47" style="clip-path:url(#SVGID_00000030463905403720874520000013463921846290237878_);fill:#E49E7B;" width="31.93" height="0.21"/>
			
				<rect x="2.86" y="25.26" style="clip-path:url(#SVGID_00000030463905403720874520000013463921846290237878_);fill:#E49D7A;" width="31.93" height="0.21"/>
			
				<rect x="2.86" y="25.05" style="clip-path:url(#SVGID_00000030463905403720874520000013463921846290237878_);fill:#E39C79;" width="31.93" height="0.21"/>
			
				<rect x="2.86" y="24.84" style="clip-path:url(#SVGID_00000030463905403720874520000013463921846290237878_);fill:#E39B78;" width="31.93" height="0.21"/>
			
				<rect x="2.86" y="24.62" style="clip-path:url(#SVGID_00000030463905403720874520000013463921846290237878_);fill:#E39B77;" width="31.93" height="0.21"/>
			
				<rect x="2.86" y="24.41" style="clip-path:url(#SVGID_00000030463905403720874520000013463921846290237878_);fill:#E39A76;" width="31.93" height="0.21"/>
			
				<rect x="2.86" y="24.2" style="clip-path:url(#SVGID_00000030463905403720874520000013463921846290237878_);fill:#E29975;" width="31.93" height="0.21"/>
			
				<rect x="2.86" y="23.99" style="clip-path:url(#SVGID_00000030463905403720874520000013463921846290237878_);fill:#E29874;" width="31.93" height="0.21"/>
			<path style="clip-path:url(#SVGID_00000030463905403720874520000013463921846290237878_);fill:#E29874;" d="M34.78,23.99H2.86
				H34.78z"/>
		</g>
	</g>
</g>
</svg>
