<?xml version="1.0" encoding="utf-8"?>
<!-- Generator: Adobe Illustrator 27.0.1, SVG Export Plug-In . SVG Version: 6.00 Build 0)  -->
<svg version="1.1" id="Layer_1" xmlns="http://www.w3.org/2000/svg" xmlns:xlink="http://www.w3.org/1999/xlink" x="0px" y="0px"
	 viewBox="0 0 40 100" style="enable-background:new 0 0 40 100;" xml:space="preserve">
<style type="text/css">
	.st0{fill:#131212;}
	.st1{clip-path:url(#SVGID_00000172440712074496872400000007210457490382710168_);fill:#ECF1F7;}
	.st2{clip-path:url(#SVGID_00000172440712074496872400000007210457490382710168_);fill:#EDF2F7;}
	.st3{clip-path:url(#SVGID_00000172440712074496872400000007210457490382710168_);fill:#EEF3F8;}
	.st4{clip-path:url(#SVGID_00000172440712074496872400000007210457490382710168_);fill:#EFF3F8;}
	.st5{clip-path:url(#SVGID_00000172440712074496872400000007210457490382710168_);fill:#F0F4F9;}
	.st6{clip-path:url(#SVGID_00000172440712074496872400000007210457490382710168_);fill:#F1F5F9;}
	.st7{clip-path:url(#SVGID_00000172440712074496872400000007210457490382710168_);fill:#F2F6FA;}
	.st8{clip-path:url(#SVGID_00000172440712074496872400000007210457490382710168_);fill:#F3F6FA;}
	.st9{clip-path:url(#SVGID_00000172440712074496872400000007210457490382710168_);fill:#F4F7FB;}
	.st10{clip-path:url(#SVGID_00000172440712074496872400000007210457490382710168_);fill:#F6F8FB;}
	.st11{clip-path:url(#SVGID_00000172440712074496872400000007210457490382710168_);fill:#F7F9FB;}
	.st12{clip-path:url(#SVGID_00000172440712074496872400000007210457490382710168_);fill:#F8FAFC;}
	.st13{clip-path:url(#SVGID_00000172440712074496872400000007210457490382710168_);fill:#F9FAFC;}
	.st14{clip-path:url(#SVGID_00000172440712074496872400000007210457490382710168_);fill:#FAFBFD;}
	.st15{clip-path:url(#SVGID_00000172440712074496872400000007210457490382710168_);fill:#FBFCFD;}
	.st16{clip-path:url(#SVGID_00000172440712074496872400000007210457490382710168_);fill:#FCFDFE;}
	.st17{clip-path:url(#SVGID_00000172440712074496872400000007210457490382710168_);fill:#FDFDFE;}
	.st18{clip-path:url(#SVGID_00000172440712074496872400000007210457490382710168_);fill:#FEFEFF;}
	.st19{clip-path:url(#SVGID_00000172440712074496872400000007210457490382710168_);fill:#FFFFFF;}
	.st20{clip-path:url(#SVGID_00000134242950671952621840000012245967937385343632_);fill:#FBEAD5;}
	.st21{clip-path:url(#SVGID_00000134242950671952621840000012245967937385343632_);fill:#FBEBD6;}
	.st22{clip-path:url(#SVGID_00000134242950671952621840000012245967937385343632_);fill:#FCECD8;}
	.st23{clip-path:url(#SVGID_00000134242950671952621840000012245967937385343632_);fill:#FCEDD9;}
	.st24{clip-path:url(#SVGID_00000134242950671952621840000012245967937385343632_);fill:#FBEBD7;}
	.st25{clip-path:url(#SVGID_00000134242950671952621840000012245967937385343632_);fill:#FBEAD6;}
	.st26{clip-path:url(#SVGID_00000134242950671952621840000012245967937385343632_);fill:#FBE9D4;}
	.st27{clip-path:url(#SVGID_00000134242950671952621840000012245967937385343632_);fill:#FAE8D3;}
	.st28{clip-path:url(#SVGID_00000134242950671952621840000012245967937385343632_);fill:#FAE7D2;}
	.st29{clip-path:url(#SVGID_00000134242950671952621840000012245967937385343632_);fill:#FAE6D1;}
	.st30{clip-path:url(#SVGID_00000134242950671952621840000012245967937385343632_);fill:#FAE5D0;}
	.st31{clip-path:url(#SVGID_00000134242950671952621840000012245967937385343632_);fill:#F9E5CF;}
	.st32{clip-path:url(#SVGID_00000134242950671952621840000012245967937385343632_);fill:#F9E4CE;}
	.st33{clip-path:url(#SVGID_00000134242950671952621840000012245967937385343632_);fill:#F9E3CD;}
	.st34{clip-path:url(#SVGID_00000134242950671952621840000012245967937385343632_);fill:#F9E2CC;}
	.st35{clip-path:url(#SVGID_00000134242950671952621840000012245967937385343632_);fill:#F8E1CB;}
	.st36{clip-path:url(#SVGID_00000134242950671952621840000012245967937385343632_);fill:#F8E0CA;}
	.st37{clip-path:url(#SVGID_00000134242950671952621840000012245967937385343632_);fill:#F8DFC9;}
	.st38{clip-path:url(#SVGID_00000134242950671952621840000012245967937385343632_);fill:#F8DFC8;}
	.st39{clip-path:url(#SVGID_00000134242950671952621840000012245967937385343632_);fill:#F7DEC7;}
	.st40{clip-path:url(#SVGID_00000134242950671952621840000012245967937385343632_);fill:#F7DDC6;}
	.st41{clip-path:url(#SVGID_00000134242950671952621840000012245967937385343632_);fill:#F7DCC5;}
	.st42{clip-path:url(#SVGID_00000134242950671952621840000012245967937385343632_);fill:#F7DBC4;}
	.st43{clip-path:url(#SVGID_00000134242950671952621840000012245967937385343632_);fill:#F6DAC3;}
	.st44{clip-path:url(#SVGID_00000134242950671952621840000012245967937385343632_);fill:#F6D9C2;}
	.st45{clip-path:url(#SVGID_00000134242950671952621840000012245967937385343632_);fill:#F6D9C1;}
	.st46{clip-path:url(#SVGID_00000134242950671952621840000012245967937385343632_);fill:#F6D8C0;}
	.st47{clip-path:url(#SVGID_00000134242950671952621840000012245967937385343632_);fill:#F5D7BF;}
	.st48{clip-path:url(#SVGID_00000134242950671952621840000012245967937385343632_);fill:#F5D6BE;}
	.st49{clip-path:url(#SVGID_00000134242950671952621840000012245967937385343632_);fill:#F5D5BD;}
	.st50{clip-path:url(#SVGID_00000134242950671952621840000012245967937385343632_);fill:#F4D4BC;}
	.st51{clip-path:url(#SVGID_00000134242950671952621840000012245967937385343632_);fill:#F4D4BB;}
	.st52{clip-path:url(#SVGID_00000134242950671952621840000012245967937385343632_);fill:#F4D3BA;}
	.st53{clip-path:url(#SVGID_00000134242950671952621840000012245967937385343632_);fill:#F4D2B9;}
	.st54{clip-path:url(#SVGID_00000134242950671952621840000012245967937385343632_);fill:#F3D1B8;}
	.st55{clip-path:url(#SVGID_00000134242950671952621840000012245967937385343632_);fill:#F3D0B7;}
	.st56{clip-path:url(#SVGID_00000134242950671952621840000012245967937385343632_);fill:#F3CFB6;}
	.st57{clip-path:url(#SVGID_00000134242950671952621840000012245967937385343632_);fill:#F3CEB5;}
	.st58{clip-path:url(#SVGID_00000134242950671952621840000012245967937385343632_);fill:#F2CEB4;}
	.st59{clip-path:url(#SVGID_00000134242950671952621840000012245967937385343632_);fill:#F2CDB3;}
	.st60{clip-path:url(#SVGID_00000134242950671952621840000012245967937385343632_);fill:#F2CCB2;}
	.st61{clip-path:url(#SVGID_00000134242950671952621840000012245967937385343632_);fill:#F2CBB1;}
	.st62{clip-path:url(#SVGID_00000134242950671952621840000012245967937385343632_);fill:#F1CAB0;}
	.st63{clip-path:url(#SVGID_00000134242950671952621840000012245967937385343632_);fill:#F1C9AF;}
	.st64{clip-path:url(#SVGID_00000134242950671952621840000012245967937385343632_);fill:#F1C8AE;}
	.st65{clip-path:url(#SVGID_00000134242950671952621840000012245967937385343632_);fill:#F1C8AD;}
	.st66{clip-path:url(#SVGID_00000134242950671952621840000012245967937385343632_);fill:#F0C7AC;}
	.st67{clip-path:url(#SVGID_00000134242950671952621840000012245967937385343632_);fill:#F0C6AB;}
	.st68{clip-path:url(#SVGID_00000134242950671952621840000012245967937385343632_);fill:#F0C5AA;}
	.st69{clip-path:url(#SVGID_00000134242950671952621840000012245967937385343632_);fill:#F0C4A9;}
	.st70{clip-path:url(#SVGID_00000134242950671952621840000012245967937385343632_);fill:#EFC3A8;}
	.st71{clip-path:url(#SVGID_00000134242950671952621840000012245967937385343632_);fill:#EFC3A7;}
	.st72{clip-path:url(#SVGID_00000134242950671952621840000012245967937385343632_);fill:#EFC2A5;}
	.st73{clip-path:url(#SVGID_00000134242950671952621840000012245967937385343632_);fill:#EEC1A4;}
	.st74{clip-path:url(#SVGID_00000134242950671952621840000012245967937385343632_);fill:#EEC0A3;}
	.st75{clip-path:url(#SVGID_00000134242950671952621840000012245967937385343632_);fill:#EEBFA2;}
	.st76{clip-path:url(#SVGID_00000134242950671952621840000012245967937385343632_);fill:#EEBEA1;}
	.st77{clip-path:url(#SVGID_00000134242950671952621840000012245967937385343632_);fill:#EDBDA0;}
	.st78{clip-path:url(#SVGID_00000134242950671952621840000012245967937385343632_);fill:#EDBD9F;}
	.st79{clip-path:url(#SVGID_00000134242950671952621840000012245967937385343632_);fill:#EDBC9E;}
	.st80{clip-path:url(#SVGID_00000134242950671952621840000012245967937385343632_);fill:#EDBB9D;}
	.st81{clip-path:url(#SVGID_00000134242950671952621840000012245967937385343632_);fill:#ECBA9C;}
	.st82{clip-path:url(#SVGID_00000134242950671952621840000012245967937385343632_);fill:#ECB99B;}
	.st83{clip-path:url(#SVGID_00000134242950671952621840000012245967937385343632_);fill:#ECB89A;}
	.st84{clip-path:url(#SVGID_00000134242950671952621840000012245967937385343632_);fill:#ECB799;}
	.st85{clip-path:url(#SVGID_00000134242950671952621840000012245967937385343632_);fill:#EBB798;}
	.st86{clip-path:url(#SVGID_00000134242950671952621840000012245967937385343632_);fill:#EBB697;}
	.st87{clip-path:url(#SVGID_00000134242950671952621840000012245967937385343632_);fill:#EBB596;}
	.st88{clip-path:url(#SVGID_00000134242950671952621840000012245967937385343632_);fill:#EBB495;}
	.st89{clip-path:url(#SVGID_00000134242950671952621840000012245967937385343632_);fill:#EAB394;}
	.st90{clip-path:url(#SVGID_00000134242950671952621840000012245967937385343632_);fill:#EAB293;}
	.st91{clip-path:url(#SVGID_00000134242950671952621840000012245967937385343632_);fill:#EAB292;}
	.st92{clip-path:url(#SVGID_00000134242950671952621840000012245967937385343632_);fill:#EAB191;}
	.st93{clip-path:url(#SVGID_00000134242950671952621840000012245967937385343632_);fill:#E9B090;}
	.st94{clip-path:url(#SVGID_00000134242950671952621840000012245967937385343632_);fill:#E9AF8F;}
	.st95{clip-path:url(#SVGID_00000134242950671952621840000012245967937385343632_);fill:#E9AE8E;}
	.st96{clip-path:url(#SVGID_00000134242950671952621840000012245967937385343632_);fill:#E9AD8D;}
	.st97{clip-path:url(#SVGID_00000134242950671952621840000012245967937385343632_);fill:#E8AC8C;}
	.st98{clip-path:url(#SVGID_00000134242950671952621840000012245967937385343632_);fill:#E8AC8B;}
	.st99{clip-path:url(#SVGID_00000134242950671952621840000012245967937385343632_);fill:#E8AB8A;}
	.st100{clip-path:url(#SVGID_00000134242950671952621840000012245967937385343632_);fill:#E7AA89;}
	.st101{clip-path:url(#SVGID_00000134242950671952621840000012245967937385343632_);fill:#E7A988;}
	.st102{clip-path:url(#SVGID_00000134242950671952621840000012245967937385343632_);fill:#E7A887;}
	.st103{clip-path:url(#SVGID_00000134242950671952621840000012245967937385343632_);fill:#E7A786;}
	.st104{clip-path:url(#SVGID_00000134242950671952621840000012245967937385343632_);fill:#E6A685;}
	.st105{clip-path:url(#SVGID_00000134242950671952621840000012245967937385343632_);fill:#E6A684;}
	.st106{clip-path:url(#SVGID_00000134242950671952621840000012245967937385343632_);fill:#E6A583;}
	.st107{clip-path:url(#SVGID_00000134242950671952621840000012245967937385343632_);fill:#E6A482;}
	.st108{clip-path:url(#SVGID_00000134242950671952621840000012245967937385343632_);fill:#E5A381;}
	.st109{clip-path:url(#SVGID_00000134242950671952621840000012245967937385343632_);fill:#E5A280;}
	.st110{clip-path:url(#SVGID_00000134242950671952621840000012245967937385343632_);fill:#E5A17F;}
	.st111{clip-path:url(#SVGID_00000134242950671952621840000012245967937385343632_);fill:#E5A17E;}
	.st112{clip-path:url(#SVGID_00000134242950671952621840000012245967937385343632_);fill:#E4A07D;}
	.st113{clip-path:url(#SVGID_00000134242950671952621840000012245967937385343632_);fill:#E49F7C;}
	.st114{clip-path:url(#SVGID_00000134242950671952621840000012245967937385343632_);fill:#E49E7B;}
	.st115{clip-path:url(#SVGID_00000134242950671952621840000012245967937385343632_);fill:#E49D7A;}
	.st116{clip-path:url(#SVGID_00000134242950671952621840000012245967937385343632_);fill:#E39C79;}
	.st117{clip-path:url(#SVGID_00000134242950671952621840000012245967937385343632_);fill:#E39B78;}
	.st118{clip-path:url(#SVGID_00000134242950671952621840000012245967937385343632_);fill:#E39B77;}
	.st119{clip-path:url(#SVGID_00000134242950671952621840000012245967937385343632_);fill:#E39A76;}
	.st120{clip-path:url(#SVGID_00000134242950671952621840000012245967937385343632_);fill:#E29975;}
	.st121{clip-path:url(#SVGID_00000134242950671952621840000012245967937385343632_);fill:#E29874;}
</style>
<g>
	<g id="path254_00000080167692642405251870000011694100071706378906_">
		<path class="st0" d="M35.64,41.36c0.06-2.38,0.02-4.84-0.13-7.52c-0.04-0.84-0.16-1.69-0.28-2.52c-0.06-0.45-0.13-0.88-0.18-1.32
			c-0.02-0.21-0.06-0.42-0.1-0.65c-0.08-0.47-0.17-1-0.15-1.47c-4.04-3.34-9-3.55-15.59-0.65c-2.01,0.75-4.12,1.12-6.32,1.12
			c-2.5,0-5.13-0.49-7.86-1.46c-0.26,1.49-0.53,2.99-0.82,4.5c-1.36,7.34-2.78,14.94-2.14,22.45c0.39,4.53,1.76,11.02,6.12,16.28
			c1,1.21,2.06,1.75,2.86,1.4c0.76-0.33,1.11-1.32,1.08-3.03c-0.02-0.89-0.05-1.79-0.07-2.69c-0.1-3.92-0.22-7.98,0.14-11.97
			c0.33-3.67,0.98-7.89,3.28-11.41c0.47-0.72,1.23-1.71,2.36-2.03c1.27-0.37,2.83,0.3,3.7,1.55c0.8,1.12,1.04,2.53,1.19,3.76
			c0.51,4.39,0.1,9.11-1.27,14.43c-1,3.87-2.39,7.65-3.75,11.17c-0.54,1.4-1.39,4.7-0.56,5.99c0.21,0.33,0.53,0.49,0.96,0.52
			l0.06,0.4v-0.4c0.84,0,1.9-0.93,2.68-1.62c0.19-0.16,0.37-0.32,0.53-0.45c1.2-0.99,2.36-2.1,3.44-3.29
			c4-4.43,7.05-10.15,8.8-16.55C34.83,51.48,35.49,46.72,35.64,41.36L35.64,41.36z M36.2,24.91c1.86-3.62,2.73-8.04,2.65-13.53
			c-0.02-1.94-0.16-3.98-0.98-5.79c-0.86-1.91-2.46-3.25-4.18-3.48c-0.21-0.03-0.41-0.04-0.62-0.04c-1.21,0-2.39,0.44-3.63,0.91
			c-1.08,0.4-2.18,0.8-3.35,0.92c0.85,1.24,1.63,1.84,2.93,2.11l0.8,0.26c-0.25,0.04-0.92-0.01-1.15-0.01
			c-1.11,0-2.05-0.47-2.85-1.41c-0.47-0.56-1.14-0.93-1.86-1.09c-0.93-0.21-1.83-0.57-2.7-0.93c-0.27-0.11-0.54-0.22-0.8-0.33
			c-2-0.79-3.42-0.92-4.59-0.43c-0.55,0.23-1.04,0.6-1.57,1C13.86,3.42,13.41,3.75,12.91,4c-0.65,0.33-1.29,0.69-1.83,1.17
			C10.16,6,9.22,6.41,8.23,6.41c-0.41,0-2.41-0.07-2.84-0.21c1.34-0.06,2.57-0.19,3.44-0.55c0.69-0.14,1.28-0.64,1.94-1.3
			c-0.77-0.13-1.49-0.47-2.19-0.82C7.62,3.07,6.73,2.62,5.8,2.8C4.9,2.98,4.13,3.72,3.37,5.13c-3.48,6.44-2.85,14.43,1.61,20.88
			c5.13,1.89,9.69,2.05,13.93,0.47c6.62-2.92,11.88-2.74,16.08,0.52c0.02-0.07,0.05-0.14,0.08-0.22c0.18-0.37,0.41-0.72,0.63-1.05
			C35.89,25.45,36.07,25.18,36.2,24.91L36.2,24.91z M39.66,11.38c0.07,5.62-0.82,10.16-2.74,13.89c-0.16,0.32-0.36,0.61-0.55,0.9
			c-0.22,0.33-0.42,0.64-0.57,0.95c-0.1,0.22-0.17,0.42-0.19,0.61c-0.06,0.42,0.04,0.96,0.13,1.47c0.05,0.24,0.09,0.48,0.11,0.69
			c0.06,0.44,0.11,0.87,0.18,1.31c0.12,0.84,0.24,1.71,0.29,2.58c0.15,2.71,0.19,5.2,0.13,7.59c-0.15,5.43-0.81,10.25-2.05,14.74
			c-1.79,6.52-4.89,12.35-8.97,16.87c-1.11,1.23-2.3,2.36-3.53,3.37c-0.15,0.13-0.32,0.28-0.5,0.43c-0.92,0.81-2.07,1.82-3.2,1.82
			h-0.1c-0.69-0.03-1.24-0.34-1.59-0.88c-1.31-2.01,0.46-6.65,0.48-6.7c1.35-3.5,2.74-7.26,3.72-11.09
			c1.34-5.23,1.75-9.85,1.25-14.14c-0.14-1.19-0.36-2.42-1.05-3.4c-0.68-0.98-1.87-1.51-2.83-1.24c-0.87,0.25-1.51,1.09-1.91,1.71
			c-2.21,3.37-2.83,7.47-3.16,11.04c-0.35,3.95-0.24,7.98-0.14,11.88c0.02,0.89,0.05,1.79,0.07,2.69c0.02,0.76,0.06,3.08-1.55,3.78
			c-0.27,0.11-0.55,0.17-0.84,0.17c-1.28,0-2.4-1.12-2.96-1.79C3.1,65.2,1.68,58.53,1.28,53.89c-0.65-7.61,0.77-15.26,2.15-22.67
			c0.29-1.59,0.6-3.2,0.87-4.78c-4.61-6.69-5.24-14.99-1.63-21.69c0.55-1.03,1.47-2.43,2.98-2.73c0.18-0.04,0.38-0.06,0.58-0.06
			c0.96,0,1.85,0.44,2.71,0.86c0.92,0.45,1.77,0.88,2.67,0.77c0.81-0.09,1.49-0.61,2.22-1.15c0.54-0.41,1.1-0.83,1.75-1.09
			c1.36-0.57,2.97-0.45,5.18,0.42c0.27,0.1,0.55,0.22,0.82,0.33c1.24,0.52,2.53,1.04,3.88,1.06c1.24-0.01,2.45-0.45,3.71-0.92
			c1.48-0.56,3.03-1.13,4.65-0.91c1.98,0.27,3.82,1.78,4.79,3.94C39.49,7.21,39.63,9.35,39.66,11.38"/>
	</g>
	<g id="path256_00000060028541702415848550000007172035127706021763_">
		<g>
			<defs>
				<path id="SVGID_1_" d="M38.86,11.39c0.07,5.48-0.8,9.91-2.65,13.53c-0.14,0.27-0.31,0.53-0.5,0.82
					c-0.22,0.33-0.45,0.69-0.63,1.05c-0.03,0.08-0.06,0.14-0.08,0.22c-4.2-3.26-9.47-3.44-16.08-0.52
					c-4.24,1.58-8.8,1.42-13.93-0.47C0.51,19.56-0.11,11.57,3.37,5.13C4.13,3.72,4.9,2.98,5.8,2.8c0.93-0.18,1.82,0.26,2.79,0.73
					c0.7,0.35,1.43,0.69,2.19,0.82c-0.67,0.66-1.26,1.16-1.94,1.3c-0.87,0.36-2.1,0.49-3.44,0.55c0.42,0.14,2.43,0.21,2.84,0.21
					c0.99,0,1.93-0.41,2.85-1.24c0.54-0.49,1.19-0.84,1.83-1.17c0.5-0.25,0.96-0.58,1.39-0.92c0.53-0.4,1.02-0.77,1.57-1
					c1.17-0.49,2.59-0.36,4.59,0.43c0.26,0.1,0.53,0.22,0.8,0.33c0.87,0.36,1.77,0.73,2.7,0.93c0.72,0.16,1.39,0.53,1.86,1.09
					c0.8,0.94,1.75,1.41,2.85,1.41c0.23,0,0.9,0.05,1.15,0.01l-0.8-0.26c-1.31-0.27-2.08-0.87-2.93-2.11
					c1.17-0.12,2.27-0.53,3.35-0.92c1.24-0.47,2.42-0.91,3.63-0.91c0.21,0,0.41,0.01,0.62,0.04c1.71,0.23,3.32,1.57,4.18,3.48
					C38.7,7.41,38.83,9.45,38.86,11.39"/>
			</defs>
			<clipPath id="SVGID_00000047765519555886622860000011747199865331479173_">
				<use xlink:href="#SVGID_1_"  style="overflow:visible;"/>
			</clipPath>
			
				<rect x="-0.11" y="19.77" style="clip-path:url(#SVGID_00000047765519555886622860000011747199865331479173_);fill:#ECF1F7;" width="39.04" height="8.29"/>
			
				<rect x="-0.11" y="19.17" style="clip-path:url(#SVGID_00000047765519555886622860000011747199865331479173_);fill:#ECF1F7;" width="39.04" height="0.6"/>
			
				<rect x="-0.11" y="18.57" style="clip-path:url(#SVGID_00000047765519555886622860000011747199865331479173_);fill:#EDF2F7;" width="39.04" height="0.6"/>
			
				<rect x="-0.11" y="17.97" style="clip-path:url(#SVGID_00000047765519555886622860000011747199865331479173_);fill:#EEF3F8;" width="39.04" height="0.6"/>
			
				<rect x="-0.11" y="17.37" style="clip-path:url(#SVGID_00000047765519555886622860000011747199865331479173_);fill:#EFF3F8;" width="39.04" height="0.6"/>
			
				<rect x="-0.11" y="16.76" style="clip-path:url(#SVGID_00000047765519555886622860000011747199865331479173_);fill:#F0F4F9;" width="39.04" height="0.6"/>
			
				<rect x="-0.11" y="16.16" style="clip-path:url(#SVGID_00000047765519555886622860000011747199865331479173_);fill:#F1F5F9;" width="39.04" height="0.6"/>
			
				<rect x="-0.11" y="15.56" style="clip-path:url(#SVGID_00000047765519555886622860000011747199865331479173_);fill:#F2F6FA;" width="39.04" height="0.6"/>
			
				<rect x="-0.11" y="14.96" style="clip-path:url(#SVGID_00000047765519555886622860000011747199865331479173_);fill:#F3F6FA;" width="39.04" height="0.6"/>
			
				<rect x="-0.11" y="14.36" style="clip-path:url(#SVGID_00000047765519555886622860000011747199865331479173_);fill:#F4F7FB;" width="39.04" height="0.6"/>
			
				<rect x="-0.11" y="13.76" style="clip-path:url(#SVGID_00000047765519555886622860000011747199865331479173_);fill:#F6F8FB;" width="39.04" height="0.6"/>
			
				<rect x="-0.11" y="13.16" style="clip-path:url(#SVGID_00000047765519555886622860000011747199865331479173_);fill:#F7F9FB;" width="39.04" height="0.6"/>
			
				<rect x="-0.11" y="12.56" style="clip-path:url(#SVGID_00000047765519555886622860000011747199865331479173_);fill:#F8FAFC;" width="39.04" height="0.6"/>
			
				<rect x="-0.11" y="11.95" style="clip-path:url(#SVGID_00000047765519555886622860000011747199865331479173_);fill:#F9FAFC;" width="39.04" height="0.6"/>
			
				<rect x="-0.11" y="11.35" style="clip-path:url(#SVGID_00000047765519555886622860000011747199865331479173_);fill:#FAFBFD;" width="39.04" height="0.6"/>
			
				<rect x="-0.11" y="10.75" style="clip-path:url(#SVGID_00000047765519555886622860000011747199865331479173_);fill:#FBFCFD;" width="39.04" height="0.6"/>
			
				<rect x="-0.11" y="10.15" style="clip-path:url(#SVGID_00000047765519555886622860000011747199865331479173_);fill:#FCFDFE;" width="39.04" height="0.6"/>
			
				<rect x="-0.11" y="9.55" style="clip-path:url(#SVGID_00000047765519555886622860000011747199865331479173_);fill:#FDFDFE;" width="39.04" height="0.6"/>
			
				<rect x="-0.11" y="8.95" style="clip-path:url(#SVGID_00000047765519555886622860000011747199865331479173_);fill:#FEFEFF;" width="39.04" height="0.6"/>
			
				<rect x="-0.11" y="8.35" style="clip-path:url(#SVGID_00000047765519555886622860000011747199865331479173_);fill:#FFFFFF;" width="39.04" height="0.6"/>
			
				<rect x="-0.11" y="1.6" style="clip-path:url(#SVGID_00000047765519555886622860000011747199865331479173_);fill:#FFFFFF;" width="39.04" height="6.75"/>
		</g>
	</g>
	<g id="path258_00000008837196358100221600000005908721212097941133_">
		<g>
			<defs>
				<path id="SVGID_00000039120578618655607490000009656565149290033811_" d="M35.51,33.84c0.15,2.69,0.19,5.15,0.13,7.52
					c-0.14,5.36-0.8,10.11-2.02,14.55c-1.75,6.39-4.8,12.11-8.8,16.55c-1.08,1.2-2.24,2.3-3.44,3.29c-0.16,0.13-0.33,0.29-0.53,0.45
					c-0.77,0.69-1.84,1.62-2.68,1.62v0.4l-0.06-0.4c-0.44-0.02-0.76-0.19-0.96-0.52c-0.84-1.28,0.02-4.58,0.56-5.99
					c1.35-3.52,2.75-7.31,3.75-11.17c1.36-5.32,1.78-10.04,1.27-14.43c-0.14-1.23-0.39-2.64-1.19-3.76
					c-0.87-1.24-2.43-1.91-3.7-1.55c-1.13,0.32-1.89,1.32-2.36,2.03c-2.3,3.51-2.95,7.74-3.28,11.41
					c-0.36,3.99-0.25,8.05-0.14,11.97c0.02,0.89,0.05,1.79,0.07,2.69c0.03,1.71-0.32,2.7-1.08,3.03c-0.81,0.35-1.86-0.19-2.86-1.4
					c-4.36-5.26-5.73-11.76-6.12-16.28c-0.65-7.51,0.77-15.11,2.14-22.45c0.29-1.51,0.56-3,0.82-4.5c2.73,0.96,5.36,1.46,7.86,1.46
					c2.2,0,4.31-0.37,6.32-1.12c6.59-2.9,11.55-2.69,15.59,0.65c-0.02,0.48,0.07,1,0.15,1.47c0.04,0.23,0.08,0.45,0.1,0.65
					c0.05,0.44,0.11,0.88,0.18,1.32C35.35,32.15,35.47,33,35.51,33.84"/>
			</defs>
			<clipPath id="SVGID_00000122683964703498203380000006183630265378095503_">
				<use xlink:href="#SVGID_00000039120578618655607490000009656565149290033811_"  style="overflow:visible;"/>
			</clipPath>
			
				<rect x="1.43" y="75.49" style="clip-path:url(#SVGID_00000122683964703498203380000006183630265378095503_);fill:#FBEAD5;" width="34.27" height="2.71"/>
			
				<rect x="1.43" y="68.74" style="clip-path:url(#SVGID_00000122683964703498203380000006183630265378095503_);fill:#FBEAD5;" width="34.27" height="6.75"/>
			
				<rect x="1.43" y="61.98" style="clip-path:url(#SVGID_00000122683964703498203380000006183630265378095503_);fill:#FBEBD6;" width="34.27" height="6.75"/>
			
				<rect x="1.43" y="55.23" style="clip-path:url(#SVGID_00000122683964703498203380000006183630265378095503_);fill:#FCECD8;" width="34.27" height="6.75"/>
			
				<rect x="1.43" y="48.47" style="clip-path:url(#SVGID_00000122683964703498203380000006183630265378095503_);fill:#FCEDD9;" width="34.27" height="6.75"/>
			
				<rect x="1.43" y="48.24" style="clip-path:url(#SVGID_00000122683964703498203380000006183630265378095503_);fill:#FCEDD9;" width="34.27" height="0.23"/>
			
				<rect x="1.43" y="48.01" style="clip-path:url(#SVGID_00000122683964703498203380000006183630265378095503_);fill:#FCECD8;" width="34.27" height="0.23"/>
			
				<rect x="1.43" y="47.78" style="clip-path:url(#SVGID_00000122683964703498203380000006183630265378095503_);fill:#FBEBD7;" width="34.27" height="0.23"/>
			
				<rect x="1.43" y="47.55" style="clip-path:url(#SVGID_00000122683964703498203380000006183630265378095503_);fill:#FBEAD6;" width="34.27" height="0.23"/>
			
				<rect x="1.43" y="47.32" style="clip-path:url(#SVGID_00000122683964703498203380000006183630265378095503_);fill:#FBEAD5;" width="34.27" height="0.23"/>
			
				<rect x="1.43" y="47.09" style="clip-path:url(#SVGID_00000122683964703498203380000006183630265378095503_);fill:#FBE9D4;" width="34.27" height="0.23"/>
			
				<rect x="1.43" y="46.86" style="clip-path:url(#SVGID_00000122683964703498203380000006183630265378095503_);fill:#FAE8D3;" width="34.27" height="0.23"/>
			
				<rect x="1.43" y="46.63" style="clip-path:url(#SVGID_00000122683964703498203380000006183630265378095503_);fill:#FAE7D2;" width="34.27" height="0.23"/>
			
				<rect x="1.43" y="46.4" style="clip-path:url(#SVGID_00000122683964703498203380000006183630265378095503_);fill:#FAE6D1;" width="34.27" height="0.23"/>
			
				<rect x="1.43" y="46.17" style="clip-path:url(#SVGID_00000122683964703498203380000006183630265378095503_);fill:#FAE5D0;" width="34.27" height="0.23"/>
			
				<rect x="1.43" y="45.94" style="clip-path:url(#SVGID_00000122683964703498203380000006183630265378095503_);fill:#F9E5CF;" width="34.27" height="0.23"/>
			
				<rect x="1.43" y="45.71" style="clip-path:url(#SVGID_00000122683964703498203380000006183630265378095503_);fill:#F9E4CE;" width="34.27" height="0.23"/>
			
				<rect x="1.43" y="45.48" style="clip-path:url(#SVGID_00000122683964703498203380000006183630265378095503_);fill:#F9E3CD;" width="34.27" height="0.23"/>
			
				<rect x="1.43" y="45.25" style="clip-path:url(#SVGID_00000122683964703498203380000006183630265378095503_);fill:#F9E2CC;" width="34.27" height="0.23"/>
			
				<rect x="1.43" y="45.02" style="clip-path:url(#SVGID_00000122683964703498203380000006183630265378095503_);fill:#F8E1CB;" width="34.27" height="0.23"/>
			
				<rect x="1.43" y="44.79" style="clip-path:url(#SVGID_00000122683964703498203380000006183630265378095503_);fill:#F8E0CA;" width="34.27" height="0.23"/>
			
				<rect x="1.43" y="44.56" style="clip-path:url(#SVGID_00000122683964703498203380000006183630265378095503_);fill:#F8DFC9;" width="34.27" height="0.23"/>
			
				<rect x="1.43" y="44.32" style="clip-path:url(#SVGID_00000122683964703498203380000006183630265378095503_);fill:#F8DFC8;" width="34.27" height="0.23"/>
			
				<rect x="1.43" y="44.09" style="clip-path:url(#SVGID_00000122683964703498203380000006183630265378095503_);fill:#F7DEC7;" width="34.27" height="0.23"/>
			
				<rect x="1.43" y="43.86" style="clip-path:url(#SVGID_00000122683964703498203380000006183630265378095503_);fill:#F7DDC6;" width="34.27" height="0.23"/>
			
				<rect x="1.43" y="43.63" style="clip-path:url(#SVGID_00000122683964703498203380000006183630265378095503_);fill:#F7DCC5;" width="34.27" height="0.23"/>
			
				<rect x="1.43" y="43.4" style="clip-path:url(#SVGID_00000122683964703498203380000006183630265378095503_);fill:#F7DBC4;" width="34.27" height="0.23"/>
			
				<rect x="1.43" y="43.17" style="clip-path:url(#SVGID_00000122683964703498203380000006183630265378095503_);fill:#F6DAC3;" width="34.27" height="0.23"/>
			
				<rect x="1.43" y="42.94" style="clip-path:url(#SVGID_00000122683964703498203380000006183630265378095503_);fill:#F6D9C2;" width="34.27" height="0.23"/>
			
				<rect x="1.43" y="42.71" style="clip-path:url(#SVGID_00000122683964703498203380000006183630265378095503_);fill:#F6D9C1;" width="34.27" height="0.23"/>
			
				<rect x="1.43" y="42.48" style="clip-path:url(#SVGID_00000122683964703498203380000006183630265378095503_);fill:#F6D8C0;" width="34.27" height="0.23"/>
			
				<rect x="1.43" y="42.25" style="clip-path:url(#SVGID_00000122683964703498203380000006183630265378095503_);fill:#F5D7BF;" width="34.27" height="0.23"/>
			
				<rect x="1.43" y="42.02" style="clip-path:url(#SVGID_00000122683964703498203380000006183630265378095503_);fill:#F5D6BE;" width="34.27" height="0.23"/>
			
				<rect x="1.43" y="41.79" style="clip-path:url(#SVGID_00000122683964703498203380000006183630265378095503_);fill:#F5D5BD;" width="34.27" height="0.23"/>
			
				<rect x="1.43" y="41.56" style="clip-path:url(#SVGID_00000122683964703498203380000006183630265378095503_);fill:#F4D4BC;" width="34.27" height="0.23"/>
			
				<rect x="1.43" y="41.33" style="clip-path:url(#SVGID_00000122683964703498203380000006183630265378095503_);fill:#F4D4BB;" width="34.27" height="0.23"/>
			
				<rect x="1.43" y="41.1" style="clip-path:url(#SVGID_00000122683964703498203380000006183630265378095503_);fill:#F4D3BA;" width="34.27" height="0.23"/>
			
				<rect x="1.43" y="40.87" style="clip-path:url(#SVGID_00000122683964703498203380000006183630265378095503_);fill:#F4D2B9;" width="34.27" height="0.23"/>
			
				<rect x="1.43" y="40.64" style="clip-path:url(#SVGID_00000122683964703498203380000006183630265378095503_);fill:#F3D1B8;" width="34.27" height="0.23"/>
			
				<rect x="1.43" y="40.41" style="clip-path:url(#SVGID_00000122683964703498203380000006183630265378095503_);fill:#F3D0B7;" width="34.27" height="0.23"/>
			
				<rect x="1.43" y="40.17" style="clip-path:url(#SVGID_00000122683964703498203380000006183630265378095503_);fill:#F3CFB6;" width="34.27" height="0.23"/>
			
				<rect x="1.43" y="39.94" style="clip-path:url(#SVGID_00000122683964703498203380000006183630265378095503_);fill:#F3CEB5;" width="34.27" height="0.23"/>
			
				<rect x="1.43" y="39.71" style="clip-path:url(#SVGID_00000122683964703498203380000006183630265378095503_);fill:#F2CEB4;" width="34.27" height="0.23"/>
			
				<rect x="1.43" y="39.48" style="clip-path:url(#SVGID_00000122683964703498203380000006183630265378095503_);fill:#F2CDB3;" width="34.27" height="0.23"/>
			
				<rect x="1.43" y="39.25" style="clip-path:url(#SVGID_00000122683964703498203380000006183630265378095503_);fill:#F2CCB2;" width="34.27" height="0.23"/>
			
				<rect x="1.43" y="39.02" style="clip-path:url(#SVGID_00000122683964703498203380000006183630265378095503_);fill:#F2CBB1;" width="34.27" height="0.23"/>
			
				<rect x="1.43" y="38.79" style="clip-path:url(#SVGID_00000122683964703498203380000006183630265378095503_);fill:#F1CAB0;" width="34.27" height="0.23"/>
			
				<rect x="1.43" y="38.56" style="clip-path:url(#SVGID_00000122683964703498203380000006183630265378095503_);fill:#F1C9AF;" width="34.27" height="0.23"/>
			
				<rect x="1.43" y="38.33" style="clip-path:url(#SVGID_00000122683964703498203380000006183630265378095503_);fill:#F1C8AE;" width="34.27" height="0.23"/>
			
				<rect x="1.43" y="38.1" style="clip-path:url(#SVGID_00000122683964703498203380000006183630265378095503_);fill:#F1C8AD;" width="34.27" height="0.23"/>
			
				<rect x="1.43" y="37.87" style="clip-path:url(#SVGID_00000122683964703498203380000006183630265378095503_);fill:#F0C7AC;" width="34.27" height="0.23"/>
			
				<rect x="1.43" y="37.64" style="clip-path:url(#SVGID_00000122683964703498203380000006183630265378095503_);fill:#F0C6AB;" width="34.27" height="0.23"/>
			
				<rect x="1.43" y="37.41" style="clip-path:url(#SVGID_00000122683964703498203380000006183630265378095503_);fill:#F0C5AA;" width="34.27" height="0.23"/>
			
				<rect x="1.43" y="37.18" style="clip-path:url(#SVGID_00000122683964703498203380000006183630265378095503_);fill:#F0C4A9;" width="34.27" height="0.23"/>
			
				<rect x="1.43" y="36.95" style="clip-path:url(#SVGID_00000122683964703498203380000006183630265378095503_);fill:#EFC3A8;" width="34.27" height="0.23"/>
			
				<rect x="1.43" y="36.72" style="clip-path:url(#SVGID_00000122683964703498203380000006183630265378095503_);fill:#EFC3A7;" width="34.27" height="0.23"/>
			
				<rect x="1.43" y="36.49" style="clip-path:url(#SVGID_00000122683964703498203380000006183630265378095503_);fill:#EFC2A5;" width="34.27" height="0.23"/>
			
				<rect x="1.43" y="36.26" style="clip-path:url(#SVGID_00000122683964703498203380000006183630265378095503_);fill:#EEC1A4;" width="34.27" height="0.23"/>
			
				<rect x="1.43" y="36.03" style="clip-path:url(#SVGID_00000122683964703498203380000006183630265378095503_);fill:#EEC0A3;" width="34.27" height="0.23"/>
			
				<rect x="1.43" y="35.79" style="clip-path:url(#SVGID_00000122683964703498203380000006183630265378095503_);fill:#EEBFA2;" width="34.27" height="0.23"/>
			
				<rect x="1.43" y="35.56" style="clip-path:url(#SVGID_00000122683964703498203380000006183630265378095503_);fill:#EEBEA1;" width="34.27" height="0.23"/>
			
				<rect x="1.43" y="35.33" style="clip-path:url(#SVGID_00000122683964703498203380000006183630265378095503_);fill:#EDBDA0;" width="34.27" height="0.23"/>
			
				<rect x="1.43" y="35.1" style="clip-path:url(#SVGID_00000122683964703498203380000006183630265378095503_);fill:#EDBD9F;" width="34.27" height="0.23"/>
			
				<rect x="1.43" y="34.87" style="clip-path:url(#SVGID_00000122683964703498203380000006183630265378095503_);fill:#EDBC9E;" width="34.27" height="0.23"/>
			
				<rect x="1.43" y="34.64" style="clip-path:url(#SVGID_00000122683964703498203380000006183630265378095503_);fill:#EDBB9D;" width="34.27" height="0.23"/>
			
				<rect x="1.43" y="34.41" style="clip-path:url(#SVGID_00000122683964703498203380000006183630265378095503_);fill:#ECBA9C;" width="34.27" height="0.23"/>
			
				<rect x="1.43" y="34.18" style="clip-path:url(#SVGID_00000122683964703498203380000006183630265378095503_);fill:#ECB99B;" width="34.27" height="0.23"/>
			
				<rect x="1.43" y="33.95" style="clip-path:url(#SVGID_00000122683964703498203380000006183630265378095503_);fill:#ECB89A;" width="34.27" height="0.23"/>
			
				<rect x="1.43" y="33.72" style="clip-path:url(#SVGID_00000122683964703498203380000006183630265378095503_);fill:#ECB799;" width="34.27" height="0.23"/>
			
				<rect x="1.43" y="33.49" style="clip-path:url(#SVGID_00000122683964703498203380000006183630265378095503_);fill:#EBB798;" width="34.27" height="0.23"/>
			
				<rect x="1.43" y="33.26" style="clip-path:url(#SVGID_00000122683964703498203380000006183630265378095503_);fill:#EBB697;" width="34.27" height="0.23"/>
			
				<rect x="1.43" y="33.03" style="clip-path:url(#SVGID_00000122683964703498203380000006183630265378095503_);fill:#EBB596;" width="34.27" height="0.23"/>
			
				<rect x="1.43" y="32.8" style="clip-path:url(#SVGID_00000122683964703498203380000006183630265378095503_);fill:#EBB495;" width="34.27" height="0.23"/>
			
				<rect x="1.43" y="32.57" style="clip-path:url(#SVGID_00000122683964703498203380000006183630265378095503_);fill:#EAB394;" width="34.27" height="0.23"/>
			
				<rect x="1.43" y="32.34" style="clip-path:url(#SVGID_00000122683964703498203380000006183630265378095503_);fill:#EAB293;" width="34.27" height="0.23"/>
			
				<rect x="1.43" y="32.11" style="clip-path:url(#SVGID_00000122683964703498203380000006183630265378095503_);fill:#EAB292;" width="34.27" height="0.23"/>
			
				<rect x="1.43" y="31.88" style="clip-path:url(#SVGID_00000122683964703498203380000006183630265378095503_);fill:#EAB191;" width="34.27" height="0.23"/>
			
				<rect x="1.43" y="31.64" style="clip-path:url(#SVGID_00000122683964703498203380000006183630265378095503_);fill:#E9B090;" width="34.27" height="0.23"/>
			
				<rect x="1.43" y="31.41" style="clip-path:url(#SVGID_00000122683964703498203380000006183630265378095503_);fill:#E9AF8F;" width="34.27" height="0.23"/>
			
				<rect x="1.43" y="31.18" style="clip-path:url(#SVGID_00000122683964703498203380000006183630265378095503_);fill:#E9AE8E;" width="34.27" height="0.23"/>
			
				<rect x="1.43" y="30.95" style="clip-path:url(#SVGID_00000122683964703498203380000006183630265378095503_);fill:#E9AD8D;" width="34.27" height="0.23"/>
			
				<rect x="1.43" y="30.72" style="clip-path:url(#SVGID_00000122683964703498203380000006183630265378095503_);fill:#E8AC8C;" width="34.27" height="0.23"/>
			
				<rect x="1.43" y="30.49" style="clip-path:url(#SVGID_00000122683964703498203380000006183630265378095503_);fill:#E8AC8B;" width="34.27" height="0.23"/>
			
				<rect x="1.43" y="30.26" style="clip-path:url(#SVGID_00000122683964703498203380000006183630265378095503_);fill:#E8AB8A;" width="34.27" height="0.23"/>
			
				<rect x="1.43" y="30.03" style="clip-path:url(#SVGID_00000122683964703498203380000006183630265378095503_);fill:#E7AA89;" width="34.27" height="0.23"/>
			
				<rect x="1.43" y="29.8" style="clip-path:url(#SVGID_00000122683964703498203380000006183630265378095503_);fill:#E7A988;" width="34.27" height="0.23"/>
			
				<rect x="1.43" y="29.57" style="clip-path:url(#SVGID_00000122683964703498203380000006183630265378095503_);fill:#E7A887;" width="34.27" height="0.23"/>
			
				<rect x="1.43" y="29.34" style="clip-path:url(#SVGID_00000122683964703498203380000006183630265378095503_);fill:#E7A786;" width="34.27" height="0.23"/>
			
				<rect x="1.43" y="29.11" style="clip-path:url(#SVGID_00000122683964703498203380000006183630265378095503_);fill:#E6A685;" width="34.27" height="0.23"/>
			
				<rect x="1.43" y="28.88" style="clip-path:url(#SVGID_00000122683964703498203380000006183630265378095503_);fill:#E6A684;" width="34.27" height="0.23"/>
			
				<rect x="1.43" y="28.65" style="clip-path:url(#SVGID_00000122683964703498203380000006183630265378095503_);fill:#E6A583;" width="34.27" height="0.23"/>
			
				<rect x="1.43" y="28.42" style="clip-path:url(#SVGID_00000122683964703498203380000006183630265378095503_);fill:#E6A482;" width="34.27" height="0.23"/>
			
				<rect x="1.43" y="28.19" style="clip-path:url(#SVGID_00000122683964703498203380000006183630265378095503_);fill:#E5A381;" width="34.27" height="0.23"/>
			
				<rect x="1.43" y="27.96" style="clip-path:url(#SVGID_00000122683964703498203380000006183630265378095503_);fill:#E5A280;" width="34.27" height="0.23"/>
			
				<rect x="1.43" y="27.73" style="clip-path:url(#SVGID_00000122683964703498203380000006183630265378095503_);fill:#E5A17F;" width="34.27" height="0.23"/>
			
				<rect x="1.43" y="27.5" style="clip-path:url(#SVGID_00000122683964703498203380000006183630265378095503_);fill:#E5A17E;" width="34.27" height="0.23"/>
			
				<rect x="1.43" y="27.26" style="clip-path:url(#SVGID_00000122683964703498203380000006183630265378095503_);fill:#E4A07D;" width="34.27" height="0.23"/>
			
				<rect x="1.43" y="27.03" style="clip-path:url(#SVGID_00000122683964703498203380000006183630265378095503_);fill:#E49F7C;" width="34.27" height="0.23"/>
			
				<rect x="1.43" y="26.8" style="clip-path:url(#SVGID_00000122683964703498203380000006183630265378095503_);fill:#E49E7B;" width="34.27" height="0.23"/>
			
				<rect x="1.43" y="26.57" style="clip-path:url(#SVGID_00000122683964703498203380000006183630265378095503_);fill:#E49D7A;" width="34.27" height="0.23"/>
			
				<rect x="1.43" y="26.34" style="clip-path:url(#SVGID_00000122683964703498203380000006183630265378095503_);fill:#E39C79;" width="34.27" height="0.23"/>
			
				<rect x="1.43" y="26.11" style="clip-path:url(#SVGID_00000122683964703498203380000006183630265378095503_);fill:#E39B78;" width="34.27" height="0.23"/>
			
				<rect x="1.43" y="25.88" style="clip-path:url(#SVGID_00000122683964703498203380000006183630265378095503_);fill:#E39B77;" width="34.27" height="0.23"/>
			
				<rect x="1.43" y="25.65" style="clip-path:url(#SVGID_00000122683964703498203380000006183630265378095503_);fill:#E39A76;" width="34.27" height="0.23"/>
			
				<rect x="1.43" y="25.42" style="clip-path:url(#SVGID_00000122683964703498203380000006183630265378095503_);fill:#E29975;" width="34.27" height="0.23"/>
			
				<rect x="1.43" y="25.19" style="clip-path:url(#SVGID_00000122683964703498203380000006183630265378095503_);fill:#E29874;" width="34.27" height="0.23"/>
			
				<rect x="1.43" y="24.31" style="clip-path:url(#SVGID_00000122683964703498203380000006183630265378095503_);fill:#E29874;" width="34.27" height="0.88"/>
		</g>
	</g>
</g>
</svg>
